<?xml version="1.0" standalone="no"?>
<!DOCTYPE svg PUBLIC "-//W3C//DTD SVG 20010904//EN"
 "http://www.w3.org/TR/2001/REC-SVG-20010904/DTD/svg10.dtd">
<svg version="1.0" xmlns="http://www.w3.org/2000/svg"
 width="252.000000pt" height="252.000000pt" viewBox="0 0 252.000000 252.000000"
 preserveAspectRatio="xMidYMid meet">
<metadata>
Created by potrace 1.11, written by Peter Selinger 2001-2013
</metadata>
<g transform="translate(0.000000,252.000000) scale(0.100000,-0.100000)"
fill="#000000" stroke="none">
<path d="M1227 2500 c-14 -11 -36 -36 -48 -56 -12 -20 -24 -32 -28 -27 -25 36
-139 78 -187 68 -44 -8 -92 -57 -100 -102 -6 -31 -14 -38 -83 -71 -42 -20 -78
-39 -81 -42 -3 -3 -29 -21 -58 -39 -75 -47 -105 -73 -203 -174 l-86 -88 -6 29
c-7 35 -31 62 -56 62 -9 0 -61 -45 -115 -100 -88 -90 -97 -103 -91 -128 9 -36
18 -44 54 -46 46 -1 42 -36 -9 -70 -36 -24 -40 -30 -40 -69 0 -93 53 -219 104
-246 l26 -14 -49 -17 c-71 -24 -116 -62 -147 -125 -22 -47 -26 -64 -21 -109
12 -120 98 -204 214 -209 41 -2 42 -2 23 -22 -55 -58 -64 -163 -22 -250 97
-203 326 -391 588 -484 48 -17 88 -32 89 -34 1 -1 11 -18 23 -38 12 -21 34
-44 48 -54 42 -28 114 -20 167 17 15 11 21 9 40 -14 55 -65 137 -64 182 2 l19
28 41 -24 c84 -49 172 -21 211 67 8 17 25 29 53 37 22 7 71 27 108 44 38 17
70 32 73 32 37 8 211 135 275 201 170 174 226 316 167 428 -14 26 -29 47 -34
47 -4 0 -8 4 -8 9 0 5 12 8 28 6 115 -10 233 109 232 234 0 42 -30 113 -62
148 -27 29 -81 58 -125 67 l-32 7 33 30 c34 29 71 101 80 155 20 114 19 117
-24 148 -27 20 -40 38 -40 53 0 20 4 23 26 19 36 -7 68 27 59 62 -8 34 -183
212 -204 208 -39 -8 -51 -20 -57 -58 l-7 -40 -36 43 c-100 120 -246 236 -380
300 -78 38 -91 48 -97 74 -9 41 -40 82 -76 101 -41 21 -97 12 -165 -26 -29
-17 -55 -30 -58 -30 -2 0 -12 14 -20 31 -20 38 -51 69 -69 69 -7 0 -25 -9 -39
-20z m196 -554 c56 -16 181 -77 202 -97 6 -6 -20 -10 -75 -10 -47 0 -92 0
-100 0 -8 -1 -62 -1 -120 0 -58 0 -112 0 -120 0 -8 0 -72 0 -142 1 -70 1 -131
-1 -135 -3 -5 -2 -17 -1 -28 3 -17 6 -15 10 20 32 52 32 162 76 211 84 22 3
40 7 42 9 10 9 197 -5 245 -19z m-656 -686 c0 -264 2 -482 4 -484 2 -2 81 -52
174 -111 193 -123 202 -129 160 -119 -196 45 -388 163 -559 342 -43 45 -71 65
-100 73 -23 6 -47 13 -54 15 -9 2 -7 9 7 23 39 39 55 84 55 151 0 78 -25 133
-81 179 -31 25 -34 31 -17 31 65 0 200 113 277 233 10 16 26 36 35 45 9 10 33
37 52 60 19 23 37 42 41 42 3 0 6 -216 6 -480z m1128 315 c96 -131 199 -214
267 -215 21 -1 19 -4 -14 -31 -62 -51 -82 -93 -83 -174 0 -59 4 -77 28 -117
15 -27 32 -48 37 -48 6 0 10 -4 10 -10 0 -5 -15 -10 -32 -10 -46 0 -82 -25
-179 -121 -123 -122 -256 -211 -394 -264 -58 -22 -138 -45 -143 -40 -2 2 31
25 72 52 42 26 124 78 181 115 l105 68 0 482 0 483 43 -45 c24 -25 70 -81 102
-125z"/>
<path d="M1959 197 c-9 -7 -19 -22 -23 -33 -13 -42 34 -103 65 -83 11 7 9 9
-8 9 -19 0 -21 4 -14 22 12 33 28 33 36 -1 4 -17 11 -31 16 -31 6 0 7 9 3 23
-10 31 -11 87 -2 87 5 0 13 -12 19 -27 8 -19 13 -23 17 -14 6 19 -43 61 -71
61 -12 0 -29 -6 -38 -13z m58 -3 c-3 -3 -12 -4 -19 -1 -8 3 -5 6 6 6 11 1 17
-2 13 -5z m-45 -44 c-4 -42 -16 -53 -24 -22 -6 20 7 62 19 62 5 0 7 -18 5 -40z
m38 15 c0 -8 -4 -15 -9 -15 -13 0 -22 16 -14 24 11 11 23 6 23 -9z"/>
<path d="M2046 115 c-3 -8 -1 -15 3 -15 5 0 11 7 15 15 3 8 1 15 -3 15 -5 0
-11 -7 -15 -15z"/>
</g>
</svg>
