<?xml version="1.0" standalone="no"?>
<!DOCTYPE svg PUBLIC "-//W3C//DTD SVG 1.1//EN" "http://www.w3.org/Graphics/SVG/1.1/DTD/svg11.dtd" >
<svg xmlns="http://www.w3.org/2000/svg" xmlns:xlink="http://www.w3.org/1999/xlink" version="1.1">
<metadata>
Created by FontForge 20150824 at Mon Oct 24 06:35:23 2016
 By Everything Fonts
Copyright 2011 Eduardo Tunni (www.tipo.net.ar)
</metadata>
<defs>
<font id="ChangaLight" horiz-adv-x="0" >
  <font-face 
    font-family="ChangaLight"
    font-weight="300"
    font-stretch="normal"
    units-per-em="1000"
    panose-1="0 0 4 0 0 0 0 0 0 0"
    ascent="800"
    descent="-200"
    x-height="500"
    cap-height="625"
    bbox="-598 -541 1726 1222"
    underline-thickness="50"
    underline-position="-150"
    unicode-range="U+0020-FEFC"
  />
<missing-glyph horiz-adv-x="690" 
 />
    <glyph glyph-name="f_f" unicode="ff" horiz-adv-x="656" 
d="M54 0zM208 612v-112h84v-57h-84v-443h-80v443h-74v57h74q4 70 15 107t32.5 52.5t61.5 15.5q48 0 88 -10l-5 -62zM536 612v-112h84v-57h-84v-443h-80v443h-74v57h74q4 70 15 107t32.5 52.5t61.5 15.5q48 0 88 -10l-5 -62z" />
    <glyph glyph-name="fi" unicode="fi" horiz-adv-x="604" 
d="M54 0zM208 612v-112h84v-57h-84v-443h-80v443h-74v57h74q4 70 15 107t32.5 52.5t61.5 15.5q48 0 88 -10l-5 -62zM506 510v-510h-80v497zM425 606.5q-11 10.5 -11 40.5q0 31 11 42t42 11q30 0 40.5 -11t10.5 -42q0 -30 -10 -40.5t-41 -10.5t-42 10.5z" />
    <glyph glyph-name="fl" unicode="fl" horiz-adv-x="591" 
d="M54 0zM208 612v-112h84v-57h-84v-443h-80v443h-74v57h74q4 70 15 107t32.5 52.5t61.5 15.5q48 0 88 -10l-5 -62zM545 56l-5 -55q-30 -10 -57 -10q-63 0 -63 68v591l80 15v-605z" />
    <glyph glyph-name="f_f_i" unicode="ffi" horiz-adv-x="932" 
d="M54 0zM208 612v-112h84v-57h-84v-443h-80v443h-74v57h74q4 70 15 107t32.5 52.5t61.5 15.5q48 0 88 -10l-5 -62zM536 612v-112h84v-57h-84v-443h-80v443h-74v57h74q4 70 15 107t32.5 52.5t61.5 15.5q48 0 88 -10l-5 -62zM834 510v-510h-80v497zM753 606.5
q-11 10.5 -11 40.5q0 31 11 42t42 11q30 0 40.5 -11t10.5 -42q0 -30 -10 -40.5t-41 -10.5t-42 10.5z" />
    <glyph glyph-name="f_f_l" unicode="ffl" horiz-adv-x="919" 
d="M54 0zM208 612v-112h84v-57h-84v-443h-80v443h-74v57h74q4 70 15 107t32.5 52.5t61.5 15.5q48 0 88 -10l-5 -62zM536 612v-112h84v-57h-84v-443h-80v443h-74v57h74q4 70 15 107t32.5 52.5t61.5 15.5q48 0 88 -10l-5 -62zM873 56l-5 -55q-30 -10 -57 -10q-63 0 -63 68v591
l80 15v-605z" />
    <glyph glyph-name="uniFDF2" unicode="&#x627;&#xfedf;&#xfee0;&#xfeea;" horiz-adv-x="1514" arabic-form="isolated" 
d="M1109 1024l-47 -12v198l47 12v-198zM1242 980l1 -194l-255 -69q-10 -3 -20 -3q-20 0 -29 19t-9 61q0 27 3.5 56.5t9.5 50.5l53 8q-9 -49 -9 -93q0 -32 6 -56l78 20q-8 17 -8 71v73l47 13v-145l77 19v148zM1068 630h64v-630h-847q-87 0 -127 17t-54 65t-14 153t14 153
t54 65t127 17h239v-398h232v558h64v-558h248v558zM1408 630v-630h-64v630h64zM460 398h-226q-41 0 -58.5 -14t-17.5 -47v-204q0 -33 17.5 -47t58.5 -14h226v326z" />
    <glyph glyph-name="uniFEF5" unicode="&#xfedf;&#xfe82;" horiz-adv-x="627" arabic-form="isolated" 
d="M62 0zM526 226.5q19 -33.5 19 -75.5q0 -87 -60.5 -126.5t-194.5 -39.5q-85 0 -131.5 13t-66 42t-19.5 82q0 47 11.5 73t41 45.5t91.5 43.5l100 38l-217 175l41 51l248 -199l68 26v255h64v-209q0 -91 -63 -114v-7q49 -40 68 -73.5zM445 82q32 25 32 62q0 24 -12.5 48
t-34.5 43l-49 38l-240 -90v-126h209q63 0 95 25zM167 694.5q-10 6.5 -37 32.5l-56 -26l-12 25q42 29 59.5 38.5t29.5 9.5q8 0 15 -5t21.5 -18t20.5 -18l56 26l12 -25q-36 -25 -55.5 -35.5t-31.5 -10.5t-22 6.5z" />
    <glyph glyph-name="uniFEF6" unicode="&#xfee0;&#xfe82;" horiz-adv-x="624" arabic-form="final" 
d="M20 0zM644 72v-72h-624v72h163l-41 473h64l41 -473h207v558h64v-558h126zM170 694.5q-10 6.5 -37 32.5l-56 -26l-12 25q42 29 59.5 38.5t29.5 9.5q8 0 15 -5t21.5 -18t20.5 -18l56 26l12 -25q-36 -25 -55.5 -35.5t-31.5 -10.5t-22 6.5z" />
    <glyph glyph-name="uniFEF7" unicode="&#xfedf;&#xfe84;" horiz-adv-x="627" arabic-form="isolated" 
d="M58 0zM526 226.5q19 -33.5 19 -75.5q0 -87 -60.5 -126.5t-194.5 -39.5q-85 0 -131.5 13t-66 42t-19.5 82q0 47 11.5 73t41 45.5t91.5 43.5l100 38l-217 175l41 51l248 -199l68 26v255h64v-209q0 -91 -63 -114v-7q49 -40 68 -73.5zM445 82q32 25 32 62q0 24 -12.5 48
t-34.5 43l-49 38l-240 -90v-126h209q63 0 95 25zM284 755v-41l-226 -60v40l46 13q-14 26 -14 79q0 80 43.5 110t127.5 28v-50q-30 0 -61 -6.5t-50 -18.5l-2 -97q0 -13 5 -19t17 -6t27 4z" />
    <glyph glyph-name="uniFEF8" unicode="&#xfee0;&#xfe84;" horiz-adv-x="624" arabic-form="final" 
d="M20 0zM644 72v-72h-624v72h163l-41 473h64l41 -473h207v558h64v-558h126zM287 755v-41l-226 -60v40l46 13q-14 26 -14 79q0 80 43.5 110t127.5 28v-50q-30 0 -61 -6.5t-50 -18.5l-2 -97q0 -13 5 -19t17 -6t27 4z" />
    <glyph glyph-name="uniFEF9" unicode="&#xfedf;&#xfe88;" horiz-adv-x="627" arabic-form="isolated" 
d="M2 0zM526 226.5q19 -33.5 19 -75.5q0 -87 -60.5 -126.5t-194.5 -39.5q-85 0 -131.5 13t-66 42t-19.5 82q0 47 11.5 73t41 45.5t91.5 43.5l100 38l-217 175l41 51l248 -199l68 26v255h64v-209q0 -91 -63 -114v-7q49 -40 68 -73.5zM445 82q32 25 32 62q0 24 -12.5 48
t-34.5 43l-49 38l-240 -90v-126h209q63 0 95 25zM228 -249v-41l-226 -60v40l46 13q-14 26 -14 79q0 80 43.5 110t127.5 28v-50q-30 0 -61 -6.5t-50 -18.5l-2 -97q0 -13 5 -19t17 -6t27 4z" />
    <glyph glyph-name="uniFEFA" unicode="&#xfee0;&#xfe88;" horiz-adv-x="624" arabic-form="final" 
d="M20 0zM644 72v-72h-624v72h163l-41 473h64l41 -473h207v558h64v-558h126zM337 -249v-41l-226 -60v40l46 13q-14 26 -14 79q0 80 43.5 110t127.5 28v-50q-30 0 -61 -6.5t-50 -18.5l-2 -97q0 -13 5 -19t17 -6t27 4z" />
    <glyph glyph-name="uniFEFB" unicode="&#xfedf;&#xfe8e;" horiz-adv-x="627" arabic-form="isolated" 
d="M526 226.5q19 -33.5 19 -75.5q0 -87 -60.5 -126.5t-194.5 -39.5q-85 0 -131.5 13t-66 42t-19.5 82q0 47 11.5 73t41 45.5t91.5 43.5l100 38l-217 175l41 51l248 -199l68 26v255h64v-209q0 -91 -63 -114v-7q49 -40 68 -73.5zM445 82q32 25 32 62q0 24 -12.5 48t-34.5 43
l-49 38l-240 -90v-126h209q63 0 95 25z" />
    <glyph glyph-name="uniFEFC" unicode="&#xfee0;&#xfe8e;" horiz-adv-x="624" arabic-form="final" 
d="M644 72v-72h-624v72h163l-41 473h64l41 -473h207v558h64v-558h126z" />
    <glyph glyph-name="uni06440671" unicode="&#xfedf;&#xfb51;" horiz-adv-x="627" 
d="M20 0zM526 226.5q19 -33.5 19 -75.5q0 -87 -60.5 -126.5t-194.5 -39.5q-85 0 -131.5 13t-66 42t-19.5 82q0 47 11.5 73t41 45.5t91.5 43.5l100 38l-217 175l41 51l248 -199l68 26v255h64v-209q0 -91 -63 -114v-7q49 -40 68 -73.5zM445 82q32 25 32 62q0 24 -12.5 48
t-34.5 43l-49 38l-240 -90v-126h209q63 0 95 25zM272 879q20 -16 20 -56v-158h-272v40h30q3 90 40.5 140t109.5 50q52 0 72 -16zM244 705v146q-14 5 -44 5q-51 0 -75.5 -36.5t-26.5 -114.5h146z" />
    <glyph glyph-name="uni06440671.fina" unicode="&#xfee0;&#xfb51;" horiz-adv-x="624" 
d="M20 0zM644 72v-72h-624v72h163l-41 473h64l41 -473h207v558h64v-558h126zM275 879q20 -16 20 -56v-158h-272v40h30q3 90 40.5 140t109.5 50q52 0 72 -16zM247 705v146q-14 5 -44 5q-51 0 -75.5 -36.5t-26.5 -114.5h146z" />
    <glyph glyph-name="uni066E.init" unicode="&#x66e;" horiz-adv-x="312" 
d="M-20 72h162v398h64v-470h-226v72z" />
    <glyph glyph-name="uni066E.medi" unicode="&#x66e;" horiz-adv-x="312" 
d="M332 72v-72h-352v72h162v398h64v-398h126z" />
    <glyph glyph-name="uni066E.fina" unicode="&#x66e;" horiz-adv-x="876" 
d="M896 72v-72h-690q-50 0 -78.5 19.5t-41 63t-12.5 120.5q0 44 7.5 93t19.5 80l61 -11q-24 -84 -24 -153q0 -89 17 -140h551v398h64v-398h126z" />
    <glyph glyph-name="uni066F.fina" unicode="&#x66f;" horiz-adv-x="870" 
d="M890 72v-72h-126v-107q0 -57 -13 -89t-43 -46t-82 -14h-432q-50 0 -78.5 22.5t-41 73.5t-12.5 141q0 53 7.5 111.5t19.5 95.5l61 -11q-24 -102 -24 -187q0 -105 17 -174h557v184h-209q-55 0 -82 19.5t-37.5 69t-10.5 149.5q0 104 15.5 153.5t57 68.5t127.5 19
q62 0 107.5 -6.5t95.5 -22.5v-378h126zM690 83.5q10 11.5 10 40.5v283h-228q-26 0 -34.5 -11.5t-8.5 -46.5v-277h223q28 0 38 11.5z" />
    <glyph glyph-name="uni06A1.init" unicode="&#x6a1;" horiz-adv-x="644" 
d="M143 72q-8 56 -8 180q0 95 15.5 142t57.5 66t127 19q52 0 97.5 -6.5t105.5 -22.5v-450h-558v72h163zM464 83.5q10 11.5 10 40.5v281h-224q-28 0 -37.5 -12t-9.5 -47v-274h223q28 0 38 11.5z" />
    <glyph glyph-name="uni06A1.medi" unicode="&#x6a1;" horiz-adv-x="644" 
d="M664 72v-72h-684v72h163q-8 56 -8 180q0 95 15.5 142t57.5 66t127 19q52 0 97.5 -6.5t105.5 -22.5v-378h126zM474 405h-224q-28 0 -37.5 -12t-9.5 -47v-274h223q28 0 38 11.5t10 40.5v281z" />
    <glyph glyph-name="uni06A1.fina" unicode="&#x6a1;" horiz-adv-x="976" 
d="M996 72v-72h-790q-50 0 -78.5 19.5t-41 63t-12.5 120.5q0 44 7.5 93t19.5 80l61 -11q-24 -84 -24 -153q0 -89 17 -140h320q-8 56 -8 180q0 95 15.5 142t57 66t127.5 19q52 0 97.5 -6.5t105.5 -22.5v-378h126zM806 405h-224q-28 0 -37.5 -11.5t-9.5 -46.5v-275h223
q28 0 38 11.5t10 40.5v281z" />
    <glyph glyph-name="uni06C2.fina" unicode="&#x6c2;" horiz-adv-x="614" 
d="M90 0zM634 72v-72h-349q-87 0 -127 17t-54 65t-14 153t14 153t54 65t127 17h239v-398h110zM460 398h-226q-41 0 -58.5 -14t-17.5 -47v-204q0 -33 17.5 -47t58.5 -14h226v326zM416 680v-41l-226 -60v40l46 13q-14 26 -14 79q0 80 43.5 110t127.5 28v-50q-30 0 -61 -6.5
t-50 -18.5l-2 -97q0 -13 5 -19t17 -6t27 4z" />
    <glyph glyph-name="uni06C3.fina" unicode="&#x6c3;" horiz-adv-x="648" 
d="M102 0zM667 72v-72h-190v395q-77 12 -146 12q-104 0 -165 -12v-395h-64v346q0 51 19 79.5t64.5 41t129.5 12.5q61 0 129.5 -8.5t97.5 -20.5l-1 -7v-371h126zM232 608q-18 18 -18 32t17.5 31t31.5 18q14 -1 31.5 -18t17.5 -31t-18 -32t-31 -17q-13 -1 -31 17zM366 608
q-18 18 -18 32t17.5 31t31.5 18q14 -1 31.5 -18t17.5 -31t-18 -32t-31 -17q-13 -1 -31 17z" />
    <glyph glyph-name="uniFB51" unicode="&#x671;" horiz-adv-x="276" arabic-form="final" 
d="M0 0zM106 470h64v-398h126v-72h-190v470zM239 804q20 -16 20 -56v-158h-272v40h30q3 90 40.5 140t109.5 50q52 0 72 -16zM211 630v146q-14 5 -44 5q-51 0 -75.5 -36.5t-26.5 -114.5h146z" />
    <glyph glyph-name="uniFB57" unicode="&#x67e;" horiz-adv-x="876" arabic-form="final" 
d="M74 0zM896 72v-72h-690q-50 0 -78.5 19.5t-41 63t-12.5 120.5q0 44 7.5 93t19.5 80l61 -11q-24 -84 -24 -153q0 -89 17 -140h551v398h64v-398h126zM403 -316q-18 18 -18 32t17.5 31t31.5 18q14 -1 31.5 -18t17.5 -31t-18 -32t-31 -17q-13 -1 -31 17zM336 -177
q-18 18 -18 32t17.5 31t31.5 18q14 -1 31.5 -18t17.5 -31t-18 -32t-31 -17q-13 -1 -31 17zM470 -177q-18 18 -18 32t17.5 31t31.5 18q14 -1 31.5 -18t17.5 -31t-18 -32t-31 -17q-13 -1 -31 17z" />
    <glyph glyph-name="uniFB58" unicode="&#x67e;" horiz-adv-x="312" arabic-form="initial" 
d="M0 0zM-20 72h162v398h64v-470h-226v72zM77 -287q-18 18 -18 32t17.5 31t31.5 18q14 -1 31.5 -18t17.5 -31t-18 -32t-31 -17q-13 -1 -31 17zM10 -148q-18 18 -18 32t17.5 31t31.5 18q14 -1 31.5 -18t17.5 -31t-18 -32t-31 -17q-13 -1 -31 17zM144 -148q-18 18 -18 32
t17.5 31t31.5 18q14 -1 31.5 -18t17.5 -31t-18 -32t-31 -17q-13 -1 -31 17z" />
    <glyph glyph-name="uniFB59" unicode="&#x67e;" horiz-adv-x="312" arabic-form="medial" 
d="M0 0zM332 72v-72h-352v72h162v398h64v-398h126zM142 -304q-18 18 -18 32t17.5 31t31.5 18q14 -1 31.5 -18t17.5 -31t-18 -32t-31 -17q-13 -1 -31 17zM75 -165q-18 18 -18 32t17.5 31t31.5 18q14 -1 31.5 -18t17.5 -31t-18 -32t-31 -17q-13 -1 -31 17zM209 -165
q-18 18 -18 32t17.5 31t31.5 18q14 -1 31.5 -18t17.5 -31t-18 -32t-31 -17q-13 -1 -31 17z" />
    <glyph glyph-name="uniFB67" unicode="&#x679;" horiz-adv-x="876" arabic-form="final" 
d="M74 0zM896 72v-72h-690q-50 0 -78.5 19.5t-41 63t-12.5 120.5q0 44 7.5 93t19.5 80l61 -11q-24 -84 -24 -153q0 -89 17 -140h551v398h64v-398h126zM541 684.5q16 -15.5 16 -56.5v-138h-274v40h30v233h48v-122q19 30 46 44.5t73 14.5q45 0 61 -15.5zM509 530v123
q-18 8 -44 8q-53 0 -78 -31.5t-26 -99.5h148z" />
    <glyph glyph-name="uniFB68" unicode="&#x679;" horiz-adv-x="312" arabic-form="initial" 
d="M0 0zM-20 72h162v398h64v-470h-226v72zM280 784.5q16 -15.5 16 -56.5v-138h-274v40h30v233h48v-122q19 30 46 44.5t73 14.5q45 0 61 -15.5zM248 630v123q-18 8 -44 8q-53 0 -78 -31.5t-26 -99.5h148z" />
    <glyph glyph-name="uniFB69" unicode="&#x679;" horiz-adv-x="312" arabic-form="medial" 
d="M0 0zM332 72v-72h-352v72h162v398h64v-398h126zM280 784.5q16 -15.5 16 -56.5v-138h-274v40h30v233h48v-122q19 30 46 44.5t73 14.5q45 0 61 -15.5zM248 630v123q-18 8 -44 8q-53 0 -78 -31.5t-26 -99.5h148z" />
    <glyph glyph-name="uniFB6B" unicode="&#x6a4;" horiz-adv-x="976" arabic-form="final" 
d="M74 0zM996 72v-72h-790q-50 0 -78.5 19.5t-41 63t-12.5 120.5q0 44 7.5 93t19.5 80l61 -11q-24 -84 -24 -153q0 -89 17 -140h320q-8 56 -8 180q0 95 15.5 142t57 66t127.5 19q52 0 97.5 -6.5t105.5 -22.5v-378h126zM806 405h-224q-28 0 -37.5 -11.5t-9.5 -46.5v-275h223
q28 0 38 11.5t10 40.5v281zM599 608q-18 18 -18 32t17.5 31t31.5 18q14 -1 31.5 -18t17.5 -31t-18 -32t-31 -17q-13 -1 -31 17zM733 608q-18 18 -18 32t17.5 31t31.5 18q14 -1 31.5 -18t17.5 -31t-18 -32t-31 -17q-13 -1 -31 17zM666 747q-18 18 -18 32t17.5 31t31.5 18
q14 -1 31.5 -18t17.5 -31t-18 -32t-31 -17q-13 -1 -31 17z" />
    <glyph glyph-name="uniFB6C" unicode="&#x6a4;" horiz-adv-x="644" arabic-form="initial" 
d="M0 0zM143 72q-8 56 -8 180q0 95 15.5 142t57.5 66t127 19q52 0 97.5 -6.5t105.5 -22.5v-450h-558v72h163zM464 83.5q10 11.5 10 40.5v281h-224q-28 0 -37.5 -12t-9.5 -47v-274h223q28 0 38 11.5zM237 608q-18 18 -18 32t17.5 31t31.5 18q14 -1 31.5 -18t17.5 -31t-18 -32
t-31 -17q-13 -1 -31 17zM371 608q-18 18 -18 32t17.5 31t31.5 18q14 -1 31.5 -18t17.5 -31t-18 -32t-31 -17q-13 -1 -31 17zM304 747q-18 18 -18 32t17.5 31t31.5 18q14 -1 31.5 -18t17.5 -31t-18 -32t-31 -17q-13 -1 -31 17z" />
    <glyph glyph-name="uniFB6D" unicode="&#x6a4;" horiz-adv-x="644" arabic-form="medial" 
d="M0 0zM664 72v-72h-684v72h163q-8 56 -8 180q0 95 15.5 142t57.5 66t127 19q52 0 97.5 -6.5t105.5 -22.5v-378h126zM474 405h-224q-28 0 -37.5 -12t-9.5 -47v-274h223q28 0 38 11.5t10 40.5v281zM237 608q-18 18 -18 32t17.5 31t31.5 18q14 -1 31.5 -18t17.5 -31t-18 -32
t-31 -17q-13 -1 -31 17zM371 608q-18 18 -18 32t17.5 31t31.5 18q14 -1 31.5 -18t17.5 -31t-18 -32t-31 -17q-13 -1 -31 17zM304 747q-18 18 -18 32t17.5 31t31.5 18q14 -1 31.5 -18t17.5 -31t-18 -32t-31 -17q-13 -1 -31 17z" />
    <glyph glyph-name="uniFB7B" unicode="&#x686;" horiz-adv-x="652" arabic-form="final" 
d="M672 72v-72h-43q-29 0 -45.5 13t-28.5 43l-48 126q-143 -3 -226.5 -22t-120.5 -58.5t-37 -106.5v-186q35 -8 76 -8q38 0 108 8l10 -66q-61 -14 -105 -14q-65 0 -99 20.5t-47 66t-13 129.5q0 108 42.5 171.5t136.5 92t254 29.5l-2 4q-27 64 -58 99t-77.5 50.5t-120.5 15.5
q-31 0 -73 -3l-11 70q57 5 97 5q83 0 139.5 -21t94.5 -66.5t67 -121.5l75 -198h55zM324 46q18 -18 18 -32t-18.5 -33t-31.5 -18q-14 -1 -32.5 17.5t-18.5 33.5q0 14 18 32t33 19q14 -1 32 -19zM464 46q18 -18 18 -32t-18.5 -33t-31.5 -18q-14 -1 -32.5 17.5t-18.5 33.5
q0 14 18 32t33 19q14 -1 32 -19zM394 -99q18 -18 18 -32t-18.5 -33t-31.5 -18q-14 -1 -32.5 17.5t-18.5 33.5q0 14 18 32t33 19q14 -1 32 -19z" />
    <glyph glyph-name="uniFB7C" unicode="&#x686;" horiz-adv-x="548" arabic-form="initial" 
d="M0 0zM548 258v-72h-81q-9 0 -21 2q-97 -188 -303 -188h-163v72h188q77 0 135.5 48.5t92.5 116.5l-2 5q-24 65 -55.5 100.5t-78.5 50t-122 14.5q-32 0 -73 -3l-11 70q60 5 97 5q84 0 141 -22t96 -70t68 -129h92zM228 -304q-18 18 -18 32t17.5 31t31.5 18q14 -1 31.5 -18
t17.5 -31t-18 -32t-31 -17q-13 -1 -31 17zM161 -165q-18 18 -18 32t17.5 31t31.5 18q14 -1 31.5 -18t17.5 -31t-18 -32t-31 -17q-13 -1 -31 17zM295 -165q-18 18 -18 32t17.5 31t31.5 18q14 -1 31.5 -18t17.5 -31t-18 -32t-31 -17q-13 -1 -31 17z" />
    <glyph glyph-name="uniFB7D" unicode="&#x686;" horiz-adv-x="562" arabic-form="medial" 
d="M0 0zM582 72v-72h-43q-29 0 -45.5 13t-28.5 43l-37 98q-91 -154 -267 -154h-181v72h218q68 0 118.5 48t79.5 116l-2 6q-27 64 -58.5 99.5t-78 50.5t-119.5 15q-32 0 -73 -3l-11 70q60 5 97 5q83 0 139.5 -21t95 -66.5t66.5 -121.5l75 -198h55zM222 -304q-18 18 -18 32
t17.5 31t31.5 18q14 -1 31.5 -18t17.5 -31t-18 -32t-31 -17q-13 -1 -31 17zM155 -165q-18 18 -18 32t17.5 31t31.5 18q14 -1 31.5 -18t17.5 -31t-18 -32t-31 -17q-13 -1 -31 17zM289 -165q-18 18 -18 32t17.5 31t31.5 18q14 -1 31.5 -18t17.5 -31t-18 -32t-31 -17
q-13 -1 -31 17z" />
    <glyph glyph-name="uniFB89" unicode="&#x688;" horiz-adv-x="483" arabic-form="final" 
d="M15 0zM503 72v-72h-483v72h361q-44 154 -74.5 225t-67.5 96.5t-101 25.5q-30 0 -68 -9l-17 70q44 11 85 11q92 0 136.5 -25.5t80.5 -107t97 -286.5h51zM273 784.5q16 -15.5 16 -56.5v-138h-274v40h30v233h48v-122q19 30 46 44.5t73 14.5q45 0 61 -15.5zM241 630v123
q-18 8 -44 8q-53 0 -78 -31.5t-26 -99.5h148z" />
    <glyph glyph-name="uniFB8B" unicode="&#x698;" horiz-adv-x="304" arabic-form="final" 
d="M30 0zM324 0h-125v-6q0 -93 -33 -152t-107 -96l-29 55q58 28 81.5 72t23.5 121v476h64v-398h125v-72zM68 608q-18 18 -18 32t17.5 31t31.5 18q14 -1 31.5 -18t17.5 -31t-18 -32t-31 -17q-13 -1 -31 17zM202 608q-18 18 -18 32t17.5 31t31.5 18q14 -1 31.5 -18t17.5 -31
t-18 -32t-31 -17q-13 -1 -31 17zM135 747q-18 18 -18 32t17.5 31t31.5 18q14 -1 31.5 -18t17.5 -31t-18 -32t-31 -17q-13 -1 -31 17z" />
    <glyph glyph-name="uniFB8D" unicode="&#x691;" horiz-adv-x="304" arabic-form="final" 
d="M14 0zM324 0h-125v-6q0 -93 -33 -152t-107 -96l-29 55q58 28 81.5 72t23.5 121v476h64v-398h125v-72zM272 784.5q16 -15.5 16 -56.5v-138h-274v40h30v233h48v-122q19 30 46 44.5t73 14.5q45 0 61 -15.5zM240 630v123q-18 8 -44 8q-53 0 -78 -31.5t-26 -99.5h148z" />
    <glyph glyph-name="uniFB8F" unicode="&#x6a9;" horiz-adv-x="834" arabic-form="final" 
d="M854 72v-72h-648q-50 0 -78.5 19.5t-41 63t-12.5 120.5q0 44 7.5 93t19.5 80l61 -11q-24 -84 -24 -153q0 -89 17 -140h509v248h-274q-89 0 -89 76q0 41 20.5 98.5t54 113.5t71.5 94l56 -29q-59 -65 -96.5 -137.5t-49.5 -143.5h279q53 0 72.5 -19.5t19.5 -72.5v-228h126z
" />
    <glyph glyph-name="uniFB90" unicode="&#x6a9;" horiz-adv-x="697" arabic-form="initial" 
d="M0 0zM-20 72h547v248h-350q-89 0 -89 76q0 41 20.5 98.5t54 113.5t71.5 94l56 -29q-59 -65 -96.5 -137.5t-49.5 -143.5h355q53 0 72.5 -19.5t19.5 -72.5v-300h-611v72z" />
    <glyph glyph-name="uniFB91" unicode="&#x6a9;" horiz-adv-x="697" arabic-form="medial" 
d="M0 0zM717 72v-72h-737v72h547v248h-350q-89 0 -89 76q0 41 20.5 98.5t54 113.5t71.5 94l56 -29q-59 -65 -96.5 -137.5t-49.5 -143.5h355q53 0 72.5 -19.5t19.5 -72.5v-228h126z" />
    <glyph glyph-name="uniFB93" unicode="&#x6af;" horiz-adv-x="834" arabic-form="final" 
d="M74 0zM854 72v-72h-648q-50 0 -78.5 19.5t-41 63t-12.5 120.5q0 44 7.5 93t19.5 80l61 -11q-24 -84 -24 -153q0 -89 17 -140h509v248h-274q-89 0 -89 76q0 41 20.5 98.5t54 113.5t71.5 94l56 -29q-59 -65 -96.5 -137.5t-49.5 -143.5h279q53 0 72.5 -19.5t19.5 -72.5v-228
h126zM228.5 638q-37.5 -80 -46.5 -153l61 -21q10 74 46.5 148t86.5 127l-57 29q-53 -50 -90.5 -130z" />
    <glyph glyph-name="uniFB94" unicode="&#x6af;" horiz-adv-x="697" arabic-form="initial" 
d="M0 0zM-20 72h547v248h-350q-89 0 -89 76q0 41 20.5 98.5t54 113.5t71.5 94l56 -29q-59 -65 -96.5 -137.5t-49.5 -143.5h355q53 0 72.5 -19.5t19.5 -72.5v-300h-611v72zM6.5 638q-37.5 -80 -46.5 -153l61 -21q10 74 46.5 148t86.5 127l-57 29q-53 -50 -90.5 -130z" />
    <glyph glyph-name="uniFB95" unicode="&#x6af;" horiz-adv-x="697" arabic-form="medial" 
d="M0 0zM717 72v-72h-737v72h547v248h-350q-89 0 -89 76q0 41 20.5 98.5t54 113.5t71.5 94l56 -29q-59 -65 -96.5 -137.5t-49.5 -143.5h355q53 0 72.5 -19.5t19.5 -72.5v-228h126zM6.5 638q-37.5 -80 -46.5 -153l61 -21q10 74 46.5 148t86.5 127l-57 29q-53 -50 -90.5 -130z
" />
    <glyph glyph-name="uniFB9F" unicode="&#x6ba;" horiz-adv-x="656" arabic-form="final" 
d="M676 72v-72h-126v-45q0 -83 -19.5 -123.5t-73 -56t-164.5 -15.5q-98 0 -144 17.5t-61.5 62.5t-15.5 139q0 63 8 133.5t21 116.5l59 -10q-24 -123 -24 -226q0 -100 13 -161h193q57 0 87.5 4.5t43.5 15.5t13 33v585h64v-398h126z" />
    <glyph glyph-name="uniFBA7" unicode="&#x6c1;" horiz-adv-x="648" arabic-form="final" 
d="M667 72v-72h-190v395q-77 12 -146 12q-104 0 -165 -12v-395h-64v346q0 51 19 79.5t64.5 41t129.5 12.5q61 0 129.5 -8.5t97.5 -20.5l-1 -7v-371h126z" />
    <glyph glyph-name="uniFBA8" unicode="&#x6c1;" horiz-adv-x="312" arabic-form="initial" 
d="M216.5 -80.5q6.5 -10.5 6.5 -34.5q0 -28 -10.5 -38.5t-37.5 -10.5q-24 0 -33.5 10.5t-9.5 38.5q0 16 20 67l22 48h-194v72h162v398h64v-470h-2l3 -1l-14 -66q17 -3 23.5 -13.5z" />
    <glyph glyph-name="uniFBA9" unicode="&#x6c1;" horiz-adv-x="644" arabic-form="medial" 
d="M666 0h-126v-242q0 -51 -14.5 -79.5t-50.5 -41t-102 -12.5q-52 0 -106 10t-94 29q-20 46 -32.5 107.5t-12.5 122.5v106h-148v72h214v-180q0 -85 32 -173q71 -15 131 -15q76 0 119 12v356h190v-72z" />
    <glyph glyph-name="uniFBAB" unicode="&#x6be;" horiz-adv-x="720" arabic-form="final" 
d="M740 71v-72h-102v1h-618v72h78q1 105 11.5 148t42.5 56.5t111 13.5q85 0 120 -14t46 -56.5t12 -147.5h160l-54 208q-20 73 -58.5 113.5t-98.5 56.5t-151 16l5 70q107 0 177 -19.5t115.5 -69.5t69.5 -142l60 -234h74zM154 72h231v166h-176q-31 0 -43 -9t-12 -32v-125z" />
    <glyph glyph-name="uniFBAC" unicode="&#x6be;" horiz-adv-x="720" arabic-form="initial" 
d="M0 0zM670 55v-55h-690v72h118q1 105 11.5 148t42.5 56.5t111 13.5q85 0 120 -14t46 -56.5t12 -147.5h160l-54 208q-20 73 -58.5 113.5t-98.5 56.5t-151 16l5 70q107 0 177 -19.5t115.5 -69.5t69.5 -142zM154 72h231v166h-176q-31 0 -43 -9t-12 -32v-125z" />
    <glyph glyph-name="uniFBAD" unicode="&#x6be;" horiz-adv-x="720" arabic-form="medial" 
d="M0 0zM740 71v-72h-100v1h-660v72h118q1 105 11.5 148t42.5 56.5t111 13.5q85 0 120 -14t46 -56.5t12 -147.5h160l-54 208q-20 73 -58.5 113.5t-98.5 56.5t-151 16l5 70q107 0 177 -19.5t115.5 -69.5t69.5 -142l60 -234h74zM154 72h231v166h-176q-31 0 -43 -9t-12 -32
v-125z" />
    <glyph glyph-name="uniFBAF" unicode="&#x6d2;" horiz-adv-x="677" arabic-form="final" 
d="M116 0v-147q0 -22 19.5 -33t66 -15.5t136.5 -4.5q96 0 148.5 4.5t134.5 19.5l11 -67q-43 -13 -117 -21t-141 -8q-138 0 -205 15t-92 54t-25 118v157h645v-72h-581z" />
    <glyph glyph-name="uniFBB1" unicode="&#x6d3;" horiz-adv-x="677" arabic-form="final" 
d="M52 0zM116 0v-147q0 -22 19.5 -33t66 -15.5t136.5 -4.5q96 0 148.5 4.5t134.5 19.5l11 -67q-43 -13 -117 -21t-141 -8q-138 0 -205 15t-92 54t-25 118v157h645v-72h-581zM418 321v-41l-226 -60v40l46 13q-14 26 -14 79q0 80 43.5 110t127.5 28v-50q-30 0 -61 -6.5
t-50 -18.5l-2 -97q0 -13 5 -19t17 -6t27 4z" />
    <glyph glyph-name="uniFBFD" unicode="&#x6cc;" horiz-adv-x="856" arabic-form="final" 
d="M72 0zM876 72v-72h-126v-89q0 -76 -27.5 -114t-103 -53.5t-229.5 -15.5q-144 0 -205.5 9.5t-87 46t-25.5 121.5q0 60 8 126t21 108l63 -11q-28 -130 -28 -203q0 -40 3 -68t10 -57h283q103 0 156.5 4.5t75.5 15.5t22 33v147h-60q-49 0 -102.5 8t-87.5 21l11 67
q89 -24 167 -24h262z" />
    <glyph glyph-name="uniFBFE" unicode="&#x6cc;" horiz-adv-x="312" arabic-form="initial" 
d="M0 0zM-20 72h162v398h64v-470h-226v72zM11 -138q-18 18 -18 32t17.5 31t31.5 18q14 -1 31.5 -18t17.5 -31t-18 -32t-31 -17q-13 -1 -31 17zM145 -138q-18 18 -18 32t17.5 31t31.5 18q14 -1 31.5 -18t17.5 -31t-18 -32t-31 -17q-13 -1 -31 17z" />
    <glyph glyph-name="uniFBFF" unicode="&#x6cc;" horiz-adv-x="312" arabic-form="medial" 
d="M0 0zM332 72v-72h-352v72h162v398h64v-398h126zM70 -161q-18 18 -18 32t17.5 31t31.5 18q14 -1 31.5 -18t17.5 -31t-18 -32t-31 -17q-13 -1 -31 17zM204 -161q-18 18 -18 32t17.5 31t31.5 18q14 -1 31.5 -18t17.5 -31t-18 -32t-31 -17q-13 -1 -31 17z" />
    <glyph glyph-name="uniFC64" unicode="&#xfc64;" horiz-adv-x="636" arabic-form="final" 
d="M30 0zM656 72v-72h-190v398h-267v-404q0 -93 -33 -152t-107 -96l-29 55q58 28 81.5 72t23.5 121v476h395v-398h126zM611 680v-41l-226 -60v40l46 13q-14 26 -14 79q0 80 43.5 110t127.5 28v-50q-30 0 -61 -6.5t-50 -18.5l-2 -97q0 -13 5 -19t17 -6t27 4z" />
    <glyph glyph-name="uniFC65" unicode="&#xfc65;" horiz-adv-x="636" arabic-form="final" 
d="M30 0zM656 72v-72h-190v398h-267v-404q0 -93 -33 -152t-107 -96l-29 55q58 28 81.5 72t23.5 121v476h395v-398h126zM611 680v-41l-226 -60v40l46 13q-14 26 -14 79q0 80 43.5 110t127.5 28v-50q-30 0 -61 -6.5t-50 -18.5l-2 -97q0 -13 5 -19t17 -6t27 4zM136 608
q-18 18 -18 32t17.5 31t31.5 18q14 -1 31.5 -18t17.5 -31t-18 -32t-31 -17q-13 -1 -31 17z" />
    <glyph glyph-name="uniFC67" unicode="&#xfc67;" horiz-adv-x="987" arabic-form="final" 
d="M72 0zM285.5 633q-17.5 18 -17.5 32t17.5 31t31.5 18q14 -1 31.5 -18t17.5 -31t-18 -32t-31 -17q-14 -1 -31.5 17zM1007 72v-72h-190v398h-267v-443q0 -83 -19.5 -123.5t-73 -56t-164.5 -15.5q-98 0 -144 17.5t-61.5 62.5t-15.5 139q0 63 8 133.5t21 116.5l59 -10
q-24 -123 -24 -226q0 -100 13 -161h193q57 0 87.5 4.5t43.5 15.5t13 33v585h395v-398h126zM965 680v-41l-226 -60v40l46 13q-14 26 -14 79q0 80 43.5 110t127.5 28v-50q-30 0 -61 -6.5t-50 -18.5l-2 -97q0 -13 5 -19t17 -6t27 4z" />
    <glyph glyph-name="uniFC68" unicode="&#xfc68;" horiz-adv-x="1120" arabic-form="final" 
d="M72 0zM1140 72v-72h-190v398h-499v-213l169 -18q52 -5 80 -25t39 -58t11 -104v-69q0 -76 -27.5 -114t-103 -53.5t-229.5 -15.5q-144 0 -205.5 9.5t-87 46t-25.5 121.5q0 60 8 126t21 108l63 -11q-28 -130 -28 -203q0 -40 3 -68t10 -57h283q103 0 156.5 4.5t75.5 15.5
t22 33v234l-142 18q-66 8 -100.5 27.5t-47.5 56t-13 102.5t15.5 104.5t51.5 56.5t100 18h464v-398h126zM1094 680v-41l-226 -60v40l46 13q-14 26 -14 79q0 80 43.5 110t127.5 28v-50q-30 0 -61 -6.5t-50 -18.5l-2 -97q0 -13 5 -19t17 -6t27 4z" />
    <glyph glyph-name="uniFC69" unicode="&#xfc69;" horiz-adv-x="1120" arabic-form="final" 
d="M72 0zM1140 72v-72h-190v398h-499v-213l169 -18q52 -5 80 -25t39 -58t11 -104v-69q0 -76 -27.5 -114t-103 -53.5t-229.5 -15.5q-144 0 -205.5 9.5t-87 46t-25.5 121.5q0 60 8 126t21 108l63 -11q-28 -130 -28 -203q0 -40 3 -68t10 -57h283q103 0 156.5 4.5t75.5 15.5
t22 33v234l-142 18q-66 8 -100.5 27.5t-47.5 56t-13 102.5t15.5 104.5t51.5 56.5t100 18h464v-398h126zM1094 680v-41l-226 -60v40l46 13q-14 26 -14 79q0 80 43.5 110t127.5 28v-50q-30 0 -61 -6.5t-50 -18.5l-2 -97q0 -13 5 -19t17 -6t27 4zM332 -411q-18 18 -18 32
t17.5 31t31.5 18q14 -1 31.5 -18t17.5 -31t-18 -32t-31 -17q-13 -1 -31 17zM466 -411q-18 18 -18 32t17.5 31t31.5 18q14 -1 31.5 -18t17.5 -31t-18 -32t-31 -17q-13 -1 -31 17z" />
    <glyph glyph-name="uniFC6A" unicode="&#xfc6a;" horiz-adv-x="636" arabic-form="final" 
d="M30 0zM656 72v-72h-190v398h-267v-404q0 -93 -33 -152t-107 -96l-29 55q58 28 81.5 72t23.5 121v476h395v-398h126zM467 -161q-18 18 -18 32t17.5 31t31.5 18q14 -1 31.5 -18t17.5 -31t-18 -32t-31 -17q-13 -1 -31 17z" />
    <glyph glyph-name="uniFC6B" unicode="&#xfc6b;" horiz-adv-x="636" arabic-form="final" 
d="M30 0zM656 72v-72h-190v398h-267v-404q0 -93 -33 -152t-107 -96l-29 55q58 28 81.5 72t23.5 121v476h395v-398h126zM467 -161q-18 18 -18 32t17.5 31t31.5 18q14 -1 31.5 -18t17.5 -31t-18 -32t-31 -17q-13 -1 -31 17zM136 608q-18 18 -18 32t17.5 31t31.5 18
q14 -1 31.5 -18t17.5 -31t-18 -32t-31 -17q-13 -1 -31 17z" />
    <glyph glyph-name="uniFC6D" unicode="&#xfc6d;" horiz-adv-x="987" arabic-form="final" 
d="M72 0zM285.5 633q-17.5 18 -17.5 32t17.5 31t31.5 18q14 -1 31.5 -18t17.5 -31t-18 -32t-31 -17q-14 -1 -31.5 17zM1007 72v-72h-190v398h-267v-443q0 -83 -19.5 -123.5t-73 -56t-164.5 -15.5q-98 0 -144 17.5t-61.5 62.5t-15.5 139q0 63 8 133.5t21 116.5l59 -10
q-24 -123 -24 -226q0 -100 13 -161h193q57 0 87.5 4.5t43.5 15.5t13 33v585h395v-398h126zM821 -161q-18 18 -18 32t17.5 31t31.5 18q14 -1 31.5 -18t17.5 -31t-18 -32t-31 -17q-13 -1 -31 17z" />
    <glyph glyph-name="uniFC6E" unicode="&#xfc6e;" horiz-adv-x="1120" arabic-form="final" 
d="M72 0zM1140 72v-72h-190v398h-499v-213l169 -18q52 -5 80 -25t39 -58t11 -104v-69q0 -76 -27.5 -114t-103 -53.5t-229.5 -15.5q-144 0 -205.5 9.5t-87 46t-25.5 121.5q0 60 8 126t21 108l63 -11q-28 -130 -28 -203q0 -40 3 -68t10 -57h283q103 0 156.5 4.5t75.5 15.5
t22 33v234l-142 18q-66 8 -100.5 27.5t-47.5 56t-13 102.5t15.5 104.5t51.5 56.5t100 18h464v-398h126zM951 -141q-18 18 -18 32t17.5 31t31.5 18q14 -1 31.5 -18t17.5 -31t-18 -32t-31 -17q-13 -1 -31 17z" />
    <glyph glyph-name="uniFC6F" unicode="&#xfc6f;" horiz-adv-x="1120" arabic-form="final" 
d="M72 0zM1140 72v-72h-190v398h-499v-213l169 -18q52 -5 80 -25t39 -58t11 -104v-69q0 -76 -27.5 -114t-103 -53.5t-229.5 -15.5q-144 0 -205.5 9.5t-87 46t-25.5 121.5q0 60 8 126t21 108l63 -11q-28 -130 -28 -203q0 -40 3 -68t10 -57h283q103 0 156.5 4.5t75.5 15.5
t22 33v234l-142 18q-66 8 -100.5 27.5t-47.5 56t-13 102.5t15.5 104.5t51.5 56.5t100 18h464v-398h126zM951 -141q-18 18 -18 32t17.5 31t31.5 18q14 -1 31.5 -18t17.5 -31t-18 -32t-31 -17q-13 -1 -31 17zM332 -411q-18 18 -18 32t17.5 31t31.5 18q14 -1 31.5 -18t17.5 -31
t-18 -32t-31 -17q-13 -1 -31 17zM466 -411q-18 18 -18 32t17.5 31t31.5 18q14 -1 31.5 -18t17.5 -31t-18 -32t-31 -17q-13 -1 -31 17z" />
    <glyph glyph-name="uniFC70" unicode="&#xfc70;" horiz-adv-x="636" arabic-form="final" 
d="M30 0zM656 72v-72h-190v398h-267v-404q0 -93 -33 -152t-107 -96l-29 55q58 28 81.5 72t23.5 121v476h395v-398h126zM400 608q-18 18 -18 32t17.5 31t31.5 18q14 -1 31.5 -18t17.5 -31t-18 -32t-31 -17q-13 -1 -31 17zM534 608q-18 18 -18 32t17.5 31t31.5 18
q14 -1 31.5 -18t17.5 -31t-18 -32t-31 -17q-13 -1 -31 17z" />
    <glyph glyph-name="uniFC71" unicode="&#xfc71;" horiz-adv-x="636" arabic-form="final" 
d="M30 0zM656 72v-72h-190v398h-267v-404q0 -93 -33 -152t-107 -96l-29 55q58 28 81.5 72t23.5 121v476h395v-398h126zM400 608q-18 18 -18 32t17.5 31t31.5 18q14 -1 31.5 -18t17.5 -31t-18 -32t-31 -17q-13 -1 -31 17zM534 608q-18 18 -18 32t17.5 31t31.5 18
q14 -1 31.5 -18t17.5 -31t-18 -32t-31 -17q-13 -1 -31 17zM136 608q-18 18 -18 32t17.5 31t31.5 18q14 -1 31.5 -18t17.5 -31t-18 -32t-31 -17q-13 -1 -31 17z" />
    <glyph glyph-name="uniFC73" unicode="&#xfc73;" horiz-adv-x="987" arabic-form="final" 
d="M72 0zM285.5 633q-17.5 18 -17.5 32t17.5 31t31.5 18q14 -1 31.5 -18t17.5 -31t-18 -32t-31 -17q-14 -1 -31.5 17zM1007 72v-72h-190v398h-267v-443q0 -83 -19.5 -123.5t-73 -56t-164.5 -15.5q-98 0 -144 17.5t-61.5 62.5t-15.5 139q0 63 8 133.5t21 116.5l59 -10
q-24 -123 -24 -226q0 -100 13 -161h193q57 0 87.5 4.5t43.5 15.5t13 33v585h395v-398h126zM754 608q-18 18 -18 32t17.5 31t31.5 18q14 -1 31.5 -18t17.5 -31t-18 -32t-31 -17q-13 -1 -31 17zM888 608q-18 18 -18 32t17.5 31t31.5 18q14 -1 31.5 -18t17.5 -31t-18 -32
t-31 -17q-13 -1 -31 17z" />
    <glyph glyph-name="uniFC74" unicode="&#xfc74;" horiz-adv-x="1120" arabic-form="final" 
d="M72 0zM1140 72v-72h-190v398h-499v-213l169 -18q52 -5 80 -25t39 -58t11 -104v-69q0 -76 -27.5 -114t-103 -53.5t-229.5 -15.5q-144 0 -205.5 9.5t-87 46t-25.5 121.5q0 60 8 126t21 108l63 -11q-28 -130 -28 -203q0 -40 3 -68t10 -57h283q103 0 156.5 4.5t75.5 15.5
t22 33v234l-142 18q-66 8 -100.5 27.5t-47.5 56t-13 102.5t15.5 104.5t51.5 56.5t100 18h464v-398h126zM883 608q-18 18 -18 32t17.5 31t31.5 18q14 -1 31.5 -18t17.5 -31t-18 -32t-31 -17q-13 -1 -31 17zM1017 608q-18 18 -18 32t17.5 31t31.5 18q14 -1 31.5 -18t17.5 -31
t-18 -32t-31 -17q-13 -1 -31 17z" />
    <glyph glyph-name="uniFC75" unicode="&#xfc75;" horiz-adv-x="1120" arabic-form="final" 
d="M72 0zM1140 72v-72h-190v398h-499v-213l169 -18q52 -5 80 -25t39 -58t11 -104v-69q0 -76 -27.5 -114t-103 -53.5t-229.5 -15.5q-144 0 -205.5 9.5t-87 46t-25.5 121.5q0 60 8 126t21 108l63 -11q-28 -130 -28 -203q0 -40 3 -68t10 -57h283q103 0 156.5 4.5t75.5 15.5
t22 33v234l-142 18q-66 8 -100.5 27.5t-47.5 56t-13 102.5t15.5 104.5t51.5 56.5t100 18h464v-398h126zM883 608q-18 18 -18 32t17.5 31t31.5 18q14 -1 31.5 -18t17.5 -31t-18 -32t-31 -17q-13 -1 -31 17zM1017 608q-18 18 -18 32t17.5 31t31.5 18q14 -1 31.5 -18t17.5 -31
t-18 -32t-31 -17q-13 -1 -31 17zM332 -411q-18 18 -18 32t17.5 31t31.5 18q14 -1 31.5 -18t17.5 -31t-18 -32t-31 -17q-13 -1 -31 17zM466 -411q-18 18 -18 32t17.5 31t31.5 18q14 -1 31.5 -18t17.5 -31t-18 -32t-31 -17q-13 -1 -31 17z" />
    <glyph glyph-name="uniFC76" unicode="&#xfc76;" horiz-adv-x="636" arabic-form="final" 
d="M30 0zM656 72v-72h-190v398h-267v-404q0 -93 -33 -152t-107 -96l-29 55q58 28 81.5 72t23.5 121v476h395v-398h126zM400 608q-18 18 -18 32t17.5 31t31.5 18q14 -1 31.5 -18t17.5 -31t-18 -32t-31 -17q-13 -1 -31 17zM534 608q-18 18 -18 32t17.5 31t31.5 18
q14 -1 31.5 -18t17.5 -31t-18 -32t-31 -17q-13 -1 -31 17zM467 747q-18 18 -18 32t17.5 31t31.5 18q14 -1 31.5 -18t17.5 -31t-18 -32t-31 -17q-13 -1 -31 17z" />
    <glyph glyph-name="uniFC77" unicode="&#xfc77;" horiz-adv-x="636" arabic-form="final" 
d="M30 0zM656 72v-72h-190v398h-267v-404q0 -93 -33 -152t-107 -96l-29 55q58 28 81.5 72t23.5 121v476h395v-398h126zM400 608q-18 18 -18 32t17.5 31t31.5 18q14 -1 31.5 -18t17.5 -31t-18 -32t-31 -17q-13 -1 -31 17zM534 608q-18 18 -18 32t17.5 31t31.5 18
q14 -1 31.5 -18t17.5 -31t-18 -32t-31 -17q-13 -1 -31 17zM467 747q-18 18 -18 32t17.5 31t31.5 18q14 -1 31.5 -18t17.5 -31t-18 -32t-31 -17q-13 -1 -31 17zM136 608q-18 18 -18 32t17.5 31t31.5 18q14 -1 31.5 -18t17.5 -31t-18 -32t-31 -17q-13 -1 -31 17z" />
    <glyph glyph-name="uniFC79" unicode="&#xfc79;" horiz-adv-x="987" arabic-form="final" 
d="M72 0zM285.5 633q-17.5 18 -17.5 32t17.5 31t31.5 18q14 -1 31.5 -18t17.5 -31t-18 -32t-31 -17q-14 -1 -31.5 17zM1007 72v-72h-190v398h-267v-443q0 -83 -19.5 -123.5t-73 -56t-164.5 -15.5q-98 0 -144 17.5t-61.5 62.5t-15.5 139q0 63 8 133.5t21 116.5l59 -10
q-24 -123 -24 -226q0 -100 13 -161h193q57 0 87.5 4.5t43.5 15.5t13 33v585h395v-398h126zM754 608q-18 18 -18 32t17.5 31t31.5 18q14 -1 31.5 -18t17.5 -31t-18 -32t-31 -17q-13 -1 -31 17zM888 608q-18 18 -18 32t17.5 31t31.5 18q14 -1 31.5 -18t17.5 -31t-18 -32
t-31 -17q-13 -1 -31 17zM821 747q-18 18 -18 32t17.5 31t31.5 18q14 -1 31.5 -18t17.5 -31t-18 -32t-31 -17q-13 -1 -31 17z" />
    <glyph glyph-name="uniFC7A" unicode="&#xfc7a;" horiz-adv-x="1120" arabic-form="final" 
d="M72 0zM1140 72v-72h-190v398h-499v-213l169 -18q52 -5 80 -25t39 -58t11 -104v-69q0 -76 -27.5 -114t-103 -53.5t-229.5 -15.5q-144 0 -205.5 9.5t-87 46t-25.5 121.5q0 60 8 126t21 108l63 -11q-28 -130 -28 -203q0 -40 3 -68t10 -57h283q103 0 156.5 4.5t75.5 15.5
t22 33v234l-142 18q-66 8 -100.5 27.5t-47.5 56t-13 102.5t15.5 104.5t51.5 56.5t100 18h464v-398h126zM883 608q-18 18 -18 32t17.5 31t31.5 18q14 -1 31.5 -18t17.5 -31t-18 -32t-31 -17q-13 -1 -31 17zM1017 608q-18 18 -18 32t17.5 31t31.5 18q14 -1 31.5 -18t17.5 -31
t-18 -32t-31 -17q-13 -1 -31 17zM950 747q-18 18 -18 32t17.5 31t31.5 18q14 -1 31.5 -18t17.5 -31t-18 -32t-31 -17q-13 -1 -31 17z" />
    <glyph glyph-name="uniFC7B" unicode="&#xfc7b;" horiz-adv-x="1120" arabic-form="final" 
d="M72 0zM1140 72v-72h-190v398h-499v-213l169 -18q52 -5 80 -25t39 -58t11 -104v-69q0 -76 -27.5 -114t-103 -53.5t-229.5 -15.5q-144 0 -205.5 9.5t-87 46t-25.5 121.5q0 60 8 126t21 108l63 -11q-28 -130 -28 -203q0 -40 3 -68t10 -57h283q103 0 156.5 4.5t75.5 15.5
t22 33v234l-142 18q-66 8 -100.5 27.5t-47.5 56t-13 102.5t15.5 104.5t51.5 56.5t100 18h464v-398h126zM883 608q-18 18 -18 32t17.5 31t31.5 18q14 -1 31.5 -18t17.5 -31t-18 -32t-31 -17q-13 -1 -31 17zM1017 608q-18 18 -18 32t17.5 31t31.5 18q14 -1 31.5 -18t17.5 -31
t-18 -32t-31 -17q-13 -1 -31 17zM950 747q-18 18 -18 32t17.5 31t31.5 18q14 -1 31.5 -18t17.5 -31t-18 -32t-31 -17q-13 -1 -31 17zM332 -411q-18 18 -18 32t17.5 31t31.5 18q14 -1 31.5 -18t17.5 -31t-18 -32t-31 -17q-13 -1 -31 17zM466 -411q-18 18 -18 32t17.5 31
t31.5 18q14 -1 31.5 -18t17.5 -31t-18 -32t-31 -17q-13 -1 -31 17z" />
    <glyph glyph-name="uniFC8A" unicode="&#xfc8a;" horiz-adv-x="636" arabic-form="final" 
d="M30 0zM656 72v-72h-190v398h-267v-404q0 -93 -33 -152t-107 -96l-29 55q58 28 81.5 72t23.5 121v476h395v-398h126zM467 608q-18 18 -18 32t17.5 31t31.5 18q14 -1 31.5 -18t17.5 -31t-18 -32t-31 -17q-13 -1 -31 17z" />
    <glyph glyph-name="uniFC8B" unicode="&#xfc8b;" horiz-adv-x="636" arabic-form="final" 
d="M30 0zM656 72v-72h-190v398h-267v-404q0 -93 -33 -152t-107 -96l-29 55q58 28 81.5 72t23.5 121v476h395v-398h126zM467 608q-18 18 -18 32t17.5 31t31.5 18q14 -1 31.5 -18t17.5 -31t-18 -32t-31 -17q-13 -1 -31 17zM136 608q-18 18 -18 32t17.5 31t31.5 18
q14 -1 31.5 -18t17.5 -31t-18 -32t-31 -17q-13 -1 -31 17z" />
    <glyph glyph-name="uniFC8D" unicode="&#xfc8d;" horiz-adv-x="987" arabic-form="final" 
d="M72 0zM285.5 633q-17.5 18 -17.5 32t17.5 31t31.5 18q14 -1 31.5 -18t17.5 -31t-18 -32t-31 -17q-14 -1 -31.5 17zM1007 72v-72h-190v398h-267v-443q0 -83 -19.5 -123.5t-73 -56t-164.5 -15.5q-98 0 -144 17.5t-61.5 62.5t-15.5 139q0 63 8 133.5t21 116.5l59 -10
q-24 -123 -24 -226q0 -100 13 -161h193q57 0 87.5 4.5t43.5 15.5t13 33v585h395v-398h126zM821 608q-18 18 -18 32t17.5 31t31.5 18q14 -1 31.5 -18t17.5 -31t-18 -32t-31 -17q-13 -1 -31 17z" />
    <glyph glyph-name="uniFC8E" unicode="&#xfc8e;" horiz-adv-x="1120" arabic-form="final" 
d="M72 0zM1140 72v-72h-190v398h-499v-213l169 -18q52 -5 80 -25t39 -58t11 -104v-69q0 -76 -27.5 -114t-103 -53.5t-229.5 -15.5q-144 0 -205.5 9.5t-87 46t-25.5 121.5q0 60 8 126t21 108l63 -11q-28 -130 -28 -203q0 -40 3 -68t10 -57h283q103 0 156.5 4.5t75.5 15.5
t22 33v234l-142 18q-66 8 -100.5 27.5t-47.5 56t-13 102.5t15.5 104.5t51.5 56.5t100 18h464v-398h126zM950 608q-18 18 -18 32t17.5 31t31.5 18q14 -1 31.5 -18t17.5 -31t-18 -32t-31 -17q-13 -1 -31 17z" />
    <glyph glyph-name="uniFC8F" unicode="&#xfc8f;" horiz-adv-x="1120" arabic-form="final" 
d="M72 0zM1140 72v-72h-190v398h-499v-213l169 -18q52 -5 80 -25t39 -58t11 -104v-69q0 -76 -27.5 -114t-103 -53.5t-229.5 -15.5q-144 0 -205.5 9.5t-87 46t-25.5 121.5q0 60 8 126t21 108l63 -11q-28 -130 -28 -203q0 -40 3 -68t10 -57h283q103 0 156.5 4.5t75.5 15.5
t22 33v234l-142 18q-66 8 -100.5 27.5t-47.5 56t-13 102.5t15.5 104.5t51.5 56.5t100 18h464v-398h126zM950 608q-18 18 -18 32t17.5 31t31.5 18q14 -1 31.5 -18t17.5 -31t-18 -32t-31 -17q-13 -1 -31 17zM332 -411q-18 18 -18 32t17.5 31t31.5 18q14 -1 31.5 -18t17.5 -31
t-18 -32t-31 -17q-13 -1 -31 17zM466 -411q-18 18 -18 32t17.5 31t31.5 18q14 -1 31.5 -18t17.5 -31t-18 -32t-31 -17q-13 -1 -31 17z" />
    <glyph glyph-name="uniFC91" unicode="&#xfc91;" horiz-adv-x="636" arabic-form="final" 
d="M30 0zM656 72v-72h-190v398h-267v-404q0 -93 -33 -152t-107 -96l-29 55q58 28 81.5 72t23.5 121v476h395v-398h126zM394 -161q-18 18 -18 32t17.5 31t31.5 18q14 -1 31.5 -18t17.5 -31t-18 -32t-31 -17q-13 -1 -31 17zM528 -161q-18 18 -18 32t17.5 31t31.5 18
q14 -1 31.5 -18t17.5 -31t-18 -32t-31 -17q-13 -1 -31 17z" />
    <glyph glyph-name="uniFC92" unicode="&#xfc92;" horiz-adv-x="636" arabic-form="final" 
d="M30 0zM656 72v-72h-190v398h-267v-404q0 -93 -33 -152t-107 -96l-29 55q58 28 81.5 72t23.5 121v476h395v-398h126zM394 -161q-18 18 -18 32t17.5 31t31.5 18q14 -1 31.5 -18t17.5 -31t-18 -32t-31 -17q-13 -1 -31 17zM528 -161q-18 18 -18 32t17.5 31t31.5 18
q14 -1 31.5 -18t17.5 -31t-18 -32t-31 -17q-13 -1 -31 17zM136 608q-18 18 -18 32t17.5 31t31.5 18q14 -1 31.5 -18t17.5 -31t-18 -32t-31 -17q-13 -1 -31 17z" />
    <glyph glyph-name="uniFC94" unicode="&#xfc94;" horiz-adv-x="987" arabic-form="final" 
d="M72 0zM285.5 633q-17.5 18 -17.5 32t17.5 31t31.5 18q14 -1 31.5 -18t17.5 -31t-18 -32t-31 -17q-14 -1 -31.5 17zM1007 72v-72h-190v398h-267v-443q0 -83 -19.5 -123.5t-73 -56t-164.5 -15.5q-98 0 -144 17.5t-61.5 62.5t-15.5 139q0 63 8 133.5t21 116.5l59 -10
q-24 -123 -24 -226q0 -100 13 -161h193q57 0 87.5 4.5t43.5 15.5t13 33v585h395v-398h126zM748 -161q-18 18 -18 32t17.5 31t31.5 18q14 -1 31.5 -18t17.5 -31t-18 -32t-31 -17q-13 -1 -31 17zM882 -161q-18 18 -18 32t17.5 31t31.5 18q14 -1 31.5 -18t17.5 -31t-18 -32
t-31 -17q-13 -1 -31 17z" />
    <glyph glyph-name="uniFCFB" unicode="&#xfcfb;" horiz-adv-x="1695" arabic-form="isolated" 
d="M1591.5 364.5q8.5 -63.5 8.5 -107.5q0 -104 -12 -157.5t-46.5 -76.5t-104.5 -23q-65 0 -103 8t-58 28q-20 -20 -56.5 -28t-100.5 -8h-169v398h-499v-213l169 -18q52 -5 80 -25t39 -58t11 -104v-69q0 -76 -27.5 -114t-103 -53.5t-229.5 -15.5q-144 0 -205.5 9.5t-87 46
t-25.5 121.5q0 60 8 126t21 108l63 -11q-28 -130 -28 -203q0 -40 3 -68t10 -57h283q103 0 156.5 4.5t75.5 15.5t22 33v234l-142 18q-66 8 -100.5 27.5t-47.5 56t-13 102.5t15.5 104.5t51.5 56.5t100 18h464v-398h150q45 0 62 11t17 42v255h64v-255q0 -31 17 -42t62 -11h137
q13 68 13 184q0 84 -26 201l63 11q10 -40 18.5 -103.5z" />
    <glyph glyph-name="uniFCFC" unicode="&#xfcfc;" horiz-adv-x="1695" arabic-form="isolated" 
d="M72 0zM1591.5 364.5q8.5 -63.5 8.5 -107.5q0 -104 -12 -157.5t-46.5 -76.5t-104.5 -23q-65 0 -103 8t-58 28q-20 -20 -56.5 -28t-100.5 -8h-169v398h-499v-213l169 -18q52 -5 80 -25t39 -58t11 -104v-69q0 -76 -27.5 -114t-103 -53.5t-229.5 -15.5q-144 0 -205.5 9.5
t-87 46t-25.5 121.5q0 60 8 126t21 108l63 -11q-28 -130 -28 -203q0 -40 3 -68t10 -57h283q103 0 156.5 4.5t75.5 15.5t22 33v234l-142 18q-66 8 -100.5 27.5t-47.5 56t-13 102.5t15.5 104.5t51.5 56.5t100 18h464v-398h150q45 0 62 11t17 42v255h64v-255q0 -31 17 -42
t62 -11h137q13 68 13 184q0 84 -26 201l63 11q10 -40 18.5 -103.5zM332 -411q-18 18 -18 32t17.5 31t31.5 18q14 -1 31.5 -18t17.5 -31t-18 -32t-31 -17q-13 -1 -31 17zM466 -411q-18 18 -18 32t17.5 31t31.5 18q14 -1 31.5 -18t17.5 -31t-18 -32t-31 -17q-13 -1 -31 17z
" />
    <glyph glyph-name="uniFD0D" unicode="&#xfd0d;" horiz-adv-x="1210" arabic-form="isolated" 
d="M30 0zM1107.5 364.5q8.5 -63.5 8.5 -107.5q0 -104 -12 -157.5t-46.5 -76.5t-104.5 -23q-65 0 -103 8t-58 28q-20 -20 -56.5 -28t-100.5 -8h-169v398h-267v-404q0 -93 -33 -152t-107 -96l-29 55q58 28 81.5 72t23.5 121v476h395v-398h150q45 0 62 11t17 42v255h64v-255
q0 -31 17 -42t62 -11h137q13 68 13 184q0 84 -26 201l63 11q10 -40 18.5 -103.5zM693 608q-18 18 -18 32t17.5 31t31.5 18q14 -1 31.5 -18t17.5 -31t-18 -32t-31 -17q-13 -1 -31 17zM827 608q-18 18 -18 32t17.5 31t31.5 18q14 -1 31.5 -18t17.5 -31t-18 -32t-31 -17
q-13 -1 -31 17zM760 747q-18 18 -18 32t17.5 31t31.5 18q14 -1 31.5 -18t17.5 -31t-18 -32t-31 -17q-13 -1 -31 17z" />
    <glyph glyph-name="uniFD0E" unicode="&#xfd0e;" horiz-adv-x="1210" arabic-form="isolated" 
d="M1107.5 364.5q8.5 -63.5 8.5 -107.5q0 -104 -12 -157.5t-46.5 -76.5t-104.5 -23q-65 0 -103 8t-58 28q-20 -20 -56.5 -28t-100.5 -8h-169v398h-267v-404q0 -93 -33 -152t-107 -96l-29 55q58 28 81.5 72t23.5 121v476h395v-398h150q45 0 62 11t17 42v255h64v-255
q0 -31 17 -42t62 -11h137q13 68 13 184q0 84 -26 201l63 11q10 -40 18.5 -103.5z" />
    <glyph glyph-name="uniFD0F" unicode="&#xfd0f;" horiz-adv-x="1122" arabic-form="isolated" 
d="M964.5 470q30.5 -10 44 -32.5t13.5 -63.5v-374h-556v398h-267v-403q0 -94 -33 -153t-107 -96l-29 56q58 28 81.5 71.5t23.5 121.5v475h395v-195q35 99 125 152t225 53q54 0 84.5 -10zM958 72v325q-35 11 -109 11q-156 0 -234 -82t-84 -254h427z" />
    <glyph glyph-name="uniFD10" unicode="&#xfd10;" horiz-adv-x="1122" arabic-form="isolated" 
d="M30 0zM964.5 470q30.5 -10 44 -32.5t13.5 -63.5v-374h-556v398h-267v-403q0 -94 -33 -153t-107 -96l-29 56q58 28 81.5 71.5t23.5 121.5v475h395v-195q35 99 125 152t225 53q54 0 84.5 -10zM958 72v325q-35 11 -109 11q-156 0 -234 -82t-84 -254h427zM757 608
q-18 18 -18 32t17.5 31t31.5 18q14 -1 31.5 -18t17.5 -31t-18 -32t-31 -17q-13 -1 -31 17z" />
    <glyph glyph-name="uniFD17" unicode="&#xfd17;" horiz-adv-x="1706" arabic-form="final" 
d="M1726 72v-72h-289q-65 0 -103 8t-58 28q-20 -20 -56.5 -28t-100.5 -8h-169v398h-499v-213l169 -18q52 -5 80 -25t39 -58t11 -104v-69q0 -76 -27.5 -114t-103 -53.5t-229.5 -15.5q-144 0 -205.5 9.5t-87 46t-25.5 121.5q0 60 8 126t21 108l63 -11q-28 -130 -28 -203
q0 -40 3 -68t10 -57h283q103 0 156.5 4.5t75.5 15.5t22 33v234l-142 18q-66 8 -100.5 27.5t-47.5 56t-13 102.5t15.5 104.5t51.5 56.5t100 18h464v-398h150q45 0 62 11t17 42v255h64v-255q0 -31 17 -42t62 -11h137q13 68 13 184q0 84 -26 201l63 11q10 -40 18.5 -103.5
t8.5 -107.5q0 -67 -4.5 -111.5t-16.5 -73.5h147z" />
    <glyph glyph-name="uniFD18" unicode="&#xfd18;" horiz-adv-x="1706" arabic-form="final" 
d="M72 0zM1726 72v-72h-289q-65 0 -103 8t-58 28q-20 -20 -56.5 -28t-100.5 -8h-169v398h-499v-213l169 -18q52 -5 80 -25t39 -58t11 -104v-69q0 -76 -27.5 -114t-103 -53.5t-229.5 -15.5q-144 0 -205.5 9.5t-87 46t-25.5 121.5q0 60 8 126t21 108l63 -11q-28 -130 -28 -203
q0 -40 3 -68t10 -57h283q103 0 156.5 4.5t75.5 15.5t22 33v234l-142 18q-66 8 -100.5 27.5t-47.5 56t-13 102.5t15.5 104.5t51.5 56.5t100 18h464v-398h150q45 0 62 11t17 42v255h64v-255q0 -31 17 -42t62 -11h137q13 68 13 184q0 84 -26 201l63 11q10 -40 18.5 -103.5
t8.5 -107.5q0 -67 -4.5 -111.5t-16.5 -73.5h147zM332 -411q-18 18 -18 32t17.5 31t31.5 18q14 -1 31.5 -18t17.5 -31t-18 -32t-31 -17q-13 -1 -31 17zM466 -411q-18 18 -18 32t17.5 31t31.5 18q14 -1 31.5 -18t17.5 -31t-18 -32t-31 -17q-13 -1 -31 17z" />
    <glyph glyph-name="uniFD29" unicode="&#xfd29;" horiz-adv-x="1221" arabic-form="final" 
d="M30 0zM1242 72v-72h-289q-65 0 -103 8t-58 28q-20 -20 -56.5 -28t-100.5 -8h-169v398h-267v-404q0 -93 -33 -152t-107 -96l-29 55q58 28 81.5 72t23.5 121v476h395v-398h150q45 0 62 11t17 42v255h64v-255q0 -31 17 -42t62 -11h137q13 68 13 184q0 84 -26 201l63 11
q10 -40 18.5 -103.5t8.5 -107.5q0 -67 -4.5 -111.5t-16.5 -73.5h147zM693 608q-18 18 -18 32t17.5 31t31.5 18q14 -1 31.5 -18t17.5 -31t-18 -32t-31 -17q-13 -1 -31 17zM827 608q-18 18 -18 32t17.5 31t31.5 18q14 -1 31.5 -18t17.5 -31t-18 -32t-31 -17q-13 -1 -31 17z
M760 747q-18 18 -18 32t17.5 31t31.5 18q14 -1 31.5 -18t17.5 -31t-18 -32t-31 -17q-13 -1 -31 17z" />
    <glyph glyph-name="uniFD2A" unicode="&#xfd2a;" horiz-adv-x="1221" arabic-form="final" 
d="M1242 72v-72h-289q-65 0 -103 8t-58 28q-20 -20 -56.5 -28t-100.5 -8h-169v398h-267v-404q0 -93 -33 -152t-107 -96l-29 55q58 28 81.5 72t23.5 121v476h395v-398h150q45 0 62 11t17 42v255h64v-255q0 -31 17 -42t62 -11h137q13 68 13 184q0 84 -26 201l63 11
q10 -40 18.5 -103.5t8.5 -107.5q0 -67 -4.5 -111.5t-16.5 -73.5h147z" />
    <glyph glyph-name="uniFD2B" unicode="&#xfd2b;" horiz-adv-x="1128" arabic-form="final" 
d="M1148 72v-72h-682v398h-267v-403q0 -94 -33 -153t-107 -96l-29 56q58 28 81.5 71.5t23.5 121.5v475h395v-195q35 99 125 152t225 53q54 0 84.5 -10t44 -32.5t13.5 -63.5v-302h126zM958 72v325q-35 11 -109 11q-156 0 -234 -82t-84 -254h427z" />
    <glyph glyph-name="uniFD2C" unicode="&#xfd2c;" horiz-adv-x="1128" arabic-form="final" 
d="M30 0zM1148 72v-72h-682v398h-267v-403q0 -94 -33 -153t-107 -96l-29 56q58 28 81.5 71.5t23.5 121.5v475h395v-195q35 99 125 152t225 53q54 0 84.5 -10t44 -32.5t13.5 -63.5v-302h126zM958 72v325q-35 11 -109 11q-156 0 -234 -82t-84 -254h427zM753 608q-18 18 -18 32
t17.5 31t31.5 18q14 -1 31.5 -18t17.5 -31t-18 -32t-31 -17q-13 -1 -31 17z" />
    <glyph glyph-name="uniFE82" unicode="&#x622;" horiz-adv-x="276" arabic-form="final" 
d="M29 0zM106 470h64v-398h126v-72h-190v470zM134 619.5q-10 6.5 -37 32.5l-56 -26l-12 25q42 29 59.5 38.5t29.5 9.5q8 0 15 -5t21.5 -18t20.5 -18l56 26l12 -25q-36 -25 -55.5 -35.5t-31.5 -10.5t-22 6.5z" />
    <glyph glyph-name="uniFE84" unicode="&#x623;" horiz-adv-x="276" arabic-form="final" 
d="M25 0zM106 470h64v-398h126v-72h-190v470zM251 680v-41l-226 -60v40l46 13q-14 26 -14 79q0 80 43.5 110t127.5 28v-50q-30 0 -61 -6.5t-50 -18.5l-2 -97q0 -13 5 -19t17 -6t27 4z" />
    <glyph glyph-name="uniFE86" unicode="&#x624;" horiz-adv-x="611" arabic-form="final" 
d="M92 0zM631 0h-148q-23 -72 -77.5 -146t-120.5 -118l-38 51q54 41 99.5 99t68.5 114h-193q-55 0 -82 19.5t-37.5 69t-10.5 149.5q0 104 15.5 153.5t57 68.5t127.5 19q62 0 107.5 -6.5t95.5 -22.5v-378h136v-72zM383 72q28 0 38 11.5t10 40.5v283h-228q-26 0 -34.5 -11.5
t-8.5 -46.5v-277h223zM405 680v-41l-226 -60v40l46 13q-14 26 -14 79q0 80 43.5 110t127.5 28v-50q-30 0 -61 -6.5t-50 -18.5l-2 -97q0 -13 5 -19t17 -6t27 4z" />
    <glyph glyph-name="uniFE88" unicode="&#x625;" horiz-adv-x="276" arabic-form="final" 
d="M25 0zM106 630h64v-558h126v-72h-190v630zM251 -249v-41l-226 -60v40l46 13q-14 26 -14 79q0 80 43.5 110t127.5 28v-50q-30 0 -61 -6.5t-50 -18.5l-2 -97q0 -13 5 -19t17 -6t27 4z" />
    <glyph glyph-name="uniFE8A" unicode="&#x626;" horiz-adv-x="856" arabic-form="final" 
d="M54 0zM876 72v-72h-126v-89q0 -76 -27.5 -114t-103 -53.5t-229.5 -15.5q-144 0 -205.5 9.5t-87 46t-25.5 121.5q0 60 8 126t21 108l63 -11q-28 -130 -28 -203q0 -40 3 -68t10 -57h283q103 0 156.5 4.5t75.5 15.5t22 33v147h-60q-49 0 -102.5 8t-87.5 21l11 67
q89 -24 167 -24h262zM280 370v-41l-226 -60v40l46 13q-14 26 -14 79q0 80 43.5 110t127.5 28v-50q-30 0 -61 -6.5t-50 -18.5l-2 -97q0 -13 5 -19t17 -6t27 4z" />
    <glyph glyph-name="uniFE8B" unicode="&#x626;" horiz-adv-x="312" arabic-form="initial" 
d="M0 0zM-20 72h162v398h64v-470h-226v72zM287 680v-41l-226 -60v40l46 13q-14 26 -14 79q0 80 43.5 110t127.5 28v-50q-30 0 -61 -6.5t-50 -18.5l-2 -97q0 -13 5 -19t17 -6t27 4z" />
    <glyph glyph-name="uniFE8C" unicode="&#x626;" horiz-adv-x="312" arabic-form="medial" 
d="M0 0zM332 72v-72h-352v72h162v398h64v-398h126zM287 680v-41l-226 -60v40l46 13q-14 26 -14 79q0 80 43.5 110t127.5 28v-50q-30 0 -61 -6.5t-50 -18.5l-2 -97q0 -13 5 -19t17 -6t27 4z" />
    <glyph glyph-name="uniFE8E" unicode="&#x627;" horiz-adv-x="276" arabic-form="final" 
d="M106 630h64v-558h126v-72h-190v630z" />
    <glyph glyph-name="uniFE90" unicode="&#x628;" horiz-adv-x="876" arabic-form="final" 
d="M74 0zM896 72v-72h-690q-50 0 -78.5 19.5t-41 63t-12.5 120.5q0 44 7.5 93t19.5 80l61 -11q-24 -84 -24 -153q0 -89 17 -140h551v398h64v-398h126zM404 -173q-18 18 -18 32t17.5 31t31.5 18q14 -1 31.5 -18t17.5 -31t-18 -32t-31 -17q-13 -1 -31 17z" />
    <glyph glyph-name="uniFE91" unicode="&#x628;" horiz-adv-x="312" arabic-form="initial" 
d="M0 0zM-20 72h162v398h64v-470h-226v72zM143 -161q-18 18 -18 32t17.5 31t31.5 18q14 -1 31.5 -18t17.5 -31t-18 -32t-31 -17q-13 -1 -31 17z" />
    <glyph glyph-name="uniFE92" unicode="&#x628;" horiz-adv-x="312" arabic-form="medial" 
d="M0 0zM332 72v-72h-352v72h162v398h64v-398h126zM143 -161q-18 18 -18 32t17.5 31t31.5 18q14 -1 31.5 -18t17.5 -31t-18 -32t-31 -17q-13 -1 -31 17z" />
    <glyph glyph-name="uniFE94" unicode="&#x629;" horiz-adv-x="614" arabic-form="final" 
d="M90 0zM634 72v-72h-349q-87 0 -127 17t-54 65t-14 153t14 153t54 65t127 17h239v-398h110zM460 398h-226q-41 0 -58.5 -14t-17.5 -47v-204q0 -33 17.5 -47t58.5 -14h226v326zM205 608q-18 18 -18 32t17.5 31t31.5 18q14 -1 31.5 -18t17.5 -31t-18 -32t-31 -17
q-13 -1 -31 17zM339 608q-18 18 -18 32t17.5 31t31.5 18q14 -1 31.5 -18t17.5 -31t-18 -32t-31 -17q-13 -1 -31 17z" />
    <glyph glyph-name="uniFE96" unicode="&#x62a;" horiz-adv-x="876" arabic-form="final" 
d="M74 0zM896 72v-72h-690q-50 0 -78.5 19.5t-41 63t-12.5 120.5q0 44 7.5 93t19.5 80l61 -11q-24 -84 -24 -153q0 -89 17 -140h551v398h64v-398h126zM337 508q-18 18 -18 32t17.5 31t31.5 18q14 -1 31.5 -18t17.5 -31t-18 -32t-31 -17q-13 -1 -31 17zM471 508
q-18 18 -18 32t17.5 31t31.5 18q14 -1 31.5 -18t17.5 -31t-18 -32t-31 -17q-13 -1 -31 17z" />
    <glyph glyph-name="uniFE97" unicode="&#x62a;" horiz-adv-x="312" arabic-form="initial" 
d="M0 0zM-20 72h162v398h64v-470h-226v72zM76 608q-18 18 -18 32t17.5 31t31.5 18q14 -1 31.5 -18t17.5 -31t-18 -32t-31 -17q-13 -1 -31 17zM210 608q-18 18 -18 32t17.5 31t31.5 18q14 -1 31.5 -18t17.5 -31t-18 -32t-31 -17q-13 -1 -31 17z" />
    <glyph glyph-name="uniFE98" unicode="&#x62a;" horiz-adv-x="312" arabic-form="medial" 
d="M0 0zM332 72v-72h-352v72h162v398h64v-398h126zM76 608q-18 18 -18 32t17.5 31t31.5 18q14 -1 31.5 -18t17.5 -31t-18 -32t-31 -17q-13 -1 -31 17zM210 608q-18 18 -18 32t17.5 31t31.5 18q14 -1 31.5 -18t17.5 -31t-18 -32t-31 -17q-13 -1 -31 17z" />
    <glyph glyph-name="uniFE9A" unicode="&#x62b;" horiz-adv-x="876" arabic-form="final" 
d="M74 0zM896 72v-72h-690q-50 0 -78.5 19.5t-41 63t-12.5 120.5q0 44 7.5 93t19.5 80l61 -11q-24 -84 -24 -153q0 -89 17 -140h551v398h64v-398h126zM337 508q-18 18 -18 32t17.5 31t31.5 18q14 -1 31.5 -18t17.5 -31t-18 -32t-31 -17q-13 -1 -31 17zM471 508
q-18 18 -18 32t17.5 31t31.5 18q14 -1 31.5 -18t17.5 -31t-18 -32t-31 -17q-13 -1 -31 17zM404 647q-18 18 -18 32t17.5 31t31.5 18q14 -1 31.5 -18t17.5 -31t-18 -32t-31 -17q-13 -1 -31 17z" />
    <glyph glyph-name="uniFE9B" unicode="&#x62b;" horiz-adv-x="312" arabic-form="initial" 
d="M0 0zM-20 72h162v398h64v-470h-226v72zM76 608q-18 18 -18 32t17.5 31t31.5 18q14 -1 31.5 -18t17.5 -31t-18 -32t-31 -17q-13 -1 -31 17zM210 608q-18 18 -18 32t17.5 31t31.5 18q14 -1 31.5 -18t17.5 -31t-18 -32t-31 -17q-13 -1 -31 17zM143 747q-18 18 -18 32
t17.5 31t31.5 18q14 -1 31.5 -18t17.5 -31t-18 -32t-31 -17q-13 -1 -31 17z" />
    <glyph glyph-name="uniFE9C" unicode="&#x62b;" horiz-adv-x="312" arabic-form="medial" 
d="M0 0zM332 72v-72h-352v72h162v398h64v-398h126zM76 608q-18 18 -18 32t17.5 31t31.5 18q14 -1 31.5 -18t17.5 -31t-18 -32t-31 -17q-13 -1 -31 17zM210 608q-18 18 -18 32t17.5 31t31.5 18q14 -1 31.5 -18t17.5 -31t-18 -32t-31 -17q-13 -1 -31 17zM143 747
q-18 18 -18 32t17.5 31t31.5 18q14 -1 31.5 -18t17.5 -31t-18 -32t-31 -17q-13 -1 -31 17z" />
    <glyph glyph-name="uniFE9E" unicode="&#x62c;" horiz-adv-x="562" arabic-form="final" 
d="M582 72v-72h-43q-29 0 -45.5 13t-28.5 43l-50 131q-151 -11 -222 -54.5t-71 -137.5v-186q49 -10 149 -10q35 0 71.5 5t92.5 17l11 -67q-36 -13 -90 -20t-111 -7q-88 0 -127 18t-51.5 61.5t-12.5 138.5q0 105 37 167.5t111 93t192 37.5q-27 63 -58 98t-77.5 50.5
t-120.5 15.5q-31 0 -73 -3l-11 70q57 5 97 5q83 0 139.5 -21t94.5 -66.5t67 -121.5l75 -198h55zM265 3q18 18 33 19q15 -1 33 -19t18 -32t-18.5 -33t-32.5 -18q-14 -1 -32.5 17.5t-18.5 33.5q0 14 18 32z" />
    <glyph glyph-name="uniFE9F" unicode="&#x62c;" horiz-adv-x="548" arabic-form="initial" 
d="M0 0zM548 258v-72h-81q-9 0 -21 2q-97 -188 -303 -188h-163v72h188q77 0 135.5 48.5t92.5 116.5l-2 5q-24 65 -55.5 100.5t-78.5 50t-122 14.5q-32 0 -73 -3l-11 70q60 5 97 5q84 0 141 -22t96 -70t68 -129h92zM229 -161q-18 18 -18 32t17.5 31t31.5 18q14 -1 31.5 -18
t17.5 -31t-18 -32t-31 -17q-13 -1 -31 17z" />
    <glyph glyph-name="uniFEA0" unicode="&#x62c;" horiz-adv-x="562" arabic-form="medial" 
d="M0 0zM582 72v-72h-43q-29 0 -45.5 13t-28.5 43l-37 98q-91 -154 -267 -154h-181v72h218q68 0 118.5 48t79.5 116l-2 6q-27 64 -58.5 99.5t-78 50.5t-119.5 15q-32 0 -73 -3l-11 70q60 5 97 5q83 0 139.5 -21t95 -66.5t66.5 -121.5l75 -198h55zM223 -161q-18 18 -18 32
t17.5 31t31.5 18q14 -1 31.5 -18t17.5 -31t-18 -32t-31 -17q-13 -1 -31 17z" />
    <glyph glyph-name="uniFEA2" unicode="&#x62d;" horiz-adv-x="562" arabic-form="final" 
d="M582 72v-72h-43q-29 0 -45.5 13t-28.5 43l-50 131q-151 -11 -222 -54.5t-71 -137.5v-186q49 -10 149 -10q35 0 71.5 5t92.5 17l11 -67q-36 -13 -90 -20t-111 -7q-88 0 -127 18t-51.5 61.5t-12.5 138.5q0 105 37 167.5t111 93t192 37.5q-27 63 -58 98t-77.5 50.5
t-120.5 15.5q-31 0 -73 -3l-11 70q57 5 97 5q83 0 139.5 -21t94.5 -66.5t67 -121.5l75 -198h55z" />
    <glyph glyph-name="uniFEA3" unicode="&#x62d;" horiz-adv-x="548" arabic-form="initial" 
d="M548 258v-72h-81q-9 0 -21 2q-97 -188 -303 -188h-163v72h188q77 0 135.5 48.5t92.5 116.5l-2 5q-24 65 -55.5 100.5t-78.5 50t-122 14.5q-32 0 -73 -3l-11 70q60 5 97 5q84 0 141 -22t96 -70t68 -129h92z" />
    <glyph glyph-name="uniFEA4" unicode="&#x62d;" horiz-adv-x="562" arabic-form="medial" 
d="M582 72v-72h-43q-29 0 -45.5 13t-28.5 43l-37 98q-91 -154 -267 -154h-181v72h218q68 0 118.5 48t79.5 116l-2 6q-27 64 -58.5 99.5t-78 50.5t-119.5 15q-32 0 -73 -3l-11 70q60 5 97 5q83 0 139.5 -21t95 -66.5t66.5 -121.5l75 -198h55z" />
    <glyph glyph-name="uniFEA6" unicode="&#x62e;" horiz-adv-x="562" arabic-form="final" 
d="M54 0zM582 72v-72h-43q-29 0 -45.5 13t-28.5 43l-50 131q-151 -11 -222 -54.5t-71 -137.5v-186q49 -10 149 -10q35 0 71.5 5t92.5 17l11 -67q-36 -13 -90 -20t-111 -7q-88 0 -127 18t-51.5 61.5t-12.5 138.5q0 105 37 167.5t111 93t192 37.5q-27 63 -58 98t-77.5 50.5
t-120.5 15.5q-31 0 -73 -3l-11 70q57 5 97 5q83 0 139.5 -21t94.5 -66.5t67 -121.5l75 -198h55zM244 631q-18 18 -18 32t17.5 31t31.5 18q14 -1 31.5 -18t17.5 -31t-18 -32t-31 -17q-13 -1 -31 17z" />
    <glyph glyph-name="uniFEA7" unicode="&#x62e;" horiz-adv-x="548" arabic-form="initial" 
d="M0 0zM548 258v-72h-81q-9 0 -21 2q-97 -188 -303 -188h-163v72h188q77 0 135.5 48.5t92.5 116.5l-2 5q-24 65 -55.5 100.5t-78.5 50t-122 14.5q-32 0 -73 -3l-11 70q60 5 97 5q84 0 141 -22t96 -70t68 -129h92zM198 608q-18 18 -18 32t17.5 31t31.5 18q14 -1 31.5 -18
t17.5 -31t-18 -32t-31 -17q-13 -1 -31 17z" />
    <glyph glyph-name="uniFEA8" unicode="&#x62e;" horiz-adv-x="562" arabic-form="medial" 
d="M0 0zM582 72v-72h-43q-29 0 -45.5 13t-28.5 43l-37 98q-91 -154 -267 -154h-181v72h218q68 0 118.5 48t79.5 116l-2 6q-27 64 -58.5 99.5t-78 50.5t-119.5 15q-32 0 -73 -3l-11 70q60 5 97 5q83 0 139.5 -21t95 -66.5t66.5 -121.5l75 -198h55zM198 608q-18 18 -18 32
t17.5 31t31.5 18q14 -1 31.5 -18t17.5 -31t-18 -32t-31 -17q-13 -1 -31 17z" />
    <glyph glyph-name="uniFEAA" unicode="&#x62f;" horiz-adv-x="483" arabic-form="final" 
d="M503 72v-72h-483v72h361q-44 154 -74.5 225t-67.5 96.5t-101 25.5q-30 0 -68 -9l-17 70q44 11 85 11q92 0 136.5 -25.5t80.5 -107t97 -286.5h51z" />
    <glyph glyph-name="uniFEAC" unicode="&#x630;" horiz-adv-x="483" arabic-form="final" 
d="M20 0zM503 72v-72h-483v72h361q-44 154 -74.5 225t-67.5 96.5t-101 25.5q-30 0 -68 -9l-17 70q44 11 85 11q92 0 136.5 -25.5t80.5 -107t97 -286.5h51zM136 608q-18 18 -18 32t17.5 31t31.5 18q14 -1 31.5 -18t17.5 -31t-18 -32t-31 -17q-13 -1 -31 17z" />
    <glyph glyph-name="uniFEAE" unicode="&#x631;" horiz-adv-x="304" arabic-form="final" 
d="M324 0h-125v-6q0 -93 -33 -152t-107 -96l-29 55q58 28 81.5 72t23.5 121v476h64v-398h125v-72z" />
    <glyph glyph-name="uniFEB0" unicode="&#x632;" horiz-adv-x="304" arabic-form="final" 
d="M30 0zM324 0h-125v-6q0 -93 -33 -152t-107 -96l-29 55q58 28 81.5 72t23.5 121v476h64v-398h125v-72zM135 608q-18 18 -18 32t17.5 31t31.5 18q14 -1 31.5 -18t17.5 -31t-18 -32t-31 -17q-13 -1 -31 17z" />
    <glyph glyph-name="uniFEB2" unicode="&#x633;" horiz-adv-x="1242" arabic-form="final" 
d="M1262 72v-72h-289q-65 0 -103 8t-58 28q-20 -20 -56.5 -28t-100.5 -8h-105v-45q0 -83 -19.5 -123.5t-73 -56t-164.5 -15.5q-103 0 -148.5 17.5t-59 61t-13.5 140.5q0 58 7.5 119.5t19.5 100.5l63 -10q-26 -123 -26 -196q0 -100 13 -161h193q57 0 87.5 4.5t43.5 15.5
t13 33v495h64v-308h150q45 0 62 11t17 42v255h64v-255q0 -31 17 -42t62 -11h137q13 68 13 184q0 84 -26 201l63 11q10 -40 18.5 -103.5t8.5 -107.5q0 -67 -4.5 -111.5t-16.5 -73.5h147z" />
    <glyph glyph-name="uniFEB3" unicode="&#x633;" horiz-adv-x="887" arabic-form="initial" 
d="M783.5 364.5q8.5 -63.5 8.5 -107.5q0 -104 -12 -157.5t-46.5 -76.5t-104.5 -23q-65 0 -103 8t-58 28q-20 -20 -56.5 -28t-100.5 -8h-331v72h162v308h64v-308h150q45 0 62 11t17 42v255h64v-255q0 -31 17 -42t62 -11h137q13 68 13 184q0 84 -26 201l63 11
q10 -40 18.5 -103.5z" />
    <glyph glyph-name="uniFEB4" unicode="&#x633;" horiz-adv-x="898" arabic-form="medial" 
d="M918 72v-72h-287q-66 0 -104.5 8.5t-58.5 28.5q-20 -20 -56.5 -28.5t-100.5 -8.5h-331v72h162v308h64v-308h150q45 0 62 11t17 42v255h64v-255q0 -31 17 -42t62 -11h137q13 68 13 184q0 84 -26 201l63 11q10 -40 18.5 -103.5t8.5 -107.5q0 -69 -4.5 -113t-16.5 -72h147z
" />
    <glyph glyph-name="uniFEB6" unicode="&#x634;" horiz-adv-x="1242" arabic-form="final" 
d="M72 0zM1262 72v-72h-289q-65 0 -103 8t-58 28q-20 -20 -56.5 -28t-100.5 -8h-105v-45q0 -83 -19.5 -123.5t-73 -56t-164.5 -15.5q-103 0 -148.5 17.5t-59 61t-13.5 140.5q0 58 7.5 119.5t19.5 100.5l63 -10q-26 -123 -26 -196q0 -100 13 -161h193q57 0 87.5 4.5
t43.5 15.5t13 33v495h64v-308h150q45 0 62 11t17 42v255h64v-255q0 -31 17 -42t62 -11h137q13 68 13 184q0 84 -26 201l63 11q10 -40 18.5 -103.5t8.5 -107.5q0 -67 -4.5 -111.5t-16.5 -73.5h147zM725 608q-18 18 -18 32t17.5 31t31.5 18q14 -1 31.5 -18t17.5 -31t-18 -32
t-31 -17q-13 -1 -31 17zM859 608q-18 18 -18 32t17.5 31t31.5 18q14 -1 31.5 -18t17.5 -31t-18 -32t-31 -17q-13 -1 -31 17zM792 747q-18 18 -18 32t17.5 31t31.5 18q14 -1 31.5 -18t17.5 -31t-18 -32t-31 -17q-13 -1 -31 17z" />
    <glyph glyph-name="uniFEB7" unicode="&#x634;" horiz-adv-x="887" arabic-form="initial" 
d="M0 0zM783.5 364.5q8.5 -63.5 8.5 -107.5q0 -104 -12 -157.5t-46.5 -76.5t-104.5 -23q-65 0 -103 8t-58 28q-20 -20 -56.5 -28t-100.5 -8h-331v72h162v308h64v-308h150q45 0 62 11t17 42v255h64v-255q0 -31 17 -42t62 -11h137q13 68 13 184q0 84 -26 201l63 11
q10 -40 18.5 -103.5zM381 608q-18 18 -18 32t17.5 31t31.5 18q14 -1 31.5 -18t17.5 -31t-18 -32t-31 -17q-13 -1 -31 17zM515 608q-18 18 -18 32t17.5 31t31.5 18q14 -1 31.5 -18t17.5 -31t-18 -32t-31 -17q-13 -1 -31 17zM448 747q-18 18 -18 32t17.5 31t31.5 18
q14 -1 31.5 -18t17.5 -31t-18 -32t-31 -17q-13 -1 -31 17z" />
    <glyph glyph-name="uniFEB8" unicode="&#x634;" horiz-adv-x="898" arabic-form="medial" 
d="M0 0zM918 72v-72h-287q-66 0 -104.5 8.5t-58.5 28.5q-20 -20 -56.5 -28.5t-100.5 -8.5h-331v72h162v308h64v-308h150q45 0 62 11t17 42v255h64v-255q0 -31 17 -42t62 -11h137q13 68 13 184q0 84 -26 201l63 11q10 -40 18.5 -103.5t8.5 -107.5q0 -69 -4.5 -113t-16.5 -72
h147zM381 608q-18 18 -18 32t17.5 31t31.5 18q14 -1 31.5 -18t17.5 -31t-18 -32t-31 -17q-13 -1 -31 17zM515 608q-18 18 -18 32t17.5 31t31.5 18q14 -1 31.5 -18t17.5 -31t-18 -32t-31 -17q-13 -1 -31 17zM448 747q-18 18 -18 32t17.5 31t31.5 18q14 -1 31.5 -18t17.5 -31
t-18 -32t-31 -17q-13 -1 -31 17z" />
    <glyph glyph-name="uniFEBA" unicode="&#x635;" horiz-adv-x="1151" arabic-form="final" 
d="M1170 72v-72h-620v-45q0 -83 -19.5 -123.5t-73 -56t-164.5 -15.5q-103 0 -148.5 17.5t-59 61t-13.5 140.5q0 58 7.5 119.5t19.5 100.5l63 -10q-26 -123 -26 -196q0 -100 13 -161h193q57 0 87.5 4.5t43.5 15.5t13 33v585h64v-196q35 100 125 153t225 53q54 0 84.5 -10
t44 -32.5t13.5 -63.5v-302h128zM978 72v325q-35 11 -109 11q-156 0 -234 -82.5t-84 -253.5h427z" />
    <glyph glyph-name="uniFEBB" unicode="&#x635;" horiz-adv-x="798" arabic-form="initial" 
d="M640.5 470q30.5 -10 44 -32.5t13.5 -63.5v-374h-718v72h162v398h64v-196q35 100 125 153t225 53q54 0 84.5 -10zM634 72v325q-35 11 -109 11q-156 0 -234 -82.5t-84 -253.5h427z" />
    <glyph glyph-name="uniFEBC" unicode="&#x635;" horiz-adv-x="804" arabic-form="medial" 
d="M824 72v-72h-844v72h162v398h64v-196q35 100 125 153t225 53q54 0 84.5 -10t44 -32.5t13.5 -63.5v-302h126zM291 325.5q-78 -82.5 -84 -253.5h427v325q-35 11 -109 11q-156 0 -234 -82.5z" />
    <glyph glyph-name="uniFEBE" unicode="&#x636;" horiz-adv-x="1151" arabic-form="final" 
d="M72 0zM1170 72v-72h-620v-45q0 -83 -19.5 -123.5t-73 -56t-164.5 -15.5q-103 0 -148.5 17.5t-59 61t-13.5 140.5q0 58 7.5 119.5t19.5 100.5l63 -10q-26 -123 -26 -196q0 -100 13 -161h193q57 0 87.5 4.5t43.5 15.5t13 33v585h64v-196q35 100 125 153t225 53
q54 0 84.5 -10t44 -32.5t13.5 -63.5v-302h128zM978 72v325q-35 11 -109 11q-156 0 -234 -82.5t-84 -253.5h427zM780 608q-18 18 -18 32t17.5 31t31.5 18q14 -1 31.5 -18t17.5 -31t-18 -32t-31 -17q-13 -1 -31 17z" />
    <glyph glyph-name="uniFEBF" unicode="&#x636;" horiz-adv-x="798" arabic-form="initial" 
d="M0 0zM640.5 470q30.5 -10 44 -32.5t13.5 -63.5v-374h-718v72h162v398h64v-196q35 100 125 153t225 53q54 0 84.5 -10zM634 72v325q-35 11 -109 11q-156 0 -234 -82.5t-84 -253.5h427zM433 608q-18 18 -18 32t17.5 31t31.5 18q14 -1 31.5 -18t17.5 -31t-18 -32t-31 -17
q-13 -1 -31 17z" />
    <glyph glyph-name="uniFEC0" unicode="&#x636;" horiz-adv-x="804" arabic-form="medial" 
d="M0 0zM824 72v-72h-844v72h162v398h64v-196q35 100 125 153t225 53q54 0 84.5 -10t44 -32.5t13.5 -63.5v-302h126zM291 325.5q-78 -82.5 -84 -253.5h427v325q-35 11 -109 11q-156 0 -234 -82.5zM433 608q-18 18 -18 32t17.5 31t31.5 18q14 -1 31.5 -18t17.5 -31t-18 -32
t-31 -17q-13 -1 -31 17z" />
    <glyph glyph-name="uniFEC2" unicode="&#x637;" horiz-adv-x="804" arabic-form="final" 
d="M824 72v-72h-804v72h122v558h64v-356q35 100 125 153t225 53q54 0 84.5 -10t44 -32.5t13.5 -63.5v-302h126zM634 72v325q-35 11 -109 11q-156 0 -234 -82.5t-84 -253.5h427z" />
    <glyph glyph-name="uniFEC3" unicode="&#x637;" horiz-adv-x="798" arabic-form="initial" 
d="M640.5 470q30.5 -10 44 -32.5t13.5 -63.5v-374h-718v72h162v558h64v-356q35 100 125 153t225 53q54 0 84.5 -10zM634 397q-35 11 -109 11q-156 0 -234 -82.5t-84 -253.5h427v325z" />
    <glyph glyph-name="uniFEC4" unicode="&#x637;" horiz-adv-x="804" arabic-form="medial" 
d="M824 72v-72h-844v72h162v558h64v-356q35 100 125 153t225 53q54 0 84.5 -10t44 -32.5t13.5 -63.5v-302h126zM634 72v325q-35 11 -109 11q-156 0 -234 -82.5t-84 -253.5h427z" />
    <glyph glyph-name="uniFEC6" unicode="&#x638;" horiz-adv-x="804" arabic-form="final" 
d="M20 0zM824 72v-72h-804v72h122v558h64v-356q35 100 125 153t225 53q54 0 84.5 -10t44 -32.5t13.5 -63.5v-302h126zM634 72v325q-35 11 -109 11q-156 0 -234 -82.5t-84 -253.5h427zM455 608q-18 18 -18 32t17.5 31t31.5 18q14 -1 31.5 -18t17.5 -31t-18 -32t-31 -17
q-13 -1 -31 17z" />
    <glyph glyph-name="uniFEC7" unicode="&#x638;" horiz-adv-x="798" arabic-form="initial" 
d="M0 0zM640.5 470q30.5 -10 44 -32.5t13.5 -63.5v-374h-718v72h162v558h64v-356q35 100 125 153t225 53q54 0 84.5 -10zM634 397q-35 11 -109 11q-156 0 -234 -82.5t-84 -253.5h427v325zM455 608q-18 18 -18 32t17.5 31t31.5 18q14 -1 31.5 -18t17.5 -31t-18 -32t-31 -17
q-13 -1 -31 17z" />
    <glyph glyph-name="uniFEC8" unicode="&#x638;" horiz-adv-x="804" arabic-form="medial" 
d="M0 0zM824 72v-72h-844v72h162v558h64v-356q35 100 125 153t225 53q54 0 84.5 -10t44 -32.5t13.5 -63.5v-302h126zM634 72v325q-35 11 -109 11q-156 0 -234 -82.5t-84 -253.5h427zM455 608q-18 18 -18 32t17.5 31t31.5 18q14 -1 31.5 -18t17.5 -31t-18 -32t-31 -17
q-13 -1 -31 17z" />
    <glyph glyph-name="uniFECA" unicode="&#x639;" horiz-adv-x="606" arabic-form="final" 
d="M67.5 -45.5q14.5 33.5 52.5 59.5t118 60q-79 53 -124.5 134t-45.5 175q0 40 20 60t69 28t146 8t146 -8t69 -28t20 -60q0 -189 -164 -303q48 -8 97 -8h155v-72h-130q-100 0 -195 37q-82 -33 -130 -60.5t-48 -51.5v-160q54 -10 148 -10q31 0 67.5 5t96.5 17l12 -71
q-60 -23 -202 -23q-80 0 -120 14.5t-56 52t-16 113.5q0 58 14.5 91.5zM180.5 212.5q48.5 -74.5 122.5 -112.5q83 41 127 119.5t44 187.5h-342q0 -120 48.5 -194.5z" />
    <glyph glyph-name="uniFECB" unicode="&#x639;" horiz-adv-x="579" arabic-form="initial" 
d="M526 72v-72h-215h-2v0h-329v72h164q-23 51 -23 174q0 99 14.5 147.5t55 68t123.5 19.5q46 0 97 -9t80 -22l-11 -67q-90 26 -175 26q-77 0 -114 -12v-245q-1 -43 24 -61.5t77 -18.5h234z" />
    <glyph glyph-name="uniFECC" unicode="&#x639;" horiz-adv-x="606" arabic-form="medial" 
d="M626 72v-72h-130q-103 0 -193 39q-90 -39 -193 -39h-130v72h130q62 0 114 12q-73 53 -114.5 131t-41.5 168q0 40 20 60t69 28t146 8t146 -8t69 -28t20 -60q0 -90 -41.5 -168t-114.5 -131q53 -12 114 -12h130zM176.5 227q44.5 -76 126.5 -115q82 39 126.5 115t44.5 180
h-342q0 -104 44.5 -180z" />
    <glyph glyph-name="uniFECE" unicode="&#x63a;" horiz-adv-x="606" arabic-form="final" 
d="M53 0zM67.5 -45.5q14.5 33.5 52.5 59.5t118 60q-79 53 -124.5 134t-45.5 175q0 40 20 60t69 28t146 8t146 -8t69 -28t20 -60q0 -189 -164 -303q48 -8 97 -8h155v-72h-130q-100 0 -195 37q-82 -33 -130 -60.5t-48 -51.5v-160q54 -10 148 -10q31 0 67.5 5t96.5 17l12 -71
q-60 -23 -202 -23q-80 0 -120 14.5t-56 52t-16 113.5q0 58 14.5 91.5zM180.5 212.5q48.5 -74.5 122.5 -112.5q83 41 127 119.5t44 187.5h-342q0 -120 48.5 -194.5zM272 608q-18 18 -18 32t17.5 31t31.5 18q14 -1 31.5 -18t17.5 -31t-18 -32t-31 -17q-13 -1 -31 17z" />
    <glyph glyph-name="uniFECF" unicode="&#x63a;" horiz-adv-x="579" arabic-form="initial" 
d="M0 0zM526 72v-72h-215h-2v0h-329v72h164q-23 51 -23 174q0 99 14.5 147.5t55 68t123.5 19.5q46 0 97 -9t80 -22l-11 -67q-90 26 -175 26q-77 0 -114 -12v-245q-1 -43 24 -61.5t77 -18.5h234zM294 608q-18 18 -18 32t17.5 31t31.5 18q14 -1 31.5 -18t17.5 -31t-18 -32
t-31 -17q-13 -1 -31 17z" />
    <glyph glyph-name="uniFED0" unicode="&#x63a;" horiz-adv-x="606" arabic-form="medial" 
d="M0 0zM626 72v-72h-130q-103 0 -193 39q-90 -39 -193 -39h-130v72h130q62 0 114 12q-73 53 -114.5 131t-41.5 168q0 40 20 60t69 28t146 8t146 -8t69 -28t20 -60q0 -90 -41.5 -168t-114.5 -131q53 -12 114 -12h130zM176.5 227q44.5 -76 126.5 -115q82 39 126.5 115
t44.5 180h-342q0 -104 44.5 -180zM272 608q-18 18 -18 32t17.5 31t31.5 18q14 -1 31.5 -18t17.5 -31t-18 -32t-31 -17q-13 -1 -31 17z" />
    <glyph glyph-name="uniFED2" unicode="&#x641;" horiz-adv-x="976" arabic-form="final" 
d="M74 0zM996 72v-72h-790q-50 0 -78.5 19.5t-41 63t-12.5 120.5q0 44 7.5 93t19.5 80l61 -11q-24 -84 -24 -153q0 -89 17 -140h320q-8 56 -8 180q0 95 15.5 142t57 66t127.5 19q52 0 97.5 -6.5t105.5 -22.5v-378h126zM806 405h-224q-28 0 -37.5 -11.5t-9.5 -46.5v-275h223
q28 0 38 11.5t10 40.5v281zM666 608q-18 18 -18 32t17.5 31t31.5 18q14 -1 31.5 -18t17.5 -31t-18 -32t-31 -17q-13 -1 -31 17z" />
    <glyph glyph-name="uniFED3" unicode="&#x641;" horiz-adv-x="644" arabic-form="initial" 
d="M0 0zM143 72q-8 56 -8 180q0 95 15.5 142t57.5 66t127 19q52 0 97.5 -6.5t105.5 -22.5v-450h-558v72h163zM464 83.5q10 11.5 10 40.5v281h-224q-28 0 -37.5 -12t-9.5 -47v-274h223q28 0 38 11.5zM304 608q-18 18 -18 32t17.5 31t31.5 18q14 -1 31.5 -18t17.5 -31t-18 -32
t-31 -17q-13 -1 -31 17z" />
    <glyph glyph-name="uniFED4" unicode="&#x641;" horiz-adv-x="644" arabic-form="medial" 
d="M0 0zM664 72v-72h-684v72h163q-8 56 -8 180q0 95 15.5 142t57.5 66t127 19q52 0 97.5 -6.5t105.5 -22.5v-378h126zM474 405h-224q-28 0 -37.5 -12t-9.5 -47v-274h223q28 0 38 11.5t10 40.5v281zM304 608q-18 18 -18 32t17.5 31t31.5 18q14 -1 31.5 -18t17.5 -31t-18 -32
t-31 -17q-13 -1 -31 17z" />
    <glyph glyph-name="uniFED6" unicode="&#x642;" horiz-adv-x="870" arabic-form="final" 
d="M62 0zM890 72v-72h-126v-107q0 -57 -13 -89t-43 -46t-82 -14h-432q-50 0 -78.5 22.5t-41 73.5t-12.5 141q0 53 7.5 111.5t19.5 95.5l61 -11q-24 -102 -24 -187q0 -105 17 -174h557v184h-209q-55 0 -82 19.5t-37.5 69t-10.5 149.5q0 104 15.5 153.5t57 68.5t127.5 19
q62 0 107.5 -6.5t95.5 -22.5v-378h126zM690 83.5q10 11.5 10 40.5v283h-228q-26 0 -34.5 -11.5t-8.5 -46.5v-277h223q28 0 38 11.5zM467 608q-18 18 -18 32t17.5 31t31.5 18q14 -1 31.5 -18t17.5 -31t-18 -32t-31 -17q-13 -1 -31 17zM601 608q-18 18 -18 32t17.5 31t31.5 18
q14 -1 31.5 -18t17.5 -31t-18 -32t-31 -17q-13 -1 -31 17z" />
    <glyph glyph-name="uniFED7" unicode="&#x642;" horiz-adv-x="644" arabic-form="initial" 
d="M0 0zM143 72q-8 56 -8 180q0 95 15.5 142t57.5 66t127 19q52 0 97.5 -6.5t105.5 -22.5v-450h-558v72h163zM464 83.5q10 11.5 10 40.5v281h-224q-28 0 -37.5 -12t-9.5 -47v-274h223q28 0 38 11.5zM237 608q-18 18 -18 32t17.5 31t31.5 18q14 -1 31.5 -18t17.5 -31t-18 -32
t-31 -17q-13 -1 -31 17zM371 608q-18 18 -18 32t17.5 31t31.5 18q14 -1 31.5 -18t17.5 -31t-18 -32t-31 -17q-13 -1 -31 17z" />
    <glyph glyph-name="uniFED8" unicode="&#x642;" horiz-adv-x="644" arabic-form="medial" 
d="M0 0zM664 72v-72h-684v72h163q-8 56 -8 180q0 95 15.5 142t57.5 66t127 19q52 0 97.5 -6.5t105.5 -22.5v-378h126zM474 405h-224q-28 0 -37.5 -12t-9.5 -47v-274h223q28 0 38 11.5t10 40.5v281zM237 608q-18 18 -18 32t17.5 31t31.5 18q14 -1 31.5 -18t17.5 -31t-18 -32
t-31 -17q-13 -1 -31 17zM371 608q-18 18 -18 32t17.5 31t31.5 18q14 -1 31.5 -18t17.5 -31t-18 -32t-31 -17q-13 -1 -31 17z" />
    <glyph glyph-name="uniFEDA" unicode="&#x643;" horiz-adv-x="876" arabic-form="final" 
d="M539 439l-226 -60v40l46 13q-14 26 -14 79q0 80 43.5 110t127.5 28v-50q-30 0 -61 -6.5t-50 -18.5l-2 -97q0 -13 5 -19t17 -6t27 4l87 24v-41zM896 72v-72h-690q-50 0 -78.5 19.5t-41 63t-12.5 120.5q0 44 7.5 93t19.5 80l61 -11q-24 -84 -24 -153q0 -89 17 -140h551v558
h64v-558h126z" />
    <glyph glyph-name="uniFEDB" unicode="&#x643;" horiz-adv-x="697" arabic-form="initial" 
d="M-20 72h547v248h-350q-89 0 -89 76q0 41 20.5 98.5t54 113.5t71.5 94l56 -29q-59 -65 -96.5 -137.5t-49.5 -143.5h355q53 0 72.5 -19.5t19.5 -72.5v-300h-611v72z" />
    <glyph glyph-name="uniFEDC" unicode="&#x643;" horiz-adv-x="697" arabic-form="medial" 
d="M717 72v-72h-737v72h547v248h-350q-89 0 -89 76q0 41 20.5 98.5t54 113.5t71.5 94l56 -29q-59 -65 -96.5 -137.5t-49.5 -143.5h355q53 0 72.5 -19.5t19.5 -72.5v-228h126z" />
    <glyph glyph-name="uniFEDE" unicode="&#x644;" horiz-adv-x="656" arabic-form="final" 
d="M676 72v-72h-126v-45q0 -83 -19.5 -123.5t-73 -56t-164.5 -15.5q-98 0 -144 17.5t-61.5 62.5t-15.5 139q0 63 8 133.5t21 116.5l59 -10q-24 -123 -24 -226q0 -100 13 -161h193q57 0 87.5 4.5t43.5 15.5t13 33v743h64v-556h126z" />
    <glyph glyph-name="uniFEDF" unicode="&#x644;" horiz-adv-x="312" arabic-form="initial" 
d="M-20 0v72h162v558h64v-630h-226z" />
    <glyph glyph-name="uniFEE0" unicode="&#x644;" horiz-adv-x="312" arabic-form="medial" 
d="M332 72v-72h-352v72h162v558h64v-558h126z" />
    <glyph glyph-name="uniFEE2" unicode="&#x645;" horiz-adv-x="646" arabic-form="final" 
d="M666 72v-72h-561q-17 -57 -17 -144q0 -66 27 -177l-62 -13q-13 35 -21 92.5t-8 109.5q0 76 10 120t33 63.5t63 20.5q-20 56 -20 151q0 104 47 217q34 17 90.5 28t113.5 11q69 0 107.5 -11.5t55 -37.5t16.5 -72v-286h126zM476 395q-44 12 -119 12q-78 0 -153 -18
q-30 -95 -30 -166q0 -95 21 -151h281v323z" />
    <glyph glyph-name="uniFEE3" unicode="&#x645;" horiz-adv-x="642" arabic-form="initial" 
d="M468.5 467.5q38.5 -11.5 55 -37.5t16.5 -72v-358h-560v72h150q-20 56 -20 151q0 104 47 217q35 19 92 29t112 10q69 0 107.5 -11.5zM476 395q-47 12 -119 12q-78 0 -153 -18q-30 -95 -30 -166q0 -95 21 -151h281v323z" />
    <glyph glyph-name="uniFEE4" unicode="&#x645;" horiz-adv-x="646" arabic-form="medial" 
d="M666 72v-72h-686v72h150q-20 56 -20 151q0 104 47 217q35 19 92 29t112 10q69 0 107.5 -11.5t55 -37.5t16.5 -72v-286h126zM476 395q-47 12 -119 12q-78 0 -153 -18q-30 -95 -30 -166q0 -95 21 -151h281v323z" />
    <glyph glyph-name="uniFEE6" unicode="&#x646;" horiz-adv-x="656" arabic-form="final" 
d="M72 0zM676 72v-72h-126v-45q0 -83 -19.5 -123.5t-73 -56t-164.5 -15.5q-98 0 -144 17.5t-61.5 62.5t-15.5 139q0 63 8 133.5t21 116.5l59 -10q-24 -123 -24 -226q0 -100 13 -161h193q57 0 87.5 4.5t43.5 15.5t13 33v585h64v-398h126zM286 608q-18 18 -18 32t17.5 31
t31.5 18q14 -1 31.5 -18t17.5 -31t-18 -32t-31 -17q-13 -1 -31 17z" />
    <glyph glyph-name="uniFEE7" unicode="&#x646;" horiz-adv-x="312" arabic-form="initial" 
d="M0 0zM-20 72h162v398h64v-470h-226v72zM143 608q-18 18 -18 32t17.5 31t31.5 18q14 -1 31.5 -18t17.5 -31t-18 -32t-31 -17q-13 -1 -31 17z" />
    <glyph glyph-name="uniFEE8" unicode="&#x646;" horiz-adv-x="312" arabic-form="medial" 
d="M0 0zM332 72v-72h-352v72h162v398h64v-398h126zM143 608q-18 18 -18 32t17.5 31t31.5 18q14 -1 31.5 -18t17.5 -31t-18 -32t-31 -17q-13 -1 -31 17z" />
    <glyph glyph-name="uniFEEA" unicode="&#x647;" horiz-adv-x="614" arabic-form="final" 
d="M634 72v-72h-349q-87 0 -127 17t-54 65t-14 153t14 153t54 65t127 17h239v-398h110zM460 398h-226q-41 0 -58.5 -14t-17.5 -47v-204q0 -33 17.5 -47t58.5 -14h226v326z" />
    <glyph glyph-name="uniFEEB" unicode="&#x647;" horiz-adv-x="720" arabic-form="initial" 
d="M670 55v-55h-690v72h118q1 105 11.5 148t42.5 56.5t111 13.5q85 0 120 -14t46 -56.5t12 -147.5h160l-54 208q-20 73 -58.5 113.5t-98.5 56.5t-151 16l5 70q107 0 177 -19.5t115.5 -69.5t69.5 -142zM154 72h231v166h-176q-31 0 -43 -9t-12 -32v-125z" />
    <glyph glyph-name="uniFEEC" unicode="&#x647;" horiz-adv-x="720" arabic-form="medial" 
d="M740 71v-72h-100v1h-660v72h118q1 105 11.5 148t42.5 56.5t111 13.5q85 0 120 -14t46 -56.5t12 -147.5h160l-54 208q-20 73 -58.5 113.5t-98.5 56.5t-151 16l5 70q107 0 177 -19.5t115.5 -69.5t69.5 -142l60 -234h74zM154 72h231v166h-176q-31 0 -43 -9t-12 -32v-125z
" />
    <glyph glyph-name="uniFEEE" unicode="&#x648;" horiz-adv-x="611" arabic-form="final" 
d="M631 0h-148q-23 -72 -77.5 -146t-120.5 -118l-38 51q54 41 99.5 99t68.5 114h-193q-55 0 -82 19.5t-37.5 69t-10.5 149.5q0 104 15.5 153.5t57 68.5t127.5 19q62 0 107.5 -6.5t95.5 -22.5v-378h136v-72zM383 72q28 0 38 11.5t10 40.5v283h-228q-26 0 -34.5 -11.5
t-8.5 -46.5v-277h223z" />
    <glyph glyph-name="uniFEF0" unicode="&#x649;" horiz-adv-x="856" arabic-form="final" 
d="M876 72v-72h-126v-89q0 -76 -27.5 -114t-103 -53.5t-229.5 -15.5q-144 0 -205.5 9.5t-87 46t-25.5 121.5q0 60 8 126t21 108l63 -11q-28 -130 -28 -203q0 -40 3 -68t10 -57h283q103 0 156.5 4.5t75.5 15.5t22 33v147h-60q-49 0 -102.5 8t-87.5 21l11 67q89 -24 167 -24
h262z" />
    <glyph glyph-name="uniFEF2" unicode="&#x64a;" horiz-adv-x="856" arabic-form="final" 
d="M72 0zM876 72v-72h-126v-89q0 -76 -27.5 -114t-103 -53.5t-229.5 -15.5q-144 0 -205.5 9.5t-87 46t-25.5 121.5q0 60 8 126t21 108l63 -11q-28 -130 -28 -203q0 -40 3 -68t10 -57h283q103 0 156.5 4.5t75.5 15.5t22 33v147h-60q-49 0 -102.5 8t-87.5 21l11 67
q89 -24 167 -24h262zM332 -411q-18 18 -18 32t17.5 31t31.5 18q14 -1 31.5 -18t17.5 -31t-18 -32t-31 -17q-13 -1 -31 17zM466 -411q-18 18 -18 32t17.5 31t31.5 18q14 -1 31.5 -18t17.5 -31t-18 -32t-31 -17q-13 -1 -31 17z" />
    <glyph glyph-name="uniFEF3" unicode="&#x64a;" horiz-adv-x="312" arabic-form="initial" 
d="M0 0zM-20 72h162v398h64v-470h-226v72zM11 -138q-18 18 -18 32t17.5 31t31.5 18q14 -1 31.5 -18t17.5 -31t-18 -32t-31 -17q-13 -1 -31 17zM145 -138q-18 18 -18 32t17.5 31t31.5 18q14 -1 31.5 -18t17.5 -31t-18 -32t-31 -17q-13 -1 -31 17z" />
    <glyph glyph-name="uniFEF4" unicode="&#x64a;" horiz-adv-x="312" arabic-form="medial" 
d="M0 0zM332 72v-72h-352v72h162v398h64v-398h126zM70 -161q-18 18 -18 32t17.5 31t31.5 18q14 -1 31.5 -18t17.5 -31t-18 -32t-31 -17q-13 -1 -31 17zM204 -161q-18 18 -18 32t17.5 31t31.5 18q14 -1 31.5 -18t17.5 -31t-18 -32t-31 -17q-13 -1 -31 17z" />
    <glyph glyph-name=".notdef" horiz-adv-x="690" 
 />
    <glyph glyph-name=".null" 
 />
    <glyph glyph-name="nonmarkingreturn" horiz-adv-x="690" 
 />
    <glyph glyph-name="space" unicode=" " horiz-adv-x="260" 
 />
    <glyph glyph-name="exclam" unicode="!" horiz-adv-x="241" 
d="M67 629q0 8 4.5 12t16.5 4h62q23 0 23 -16l-28 -440h-50zM72.5 105q11.5 14 46.5 14q34 0 46 -14.5t12 -48.5q0 -35 -12 -48.5t-46 -13.5q-35 0 -46.5 13.5t-11.5 48.5t11.5 49z" />
    <glyph glyph-name="quotedbl" unicode="&#x22;" horiz-adv-x="386" 
d="M63 571v52q0 27 37 27h20q37 0 37 -27v-52l-32 -169h-30zM229 571v52q0 27 37 27h20q37 0 37 -27v-52l-32 -169h-30z" />
    <glyph glyph-name="numbersign" unicode="#" horiz-adv-x="724" 
d="M696 460l-11 -27q-8 -18 -16.5 -22.5t-25.5 -4.5h-85l-75 -188h114l-11 -27q-8 -19 -16.5 -23.5t-25.5 -4.5h-83l-70 -178q-6 -14 -14.5 -19.5t-28.5 -5.5h-29l80 203h-190l-70 -178q-6 -14 -14.5 -19.5t-28.5 -5.5h-29l80 203h-115l11 27q7 17 16.5 22.5t26.5 5.5h83
l74 188h-112l11 27q7 17 16.5 22t26.5 5h80l71 180q6 14 14.5 19.5t28.5 5.5h29l-81 -205h190l71 180q6 14 14.5 19.5t28.5 5.5h29l-81 -205h117zM495 406h-189l-75 -188h190z" />
    <glyph glyph-name="dollar" unicode="$" horiz-adv-x="517" 
d="M440.5 72q-18.5 -36 -60.5 -52.5t-118 -18.5l-11 -131h-53l11 132q-73 2 -144 20l11 62q56 -14 139 -19l19 217q-67 8 -101.5 24.5t-47.5 48t-13 89.5q0 67 16.5 106t53.5 56.5t100 17.5h22l11 130h53l-12 -132q63 -5 111 -14l-9 -60q-42 9 -107 12l-19 -216
q66 -6 101.5 -23t50.5 -52.5t15 -97.5q0 -63 -18.5 -99zM240 348l18 213h-18q-47 0 -84 -4v-204zM375 271l-88 7l-19 -214q43 0 107 5v202z" />
    <glyph glyph-name="percent" unicode="%" horiz-adv-x="1139" 
d="M68 0zM79.5 567q11.5 43 45.5 58t112 15q77 0 111 -15t45.5 -57.5t11.5 -140.5q0 -100 -11 -142t-44.5 -56.5t-112.5 -14.5t-113 14.5t-45 56.5t-11 142q0 97 11.5 140zM125 294q0 -21 13.5 -27.5t56.5 -6.5h154v300q0 21 -15.5 28t-60.5 7h-148v-301zM466 -34.5
q-8 -5.5 -27 -5.5h-15l233 680q4 13 13.5 19t29.5 6h15l-233 -680q-8 -14 -16 -19.5zM746.5 343q11.5 43 45.5 58t112 15q77 0 111 -15t45.5 -57.5t11.5 -140.5q0 -100 -11 -142t-44.5 -56.5t-112.5 -14.5t-113 14.5t-45 56.5t-11 142q0 97 11.5 140zM792 70
q0 -21 13.5 -27.5t56.5 -6.5h154v300q0 21 -15.5 28t-60.5 7h-148v-301z" />
    <glyph glyph-name="ampersand" unicode="&#x26;" horiz-adv-x="568" 
d="M547 279h-57v-386l-39 -6l-16 142q-75 -26 -117 -35t-90 -9q-76 0 -110 43t-34 140q0 145 81 171v4l-42 13q2 117 20 176.5t62 83.5t129 24q33 0 70.5 -5.5t59.5 -14.5l-11 -67q-27 7 -72.5 12.5t-79.5 5.5q-54 0 -73.5 -16t-19.5 -61v-149h349zM407 279h-238v-146
q0 -45 24.5 -68t70.5 -23q42 0 80.5 6.5t86.5 20.5z" />
    <glyph glyph-name="quotesingle" unicode="'" horiz-adv-x="220" 
d="M63 571v52q0 27 37 27h20q37 0 37 -27v-52l-32 -169h-30z" />
    <glyph glyph-name="parenleft" unicode="(" horiz-adv-x="300" 
d="M94.5 42q-50.5 97 -50.5 270t50.5 269.5t139.5 137.5l12 -60q-38 -37 -63 -77.5t-40 -106t-15 -163.5t15 -163.5t40 -106t63 -77.5l-12 -60q-89 40 -139.5 137z" />
    <glyph glyph-name="parenright" unicode=")" horiz-adv-x="300" 
d="M54 -35q38 37 63 77.5t40 106t15 163.5t-15 163.5t-40 106t-63 77.5l12 60q89 -41 139.5 -137.5t50.5 -269.5t-50.5 -270t-139.5 -137z" />
    <glyph glyph-name="asterisk" unicode="*" horiz-adv-x="514" 
d="M413 536l-126 -17l94 -88l26 -38l-69 -50l-26 39l-55 115l-54 -115l-27 -39l-69 50l26 38l94 88l-126 17l-46 14l27 80l45 -15l112 -61l-24 127v47h85v-47l-24 -127l111 61l45 15l27 -80z" />
    <glyph glyph-name="plus" unicode="+" horiz-adv-x="530" 
d="M444 278h-145v-145h-68v145h-145v68h145v145h68v-145h145v-68z" />
    <glyph glyph-name="comma" unicode="," horiz-adv-x="221" 
d="M74 -88l17 83q-21 4 -29 16.5t-8 43.5q0 35 12.5 48t46.5 13q30 0 42 -13.5t12 -47.5q0 -22 -25 -84l-32 -70z" />
    <glyph glyph-name="hyphen" unicode="-" horiz-adv-x="350" 
d="M44.5 305q9.5 5 37.5 5h234v-38q0 -22 -9.5 -27t-38.5 -5h-233v38q0 22 9.5 27z" />
    <glyph glyph-name="period" unicode="." horiz-adv-x="221" 
d="M65 102q11 14 45 14q33 0 45 -14t12 -47q0 -34 -11.5 -47.5t-45.5 -13.5t-45 13t-11 48q0 33 11 47z" />
    <glyph glyph-name="slash" unicode="/" horiz-adv-x="404" 
d="M54 -35q-9 -5 -27 -5h-27l334 680q7 15 16 20t27 5h27l-334 -680q-7 -15 -16 -20z" />
    <glyph glyph-name="zero" unicode="0" horiz-adv-x="613" 
d="M80.5 528q16.5 66 65.5 89t161 23q111 0 159.5 -23t65.5 -89t17 -216q0 -154 -16 -219t-64 -86.5t-162 -21.5t-162.5 22t-64.5 87t-16 218q0 150 16.5 216zM149 106q0 -22 8 -33t28.5 -15.5t62.5 -4.5h215v466q0 22 -9 33t-31 15.5t-65 4.5h-209v-466z" />
    <glyph glyph-name="one" unicode="1" horiz-adv-x="415" 
d="M37 67h144v492l-154 -19v70l234 30v-573h122v-67h-346v67z" />
    <glyph glyph-name="two" unicode="2" horiz-adv-x="541" 
d="M59 72q0 89 19 131t82.5 78.5t231.5 106.5v177q-29 7 -95 7q-104 0 -212 -19l-10 62q75 25 197 25q107 0 156 -37t49 -118q0 -69 -22 -106.5t-89 -74.5t-231 -106v-131h331v-67h-407v72z" />
    <glyph glyph-name="three" unicode="3" horiz-adv-x="490" 
d="M34 10l9 62q41 -9 94 -14t102 -5q84 0 112 7v215l-175 21v43l175 27v199q-27 7 -88 7q-49 0 -102 -5t-94 -14l-8 62q68 25 190 25q187 0 187 -171q0 -51 -19.5 -90.5t-54.5 -58.5v-5q39 -22 56.5 -58.5t17.5 -93.5q0 -68 -20.5 -106.5t-68.5 -55t-134 -16.5
q-116 0 -179 25z" />
    <glyph glyph-name="four" unicode="4" horiz-adv-x="563" 
d="M34 145v37l241 443h170v-413h64v-67h-64v-145h-80v145h-331zM365 212v353h-41l-190 -353h231z" />
    <glyph glyph-name="five" unicode="5" horiz-adv-x="518" 
d="M64 10l10 62q98 -19 203 -19q70 0 102 7v189l-85 8q-92 10 -135 22.5t-59 35t-16 67.5l10 243h344l-6 -67h-258v-217l59 -6q93 -9 142 -26.5t69 -52t20 -96.5q0 -91 -49 -133t-156 -42q-117 0 -195 25z" />
    <glyph glyph-name="six" unicode="6" horiz-adv-x="554" 
d="M474.5 64.5q-20.5 -42.5 -67.5 -61t-130 -18.5q-98 0 -142 24t-60 90.5t-16 212.5q0 136 19.5 204.5t68.5 96t147 27.5q38 0 92.5 -7.5t81.5 -17.5l-10 -62q-35 8 -86 13.5t-95 5.5q-41 0 -80.5 -2t-52.5 -4v-208h165q97 0 141.5 -42t44.5 -134q0 -75 -20.5 -117.5z
M211 292q-41 0 -54 -8.5t-13 -33.5v-202h198q41 0 54 8.5t13 33.5v202h-198z" />
    <glyph glyph-name="seven" unicode="7" horiz-adv-x="460" 
d="M123 0l206 558h-293l-7 67h387v-49l-213 -576h-80z" />
    <glyph glyph-name="eight" unicode="8" horiz-adv-x="573" 
d="M417 624q47 -16 68 -52.5t21 -100.5q0 -51 -11.5 -97t-31.5 -75v-7q23 -16 37 -49t14 -72q0 -80 -18 -118.5t-64.5 -53t-143.5 -14.5q-98 0 -145.5 15t-65.5 53.5t-18 117.5q0 51 15.5 95.5t40.5 66.5v7q-23 20 -35.5 54.5t-12.5 76.5q0 63 21.5 99.5t69.5 53t130 16.5
t129 -16zM405 319q10 0 17 5.5t7 12.5v240h-209q-46 0 -61 -9t-15 -35v-128l244 -82q14 -4 17 -4zM156 320q-12 0 -12 -17v-255h207q46 0 61 9t15 35l1 139l-248 83q-15 6 -24 6z" />
    <glyph glyph-name="nine" unicode="9" horiz-adv-x="554" 
d="M79.5 560.5q20.5 42.5 67.5 61t130 18.5q98 0 142 -24t60 -90t16 -212q0 -136 -19.5 -205t-69.5 -96.5t-148 -27.5q-40 0 -97.5 8t-85.5 18l9 62q38 -8 92 -13.5t100 -5.5q43 0 82 2t51 5v207h-164q-97 0 -141.5 42t-44.5 134q0 74 20.5 116.5zM144 378q0 -26 10.5 -34
t44.5 -8h210v200q0 25 -11 33.5t-44 8.5h-210v-200z" />
    <glyph glyph-name="colon" unicode=":" horiz-adv-x="210" 
d="M54 0zM65 102q11 14 45 14q33 0 45 -14t12 -47q0 -34 -11.5 -47.5t-45.5 -13.5t-45 13t-11 48q0 33 11 47zM65 491q11 14 45 14q33 0 45 -14t12 -47q0 -34 -11.5 -47.5t-45.5 -13.5t-45 13t-11 48q0 33 11 47z" />
    <glyph glyph-name="semicolon" unicode=";" horiz-adv-x="210" 
d="M54 0zM74 -88l17 83q-21 4 -29 16.5t-8 43.5q0 35 12.5 48t46.5 13q30 0 42 -13.5t12 -47.5q0 -22 -25 -84l-32 -70zM65 491q11 14 45 14q33 0 45 -14t12 -47q0 -34 -11.5 -47.5t-45.5 -13.5t-45 13t-11 48q0 33 11 47z" />
    <glyph glyph-name="less" unicode="&#x3c;" horiz-adv-x="530" 
d="M444 418l-304 -106l304 -106v-66l-358 128v88l358 128v-66z" />
    <glyph glyph-name="equal" unicode="=" horiz-adv-x="530" 
d="M86 182zM444 250v-68h-358v68h358zM444 442v-68h-358v68h358z" />
    <glyph glyph-name="greater" unicode="&#x3e;" horiz-adv-x="530" 
d="M444 356v-88l-358 -128v66l304 106l-304 106v66z" />
    <glyph glyph-name="question" unicode="?" horiz-adv-x="396" 
d="M134 365q-1 12 11.5 20t53.5 23l95 34v132q-42 6 -94 6q-58 0 -158 -20l-10 54q86 26 158 26q69 0 109.5 -13t59 -42t18.5 -78t-11 -73.5t-47 -44.5t-121 -51l-4 -149h-50zM122.5 105q11.5 14 46.5 14q34 0 46 -14.5t12 -48.5q0 -35 -12 -48.5t-46 -13.5
q-35 0 -46.5 13.5t-11.5 48.5t11.5 49z" />
    <glyph glyph-name="at" unicode="@" horiz-adv-x="803" 
d="M638.5 531q71.5 -45 71.5 -141v-390h-35l-23 50q-35 -31 -79 -45t-101 -14q-81 0 -115 33.5t-34 112.5q0 76 19 107t77 41t199 10h12l1 188q-30 4 -85.5 7t-108.5 3q-82 0 -139 -10.5t-97 -49.5t-40 -119v-232q0 -73 32 -109t80.5 -45.5t122.5 -9.5h194v-63
q-90 -16 -159 -16q-132 0 -211 31.5t-116.5 105.5t-37.5 202v81q0 176 88.5 246.5t255.5 70.5q157 0 228.5 -45zM613 69q17 13 17 49v119h-151q-49 0 -66.5 -13t-17.5 -48v-120h153q48 0 65 13z" />
    <glyph glyph-name="A" unicode="A" horiz-adv-x="533" 
d="M392 148h-251l-44 -148h-80l190 625h119l190 -625h-80zM372 214l-101 339h-9l-101 -339h211z" />
    <glyph glyph-name="B" unicode="B" horiz-adv-x="580" 
d="M501 264.5q23 -35.5 23 -88.5q0 -86 -42 -131t-121 -45h-263v625h231q83 0 123.5 -37.5t40.5 -115.5q0 -58 -13.5 -92t-45.5 -58v-6q44 -16 67 -51.5zM394 541.5q-19 24.5 -68 24.5h-148v-223h147q49 0 68.5 24t19.5 86q0 64 -19 88.5zM423.5 87q21.5 28 21.5 92
q0 58 -21 83t-70 25h-176v-228h175q49 0 70.5 28z" />
    <glyph glyph-name="C" unicode="C" horiz-adv-x="485" 
d="M384 -9q-39 -6 -92 -6q-93 0 -139 28t-63.5 96t-17.5 203q0 136 18 204.5t66 96t144 27.5q32 0 74 -5.5t69 -14.5l-10 -67q-37 8 -85 13t-77 5q-43 0 -66.5 -5.5t-35.5 -22t-12 -49.5v-427q52 -16 127 -16q76 0 166 25l9 -65q-36 -14 -75 -20z" />
    <glyph glyph-name="D" unicode="D" horiz-adv-x="618" 
d="M311 625q102 0 150.5 -24t66.5 -88t18 -201q0 -136 -18 -200t-66.5 -88t-150.5 -24h-213v625h213zM178 68h203q44 0 61 16.5t17 58.5v339q0 42 -17 58.5t-61 16.5h-203v-489z" />
    <glyph glyph-name="E" unicode="E" horiz-adv-x="514" 
d="M178 67h283v-67h-363v625h358l-9 -67h-269v-213h244v-65h-244v-213z" />
    <glyph glyph-name="F" unicode="F" horiz-adv-x="446" 
d="M178 0h-80v625h326l-8 -67h-238v-224h206v-66h-206v-268z" />
    <glyph glyph-name="G" unicode="G" horiz-adv-x="569" 
d="M496 338v-320q-48 -18 -99.5 -25.5t-121.5 -7.5q-88 0 -129.5 24t-57.5 91.5t-16 211.5q0 135 19 203.5t68 96.5t148 28q37 0 86 -5.5t80 -14.5l-10 -67q-41 8 -97.5 13t-91.5 5q-44 0 -68.5 -5.5t-37 -22t-12.5 -49.5v-445h271v223h-104v66h173z" />
    <glyph glyph-name="H" unicode="H" horiz-adv-x="638" 
d="M540 625v-625h-80v276h-282v-276h-80v625h80v-283h282v283h80z" />
    <glyph glyph-name="I" unicode="I" horiz-adv-x="276" 
d="M178 625v-625h-80v625h80z" />
    <glyph glyph-name="J" unicode="J" horiz-adv-x="343" 
d="M117 63q24 0 36 5.5t12 24.5v465h-100v67h180v-496q0 -52 -17.5 -80.5t-50.5 -38.5t-87 -10h-58l-10 63h95z" />
    <glyph glyph-name="K" unicode="K" horiz-adv-x="540" 
d="M529 0h-91l-72 152q-21 45 -32 75t-11 62h-145v-289h-80v625h80v-272h145q0 33 11.5 65t31.5 72l67 135h91l-151 -304z" />
    <glyph glyph-name="L" unicode="L" horiz-adv-x="427" 
d="M98 625h80v-558h238v-67h-318v625z" />
    <glyph glyph-name="M" unicode="M" horiz-adv-x="792" 
d="M126 625h115l151 -498h7l152 498h115l43 -625h-79l-35 531h-6l-160 -531h-66l-160 531h-6l-35 -531h-79z" />
    <glyph glyph-name="N" unicode="N" horiz-adv-x="658" 
d="M103 625h77l263 -424q17 -29 21 -37t5 -23h6v484h80v-625h-77l-263 424q-17 29 -21 37t-5 23h-6v-484h-80v625z" />
    <glyph glyph-name="O" unicode="O" horiz-adv-x="631" 
d="M90 523.5q18 67.5 68 92t158 24.5q107 0 156.5 -25t68 -92t18.5 -211t-18.5 -211t-68 -91.5t-156.5 -24.5q-108 0 -158 24.5t-68 91.5t-18 211t18 211.5zM386 53q49 0 68 17t19 60v442h-230q-49 0 -67.5 -16.5t-18.5 -60.5v-442h229z" />
    <glyph glyph-name="P" unicode="P" horiz-adv-x="518" 
d="M178 0h-80v625h237q63 0 97.5 -19t49.5 -63.5t15 -124.5q0 -74 -14.5 -117.5t-46.5 -63.5t-86 -20h-172v-217zM338 283q43 0 59 9t16 33v191q0 24 -16 33t-59 9h-160v-275h160z" />
    <glyph glyph-name="Q" unicode="Q" horiz-adv-x="621" 
d="M556 -28l-20 -43l-169 56v22l-56 -22q-106 0 -155 24.5t-66.5 91.5t-17.5 211t18 211.5t66.5 92t154.5 24.5q104 0 153 -25t67 -92.5t18 -210.5q0 -134 -16 -198.5t-58 -90.5zM379 53q47 0 65.5 17t18.5 60v442h-221q-47 0 -65 -16.5t-18 -60.5v-442h220z" />
    <glyph glyph-name="R" unicode="R" horiz-adv-x="571" 
d="M446 0l-108 229h-160v-229h-80v625h242q63 0 97.5 -19t49.5 -63.5t15 -124.5t-19.5 -123t-64.5 -58l115 -237h-87zM178 295h165q43 0 59 9t16 33v179q0 24 -16 33t-59 9h-165v-263z" />
    <glyph glyph-name="S" unicode="S" horiz-adv-x="507" 
d="M154.5 57q54.5 -6 102.5 -6q51 0 119 6v212l-96 7q-94 7 -140 23t-64 50t-18 102q0 70 17.5 111t56 59.5t104.5 18.5q100 0 195 -17l-10 -63q-73 14 -187 14q-52 0 -88 -5v-214l118 -7q80 -5 122.5 -22.5t60 -55t17.5 -106.5t-20.5 -107.5t-68.5 -55t-135 -16.5
q-99 0 -190 22l12 65q38 -9 92.5 -15z" />
    <glyph glyph-name="T" unicode="T" horiz-adv-x="454" 
d="M267 0h-80v558h-170v67h420v-67h-170v-558z" />
    <glyph glyph-name="U" unicode="U" horiz-adv-x="639" 
d="M173.5 1q-48.5 16 -67 56.5t-18.5 122.5v445h80v-572h157q61 0 91.5 4.5t42.5 15.5t12 33v519h80v-445q0 -82 -18.5 -122.5t-67 -56.5t-145.5 -16q-98 0 -146.5 16z" />
    <glyph glyph-name="V" unicode="V" horiz-adv-x="501" 
d="M91 625l155 -553h9l155 553h80l-180 -625h-119l-180 625h80z" />
    <glyph glyph-name="W" unicode="W" horiz-adv-x="777" 
d="M752 625l-110 -625h-127l-126 510l-127 -510h-128l-109 625h80l93 -553h9l139 553h84l140 -553h9l93 553h80z" />
    <glyph glyph-name="X" unicode="X" horiz-adv-x="510" 
d="M409 0l-159 255l-152 -255h-87l196 323l-188 302h90l151 -242l144 242h87l-188 -312l196 -313h-90z" />
    <glyph glyph-name="Y" unicode="Y" horiz-adv-x="472" 
d="M461 625l-185 -407v-218h-80v218l-185 407h83l142 -323l142 323h83z" />
    <glyph glyph-name="Z" unicode="Z" horiz-adv-x="536" 
d="M37 54l359 498l-3 6h-305l-10 67h422v-54l-360 -498l3 -6h337v-67h-443v54z" />
    <glyph glyph-name="bracketleft" unicode="[" horiz-adv-x="267" 
d="M88.5 676.5q14.5 22.5 47.5 32t94 9.5l7 -63l-83 -8v-669l83 -8l-7 -63q-61 0 -94 9.5t-47.5 32t-14.5 63.5v601q0 41 14.5 63.5z" />
    <glyph glyph-name="backslash" unicode="\" horiz-adv-x="395" 
d="M39 665q19 0 27 -5.5t16 -19.5l317 -680h-43q-19 0 -27 5.5t-16 19.5l-317 680h43z" />
    <glyph glyph-name="bracketright" unicode="]" horiz-adv-x="267" 
d="M193 12q0 -41 -14.5 -63.5t-47.5 -32t-94 -9.5l-7 63l83 8v669l-83 8l7 63q61 0 94 -9.5t47.5 -32t14.5 -63.5v-601z" />
    <glyph glyph-name="asciicircum" unicode="^" horiz-adv-x="530" 
d="M395 120l-130 331l-130 -331h-66l152 384h89l152 -384h-67z" />
    <glyph glyph-name="underscore" unicode="_" horiz-adv-x="475" 
d="M37 -4.5q12 7.5 45 7.5h368v-29q0 -27 -12 -34.5t-45 -7.5h-368v29q0 27 12 34.5z" />
    <glyph glyph-name="grave" unicode="`" horiz-adv-x="600" 
d="M80 557zM132 592q-13 3 -21 10l-25 19q-6 6 -6 10q0 3 7 11l39 49q3 4 6 4q2 0 7 -4l145 -105l-19 -29z" />
    <glyph glyph-name="a" unicode="a" horiz-adv-x="541" 
d="M377.5 496.5q37.5 -12.5 54 -41.5t16.5 -79v-376h-35l-23 50q-35 -31 -79 -45t-101 -14q-81 0 -115 33.5t-34 112.5q0 76 19 107t77 41t199 10h12v136q-40 12 -111 12q-77 0 -163 -23l-11 60q32 13 86 21t104 8q67 0 104.5 -12.5zM351 69q17 13 17 49v119h-151
q-49 0 -66.5 -13t-17.5 -48v-120h153q48 0 65 13z" />
    <glyph glyph-name="b" unicode="b" horiz-adv-x="564" 
d="M435 494q36 -21 49.5 -76t13.5 -168q0 -112 -14.5 -165.5t-53.5 -73.5t-121 -20q-33 0 -47 1q-74 4 -164 28v648l80 11v-190q21 15 56 20.5t91 5.5q74 0 110 -21zM415 447h-190q-28 0 -37.5 -5t-9.5 -20v-363h189q27 0 37.5 4t10.5 15v369z" />
    <glyph glyph-name="c" unicode="c" horiz-adv-x="454" 
d="M128 11.5q-35 20.5 -48.5 74.5t-13.5 164q0 111 13.5 164.5t48.5 74t108 20.5q90 0 161 -17l-11 -64q-78 15 -147 15q-51 0 -71 -19t-20 -67v-288q39 -12 112 -12q32 0 62.5 5t75.5 18l10 -60q-32 -14 -78 -21.5t-94 -7.5q-73 0 -108 20.5z" />
    <glyph glyph-name="d" unicode="d" horiz-adv-x="564" 
d="M466 679v-679h-35l-19 39q-19 -31 -56 -42.5t-105 -11.5q-81 0 -119 19.5t-52 74t-14 171.5q0 110 13.5 163.5t48.5 74.5t107 21q57 0 93 -6t58 -20v185zM386 441h-190q-28 0 -37.5 -5t-9.5 -20v-363h189q29 0 38.5 5t9.5 20v363z" />
    <glyph glyph-name="e" unicode="e" horiz-adv-x="535" 
d="M342 62q38 5 93 18l11 -60q-34 -13 -88 -21t-112 -8q-76 0 -113.5 21t-52 75.5t-14.5 162.5q0 103 17.5 158t60 78t122.5 23q79 0 119.5 -12.5t57 -43t16.5 -90.5q0 -76 -19.5 -107t-80.5 -41t-210 -10v-136q43 -12 114 -12q41 0 79 5zM167 427q-18 -13 -18 -49v-115h151
q51 0 69 13t18 48v116h-152q-50 0 -68 -13z" />
    <glyph glyph-name="f" unicode="f" horiz-adv-x="328" 
d="M208 612v-112h84v-57h-84v-443h-80v443h-74v57h74q4 70 15 107t32.5 52.5t61.5 15.5q48 0 88 -10l-5 -62z" />
    <glyph glyph-name="g" unicode="g" horiz-adv-x="498" 
d="M369 45.5q38 -10.5 51.5 -29.5t13.5 -59q0 -46 -18 -71.5t-59.5 -37t-115.5 -11.5q-52 0 -102 8t-82 21l11 64q54 -13 89 -18.5t71 -5.5q84 0 135 12v82q-104 6 -147 15.5t-43 26.5l26 106q-58 4 -90.5 22.5t-46 56.5t-13.5 103q0 72 17 111.5t57.5 56.5t114.5 17
q80 0 121 -20l69 52l41 -40l-58 -66q17 -38 17 -111q0 -70 -16 -108.5t-53.5 -55.5t-107.5 -19l-5 -82q85 -9 123 -19.5zM130 205h136q46 0 63.5 15t17.5 53v183h-136q-46 0 -63.5 -14.5t-17.5 -53.5v-183z" />
    <glyph glyph-name="h" unicode="h" horiz-adv-x="572" 
d="M98 658l78 7v-201q33 24 71.5 34.5t91.5 10.5q140 0 140 -79v-430h-80v444h-133q-52 0 -70 -13t-18 -49v-382h-80v658z" />
    <glyph glyph-name="i" unicode="i" horiz-adv-x="276" 
d="M86 0zM178 510v-510h-80v497zM97 606.5q-11 10.5 -11 40.5q0 31 11 42t42 11q30 0 40.5 -11t10.5 -42q0 -30 -10 -40.5t-41 -10.5t-42 10.5z" />
    <glyph glyph-name="j" unicode="j" horiz-adv-x="276" 
d="M0 0zM-4 -164l6 45q43 0 62.5 4.5t26.5 16.5t7 39v556l80 13v-580q0 -53 -28.5 -78.5t-86.5 -25.5q-37 0 -67 10zM97 606.5q-11 10.5 -11 40.5q0 31 11 42t42 11q30 0 40.5 -11t10.5 -42q0 -30 -10 -40.5t-41 -10.5t-42 10.5z" />
    <glyph glyph-name="k" unicode="k" horiz-adv-x="479" 
d="M178 237v-237h-80v650l80 15v-368h88l113 203h84l-130 -232l135 -268h-82l-120 237h-88z" />
    <glyph glyph-name="l" unicode="l" horiz-adv-x="263" 
d="M217 56l-5 -55q-30 -10 -57 -10q-63 0 -63 68v591l80 15v-605z" />
    <glyph glyph-name="m" unicode="m" horiz-adv-x="852" 
d="M759 430v-430h-80v444h-117q-49 0 -69 -10t-24 -37v-397h-80v444h-117q-55 0 -74.5 -13.5t-19.5 -50.5v-380h-80v500h35l23 -50q35 31 76 45t97 14q107 0 132 -46q31 24 69.5 35t88.5 11q140 0 140 -79z" />
    <glyph glyph-name="n" unicode="n" horiz-adv-x="572" 
d="M98 500h35l23 -50q36 31 80 45t103 14q140 0 140 -79v-430h-80v444h-127q-55 0 -74.5 -13.5t-19.5 -50.5v-380h-80v500z" />
    <glyph glyph-name="o" unicode="o" horiz-adv-x="547" 
d="M141 11.5q-43 20.5 -59 74t-16 164.5t16 164.5t59 74t132 20.5q90 0 133 -20t59 -73.5t16 -165.5q0 -111 -16 -164.5t-59.5 -74t-132.5 -20.5t-132 20.5zM349 59q30 0 40 5t10 20v357h-201q-30 0 -40 -5t-10 -20v-357h201z" />
    <glyph glyph-name="p" unicode="p" horiz-adv-x="564" 
d="M436 489q36 -20 49 -73.5t13 -165.5q0 -113 -13.5 -168t-49.5 -76t-110 -21q-56 0 -91 5.5t-56 20.5v-179l-80 -11v679h35l20 -41q19 29 58.5 39.5t113.5 10.5q75 0 111 -20zM415 441h-190q-27 0 -37 -4t-10 -15v-369h189q29 0 38.5 5t9.5 20v363z" />
    <glyph glyph-name="q" unicode="q" horiz-adv-x="564" 
d="M466 500v-668l-80 -11v190q-21 -15 -56 -20.5t-91 -5.5q-74 0 -110 21t-49.5 76t-13.5 168q0 112 13 165.5t49 73.5t111 20q74 0 113.5 -10.5t58.5 -39.5l20 41h35zM376.5 58q9.5 5 9.5 20v363h-190q-27 0 -37 -4t-10 -15v-369h189q29 0 38.5 5z" />
    <glyph glyph-name="r" unicode="r" horiz-adv-x="327" 
d="M165 418q48 42 79.5 64.5t55.5 32.5l10 -79q-34 -11 -70 -30t-62 -39v-367h-80v500h36z" />
    <glyph glyph-name="s" unicode="s" horiz-adv-x="473" 
d="M105 480q44 35 138 35q80 0 156 -22l-12 -60q-26 7 -60.5 12t-62.5 5q-62 0 -120 -9v-135q125 -18 182 -35.5t77.5 -46.5t20.5 -86t-19.5 -90t-63.5 -48t-119 -15q-80 0 -173 28l14 67q78 -30 165 -30q35 0 58 3t55 13v133q-136 21 -190.5 37t-72 44t-17.5 90
q0 75 44 110z" />
    <glyph glyph-name="t" unicode="t" horiz-adv-x="352" 
d="M210 443v-383q64 -4 73 -4l-5 -55q-57 -10 -85 -10q-63 0 -63 68v384h-74v57h74v112l80 20v-132h93v-57h-93z" />
    <glyph glyph-name="u" unicode="u" horiz-adv-x="572" 
d="M474 0h-35l-22 50q-39 -31 -86.5 -45t-109.5 -14q-66 0 -97 23.5t-31 73.5v412h80v-444h127q55 0 74.5 13t19.5 51v380h80v-500z" />
    <glyph glyph-name="v" unicode="v" horiz-adv-x="445" 
d="M87 500l131 -433h10l131 433h80l-155 -500h-122l-155 500h80z" />
    <glyph glyph-name="w" unicode="w" horiz-adv-x="682" 
d="M676 500l-129 -500h-112l-93 383l-94 -383h-112l-129 500h80l104 -433h10l102 433h77l102 -433h10l104 433h80z" />
    <glyph glyph-name="x" unicode="x" horiz-adv-x="495" 
d="M381 0l-137 200l-129 -200h-84l172 259l-166 241h84l131 -190l122 190h84l-166 -249l173 -251h-84z" />
    <glyph glyph-name="y" unicode="y" horiz-adv-x="435" 
d="M429 500l-150 -474q-24 -77 -50 -120t-60.5 -61.5t-85.5 -18.5q-43 0 -80 10l3 43l59 7q41 6 63 16t36 30.5t26 59.5l10 34h-43l-150 474h80l126 -407h10l126 407h80z" />
    <glyph glyph-name="z" unicode="z" horiz-adv-x="462" 
d="M319 442h-250l-7 58h360v-44l-283 -392l3 -6h273v-58h-374v44l283 392z" />
    <glyph glyph-name="braceleft" unicode="{" horiz-adv-x="307" 
d="M253 -29l-5 -64q-65 0 -96.5 6t-46 29.5t-11.5 75.5l15 242l-65 17v68l65 17l-15 245q-3 53 9.5 76t43.5 29t101 6l5 -64l-83 -7l19 -200q1 -7 1 -21q0 -72 -57 -109v-12q57 -37 57 -109q0 -14 -1 -21l-19 -197z" />
    <glyph glyph-name="bar" unicode="|" horiz-adv-x="260" 
d="M154 704v-884h-48v884h48z" />
    <glyph glyph-name="braceright" unicode="}" horiz-adv-x="307" 
d="M118 175q-1 7 -1 21q0 72 57 109v12q-57 37 -57 109q0 14 1 21l19 200l-83 7l5 64q66 0 96 -5t44.5 -24t14.5 -62l-1 -20l-15 -245l65 -17v-68l-65 -17l15 -242q3 -52 -11.5 -75.5t-46 -29.5t-96.5 -6l-5 64l83 7z" />
    <glyph glyph-name="asciitilde" unicode="~" horiz-adv-x="530" 
d="M368 247q-23 0 -46 8.5t-57 25.5q-36 17 -58.5 25.5t-45.5 8.5q-40 0 -75 -32v64q35 31 75 31q23 0 45.5 -8.5t58.5 -25.5q34 -17 57 -25.5t46 -8.5q40 0 76 33v-64q-36 -32 -76 -32z" />
    <glyph glyph-name="uni00A0" unicode="&#xa0;" horiz-adv-x="690" 
 />
    <glyph glyph-name="exclamdown" unicode="&#xa1;" horiz-adv-x="241" 
d="M167.5 404q-11.5 -14 -46.5 -14q-34 0 -46 14.5t-12 48.5q0 35 12 48.5t46 13.5q35 0 46.5 -13.5t11.5 -48.5t-11.5 -49zM173 -120q0 -8 -4.5 -12t-16.5 -4h-62q-23 0 -23 16l28 440h50z" />
    <glyph glyph-name="cent" unicode="&#xa2;" horiz-adv-x="454" 
d="M339 65q-40 -8 -83 -9l-15 -186h-53l15 187q-57 4 -86 27.5t-40 76t-11 154.5q0 111 13.5 164.5t48.5 74t108 20.5h13l16 180h53l-16 -183q60 -5 95 -14l-11 -64q-78 15 -147 15q-51 0 -71 -19t-20 -67v-288q39 -12 112 -12q32 0 62.5 5t75.5 18l10 -60q-29 -12 -69 -20z
" />
    <glyph glyph-name="sterling" unicode="&#xa3;" horiz-adv-x="512" 
d="M461 67l11 -67h-410v38l53 26l19 228h-72v47h76l5 54q9 93 32 146t66 77t114 24q20 0 58 -6t68 -14l-17 -67q-28 8 -66.5 13t-69.5 5q-50 0 -70 -22.5t-27 -83.5l-11 -126h148l-4 -47h-148l-18 -225h263z" />
    <glyph glyph-name="currency" unicode="&#xa4;" horiz-adv-x="682" 
d="M538 232.5q-8 -40.5 -29 -62.5l100 -138l-47 -29l-100 138q-39 -12 -120 -12q-83 0 -122 12l-100 -138l-47 29l100 137q-21 22 -29 63t-8 111q0 69 8 109.5t29 63.5l-100 138l46 29l99 -139q42 14 124 14q85 0 122 -14l99 139l47 -29l-100 -139q20 -22 28 -63t8 -109
q0 -70 -8 -110.5zM455 201v247q0 23 -16.5 31t-63.5 8h-148v-249q0 -22 14.5 -29.5t59.5 -7.5h154z" />
    <glyph glyph-name="yen" unicode="&#xa5;" horiz-adv-x="472" 
d="M329 335h93v-47h-114l-32 -70v-16h146v-47h-146v-155h-80v155h-134v47h134v16l-32 70h-102v47h81l-132 290h83l142 -323l142 323h83z" />
    <glyph glyph-name="brokenbar" unicode="&#xa6;" horiz-adv-x="260" 
d="M154 704v-336h-48v336h48zM154 156v-336h-48v336h48z" />
    <glyph glyph-name="section" unicode="&#xa7;" horiz-adv-x="468" 
d="M418 89q7 -22 7 -57q0 -57 -19.5 -90t-63.5 -48t-119 -15q-77 0 -173 28l14 67q78 -30 165 -30q36 0 59.5 3t53.5 13v133q-135 22 -190 39.5t-72.5 47t-17.5 96.5q0 61 32 96q-19 16 -25.5 38.5t-6.5 62.5q0 75 44 110t138 35q80 0 156 -22l-12 -60q-26 8 -60 12.5
t-63 4.5q-67 0 -120 -9v-135q125 -19 182 -38t77.5 -50t20.5 -92q0 -70 -32 -102q18 -16 25 -38zM149 192q135 -19 189 -37v155q-77 12 -119 20t-70 17v-155z" />
    <glyph glyph-name="dieresis" unicode="&#xa8;" horiz-adv-x="600" 
d="M55 580zM63.5 590.5q-8.5 10.5 -8.5 41.5q0 30 8.5 41t36.5 11q27 0 36 -11t9 -41t-8.5 -41t-36.5 -11t-36.5 10.5zM241.5 590.5q-8.5 10.5 -8.5 41.5q0 30 8.5 41t36.5 11q27 0 36 -11t9 -41t-8.5 -41t-36.5 -11t-36.5 10.5z" />
    <glyph glyph-name="copyright" unicode="&#xa9;" horiz-adv-x="563" 
d="M91 240q-61 61 -61 191t61 190.5t191 60.5t190.5 -60.5t60.5 -190.5t-60.5 -191t-190.5 -61t-191 61zM411 228.5q47 21.5 68.5 70t21.5 132.5q0 83 -21.5 131.5t-68.5 70t-129 21.5t-129.5 -21.5t-69 -70t-21.5 -131.5q0 -84 21.5 -132.5t69 -70t129.5 -21.5t129 21.5z
M196.5 309q-26.5 35 -26.5 120q0 86 26.5 121.5t91.5 35.5q19 0 44 -3.5t36 -8.5l-12 -56q-26 7 -61 7q-26 0 -36 -5.5t-10 -19.5v-159q15 -4 39 -4q39 0 74 10l6 -61q-25 -12 -80 -12q-65 0 -91.5 35z" />
    <glyph glyph-name="ordfeminine" unicode="&#xaa;" horiz-adv-x="389" 
d="M310.5 722.5q31.5 -23.5 31.5 -82.5l-2 -290h-31l-19 39q-28 -24 -62.5 -35t-78.5 -11q-64 0 -91 26t-27 88q0 57 15 81t61 32t154 8h10v104q-32 8 -84 8t-129 -18l-9 52q27 10 70 16t82 6q78 0 109.5 -23.5zM257.5 408q13.5 10 13.5 36v89h-112q-38 0 -51.5 -9.5
t-13.5 -37.5v-88h113q37 0 50.5 10zM56 281.5q8 7.5 33 7.5h233v-18q0 -24 -7.5 -31t-34.5 -7h-232v17q0 24 8 31.5z" />
    <glyph glyph-name="guillemotleft" unicode="&#xab;" horiz-adv-x="403" 
d="M25 211v77l142 150l26 -22l-95 -166l95 -166l-26 -22zM210 211v77l142 150l26 -22l-95 -166l95 -166l-26 -22z" />
    <glyph glyph-name="logicalnot" unicode="&#xac;" horiz-adv-x="530" 
d="M444 346v-184h-58v116h-300v68h358z" />
    <glyph glyph-name="registered" unicode="&#xae;" horiz-adv-x="563" 
d="M91 621.5q61 60.5 191 60.5t190.5 -60.5t60.5 -190.5t-60.5 -191t-190.5 -61t-191 61t-61 191t61 190.5zM83.5 298.5q21.5 -48.5 69 -70t129.5 -21.5t129 21.5t68.5 70t21.5 132.5q0 83 -21.5 131.5t-68.5 70t-129 21.5t-129.5 -21.5t-69 -70t-21.5 -131.5
q0 -84 21.5 -132.5zM286 380h-42v-99h-72v300h128q99 0 99 -100q0 -34 -11.5 -57t-33.5 -33l57 -110h-82zM288 435q20 0 28 4.5t8 17.5v45q0 13 -7.5 17t-28.5 4h-44v-88h44z" />
    <glyph glyph-name="macron" unicode="&#xaf;" horiz-adv-x="600" 
d="M84 590zM91.5 599q-7.5 9 -7.5 33v29h189q28 0 35.5 -8t7.5 -33v-30h-189q-28 0 -35.5 9z" />
    <glyph glyph-name="degree" unicode="&#xb0;" horiz-adv-x="407" 
d="M95 638q34 35 109 35q74 0 108 -35t34 -107q0 -73 -33.5 -108t-108.5 -35t-109 35t-34 108q0 72 34 107zM203 461q33 0 47.5 6.5t14.5 32.5v100h-57q-37 0 -52.5 -6.5t-15.5 -31.5v-101h63z" />
    <glyph glyph-name="plusminus" unicode="&#xb1;" horiz-adv-x="531" 
d="M86 0zM445 320h-145v-145h-68v145h-145v68h145v145h68v-145h145v-68zM444 68v-68h-358v68h358z" />
    <glyph glyph-name="uni00B2" unicode="&#xb2;" horiz-adv-x="423" 
d="M66 324zM66 372q0 58 13 85t58 51t163 68v114q-27 5 -67 5q-69 0 -149 -13l-7 42q58 16 136 16q74 0 108 -24t34 -77q0 -45 -13.5 -68.5t-61.5 -48.5t-164 -70v-83h231v-45h-281v48z" />
    <glyph glyph-name="uni00B3" unicode="&#xb3;" horiz-adv-x="393" 
d="M52 314zM52 330l5 42q65 -12 138 -12q61 0 78 4v138l-122 14v29l122 17v128q-20 5 -60 5q-71 0 -138 -13l-5 42q51 16 131 16q128 0 128 -111q0 -33 -13 -59t-37 -39v-3q26 -14 38 -37.5t12 -60.5q0 -42 -11.5 -66.5t-45 -37t-97.5 -12.5q-73 0 -123 16z" />
    <glyph glyph-name="acute" unicode="&#xb4;" horiz-adv-x="600" 
d="M138 569zM138 598l145 105q5 4 7 4q3 0 6 -4l39 -49q7 -8 7 -11q0 -4 -7 -10l-24 -19q-8 -6 -22 -10l-133 -35z" />
    <glyph glyph-name="uni00B5" unicode="&#xb5;" horiz-adv-x="577" 
d="M98 500h80v-444h119q46 0 74 17t28 69v358h80v-500h-36l-23 51q-26 -28 -67 -39.5t-79 -11.5h-109l-32 -165h-35v665z" />
    <glyph glyph-name="paragraph" unicode="&#xb6;" horiz-adv-x="604" 
d="M209 63v250q-65 8 -98 47t-33 106q0 159 181 159h257v-67h-50v-558h-75v558h-126v-558h-147v32z" />
    <glyph glyph-name="periodcentered" unicode="&#xb7;" horiz-adv-x="221" 
d="M65 281q11 14 45 14q33 0 45 -14t12 -47q0 -34 -11.5 -47.5t-45.5 -13.5t-45 13t-11 48q0 33 11 47z" />
    <glyph glyph-name="cedilla" unicode="&#xb8;" horiz-adv-x="600" 
d="M0 0zM-3 -155l6 41h37q24 0 33.5 6.5t9.5 23.5v105h12q25 -14 40 -45.5t15 -68.5q0 -35 -25 -56.5t-67 -21.5q-29 0 -61 16z" />
    <glyph glyph-name="uni00B9" unicode="&#xb9;" horiz-adv-x="343" 
d="M47 324zM54 369h101v317l-108 -13v48l159 19v-371h87v-45h-239v45z" />
    <glyph glyph-name="ordmasculine" unicode="&#xba;" horiz-adv-x="494" 
d="M138.5 369.5q-35.5 16.5 -49 59.5t-13.5 131t13.5 131t49 59.5t108.5 16.5q75 0 110.5 -16.5t48.5 -59t13 -131.5q0 -88 -13.5 -131t-49 -59.5t-109.5 -16.5q-73 0 -108.5 16.5zM308 412q24 0 32 4t8 15v277h-161q-23 0 -31.5 -4t-8.5 -15v-277h161zM107.5 282.5
q8.5 7.5 35.5 7.5h254v-18q0 -24 -8.5 -31t-36.5 -7h-253v17q0 24 8.5 31.5z" />
    <glyph glyph-name="guillemotright" unicode="&#xbb;" horiz-adv-x="403" 
d="M193 289v-77l-142 -150l-26 22l95 166l-95 166l26 22zM378 289v-77l-142 -150l-26 22l95 166l-95 166l26 22z" />
    <glyph glyph-name="onequarter" unicode="&#xbc;" horiz-adv-x="942" 
d="M47 0zM54 269h101v317l-108 -13v48l159 19v-371h87v-45h-239v45zM337 -34.5q-8 -5.5 -27 -5.5h-15l233 680q4 13 13.5 19t29.5 6h15l-233 -680q-8 -14 -16 -19.5zM550 94v25l170 287h114v-268h46v-44h-46v-94h-52v94h-232zM782 138v229h-29l-136 -229h165z" />
    <glyph glyph-name="onehalf" unicode="&#xbd;" horiz-adv-x="961" 
d="M47 0zM54 269h101v317l-108 -13v48l159 19v-371h87v-45h-239v45zM337 -34.5q-8 -5.5 -27 -5.5h-15l233 680q4 13 13.5 19t29.5 6h15l-233 -680q-8 -14 -16 -19.5zM604 48q0 58 13 85t58 51t163 68v114q-27 5 -67 5q-69 0 -149 -13l-7 42q58 16 136 16q74 0 108 -24
t34 -77q0 -45 -13.5 -68.5t-61.5 -48.5t-164 -70v-83h231v-45h-281v48z" />
    <glyph glyph-name="threequarters" unicode="&#xbe;" horiz-adv-x="992" 
d="M52 0zM52 230l5 42q64 -12 138 -12q61 0 78 4v138l-122 14v29l122 17v128q-20 5 -60 5q-71 0 -138 -13l-5 42q51 16 131 16q128 0 128 -111q0 -33 -13 -59t-37 -39v-3q26 -14 38 -37.5t12 -60.5q0 -42 -11.5 -66.5t-45 -37t-97.5 -12.5q-73 0 -123 16zM387 -34.5
q-8 -5.5 -27 -5.5h-15l233 680q4 13 13.5 19t29.5 6h15l-233 -680q-8 -14 -16 -19.5zM600 94v25l170 287h114v-268h46v-44h-46v-94h-52v94h-232zM832 138v229h-29l-136 -229h165z" />
    <glyph glyph-name="questiondown" unicode="&#xbf;" horiz-adv-x="396" 
d="M273.5 404q-11.5 -14 -46.5 -14q-34 0 -46 14.5t-12 48.5q0 35 12 48.5t46 13.5q35 0 46.5 -13.5t11.5 -48.5t-11.5 -49zM262 144q1 -12 -11.5 -20t-53.5 -23l-95 -34v-132q42 -6 94 -6q58 0 158 20l10 -54q-86 -26 -158 -26q-69 0 -109.5 13t-59 42t-18.5 78t11 73.5
t47 44.5t121 51l4 149h50z" />
    <glyph glyph-name="Agrave" unicode="&#xc0;" horiz-adv-x="533" 
d="M17 0zM392 148h-251l-44 -148h-80l190 625h119l190 -625h-80zM372 214l-101 339h-9l-101 -339h211zM217 717q-13 3 -21 10l-25 19q-6 6 -6 10q0 3 7 11l39 49q3 4 6 4q2 0 7 -4l145 -105l-19 -29z" />
    <glyph glyph-name="Aacute" unicode="&#xc1;" horiz-adv-x="533" 
d="M17 0zM392 148h-251l-44 -148h-80l190 625h119l190 -625h-80zM372 214l-101 339h-9l-101 -339h211zM188 723l145 105q5 4 7 4q3 0 6 -4l39 -49q7 -8 7 -11q0 -4 -7 -10l-24 -19q-8 -6 -22 -10l-133 -35z" />
    <glyph glyph-name="Acircumflex" unicode="&#xc2;" horiz-adv-x="533" 
d="M17 0zM392 148h-251l-44 -148h-80l190 625h119l190 -625h-80zM372 214l-101 339h-9l-101 -339h211zM154 716l98 112q4 5 9 5h12q5 0 9 -5l98 -112l-32 -31l-81 62l-81 -62z" />
    <glyph glyph-name="Atilde" unicode="&#xc3;" horiz-adv-x="533" 
d="M17 0zM392 148h-251l-44 -148h-80l190 625h119l190 -625h-80zM372 214l-101 339h-9l-101 -339h211zM264.5 700q-11.5 7 -44.5 36l-63 -32l-25 41q49 37 73 50.5t39 13.5q12 0 22.5 -7t46.5 -36l63 32l25 -41q-43 -34 -69 -49t-43 -15q-13 0 -24.5 7z" />
    <glyph glyph-name="Adieresis" unicode="&#xc4;" horiz-adv-x="533" 
d="M17 0zM392 148h-251l-44 -148h-80l190 625h119l190 -625h-80zM372 214l-101 339h-9l-101 -339h211zM141.5 715.5q-8.5 10.5 -8.5 41.5q0 30 8.5 41t36.5 11q27 0 36 -11t9 -41t-8.5 -41t-36.5 -11t-36.5 10.5zM319.5 715.5q-8.5 10.5 -8.5 41.5q0 30 8.5 41t36.5 11
q27 0 36 -11t9 -41t-8.5 -41t-36.5 -11t-36.5 10.5z" />
    <glyph glyph-name="Aring" unicode="&#xc5;" horiz-adv-x="533" 
d="M17 0zM392 148h-251l-44 -148h-80l190 625h119l190 -625h-80zM372 214l-101 339h-9l-101 -339h211zM193.5 689.5q-22.5 23.5 -22.5 72.5q0 48 22.5 71.5t73.5 23.5q49 0 71.5 -23.5t22.5 -71.5q0 -49 -22.5 -72.5t-71.5 -23.5q-51 0 -73.5 23.5zM267 714q22 0 32 4.5
t10 21.5v69h-41q-24 0 -34.5 -4.5t-10.5 -20.5v-70h44z" />
    <glyph glyph-name="AE" unicode="&#xc6;" horiz-adv-x="742" 
d="M179 625h459l-13 -76h-262l54 -204h179v-73h-161l51 -196h202v-76h-267l-36 145h-248l-35 -145h-85zM366 221l-81 332h-47l-82 -332h210z" />
    <glyph glyph-name="Ccedilla" unicode="&#xc7;" horiz-adv-x="485" 
d="M384.5 -9q-38.5 -6 -90.5 -6q20 -37 20 -78q0 -35 -25 -56.5t-67 -21.5q-29 0 -61 16l6 41h37q24 0 33.5 6.5t9.5 23.5v71q-72 6 -109 37.5t-51.5 98t-14.5 189.5q0 136 18 204.5t66 96t144 27.5q32 0 74 -5.5t69 -14.5l-10 -67q-37 8 -85 13t-77 5q-43 0 -66.5 -5.5
t-35.5 -22t-12 -49.5v-427q52 -16 127 -16q76 0 166 25l9 -65q-36 -14 -74.5 -20z" />
    <glyph glyph-name="Egrave" unicode="&#xc8;" horiz-adv-x="514" 
d="M98 0zM178 67h283v-67h-363v625h358l-9 -67h-269v-213h244v-65h-244v-213zM232 717q-13 3 -21 10l-25 19q-6 6 -6 10q0 3 7 11l39 49q3 4 6 4q2 0 7 -4l145 -105l-19 -29z" />
    <glyph glyph-name="Eacute" unicode="&#xc9;" horiz-adv-x="514" 
d="M98 0zM178 67h283v-67h-363v625h358l-9 -67h-269v-213h244v-65h-244v-213zM203 723l145 105q5 4 7 4q3 0 6 -4l39 -49q7 -8 7 -11q0 -4 -7 -10l-24 -19q-8 -6 -22 -10l-133 -35z" />
    <glyph glyph-name="Ecircumflex" unicode="&#xca;" horiz-adv-x="514" 
d="M98 0zM178 67h283v-67h-363v625h358l-9 -67h-269v-213h244v-65h-244v-213zM169 716l98 112q4 5 9 5h12q5 0 9 -5l98 -112l-32 -31l-81 62l-81 -62z" />
    <glyph glyph-name="Edieresis" unicode="&#xcb;" horiz-adv-x="514" 
d="M98 0zM178 67h283v-67h-363v625h358l-9 -67h-269v-213h244v-65h-244v-213zM156.5 715.5q-8.5 10.5 -8.5 41.5q0 30 8.5 41t36.5 11q27 0 36 -11t9 -41t-8.5 -41t-36.5 -11t-36.5 10.5zM334.5 715.5q-8.5 10.5 -8.5 41.5q0 30 8.5 41t36.5 11q27 0 36 -11t9 -41t-8.5 -41
t-36.5 -11t-36.5 10.5z" />
    <glyph glyph-name="Igrave" unicode="&#xcc;" horiz-adv-x="276" 
d="M36 0zM178 625v-625h-80v625h80zM88 717q-13 3 -21 10l-25 19q-6 6 -6 10q0 3 7 11l39 49q3 4 6 4q2 0 7 -4l145 -105l-19 -29z" />
    <glyph glyph-name="Iacute" unicode="&#xcd;" horiz-adv-x="276" 
d="M59 0zM178 625v-625h-80v625h80zM59 723l145 105q5 4 7 4q3 0 6 -4l39 -49q7 -8 7 -11q0 -4 -7 -10l-24 -19q-8 -6 -22 -10l-133 -35z" />
    <glyph glyph-name="Icircumflex" unicode="&#xce;" horiz-adv-x="276" 
d="M25 0zM178 625v-625h-80v625h80zM25 716l98 112q4 5 9 5h12q5 0 9 -5l98 -112l-32 -31l-81 62l-81 -62z" />
    <glyph glyph-name="Idieresis" unicode="&#xcf;" horiz-adv-x="276" 
d="M4 0zM178 625v-625h-80v625h80zM12.5 715.5q-8.5 10.5 -8.5 41.5q0 30 8.5 41t36.5 11q27 0 36 -11t9 -41t-8.5 -41t-36.5 -11t-36.5 10.5zM190.5 715.5q-8.5 10.5 -8.5 41.5q0 30 8.5 41t36.5 11q27 0 36 -11t9 -41t-8.5 -41t-36.5 -11t-36.5 10.5z" />
    <glyph glyph-name="Eth" unicode="&#xd0;" horiz-adv-x="618" 
d="M461.5 601q48.5 -24 66.5 -88t18 -201q0 -136 -18 -200t-66.5 -88t-150.5 -24h-213v285h-64v17q0 24 7 31.5t30 7.5h27v284h213q102 0 150.5 -24zM459 482q0 42 -17 58.5t-61 16.5h-203v-216h105v-18q0 -24 -7 -31t-31 -7h-67v-217h203q44 0 61 16.5t17 58.5v339z" />
    <glyph glyph-name="Ntilde" unicode="&#xd1;" horiz-adv-x="658" 
d="M103 0zM103 625h77l263 -424q17 -29 21 -37t5 -23h6v484h80v-625h-77l-263 424q-17 29 -21 37t-5 23h-6v-484h-80v625zM339.5 700q-11.5 7 -44.5 36l-63 -32l-25 41q49 37 73 50.5t39 13.5q12 0 22.5 -7t46.5 -36l63 32l25 -41q-43 -34 -69 -49t-43 -15q-13 0 -24.5 7z
" />
    <glyph glyph-name="Ograve" unicode="&#xd2;" horiz-adv-x="631" 
d="M72 0zM90 523.5q18 67.5 68 92t158 24.5q107 0 156.5 -25t68 -92t18.5 -211t-18.5 -211t-68 -91.5t-156.5 -24.5q-108 0 -158 24.5t-68 91.5t-18 211t18 211.5zM386 53q49 0 68 17t19 60v442h-230q-49 0 -67.5 -16.5t-18.5 -60.5v-442h229zM266 717q-13 3 -21 10l-25 19
q-6 6 -6 10q0 3 7 11l39 49q3 4 6 4q2 0 7 -4l145 -105l-19 -29z" />
    <glyph glyph-name="Oacute" unicode="&#xd3;" horiz-adv-x="631" 
d="M72 0zM90 523.5q18 67.5 68 92t158 24.5q107 0 156.5 -25t68 -92t18.5 -211t-18.5 -211t-68 -91.5t-156.5 -24.5q-108 0 -158 24.5t-68 91.5t-18 211t18 211.5zM386 53q49 0 68 17t19 60v442h-230q-49 0 -67.5 -16.5t-18.5 -60.5v-442h229zM237 723l145 105q5 4 7 4
q3 0 6 -4l39 -49q7 -8 7 -11q0 -4 -7 -10l-24 -19q-8 -6 -22 -10l-133 -35z" />
    <glyph glyph-name="Ocircumflex" unicode="&#xd4;" horiz-adv-x="631" 
d="M72 0zM90 523.5q18 67.5 68 92t158 24.5q107 0 156.5 -25t68 -92t18.5 -211t-18.5 -211t-68 -91.5t-156.5 -24.5q-108 0 -158 24.5t-68 91.5t-18 211t18 211.5zM386 53q49 0 68 17t19 60v442h-230q-49 0 -67.5 -16.5t-18.5 -60.5v-442h229zM203 716l98 112q4 5 9 5h12
q5 0 9 -5l98 -112l-32 -31l-81 62l-81 -62z" />
    <glyph glyph-name="Otilde" unicode="&#xd5;" horiz-adv-x="631" 
d="M72 0zM90 523.5q18 67.5 68 92t158 24.5q107 0 156.5 -25t68 -92t18.5 -211t-18.5 -211t-68 -91.5t-156.5 -24.5q-108 0 -158 24.5t-68 91.5t-18 211t18 211.5zM386 53q49 0 68 17t19 60v442h-230q-49 0 -67.5 -16.5t-18.5 -60.5v-442h229zM313.5 700q-11.5 7 -44.5 36
l-63 -32l-25 41q49 37 73 50.5t39 13.5q12 0 22.5 -7t46.5 -36l63 32l25 -41q-43 -34 -69 -49t-43 -15q-13 0 -24.5 7z" />
    <glyph glyph-name="Odieresis" unicode="&#xd6;" horiz-adv-x="631" 
d="M72 0zM90 523.5q18 67.5 68 92t158 24.5q107 0 156.5 -25t68 -92t18.5 -211t-18.5 -211t-68 -91.5t-156.5 -24.5q-108 0 -158 24.5t-68 91.5t-18 211t18 211.5zM386 53q49 0 68 17t19 60v442h-230q-49 0 -67.5 -16.5t-18.5 -60.5v-442h229zM190.5 715.5
q-8.5 10.5 -8.5 41.5q0 30 8.5 41t36.5 11q27 0 36 -11t9 -41t-8.5 -41t-36.5 -11t-36.5 10.5zM368.5 715.5q-8.5 10.5 -8.5 41.5q0 30 8.5 41t36.5 11q27 0 36 -11t9 -41t-8.5 -41t-36.5 -11t-36.5 10.5z" />
    <glyph glyph-name="multiply" unicode="&#xd7;" horiz-adv-x="530" 
d="M313 312l125 -125l-48 -47l-125 125l-125 -125l-47 47l125 125l-125 125l47 47l125 -125l125 125l48 -47z" />
    <glyph glyph-name="Oslash" unicode="&#xd8;" horiz-adv-x="631" 
d="M542 517q17 -67 17 -205q0 -144 -18.5 -211t-68 -91.5t-156.5 -24.5q-74 0 -113 9l-19 -42q-7 -16 -16 -21.5t-27 -5.5h-27l39 88q-33 18 -50.5 54t-24 94t-6.5 151q0 144 18 211.5t68 92t158 24.5q70 0 113 -10l19 43q7 16 16.5 22t26.5 6h27l-40 -89q47 -28 64 -95z
M171 53l232 519h-160q-49 0 -67.5 -16.5t-18.5 -60.5v-442h14zM473 572h-13l-231 -519h157q49 0 68 17t19 60v442z" />
    <glyph glyph-name="Ugrave" unicode="&#xd9;" horiz-adv-x="639" 
d="M88 0zM173.5 1q-48.5 16 -67 56.5t-18.5 122.5v445h80v-572h157q61 0 91.5 4.5t42.5 15.5t12 33v519h80v-445q0 -82 -18.5 -122.5t-67 -56.5t-145.5 -16q-98 0 -146.5 16zM270 717q-13 3 -21 10l-25 19q-6 6 -6 10q0 3 7 11l39 49q3 4 6 4q2 0 7 -4l145 -105l-19 -29z
" />
    <glyph glyph-name="Uacute" unicode="&#xda;" horiz-adv-x="639" 
d="M88 0zM173.5 1q-48.5 16 -67 56.5t-18.5 122.5v445h80v-572h157q61 0 91.5 4.5t42.5 15.5t12 33v519h80v-445q0 -82 -18.5 -122.5t-67 -56.5t-145.5 -16q-98 0 -146.5 16zM241 723l145 105q5 4 7 4q3 0 6 -4l39 -49q7 -8 7 -11q0 -4 -7 -10l-24 -19q-8 -6 -22 -10
l-133 -35z" />
    <glyph glyph-name="Ucircumflex" unicode="&#xdb;" horiz-adv-x="639" 
d="M88 0zM173.5 1q-48.5 16 -67 56.5t-18.5 122.5v445h80v-572h157q61 0 91.5 4.5t42.5 15.5t12 33v519h80v-445q0 -82 -18.5 -122.5t-67 -56.5t-145.5 -16q-98 0 -146.5 16zM207 716l98 112q4 5 9 5h12q5 0 9 -5l98 -112l-32 -31l-81 62l-81 -62z" />
    <glyph glyph-name="Udieresis" unicode="&#xdc;" horiz-adv-x="639" 
d="M88 0zM173.5 1q-48.5 16 -67 56.5t-18.5 122.5v445h80v-572h157q61 0 91.5 4.5t42.5 15.5t12 33v519h80v-445q0 -82 -18.5 -122.5t-67 -56.5t-145.5 -16q-98 0 -146.5 16zM194.5 715.5q-8.5 10.5 -8.5 41.5q0 30 8.5 41t36.5 11q27 0 36 -11t9 -41t-8.5 -41t-36.5 -11
t-36.5 10.5zM372.5 715.5q-8.5 10.5 -8.5 41.5q0 30 8.5 41t36.5 11q27 0 36 -11t9 -41t-8.5 -41t-36.5 -11t-36.5 10.5z" />
    <glyph glyph-name="Yacute" unicode="&#xdd;" horiz-adv-x="472" 
d="M11 0zM461 625l-185 -407v-218h-80v218l-185 407h83l142 -323l142 323h83zM157 723l145 105q5 4 7 4q3 0 6 -4l39 -49q7 -8 7 -11q0 -4 -7 -10l-24 -19q-8 -6 -22 -10l-133 -35z" />
    <glyph glyph-name="Thorn" unicode="&#xde;" horiz-adv-x="518" 
d="M432.5 497q34.5 -19 49.5 -63.5t15 -124.5q0 -109 -33.5 -155t-113.5 -46h-172v-108h-80v625h80v-109h157q63 0 97.5 -19zM413 409q0 24 -16 33t-59 9h-160v-277h160q43 0 59 9t16 33v193z" />
    <glyph glyph-name="germandbls" unicode="&#xdf;" horiz-adv-x="619" 
d="M247 10l15 67q33 -12 72 -19.5t74 -7.5q50 0 82 8v138q-80 39 -112.5 57t-43 30.5t-10.5 30.5q0 21 11 39t33 43q29 33 44 59.5t15 62.5q0 47 -31.5 69.5t-98.5 22.5q-32 0 -89 -9v-601h-80v443h-74v57h74q5 65 23.5 103t56 55t98.5 17q103 0 152 -36t49 -112
q0 -46 -25.5 -91t-91.5 -116q74 -32 111.5 -58t53 -55.5t15.5 -73.5q0 -78 -43 -113t-138 -35q-61 0 -142 25z" />
    <glyph glyph-name="agrave" unicode="&#xe0;" horiz-adv-x="541" 
d="M61 0zM377.5 496.5q37.5 -12.5 54 -41.5t16.5 -79v-376h-35l-23 50q-35 -31 -79 -45t-101 -14q-81 0 -115 33.5t-34 112.5q0 76 19 107t77 41t199 10h12v136q-40 12 -111 12q-77 0 -163 -23l-11 60q32 13 86 21t104 8q67 0 104.5 -12.5zM351 69q17 13 17 49v119h-151
q-49 0 -66.5 -13t-17.5 -48v-120h153q48 0 65 13zM223 592q-13 3 -21 10l-25 19q-6 6 -6 10q0 3 7 11l39 49q3 4 6 4q2 0 7 -4l145 -105l-19 -29z" />
    <glyph glyph-name="aacute" unicode="&#xe1;" horiz-adv-x="541" 
d="M61 0zM377.5 496.5q37.5 -12.5 54 -41.5t16.5 -79v-376h-35l-23 50q-35 -31 -79 -45t-101 -14q-81 0 -115 33.5t-34 112.5q0 76 19 107t77 41t199 10h12v136q-40 12 -111 12q-77 0 -163 -23l-11 60q32 13 86 21t104 8q67 0 104.5 -12.5zM351 69q17 13 17 49v119h-151
q-49 0 -66.5 -13t-17.5 -48v-120h153q48 0 65 13zM194 598l145 105q5 4 7 4q3 0 6 -4l39 -49q7 -8 7 -11q0 -4 -7 -10l-24 -19q-8 -6 -22 -10l-133 -35z" />
    <glyph glyph-name="acircumflex" unicode="&#xe2;" horiz-adv-x="541" 
d="M61 0zM377.5 496.5q37.5 -12.5 54 -41.5t16.5 -79v-376h-35l-23 50q-35 -31 -79 -45t-101 -14q-81 0 -115 33.5t-34 112.5q0 76 19 107t77 41t199 10h12v136q-40 12 -111 12q-77 0 -163 -23l-11 60q32 13 86 21t104 8q67 0 104.5 -12.5zM351 69q17 13 17 49v119h-151
q-49 0 -66.5 -13t-17.5 -48v-120h153q48 0 65 13zM160 591l98 112q4 5 9 5h12q5 0 9 -5l98 -112l-32 -31l-81 62l-81 -62z" />
    <glyph glyph-name="atilde" unicode="&#xe3;" horiz-adv-x="541" 
d="M61 0zM377.5 496.5q37.5 -12.5 54 -41.5t16.5 -79v-376h-35l-23 50q-35 -31 -79 -45t-101 -14q-81 0 -115 33.5t-34 112.5q0 76 19 107t77 41t199 10h12v136q-40 12 -111 12q-77 0 -163 -23l-11 60q32 13 86 21t104 8q67 0 104.5 -12.5zM351 69q17 13 17 49v119h-151
q-49 0 -66.5 -13t-17.5 -48v-120h153q48 0 65 13zM270.5 575q-11.5 7 -44.5 36l-63 -32l-25 41q49 37 73 50.5t39 13.5q12 0 22.5 -7t46.5 -36l63 32l25 -41q-43 -34 -69 -49t-43 -15q-13 0 -24.5 7z" />
    <glyph glyph-name="adieresis" unicode="&#xe4;" horiz-adv-x="541" 
d="M61 0zM377.5 496.5q37.5 -12.5 54 -41.5t16.5 -79v-376h-35l-23 50q-35 -31 -79 -45t-101 -14q-81 0 -115 33.5t-34 112.5q0 76 19 107t77 41t199 10h12v136q-40 12 -111 12q-77 0 -163 -23l-11 60q32 13 86 21t104 8q67 0 104.5 -12.5zM351 69q17 13 17 49v119h-151
q-49 0 -66.5 -13t-17.5 -48v-120h153q48 0 65 13zM147.5 590.5q-8.5 10.5 -8.5 41.5q0 30 8.5 41t36.5 11q27 0 36 -11t9 -41t-8.5 -41t-36.5 -11t-36.5 10.5zM325.5 590.5q-8.5 10.5 -8.5 41.5q0 30 8.5 41t36.5 11q27 0 36 -11t9 -41t-8.5 -41t-36.5 -11t-36.5 10.5z" />
    <glyph glyph-name="aring" unicode="&#xe5;" horiz-adv-x="541" 
d="M61 0zM377.5 496.5q37.5 -12.5 54 -41.5t16.5 -79v-376h-35l-23 50q-35 -31 -79 -45t-101 -14q-81 0 -115 33.5t-34 112.5q0 76 19 107t77 41t199 10h12v136q-40 12 -111 12q-77 0 -163 -23l-11 60q32 13 86 21t104 8q67 0 104.5 -12.5zM351 69q17 13 17 49v119h-151
q-49 0 -66.5 -13t-17.5 -48v-120h153q48 0 65 13zM199.5 564.5q-22.5 23.5 -22.5 72.5q0 48 22.5 71.5t73.5 23.5q49 0 71.5 -23.5t22.5 -71.5q0 -49 -22.5 -72.5t-71.5 -23.5q-51 0 -73.5 23.5zM273 589q22 0 32 4.5t10 21.5v69h-41q-24 0 -34.5 -4.5t-10.5 -20.5v-70h44z
" />
    <glyph glyph-name="ae" unicode="&#xe6;" horiz-adv-x="835" 
d="M642.5 62q38.5 5 93.5 18l11 -60q-36 -13 -90 -21t-111 -8q-64 0 -99 14t-53 48q-37 -32 -81 -47t-103 -15q-81 0 -115 33.5t-34 112.5q0 76 19 107t77 41t199 10h12v136q-40 12 -111 12q-77 0 -163 -23l-11 60q32 13 86 21t104 8q57 0 92.5 -9t55.5 -29q22 20 57 29
t89 9q79 0 119.5 -12.5t57 -43.5t16.5 -90q0 -76 -20 -107t-81 -41t-210 -10v-136q45 -12 115 -12q40 0 78.5 5zM449 263h152q50 0 68.5 13t18.5 48v116h-153q-50 0 -68 -13t-18 -49v-115zM351 69q17 13 17 49v119h-151q-49 0 -66.5 -13t-17.5 -48v-120h153q48 0 65 13z" />
    <glyph glyph-name="ccedilla" unicode="&#xe7;" horiz-adv-x="454" 
d="M262 -8q24 -37 24 -85q0 -35 -25 -56.5t-67 -21.5q-29 0 -61 16l6 41h37q24 0 33.5 6.5t9.5 23.5v75q-65 2 -97 24t-44 75.5t-12 159.5q0 111 13.5 164.5t48.5 74t108 20.5q90 0 161 -17l-11 -64q-78 15 -147 15q-51 0 -71 -19t-20 -67v-288q39 -12 112 -12q32 0 62.5 5
t75.5 18l10 -60q-57 -25 -146 -28z" />
    <glyph glyph-name="egrave" unicode="&#xe8;" horiz-adv-x="535" 
d="M66 0zM342 62q38 5 93 18l11 -60q-34 -13 -88 -21t-112 -8q-76 0 -113.5 21t-52 75.5t-14.5 162.5q0 103 17.5 158t60 78t122.5 23q79 0 119.5 -12.5t57 -43t16.5 -90.5q0 -76 -19.5 -107t-80.5 -41t-210 -10v-136q43 -12 114 -12q41 0 79 5zM167 427q-18 -13 -18 -49
v-115h151q51 0 69 13t18 48v116h-152q-50 0 -68 -13zM216 592q-13 3 -21 10l-25 19q-6 6 -6 10q0 3 7 11l39 49q3 4 6 4q2 0 7 -4l145 -105l-19 -29z" />
    <glyph glyph-name="eacute" unicode="&#xe9;" horiz-adv-x="535" 
d="M66 0zM342 62q38 5 93 18l11 -60q-34 -13 -88 -21t-112 -8q-76 0 -113.5 21t-52 75.5t-14.5 162.5q0 103 17.5 158t60 78t122.5 23q79 0 119.5 -12.5t57 -43t16.5 -90.5q0 -76 -19.5 -107t-80.5 -41t-210 -10v-136q43 -12 114 -12q41 0 79 5zM167 427q-18 -13 -18 -49
v-115h151q51 0 69 13t18 48v116h-152q-50 0 -68 -13zM187 598l145 105q5 4 7 4q3 0 6 -4l39 -49q7 -8 7 -11q0 -4 -7 -10l-24 -19q-8 -6 -22 -10l-133 -35z" />
    <glyph glyph-name="ecircumflex" unicode="&#xea;" horiz-adv-x="535" 
d="M66 0zM342 62q38 5 93 18l11 -60q-34 -13 -88 -21t-112 -8q-76 0 -113.5 21t-52 75.5t-14.5 162.5q0 103 17.5 158t60 78t122.5 23q79 0 119.5 -12.5t57 -43t16.5 -90.5q0 -76 -19.5 -107t-80.5 -41t-210 -10v-136q43 -12 114 -12q41 0 79 5zM167 427q-18 -13 -18 -49
v-115h151q51 0 69 13t18 48v116h-152q-50 0 -68 -13zM153 591l98 112q4 5 9 5h12q5 0 9 -5l98 -112l-32 -31l-81 62l-81 -62z" />
    <glyph glyph-name="edieresis" unicode="&#xeb;" horiz-adv-x="535" 
d="M66 0zM342 62q38 5 93 18l11 -60q-34 -13 -88 -21t-112 -8q-76 0 -113.5 21t-52 75.5t-14.5 162.5q0 103 17.5 158t60 78t122.5 23q79 0 119.5 -12.5t57 -43t16.5 -90.5q0 -76 -19.5 -107t-80.5 -41t-210 -10v-136q43 -12 114 -12q41 0 79 5zM167 427q-18 -13 -18 -49
v-115h151q51 0 69 13t18 48v116h-152q-50 0 -68 -13zM140.5 590.5q-8.5 10.5 -8.5 41.5q0 30 8.5 41t36.5 11q27 0 36 -11t9 -41t-8.5 -41t-36.5 -11t-36.5 10.5zM318.5 590.5q-8.5 10.5 -8.5 41.5q0 30 8.5 41t36.5 11q27 0 36 -11t9 -41t-8.5 -41t-36.5 -11t-36.5 10.5z
" />
    <glyph glyph-name="igrave" unicode="&#xec;" horiz-adv-x="276" 
d="M36 0zM178 510v-510h-80v497zM88 592q-13 3 -21 10l-25 19q-6 6 -6 10q0 3 7 11l39 49q3 4 6 4q2 0 7 -4l145 -105l-19 -29z" />
    <glyph glyph-name="iacute" unicode="&#xed;" horiz-adv-x="276" 
d="M59 0zM178 510v-510h-80v497zM59 598l145 105q5 4 7 4q3 0 6 -4l39 -49q7 -8 7 -11q0 -4 -7 -10l-24 -19q-8 -6 -22 -10l-133 -35z" />
    <glyph glyph-name="icircumflex" unicode="&#xee;" horiz-adv-x="276" 
d="M25 0zM178 510v-510h-80v497zM25 591l98 112q4 5 9 5h12q5 0 9 -5l98 -112l-32 -31l-81 62l-81 -62z" />
    <glyph glyph-name="idieresis" unicode="&#xef;" horiz-adv-x="276" 
d="M4 0zM178 510v-510h-80v497zM12.5 590.5q-8.5 10.5 -8.5 41.5q0 30 8.5 41t36.5 11q27 0 36 -11t9 -41t-8.5 -41t-36.5 -11t-36.5 10.5zM190.5 590.5q-8.5 10.5 -8.5 41.5q0 30 8.5 41t36.5 11q27 0 36 -11t9 -41t-8.5 -41t-36.5 -11t-36.5 10.5z" />
    <glyph glyph-name="eth" unicode="&#xf0;" horiz-adv-x="550" 
d="M502 587q0 -14 -15 -19l-57 -19q45 -98 45 -178v-164q0 -93 -15.5 -137.5t-57.5 -61.5t-129 -17q-86 0 -128 18t-57.5 64.5t-15.5 141.5t15.5 141.5t57.5 64.5t128 18h120q-8 39 -29 89l-84 -28l-8 24q-5 18 -5 26q0 15 15 19l52 17q-16 29 -41 66l66 18q19 -26 40 -62
l90 30l8 -25q5 -17 5 -26zM392 371h-190q-28 0 -37.5 -5t-9.5 -20v-287h189q29 0 38.5 5t9.5 20v287z" />
    <glyph glyph-name="ntilde" unicode="&#xf1;" horiz-adv-x="572" 
d="M98 0zM98 500h35l23 -50q36 31 80 45t103 14q140 0 140 -79v-430h-80v444h-127q-55 0 -74.5 -13.5t-19.5 -50.5v-380h-80v500zM293.5 575q-11.5 7 -44.5 36l-63 -32l-25 41q49 37 73 50.5t39 13.5q12 0 22.5 -7t46.5 -36l63 32l25 -41q-43 -34 -69 -49t-43 -15
q-13 0 -24.5 7z" />
    <glyph glyph-name="ograve" unicode="&#xf2;" horiz-adv-x="547" 
d="M66 0zM141 11.5q-43 20.5 -59 74t-16 164.5t16 164.5t59 74t132 20.5q90 0 133 -20t59 -73.5t16 -165.5q0 -111 -16 -164.5t-59.5 -74t-132.5 -20.5t-132 20.5zM349 59q30 0 40 5t10 20v357h-201q-30 0 -40 -5t-10 -20v-357h201zM223 592q-13 3 -21 10l-25 19q-6 6 -6 10
q0 3 7 11l39 49q3 4 6 4q2 0 7 -4l145 -105l-19 -29z" />
    <glyph glyph-name="oacute" unicode="&#xf3;" horiz-adv-x="547" 
d="M66 0zM141 11.5q-43 20.5 -59 74t-16 164.5t16 164.5t59 74t132 20.5q90 0 133 -20t59 -73.5t16 -165.5q0 -111 -16 -164.5t-59.5 -74t-132.5 -20.5t-132 20.5zM349 59q30 0 40 5t10 20v357h-201q-30 0 -40 -5t-10 -20v-357h201zM194 598l145 105q5 4 7 4q3 0 6 -4
l39 -49q7 -8 7 -11q0 -4 -7 -10l-24 -19q-8 -6 -22 -10l-133 -35z" />
    <glyph glyph-name="ocircumflex" unicode="&#xf4;" horiz-adv-x="547" 
d="M66 0zM141 11.5q-43 20.5 -59 74t-16 164.5t16 164.5t59 74t132 20.5q90 0 133 -20t59 -73.5t16 -165.5q0 -111 -16 -164.5t-59.5 -74t-132.5 -20.5t-132 20.5zM349 59q30 0 40 5t10 20v357h-201q-30 0 -40 -5t-10 -20v-357h201zM160 591l98 112q4 5 9 5h12q5 0 9 -5
l98 -112l-32 -31l-81 62l-81 -62z" />
    <glyph glyph-name="otilde" unicode="&#xf5;" horiz-adv-x="547" 
d="M66 0zM141 11.5q-43 20.5 -59 74t-16 164.5t16 164.5t59 74t132 20.5q90 0 133 -20t59 -73.5t16 -165.5q0 -111 -16 -164.5t-59.5 -74t-132.5 -20.5t-132 20.5zM349 59q30 0 40 5t10 20v357h-201q-30 0 -40 -5t-10 -20v-357h201zM270.5 575q-11.5 7 -44.5 36l-63 -32
l-25 41q49 37 73 50.5t39 13.5q12 0 22.5 -7t46.5 -36l63 32l25 -41q-43 -34 -69 -49t-43 -15q-13 0 -24.5 7z" />
    <glyph glyph-name="odieresis" unicode="&#xf6;" horiz-adv-x="547" 
d="M66 0zM141 11.5q-43 20.5 -59 74t-16 164.5t16 164.5t59 74t132 20.5q90 0 133 -20t59 -73.5t16 -165.5q0 -111 -16 -164.5t-59.5 -74t-132.5 -20.5t-132 20.5zM349 59q30 0 40 5t10 20v357h-201q-30 0 -40 -5t-10 -20v-357h201zM147.5 590.5q-8.5 10.5 -8.5 41.5
q0 30 8.5 41t36.5 11q27 0 36 -11t9 -41t-8.5 -41t-36.5 -11t-36.5 10.5zM325.5 590.5q-8.5 10.5 -8.5 41.5q0 30 8.5 41t36.5 11q27 0 36 -11t9 -41t-8.5 -41t-36.5 -11t-36.5 10.5z" />
    <glyph glyph-name="divide" unicode="&#xf7;" horiz-adv-x="530" 
d="M232 502q8 10 34 10q25 0 33.5 -10.5t8.5 -35.5t-8.5 -35t-33.5 -10q-26 0 -34 9.5t-8 35.5t8 36zM444 346v-68h-358v68h358zM232 173q8 10 34 10q25 0 33.5 -10.5t8.5 -35.5t-8.5 -35t-33.5 -10q-26 0 -34 9.5t-8 35.5t8 36z" />
    <glyph glyph-name="oslash" unicode="&#xf8;" horiz-adv-x="547" 
d="M467.5 407.5q13.5 -52.5 13.5 -157.5q0 -111 -16 -164.5t-59.5 -74t-132.5 -20.5q-61 0 -94 8l-38 -77q-7 -15 -16 -20t-27 -5h-27l59 121q-37 23 -50.5 76t-13.5 156q0 111 16 164.5t59 74t132 20.5q60 0 95 -8l37 76q7 15 16 20t27 5h27l-58 -119q37 -23 50.5 -75.5z
M151 59l187 382h-140q-30 0 -40 -5t-10 -20v-357h3zM399 441h-3l-188 -382h141q30 0 40 5t10 20v357z" />
    <glyph glyph-name="ugrave" unicode="&#xf9;" horiz-adv-x="572" 
d="M93 0zM474 0h-35l-22 50q-39 -31 -86.5 -45t-109.5 -14q-66 0 -97 23.5t-31 73.5v412h80v-444h127q55 0 74.5 13t19.5 51v380h80v-500zM236 592q-13 3 -21 10l-25 19q-6 6 -6 10q0 3 7 11l39 49q3 4 6 4q2 0 7 -4l145 -105l-19 -29z" />
    <glyph glyph-name="uacute" unicode="&#xfa;" horiz-adv-x="572" 
d="M93 0zM474 0h-35l-22 50q-39 -31 -86.5 -45t-109.5 -14q-66 0 -97 23.5t-31 73.5v412h80v-444h127q55 0 74.5 13t19.5 51v380h80v-500zM207 598l145 105q5 4 7 4q3 0 6 -4l39 -49q7 -8 7 -11q0 -4 -7 -10l-24 -19q-8 -6 -22 -10l-133 -35z" />
    <glyph glyph-name="ucircumflex" unicode="&#xfb;" horiz-adv-x="572" 
d="M93 0zM474 0h-35l-22 50q-39 -31 -86.5 -45t-109.5 -14q-66 0 -97 23.5t-31 73.5v412h80v-444h127q55 0 74.5 13t19.5 51v380h80v-500zM173 591l98 112q4 5 9 5h12q5 0 9 -5l98 -112l-32 -31l-81 62l-81 -62z" />
    <glyph glyph-name="udieresis" unicode="&#xfc;" horiz-adv-x="572" 
d="M93 0zM474 0h-35l-22 50q-39 -31 -86.5 -45t-109.5 -14q-66 0 -97 23.5t-31 73.5v412h80v-444h127q55 0 74.5 13t19.5 51v380h80v-500zM160.5 590.5q-8.5 10.5 -8.5 41.5q0 30 8.5 41t36.5 11q27 0 36 -11t9 -41t-8.5 -41t-36.5 -11t-36.5 10.5zM338.5 590.5
q-8.5 10.5 -8.5 41.5q0 30 8.5 41t36.5 11q27 0 36 -11t9 -41t-8.5 -41t-36.5 -11t-36.5 10.5z" />
    <glyph glyph-name="yacute" unicode="&#xfd;" horiz-adv-x="435" 
d="M3 0zM429 500l-150 -474q-24 -77 -50 -120t-60.5 -61.5t-85.5 -18.5q-43 0 -80 10l3 43l59 7q41 6 63 16t36 30.5t26 59.5l10 34h-43l-150 474h80l126 -407h10l126 407h80zM139 598l145 105q5 4 7 4q3 0 6 -4l39 -49q7 -8 7 -11q0 -4 -7 -10l-24 -19q-8 -6 -22 -10
l-133 -35z" />
    <glyph glyph-name="thorn" unicode="&#xfe;" horiz-adv-x="564" 
d="M436 489q36 -20 49 -73.5t13 -165.5q0 -113 -13.5 -168t-49.5 -76t-110 -21q-56 0 -91 5.5t-56 20.5v-179l-80 -11v829l80 15v-181q21 14 56 19.5t91 5.5q75 0 111 -20zM415 441h-190q-27 0 -37 -4t-10 -15v-369h189q29 0 38.5 5t9.5 20v363z" />
    <glyph glyph-name="ydieresis" unicode="&#xff;" horiz-adv-x="435" 
d="M3 0zM429 500l-150 -474q-24 -77 -50 -120t-60.5 -61.5t-85.5 -18.5q-43 0 -80 10l3 43l59 7q41 6 63 16t36 30.5t26 59.5l10 34h-43l-150 474h80l126 -407h10l126 407h80zM92.5 590.5q-8.5 10.5 -8.5 41.5q0 30 8.5 41t36.5 11q27 0 36 -11t9 -41t-8.5 -41t-36.5 -11
t-36.5 10.5zM270.5 590.5q-8.5 10.5 -8.5 41.5q0 30 8.5 41t36.5 11q27 0 36 -11t9 -41t-8.5 -41t-36.5 -11t-36.5 10.5z" />
    <glyph glyph-name="Amacron" unicode="&#x100;" horiz-adv-x="533" 
d="M17 0zM392 148h-251l-44 -148h-80l190 625h119l190 -625h-80zM372 214l-101 339h-9l-101 -339h211zM158.5 724q-7.5 9 -7.5 33v29h189q28 0 35.5 -8t7.5 -33v-30h-189q-28 0 -35.5 9z" />
    <glyph glyph-name="amacron" unicode="&#x101;" horiz-adv-x="541" 
d="M61 0zM377.5 496.5q37.5 -12.5 54 -41.5t16.5 -79v-376h-35l-23 50q-35 -31 -79 -45t-101 -14q-81 0 -115 33.5t-34 112.5q0 76 19 107t77 41t199 10h12v136q-40 12 -111 12q-77 0 -163 -23l-11 60q32 13 86 21t104 8q67 0 104.5 -12.5zM351 69q17 13 17 49v119h-151
q-49 0 -66.5 -13t-17.5 -48v-120h153q48 0 65 13zM164.5 599q-7.5 9 -7.5 33v29h189q28 0 35.5 -8t7.5 -33v-30h-189q-28 0 -35.5 9z" />
    <glyph glyph-name="Abreve" unicode="&#x102;" horiz-adv-x="533" 
d="M17 0zM392 148h-251l-44 -148h-80l190 625h119l190 -625h-80zM372 214l-101 339h-9l-101 -339h211zM196.5 719q-28.5 24 -40.5 78l59 10q6 -22 20.5 -34t31.5 -12t32 12t21 34l59 -10q-13 -51 -42 -76.5t-70 -25.5q-42 0 -70.5 24z" />
    <glyph glyph-name="abreve" unicode="&#x103;" horiz-adv-x="541" 
d="M61 0zM377.5 496.5q37.5 -12.5 54 -41.5t16.5 -79v-376h-35l-23 50q-35 -31 -79 -45t-101 -14q-81 0 -115 33.5t-34 112.5q0 76 19 107t77 41t199 10h12v136q-40 12 -111 12q-77 0 -163 -23l-11 60q32 13 86 21t104 8q67 0 104.5 -12.5zM351 69q17 13 17 49v119h-151
q-49 0 -66.5 -13t-17.5 -48v-120h153q48 0 65 13zM202.5 594q-28.5 24 -40.5 78l59 10q6 -22 20.5 -34t31.5 -12t32 12t21 34l59 -10q-13 -51 -42 -76.5t-70 -25.5q-42 0 -70.5 24z" />
    <glyph glyph-name="Aogonek" unicode="&#x104;" horiz-adv-x="533" 
d="M542 -155q-37 -16 -71 -16q-41 0 -65.5 24t-24.5 64q0 25 16 46.5t43 36.5h-4l-44 148h-251l-44 -148h-80l190 625h119l186 -613l6 -12l-22 -4q-29 -7 -37.5 -17t-8.5 -34v-25q0 -16 8 -25t21 -9h56zM372 214l-101 339h-9l-101 -339h211z" />
    <glyph glyph-name="aogonek" unicode="&#x105;" horiz-adv-x="541" 
d="M472 -155q-37 -16 -71 -16q-41 0 -65.5 24t-24.5 64q0 33 26.5 59.5t68.5 38.5l-16 35q-35 -31 -79 -45t-101 -14q-81 0 -115 33.5t-34 112.5q0 76 19 107t77 41t199 10h12v136q-40 12 -111 12q-77 0 -163 -23l-11 60q32 13 86 21t104 8q67 0 104.5 -12.5t54 -41.5
t16.5 -79v-376l-22 -4q-29 -7 -37.5 -17t-8.5 -34v-25q0 -16 8 -25t21 -9h56zM351 69q17 13 17 49v119h-151q-49 0 -66.5 -13t-17.5 -48v-120h153q48 0 65 13z" />
    <glyph glyph-name="Cacute" unicode="&#x106;" horiz-adv-x="485" 
d="M72 0zM384 -9q-39 -6 -92 -6q-93 0 -139 28t-63.5 96t-17.5 203q0 136 18 204.5t66 96t144 27.5q32 0 74 -5.5t69 -14.5l-10 -67q-37 8 -85 13t-77 5q-43 0 -66.5 -5.5t-35.5 -22t-12 -49.5v-427q52 -16 127 -16q76 0 166 25l9 -65q-36 -14 -75 -20zM204 723l145 105
q5 4 7 4q3 0 6 -4l39 -49q7 -8 7 -11q0 -4 -7 -10l-24 -19q-8 -6 -22 -10l-133 -35z" />
    <glyph glyph-name="cacute" unicode="&#x107;" horiz-adv-x="454" 
d="M66 0zM128 11.5q-35 20.5 -48.5 74.5t-13.5 164q0 111 13.5 164.5t48.5 74t108 20.5q90 0 161 -17l-11 -64q-78 15 -147 15q-51 0 -71 -19t-20 -67v-288q39 -12 112 -12q32 0 62.5 5t75.5 18l10 -60q-32 -14 -78 -21.5t-94 -7.5q-73 0 -108 20.5zM168 598l145 105
q5 4 7 4q3 0 6 -4l39 -49q7 -8 7 -11q0 -4 -7 -10l-24 -19q-8 -6 -22 -10l-133 -35z" />
    <glyph glyph-name="Ccircumflex" unicode="&#x108;" horiz-adv-x="485" 
d="M72 0zM384 -9q-39 -6 -92 -6q-93 0 -139 28t-63.5 96t-17.5 203q0 136 18 204.5t66 96t144 27.5q32 0 74 -5.5t69 -14.5l-10 -67q-37 8 -85 13t-77 5q-43 0 -66.5 -5.5t-35.5 -22t-12 -49.5v-427q52 -16 127 -16q76 0 166 25l9 -65q-36 -14 -75 -20zM170 716l98 112
q4 5 9 5h12q5 0 9 -5l98 -112l-32 -31l-81 62l-81 -62z" />
    <glyph glyph-name="ccircumflex" unicode="&#x109;" horiz-adv-x="454" 
d="M66 0zM128 11.5q-35 20.5 -48.5 74.5t-13.5 164q0 111 13.5 164.5t48.5 74t108 20.5q90 0 161 -17l-11 -64q-78 15 -147 15q-51 0 -71 -19t-20 -67v-288q39 -12 112 -12q32 0 62.5 5t75.5 18l10 -60q-32 -14 -78 -21.5t-94 -7.5q-73 0 -108 20.5zM134 591l98 112q4 5 9 5
h12q5 0 9 -5l98 -112l-32 -31l-81 62l-81 -62z" />
    <glyph glyph-name="Cdotaccent" unicode="&#x10a;" horiz-adv-x="485" 
d="M72 0zM384 -9q-39 -6 -92 -6q-93 0 -139 28t-63.5 96t-17.5 203q0 136 18 204.5t66 96t144 27.5q32 0 74 -5.5t69 -14.5l-10 -67q-37 8 -85 13t-77 5q-43 0 -66.5 -5.5t-35.5 -22t-12 -49.5v-427q52 -16 127 -16q76 0 166 25l9 -65q-36 -14 -75 -20zM242 731.5
q-11 10.5 -11 40.5q0 31 11 42t42 11q30 0 40.5 -11t10.5 -42q0 -30 -10 -40.5t-41 -10.5t-42 10.5z" />
    <glyph glyph-name="cdotaccent" unicode="&#x10b;" horiz-adv-x="454" 
d="M66 0zM128 11.5q-35 20.5 -48.5 74.5t-13.5 164q0 111 13.5 164.5t48.5 74t108 20.5q90 0 161 -17l-11 -64q-78 15 -147 15q-51 0 -71 -19t-20 -67v-288q39 -12 112 -12q32 0 62.5 5t75.5 18l10 -60q-32 -14 -78 -21.5t-94 -7.5q-73 0 -108 20.5zM206 606.5
q-11 10.5 -11 40.5q0 31 11 42t42 11q30 0 40.5 -11t10.5 -42q0 -30 -10 -40.5t-41 -10.5t-42 10.5z" />
    <glyph glyph-name="Ccaron" unicode="&#x10c;" horiz-adv-x="485" 
d="M72 0zM384 -9q-39 -6 -92 -6q-93 0 -139 28t-63.5 96t-17.5 203q0 136 18 204.5t66 96t144 27.5q32 0 74 -5.5t69 -14.5l-10 -67q-37 8 -85 13t-77 5q-43 0 -66.5 -5.5t-35.5 -22t-12 -49.5v-427q52 -16 127 -16q76 0 166 25l9 -65q-36 -14 -75 -20zM283 771l81 62
l32 -31l-98 -112q-5 -5 -9 -5h-12q-4 0 -9 5l-98 112l32 31z" />
    <glyph glyph-name="ccaron" unicode="&#x10d;" horiz-adv-x="454" 
d="M66 0zM128 11.5q-35 20.5 -48.5 74.5t-13.5 164q0 111 13.5 164.5t48.5 74t108 20.5q90 0 161 -17l-11 -64q-78 15 -147 15q-51 0 -71 -19t-20 -67v-288q39 -12 112 -12q32 0 62.5 5t75.5 18l10 -60q-32 -14 -78 -21.5t-94 -7.5q-73 0 -108 20.5zM247 646l81 62l32 -31
l-98 -112q-5 -5 -9 -5h-12q-4 0 -9 5l-98 112l32 31z" />
    <glyph glyph-name="Dcaron" unicode="&#x10e;" horiz-adv-x="618" 
d="M98 0zM311 625q102 0 150.5 -24t66.5 -88t18 -201q0 -136 -18 -200t-66.5 -88t-150.5 -24h-213v625h213zM178 68h203q44 0 61 16.5t17 58.5v339q0 42 -17 58.5t-61 16.5h-203v-489zM309 771l81 62l32 -31l-98 -112q-5 -5 -9 -5h-12q-4 0 -9 5l-98 112l32 31z" />
    <glyph glyph-name="dcaron" unicode="&#x10f;" horiz-adv-x="634" 
d="M66 0zM466 679v-679h-35l-19 39q-19 -31 -56 -42.5t-105 -11.5q-81 0 -119 19.5t-52 74t-14 171.5q0 110 13.5 163.5t48.5 74.5t107 21q57 0 93 -6t58 -20v185zM386 441h-190q-28 0 -37.5 -5t-9.5 -20v-363h189q29 0 38.5 5t9.5 20v363zM536 474l21 97q-26 3 -37.5 17
t-11.5 49q0 34 15 48.5t48 14.5t48 -14.5t15 -48.5q0 -35 -6.5 -54.5t-25.5 -59.5l-29 -60z" />
    <glyph glyph-name="Dcroat" unicode="&#x110;" horiz-adv-x="618" 
d="M34 0zM461.5 601q48.5 -24 66.5 -88t18 -201q0 -136 -18 -200t-66.5 -88t-150.5 -24h-213v285h-64v17q0 24 7 31.5t30 7.5h27v284h213q102 0 150.5 -24zM459 482q0 42 -17 58.5t-61 16.5h-203v-216h105v-18q0 -24 -7 -31t-31 -7h-67v-217h203q44 0 61 16.5t17 58.5v339z
" />
    <glyph glyph-name="dcroat" unicode="&#x111;" horiz-adv-x="564" 
d="M539 605v-10q0 -13 -6.5 -17t-27.5 -4h-39v-574h-35l-19 39q-19 -31 -56 -42.5t-105 -11.5q-81 0 -119 19.5t-52 74t-14 171.5q0 110 13.5 163.5t48.5 74.5t107 21q57 0 93 -6t58 -20v91h-71v10q0 13 6.5 17t26.5 4h38v63l80 11v-74h73zM386 441h-190q-28 0 -37.5 -5
t-9.5 -20v-363h189q29 0 38.5 5t9.5 20v363z" />
    <glyph glyph-name="Emacron" unicode="&#x112;" horiz-adv-x="514" 
d="M98 0zM178 67h283v-67h-363v625h358l-9 -67h-269v-213h244v-65h-244v-213zM173.5 724q-7.5 9 -7.5 33v29h189q28 0 35.5 -8t7.5 -33v-30h-189q-28 0 -35.5 9z" />
    <glyph glyph-name="emacron" unicode="&#x113;" horiz-adv-x="535" 
d="M66 0zM342 62q38 5 93 18l11 -60q-34 -13 -88 -21t-112 -8q-76 0 -113.5 21t-52 75.5t-14.5 162.5q0 103 17.5 158t60 78t122.5 23q79 0 119.5 -12.5t57 -43t16.5 -90.5q0 -76 -19.5 -107t-80.5 -41t-210 -10v-136q43 -12 114 -12q41 0 79 5zM167 427q-18 -13 -18 -49
v-115h151q51 0 69 13t18 48v116h-152q-50 0 -68 -13zM157.5 599q-7.5 9 -7.5 33v29h189q28 0 35.5 -8t7.5 -33v-30h-189q-28 0 -35.5 9z" />
    <glyph glyph-name="Ebreve" unicode="&#x114;" horiz-adv-x="514" 
d="M98 0zM178 67h283v-67h-363v625h358l-9 -67h-269v-213h244v-65h-244v-213zM211.5 719q-28.5 24 -40.5 78l59 10q6 -22 20.5 -34t31.5 -12t32 12t21 34l59 -10q-13 -51 -42 -76.5t-70 -25.5q-42 0 -70.5 24z" />
    <glyph glyph-name="ebreve" unicode="&#x115;" horiz-adv-x="535" 
d="M66 0zM342 62q38 5 93 18l11 -60q-34 -13 -88 -21t-112 -8q-76 0 -113.5 21t-52 75.5t-14.5 162.5q0 103 17.5 158t60 78t122.5 23q79 0 119.5 -12.5t57 -43t16.5 -90.5q0 -76 -19.5 -107t-80.5 -41t-210 -10v-136q43 -12 114 -12q41 0 79 5zM167 427q-18 -13 -18 -49
v-115h151q51 0 69 13t18 48v116h-152q-50 0 -68 -13zM195.5 594q-28.5 24 -40.5 78l59 10q6 -22 20.5 -34t31.5 -12t32 12t21 34l59 -10q-13 -51 -42 -76.5t-70 -25.5q-42 0 -70.5 24z" />
    <glyph glyph-name="Edotaccent" unicode="&#x116;" horiz-adv-x="514" 
d="M98 0zM178 67h283v-67h-363v625h358l-9 -67h-269v-213h244v-65h-244v-213zM241 731.5q-11 10.5 -11 40.5q0 31 11 42t42 11q30 0 40.5 -11t10.5 -42q0 -30 -10 -40.5t-41 -10.5t-42 10.5z" />
    <glyph glyph-name="edotaccent" unicode="&#x117;" horiz-adv-x="535" 
d="M66 0zM342 62q38 5 93 18l11 -60q-34 -13 -88 -21t-112 -8q-76 0 -113.5 21t-52 75.5t-14.5 162.5q0 103 17.5 158t60 78t122.5 23q79 0 119.5 -12.5t57 -43t16.5 -90.5q0 -76 -19.5 -107t-80.5 -41t-210 -10v-136q43 -12 114 -12q41 0 79 5zM167 427q-18 -13 -18 -49
v-115h151q51 0 69 13t18 48v116h-152q-50 0 -68 -13zM225 606.5q-11 10.5 -11 40.5q0 31 11 42t42 11q30 0 40.5 -11t10.5 -42q0 -30 -10 -40.5t-41 -10.5t-42 10.5z" />
    <glyph glyph-name="Eogonek" unicode="&#x118;" horiz-adv-x="514" 
d="M485 -155q-37 -16 -71 -16q-41 0 -65.5 24t-24.5 64q0 25 16 46.5t43 36.5h-285v625h358l-9 -67h-269v-213h244v-65h-244v-213h283v-67l-22 -4q-29 -7 -37.5 -17t-8.5 -34v-25q0 -16 8 -25t21 -9h56z" />
    <glyph glyph-name="eogonek" unicode="&#x119;" horiz-adv-x="535" 
d="M470 -135q-37 -16 -71 -16q-41 0 -65.5 24t-24.5 64q0 31 26 59q-47 -5 -89 -5q-76 0 -113.5 21t-52 75.5t-14.5 162.5q0 103 17.5 158t60 78t122.5 23q79 0 119.5 -12.5t57 -43t16.5 -90.5q0 -76 -19.5 -107t-80.5 -41t-210 -10v-136q43 -12 114 -12q41 0 79 5t93 18
l11 -60q-20 -8 -51 -15q-10 -6 -13.5 -14.5t-3.5 -25.5v-25q0 -16 8 -25t21 -9h56zM167 427q-18 -13 -18 -49v-115h151q51 0 69 13t18 48v116h-152q-50 0 -68 -13z" />
    <glyph glyph-name="Ecaron" unicode="&#x11a;" horiz-adv-x="514" 
d="M98 0zM178 67h283v-67h-363v625h358l-9 -67h-269v-213h244v-65h-244v-213zM282 771l81 62l32 -31l-98 -112q-5 -5 -9 -5h-12q-4 0 -9 5l-98 112l32 31z" />
    <glyph glyph-name="ecaron" unicode="&#x11b;" horiz-adv-x="535" 
d="M66 0zM342 62q38 5 93 18l11 -60q-34 -13 -88 -21t-112 -8q-76 0 -113.5 21t-52 75.5t-14.5 162.5q0 103 17.5 158t60 78t122.5 23q79 0 119.5 -12.5t57 -43t16.5 -90.5q0 -76 -19.5 -107t-80.5 -41t-210 -10v-136q43 -12 114 -12q41 0 79 5zM167 427q-18 -13 -18 -49
v-115h151q51 0 69 13t18 48v116h-152q-50 0 -68 -13zM266 646l81 62l32 -31l-98 -112q-5 -5 -9 -5h-12q-4 0 -9 5l-98 112l32 31z" />
    <glyph glyph-name="Gcircumflex" unicode="&#x11c;" horiz-adv-x="569" 
d="M72 0zM496 338v-320q-48 -18 -99.5 -25.5t-121.5 -7.5q-88 0 -129.5 24t-57.5 91.5t-16 211.5q0 135 19 203.5t68 96.5t148 28q37 0 86 -5.5t80 -14.5l-10 -67q-41 8 -97.5 13t-91.5 5q-44 0 -68.5 -5.5t-37 -22t-12.5 -49.5v-445h271v223h-104v66h173zM200 716l98 112
q4 5 9 5h12q5 0 9 -5l98 -112l-32 -31l-81 62l-81 -62z" />
    <glyph glyph-name="gcircumflex" unicode="&#x11d;" horiz-adv-x="498" 
d="M49 0zM369 45.5q38 -10.5 51.5 -29.5t13.5 -59q0 -46 -18 -71.5t-59.5 -37t-115.5 -11.5q-52 0 -102 8t-82 21l11 64q54 -13 89 -18.5t71 -5.5q84 0 135 12v82q-104 6 -147 15.5t-43 26.5l26 106q-58 4 -90.5 22.5t-46 56.5t-13.5 103q0 72 17 111.5t57.5 56.5t114.5 17
q80 0 121 -20l69 52l41 -40l-58 -66q17 -38 17 -111q0 -70 -16 -108.5t-53.5 -55.5t-107.5 -19l-5 -82q85 -9 123 -19.5zM130 205h136q46 0 63.5 15t17.5 53v183h-136q-46 0 -63.5 -14.5t-17.5 -53.5v-183zM136 591l98 112q4 5 9 5h12q5 0 9 -5l98 -112l-32 -31l-81 62
l-81 -62z" />
    <glyph glyph-name="Gbreve" unicode="&#x11e;" horiz-adv-x="569" 
d="M72 0zM496 338v-320q-48 -18 -99.5 -25.5t-121.5 -7.5q-88 0 -129.5 24t-57.5 91.5t-16 211.5q0 135 19 203.5t68 96.5t148 28q37 0 86 -5.5t80 -14.5l-10 -67q-41 8 -97.5 13t-91.5 5q-44 0 -68.5 -5.5t-37 -22t-12.5 -49.5v-445h271v223h-104v66h173zM242.5 719
q-28.5 24 -40.5 78l59 10q6 -22 20.5 -34t31.5 -12t32 12t21 34l59 -10q-13 -51 -42 -76.5t-70 -25.5q-42 0 -70.5 24z" />
    <glyph glyph-name="gbreve" unicode="&#x11f;" horiz-adv-x="498" 
d="M49 0zM369 45.5q38 -10.5 51.5 -29.5t13.5 -59q0 -46 -18 -71.5t-59.5 -37t-115.5 -11.5q-52 0 -102 8t-82 21l11 64q54 -13 89 -18.5t71 -5.5q84 0 135 12v82q-104 6 -147 15.5t-43 26.5l26 106q-58 4 -90.5 22.5t-46 56.5t-13.5 103q0 72 17 111.5t57.5 56.5t114.5 17
q80 0 121 -20l69 52l41 -40l-58 -66q17 -38 17 -111q0 -70 -16 -108.5t-53.5 -55.5t-107.5 -19l-5 -82q85 -9 123 -19.5zM130 205h136q46 0 63.5 15t17.5 53v183h-136q-46 0 -63.5 -14.5t-17.5 -53.5v-183zM178.5 594q-28.5 24 -40.5 78l59 10q6 -22 20.5 -34t31.5 -12
t32 12t21 34l59 -10q-13 -51 -42 -76.5t-70 -25.5q-42 0 -70.5 24z" />
    <glyph glyph-name="Gdotaccent" unicode="&#x120;" horiz-adv-x="569" 
d="M72 0zM496 338v-320q-48 -18 -99.5 -25.5t-121.5 -7.5q-88 0 -129.5 24t-57.5 91.5t-16 211.5q0 135 19 203.5t68 96.5t148 28q37 0 86 -5.5t80 -14.5l-10 -67q-41 8 -97.5 13t-91.5 5q-44 0 -68.5 -5.5t-37 -22t-12.5 -49.5v-445h271v223h-104v66h173zM272 731.5
q-11 10.5 -11 40.5q0 31 11 42t42 11q30 0 40.5 -11t10.5 -42q0 -30 -10 -40.5t-41 -10.5t-42 10.5z" />
    <glyph glyph-name="gdotaccent" unicode="&#x121;" horiz-adv-x="498" 
d="M49 0zM369 45.5q38 -10.5 51.5 -29.5t13.5 -59q0 -46 -18 -71.5t-59.5 -37t-115.5 -11.5q-52 0 -102 8t-82 21l11 64q54 -13 89 -18.5t71 -5.5q84 0 135 12v82q-104 6 -147 15.5t-43 26.5l26 106q-58 4 -90.5 22.5t-46 56.5t-13.5 103q0 72 17 111.5t57.5 56.5t114.5 17
q80 0 121 -20l69 52l41 -40l-58 -66q17 -38 17 -111q0 -70 -16 -108.5t-53.5 -55.5t-107.5 -19l-5 -82q85 -9 123 -19.5zM130 205h136q46 0 63.5 15t17.5 53v183h-136q-46 0 -63.5 -14.5t-17.5 -53.5v-183zM208 606.5q-11 10.5 -11 40.5q0 31 11 42t42 11q30 0 40.5 -11
t10.5 -42q0 -30 -10 -40.5t-41 -10.5t-42 10.5z" />
    <glyph glyph-name="Gcommaaccent" unicode="&#x122;" horiz-adv-x="569" 
d="M72 0zM496 338v-320q-48 -18 -99.5 -25.5t-121.5 -7.5q-88 0 -129.5 24t-57.5 91.5t-16 211.5q0 135 19 203.5t68 96.5t148 28q37 0 86 -5.5t80 -14.5l-10 -67q-41 8 -97.5 13t-91.5 5q-44 0 -68.5 -5.5t-37 -22t-12.5 -49.5v-445h271v223h-104v66h173zM258 -266l21 97
q-26 3 -37.5 17t-11.5 49q0 34 15 48.5t48 14.5t48 -14.5t15 -48.5q0 -35 -6.5 -54.5t-25.5 -59.5l-29 -60z" />
    <glyph glyph-name="gcommaaccent" unicode="&#x123;" horiz-adv-x="498" 
d="M49 0zM369 45.5q38 -10.5 51.5 -29.5t13.5 -59q0 -46 -18 -71.5t-59.5 -37t-115.5 -11.5q-52 0 -102 8t-82 21l11 64q54 -13 89 -18.5t71 -5.5q84 0 135 12v82q-104 6 -147 15.5t-43 26.5l26 106q-58 4 -90.5 22.5t-46 56.5t-13.5 103q0 72 17 111.5t57.5 56.5t114.5 17
q80 0 121 -20l69 52l41 -40l-58 -66q17 -38 17 -111q0 -70 -16 -108.5t-53.5 -55.5t-107.5 -19l-5 -82q85 -9 123 -19.5zM130 205h136q46 0 63.5 15t17.5 53v183h-136q-46 0 -63.5 -14.5t-17.5 -53.5v-183zM283 803l-20 -96q26 -3 37.5 -17t11.5 -49q0 -34 -15 -48.5
t-48 -14.5t-48 14.5t-15 48.5t6.5 54.5t25.5 59.5l29 60z" />
    <glyph glyph-name="Hcircumflex" unicode="&#x124;" horiz-adv-x="638" 
d="M98 0zM540 625v-625h-80v276h-282v-276h-80v625h80v-283h282v283h80zM206 716l98 112q4 5 9 5h12q5 0 9 -5l98 -112l-32 -31l-81 62l-81 -62z" />
    <glyph glyph-name="hcircumflex" unicode="&#x125;" horiz-adv-x="572" 
d="M25 0zM98 658l78 7v-201q33 24 71.5 34.5t91.5 10.5q140 0 140 -79v-430h-80v444h-133q-52 0 -70 -13t-18 -49v-382h-80v658zM25 712l98 112q4 5 9 5h12q5 0 9 -5l98 -112l-32 -31l-81 62l-81 -62z" />
    <glyph glyph-name="Hbar" unicode="&#x126;" horiz-adv-x="638" 
d="M602 509v-22q0 -24 -7 -30.5t-31 -6.5h-24v-450h-80v276h-282v-276h-80v450h-61v20q0 24 7 31.5t30 7.5h24v116h80v-116h282v116h80v-116h62zM460 450h-282v-108h282v108z" />
    <glyph glyph-name="hbar" unicode="&#x127;" horiz-adv-x="572" 
d="M479 430v-430h-80v444h-133q-52 0 -70 -13t-18 -49v-382h-80v564h-71v10q0 13 6.5 17t26.5 4h38v63l78 7v-70h75v-10q0 -13 -6.5 -17t-27.5 -4h-41v-100q33 24 71.5 34.5t91.5 10.5q140 0 140 -79z" />
    <glyph glyph-name="Itilde" unicode="&#x128;" horiz-adv-x="276" 
d="M3 0zM178 625v-625h-80v625h80zM135.5 700q-11.5 7 -44.5 36l-63 -32l-25 41q49 37 73 50.5t39 13.5q12 0 22.5 -7t46.5 -36l63 32l25 -41q-43 -34 -69 -49t-43 -15q-13 0 -24.5 7z" />
    <glyph glyph-name="itilde" unicode="&#x129;" horiz-adv-x="276" 
d="M3 0zM178 510v-510h-80v497zM135.5 575q-11.5 7 -44.5 36l-63 -32l-25 41q49 37 73 50.5t39 13.5q12 0 22.5 -7t46.5 -36l63 32l25 -41q-43 -34 -69 -49t-43 -15q-13 0 -24.5 7z" />
    <glyph glyph-name="Imacron" unicode="&#x12a;" horiz-adv-x="276" 
d="M22 0zM178 625v-625h-80v625h80zM29.5 724q-7.5 9 -7.5 33v29h189q28 0 35.5 -8t7.5 -33v-30h-189q-28 0 -35.5 9z" />
    <glyph glyph-name="imacron" unicode="&#x12b;" horiz-adv-x="276" 
d="M22 0zM178 510v-510h-80v497zM29.5 599q-7.5 9 -7.5 33v29h189q28 0 35.5 -8t7.5 -33v-30h-189q-28 0 -35.5 9z" />
    <glyph glyph-name="Ibreve" unicode="&#x12c;" horiz-adv-x="276" 
d="M27 0zM178 625v-625h-80v625h80zM67.5 719q-28.5 24 -40.5 78l59 10q6 -22 20.5 -34t31.5 -12t32 12t21 34l59 -10q-13 -51 -42 -76.5t-70 -25.5q-42 0 -70.5 24z" />
    <glyph glyph-name="ibreve" unicode="&#x12d;" horiz-adv-x="276" 
d="M27 0zM178 510v-510h-80v497zM67.5 594q-28.5 24 -40.5 78l59 10q6 -22 20.5 -34t31.5 -12t32 12t21 34l59 -10q-13 -51 -42 -76.5t-70 -25.5q-42 0 -70.5 24z" />
    <glyph glyph-name="Iogonek" unicode="&#x12e;" horiz-adv-x="276" 
d="M202 -155q-37 -16 -71 -16q-41 0 -65.5 24t-24.5 64q0 25 16 46.5t43 36.5h-2v625h80v-625l-22 -4q-29 -7 -37.5 -17t-8.5 -34v-25q0 -16 8 -25t21 -9h56z" />
    <glyph glyph-name="iogonek" unicode="&#x12f;" horiz-adv-x="276" 
d="M97 606.5q-11 10.5 -11 40.5q0 31 11 42t42 11q30 0 40.5 -11t10.5 -42q0 -30 -10 -40.5t-41 -10.5t-42 10.5zM202 -155q-37 -16 -71 -16q-41 0 -65.5 24t-24.5 64q0 25 16 46.5t43 36.5h-2v497l80 13v-510l-22 -4q-29 -7 -37.5 -17t-8.5 -34v-25q0 -16 8 -25t21 -9h56z
" />
    <glyph glyph-name="Idotaccent" unicode="&#x130;" horiz-adv-x="276" 
d="M86 0zM178 625v-625h-80v625h80zM97 731.5q-11 10.5 -11 40.5q0 31 11 42t42 11q30 0 40.5 -11t10.5 -42q0 -30 -10 -40.5t-41 -10.5t-42 10.5z" />
    <glyph glyph-name="dotlessi" unicode="&#x131;" horiz-adv-x="276" 
d="M178 510v-510h-80v497z" />
    <glyph glyph-name="IJ" unicode="&#x132;" horiz-adv-x="619" 
d="M98 0zM178 625v-625h-80v625h80zM393 63q24 0 36 5.5t12 24.5v465h-100v67h180v-496q0 -52 -17.5 -80.5t-50.5 -38.5t-87 -10h-58l-10 63h95z" />
    <glyph glyph-name="ij" unicode="&#x133;" horiz-adv-x="552" 
d="M86 0zM178 510v-510h-80v497zM97 606.5q-11 10.5 -11 40.5q0 31 11 42t42 11q30 0 40.5 -11t10.5 -42q0 -30 -10 -40.5t-41 -10.5t-42 10.5zM272 -164l6 45q43 0 62.5 4.5t26.5 16.5t7 39v556l80 13v-580q0 -53 -28.5 -78.5t-86.5 -25.5q-37 0 -67 10zM373 606.5
q-11 10.5 -11 40.5q0 31 11 42t42 11q30 0 40.5 -11t10.5 -42q0 -30 -10 -40.5t-41 -10.5t-42 10.5z" />
    <glyph glyph-name="Jcircumflex" unicode="&#x134;" horiz-adv-x="343" 
d="M22 0zM117 63q24 0 36 5.5t12 24.5v465h-100v67h180v-496q0 -52 -17.5 -80.5t-50.5 -38.5t-87 -10h-58l-10 63h95zM59 716l98 112q4 5 9 5h12q5 0 9 -5l98 -112l-32 -31l-81 62l-81 -62z" />
    <glyph glyph-name="jcircumflex" unicode="&#x135;" horiz-adv-x="276" 
d="M0 0zM-4 -164l6 45q43 0 62.5 4.5t26.5 16.5t7 39v556l80 13v-580q0 -53 -28.5 -78.5t-86.5 -25.5q-37 0 -67 10zM25 591l98 112q4 5 9 5h12q5 0 9 -5l98 -112l-32 -31l-81 62l-81 -62z" />
    <glyph glyph-name="Kcommaaccent" unicode="&#x136;" horiz-adv-x="540" 
d="M98 0zM529 0h-91l-72 152q-21 45 -32 75t-11 62h-145v-289h-80v625h80v-272h145q0 33 11.5 65t31.5 72l67 135h91l-151 -304zM258 -266l21 97q-26 3 -37.5 17t-11.5 49q0 34 15 48.5t48 14.5t48 -14.5t15 -48.5q0 -35 -6.5 -54.5t-25.5 -59.5l-29 -60z" />
    <glyph glyph-name="kcommaaccent" unicode="&#x137;" horiz-adv-x="479" 
d="M98 0zM178 237v-237h-80v650l80 15v-368h88l113 203h84l-130 -232l135 -268h-82l-120 237h-88zM229 -266l21 97q-26 3 -37.5 17t-11.5 49q0 34 15 48.5t48 14.5t48 -14.5t15 -48.5q0 -35 -6.5 -54.5t-25.5 -59.5l-29 -60z" />
    <glyph glyph-name="kgreenlandic" unicode="&#x138;" horiz-adv-x="496" 
d="M178 219v-219h-80v500h80v-221h105l113 221h84l-130 -250l135 -250h-82l-120 219h-105z" />
    <glyph glyph-name="Lacute" unicode="&#x139;" horiz-adv-x="427" 
d="M59 0zM98 625h80v-558h238v-67h-318v625zM59 723l145 105q5 4 7 4q3 0 6 -4l39 -49q7 -8 7 -11q0 -4 -7 -10l-24 -19q-8 -6 -22 -10l-133 -35z" />
    <glyph glyph-name="lacute" unicode="&#x13a;" horiz-adv-x="263" 
d="M53 0zM217 56l-5 -55q-30 -10 -57 -10q-63 0 -63 68v591l80 15v-605zM53 719l145 105q5 4 7 4q3 0 6 -4l39 -49q7 -8 7 -11q0 -4 -7 -10l-24 -19q-8 -6 -22 -10l-133 -35z" />
    <glyph glyph-name="Lcommaaccent" unicode="&#x13b;" horiz-adv-x="427" 
d="M98 0zM98 625h80v-558h238v-67h-318v625zM213 -266l21 97q-26 3 -37.5 17t-11.5 49q0 34 15 48.5t48 14.5t48 -14.5t15 -48.5q0 -35 -6.5 -54.5t-25.5 -59.5l-29 -60z" />
    <glyph glyph-name="lcommaaccent" unicode="&#x13c;" horiz-adv-x="263" 
d="M69 0zM217 56l-5 -55q-30 -10 -57 -10q-63 0 -63 68v591l80 15v-605zM97 -266l21 97q-26 3 -37.5 17t-11.5 49q0 34 15 48.5t48 14.5t48 -14.5t15 -48.5q0 -35 -6.5 -54.5t-25.5 -59.5l-29 -60z" />
    <glyph glyph-name="Lcaron" unicode="&#x13d;" horiz-adv-x="427" 
d="M98 0zM98 625h80v-558h238v-67h-318v625zM213 -266l21 97q-26 3 -37.5 17t-11.5 49q0 34 15 48.5t48 14.5t48 -14.5t15 -48.5q0 -35 -6.5 -54.5t-25.5 -59.5l-29 -60z" />
    <glyph glyph-name="lcaron" unicode="&#x13e;" horiz-adv-x="318" 
d="M92 0zM217 56l-5 -55q-30 -10 -57 -10q-63 0 -63 68v591l80 15v-605zM236 474l21 97q-26 3 -37.5 17t-11.5 49q0 34 15 48.5t48 14.5t48 -14.5t15 -48.5q0 -35 -6.5 -54.5t-25.5 -59.5l-29 -60z" />
    <glyph glyph-name="Ldot" unicode="&#x13f;" horiz-adv-x="427" 
d="M98 625h80v-558h238v-67h-318v625zM289 366q9 11 36 11t36.5 -11t9.5 -38t-9.5 -38t-36.5 -11t-36 10.5t-9 38.5q0 27 9 38z" />
    <glyph glyph-name="ldot" unicode="&#x140;" horiz-adv-x="313" 
d="M92 0zM217 56l-5 -55q-30 -10 -57 -10q-63 0 -63 68v591l80 15v-605zM234 381q11 14 45 14q33 0 45 -14t12 -47q0 -34 -11.5 -47.5t-45.5 -13.5t-45 13t-11 48q0 33 11 47z" />
    <glyph glyph-name="Lslash" unicode="&#x141;" horiz-adv-x="427" 
d="M416 67v-67h-318v280l-64 -21l-8 24q-5 18 -5 26q0 15 15 19l62 21v276h80v-250l65 22l8 -25q5 -17 5 -26q0 -14 -15 -19l-63 -21v-239h238z" />
    <glyph glyph-name="lslash" unicode="&#x142;" horiz-adv-x="263" 
d="M250 348q0 -14 -15 -19l-63 -21v-248l45 -4l-5 -55q-30 -10 -57 -10q-63 0 -63 68v223l-64 -21l-8 24q-5 18 -5 26q0 15 15 19l62 21v299l80 15v-288l65 22l8 -25q5 -17 5 -26z" />
    <glyph glyph-name="Nacute" unicode="&#x143;" horiz-adv-x="658" 
d="M103 0zM103 625h77l263 -424q17 -29 21 -37t5 -23h6v484h80v-625h-77l-263 424q-17 29 -21 37t-5 23h-6v-484h-80v625zM263 723l145 105q5 4 7 4q3 0 6 -4l39 -49q7 -8 7 -11q0 -4 -7 -10l-24 -19q-8 -6 -22 -10l-133 -35z" />
    <glyph glyph-name="nacute" unicode="&#x144;" horiz-adv-x="572" 
d="M98 0zM98 500h35l23 -50q36 31 80 45t103 14q140 0 140 -79v-430h-80v444h-127q-55 0 -74.5 -13.5t-19.5 -50.5v-380h-80v500zM217 598l145 105q5 4 7 4q3 0 6 -4l39 -49q7 -8 7 -11q0 -4 -7 -10l-24 -19q-8 -6 -22 -10l-133 -35z" />
    <glyph glyph-name="Ncommaaccent" unicode="&#x145;" horiz-adv-x="658" 
d="M103 0zM103 625h77l263 -424q17 -29 21 -37t5 -23h6v484h80v-625h-77l-263 424q-17 29 -21 37t-5 23h-6v-484h-80v625zM295 -266l21 97q-26 3 -37.5 17t-11.5 49q0 34 15 48.5t48 14.5t48 -14.5t15 -48.5q0 -35 -6.5 -54.5t-25.5 -59.5l-29 -60z" />
    <glyph glyph-name="ncommaaccent" unicode="&#x146;" horiz-adv-x="572" 
d="M98 0zM98 500h35l23 -50q36 31 80 45t103 14q140 0 140 -79v-430h-80v444h-127q-55 0 -74.5 -13.5t-19.5 -50.5v-380h-80v500zM251 -266l21 97q-26 3 -37.5 17t-11.5 49q0 34 15 48.5t48 14.5t48 -14.5t15 -48.5q0 -35 -6.5 -54.5t-25.5 -59.5l-29 -60z" />
    <glyph glyph-name="Ncaron" unicode="&#x147;" horiz-adv-x="658" 
d="M103 0zM103 625h77l263 -424q17 -29 21 -37t5 -23h6v484h80v-625h-77l-263 424q-17 29 -21 37t-5 23h-6v-484h-80v625zM342 771l81 62l32 -31l-98 -112q-5 -5 -9 -5h-12q-4 0 -9 5l-98 112l32 31z" />
    <glyph glyph-name="ncaron" unicode="&#x148;" horiz-adv-x="572" 
d="M98 0zM98 500h35l23 -50q36 31 80 45t103 14q140 0 140 -79v-430h-80v444h-127q-55 0 -74.5 -13.5t-19.5 -50.5v-380h-80v500zM296 646l81 62l32 -31l-98 -112q-5 -5 -9 -5h-12q-4 0 -9 5l-98 112l32 31z" />
    <glyph glyph-name="Eng" unicode="&#x14a;" horiz-adv-x="658" 
d="M557 510v-580q0 -53 -28.5 -78.5t-86.5 -25.5q-37 0 -67 10l6 45q43 0 62.5 4.5t26.5 16.5t7 39v61l-262 422q-17 29 -21 37t-5 23h-6v-484h-80v625h77l263 -424q17 -29 21 -37t5 -23h6v484h80v-115h2z" />
    <glyph glyph-name="eng" unicode="&#x14b;" horiz-adv-x="572" 
d="M479 430v-500q0 -53 -28 -78.5t-87 -25.5q-33 0 -66 10l5 38q43 1 62.5 5t26.5 16t7 39v510h-127q-55 0 -74.5 -13.5t-19.5 -50.5v-380h-80v500h35l23 -50q36 31 80 45t103 14q140 0 140 -79z" />
    <glyph glyph-name="Omacron" unicode="&#x14c;" horiz-adv-x="631" 
d="M72 0zM90 523.5q18 67.5 68 92t158 24.5q107 0 156.5 -25t68 -92t18.5 -211t-18.5 -211t-68 -91.5t-156.5 -24.5q-108 0 -158 24.5t-68 91.5t-18 211t18 211.5zM386 53q49 0 68 17t19 60v442h-230q-49 0 -67.5 -16.5t-18.5 -60.5v-442h229zM207.5 724q-7.5 9 -7.5 33v29
h189q28 0 35.5 -8t7.5 -33v-30h-189q-28 0 -35.5 9z" />
    <glyph glyph-name="omacron" unicode="&#x14d;" horiz-adv-x="547" 
d="M66 0zM141 11.5q-43 20.5 -59 74t-16 164.5t16 164.5t59 74t132 20.5q90 0 133 -20t59 -73.5t16 -165.5q0 -111 -16 -164.5t-59.5 -74t-132.5 -20.5t-132 20.5zM349 59q30 0 40 5t10 20v357h-201q-30 0 -40 -5t-10 -20v-357h201zM164.5 599q-7.5 9 -7.5 33v29h189
q28 0 35.5 -8t7.5 -33v-30h-189q-28 0 -35.5 9z" />
    <glyph glyph-name="Obreve" unicode="&#x14e;" horiz-adv-x="631" 
d="M72 0zM90 523.5q18 67.5 68 92t158 24.5q107 0 156.5 -25t68 -92t18.5 -211t-18.5 -211t-68 -91.5t-156.5 -24.5q-108 0 -158 24.5t-68 91.5t-18 211t18 211.5zM386 53q49 0 68 17t19 60v442h-230q-49 0 -67.5 -16.5t-18.5 -60.5v-442h229zM245.5 719q-28.5 24 -40.5 78
l59 10q6 -22 20.5 -34t31.5 -12t32 12t21 34l59 -10q-13 -51 -42 -76.5t-70 -25.5q-42 0 -70.5 24z" />
    <glyph glyph-name="obreve" unicode="&#x14f;" horiz-adv-x="547" 
d="M66 0zM141 11.5q-43 20.5 -59 74t-16 164.5t16 164.5t59 74t132 20.5q90 0 133 -20t59 -73.5t16 -165.5q0 -111 -16 -164.5t-59.5 -74t-132.5 -20.5t-132 20.5zM349 59q30 0 40 5t10 20v357h-201q-30 0 -40 -5t-10 -20v-357h201zM202.5 594q-28.5 24 -40.5 78l59 10
q6 -22 20.5 -34t31.5 -12t32 12t21 34l59 -10q-13 -51 -42 -76.5t-70 -25.5q-42 0 -70.5 24z" />
    <glyph glyph-name="Ohungarumlaut" unicode="&#x150;" horiz-adv-x="631" 
d="M72 0zM90 523.5q18 67.5 68 92t158 24.5q107 0 156.5 -25t68 -92t18.5 -211t-18.5 -211t-68 -91.5t-156.5 -24.5q-108 0 -158 24.5t-68 91.5t-18 211t18 211.5zM386 53q49 0 68 17t19 60v442h-230q-49 0 -67.5 -16.5t-18.5 -60.5v-442h229zM136 731l132 98q3 2 6 2
q4 0 6 -3l40 -50q1 -2 3.5 -4.5t2.5 -5.5t-3 -6l-28 -23q-7 -6 -20 -8l-121 -29zM349 731l132 98q3 2 6 2q4 0 6 -3l40 -50q1 -2 3.5 -4.5t2.5 -5.5t-3 -6l-28 -23q-7 -6 -20 -8l-121 -29z" />
    <glyph glyph-name="ohungarumlaut" unicode="&#x151;" horiz-adv-x="547" 
d="M66 0zM141 11.5q-43 20.5 -59 74t-16 164.5t16 164.5t59 74t132 20.5q90 0 133 -20t59 -73.5t16 -165.5q0 -111 -16 -164.5t-59.5 -74t-132.5 -20.5t-132 20.5zM349 59q30 0 40 5t10 20v357h-201q-30 0 -40 -5t-10 -20v-357h201zM93 606l132 98q3 2 6 2q4 0 6 -3l40 -50
q1 -2 3.5 -4.5t2.5 -5.5t-3 -6l-28 -23q-7 -6 -20 -8l-121 -29zM306 606l132 98q3 2 6 2q4 0 6 -3l40 -50q1 -2 3.5 -4.5t2.5 -5.5t-3 -6l-28 -23q-7 -6 -20 -8l-121 -29z" />
    <glyph glyph-name="OE" unicode="&#x152;" horiz-adv-x="890" 
d="M837 67v-67h-521q-108 0 -158 23.5t-68 87.5t-18 201t18.5 201t68.5 88t157 24h516l-9 -67h-269v-213h244v-65h-244v-213h283zM473 558h-230q-49 0 -67.5 -16.5t-18.5 -60.5v-414h229q49 0 68 17t19 60v414z" />
    <glyph glyph-name="oe" unicode="&#x153;" horiz-adv-x="866" 
d="M673.5 62q38.5 5 92.5 18l11 -60q-36 -13 -90 -21t-110 -8q-55 0 -88 12t-51 41q-21 -30 -59.5 -41.5t-105.5 -11.5q-89 0 -132 20.5t-59 74t-16 164.5t16 164.5t59 74t132 20.5q71 0 110 -12t59 -45q21 31 58.5 44t96.5 13q79 0 119.5 -12.5t57 -43t16.5 -90.5
q0 -76 -19.5 -107t-80.5 -41t-210 -10v-136q45 -12 114 -12q41 0 79.5 5zM399 441h-201q-30 0 -40 -5t-10 -20v-357h201q30 0 40 5t10 20v357zM498 427q-18 -13 -18 -49v-115h151q51 0 69 13t18 48v116h-152q-50 0 -68 -13z" />
    <glyph glyph-name="Racute" unicode="&#x154;" horiz-adv-x="571" 
d="M98 0zM446 0l-108 229h-160v-229h-80v625h242q63 0 97.5 -19t49.5 -63.5t15 -124.5t-19.5 -123t-64.5 -58l115 -237h-87zM178 295h165q43 0 59 9t16 33v179q0 24 -16 33t-59 9h-165v-263zM218 723l145 105q5 4 7 4q3 0 6 -4l39 -49q7 -8 7 -11q0 -4 -7 -10l-24 -19
q-8 -6 -22 -10l-133 -35z" />
    <glyph glyph-name="racute" unicode="&#x155;" horiz-adv-x="327" 
d="M98 0zM165 418q48 42 79.5 64.5t55.5 32.5l10 -79q-34 -11 -70 -30t-62 -39v-367h-80v500h36zM118 598l145 105q5 4 7 4q3 0 6 -4l39 -49q7 -8 7 -11q0 -4 -7 -10l-24 -19q-8 -6 -22 -10l-133 -35z" />
    <glyph glyph-name="Rcommaaccent" unicode="&#x156;" horiz-adv-x="571" 
d="M98 0zM446 0l-108 229h-160v-229h-80v625h242q63 0 97.5 -19t49.5 -63.5t15 -124.5t-19.5 -123t-64.5 -58l115 -237h-87zM178 295h165q43 0 59 9t16 33v179q0 24 -16 33t-59 9h-165v-263zM250 -266l21 97q-26 3 -37.5 17t-11.5 49q0 34 15 48.5t48 14.5t48 -14.5
t15 -48.5q0 -35 -6.5 -54.5t-25.5 -59.5l-29 -60z" />
    <glyph glyph-name="rcommaaccent" unicode="&#x157;" horiz-adv-x="327" 
d="M75 0zM165 418q48 42 79.5 64.5t55.5 32.5l10 -79q-34 -11 -70 -30t-62 -39v-367h-80v500h36zM103 -266l21 97q-26 3 -37.5 17t-11.5 49q0 34 15 48.5t48 14.5t48 -14.5t15 -48.5q0 -35 -6.5 -54.5t-25.5 -59.5l-29 -60z" />
    <glyph glyph-name="Rcaron" unicode="&#x158;" horiz-adv-x="571" 
d="M98 0zM446 0l-108 229h-160v-229h-80v625h242q63 0 97.5 -19t49.5 -63.5t15 -124.5t-19.5 -123t-64.5 -58l115 -237h-87zM178 295h165q43 0 59 9t16 33v179q0 24 -16 33t-59 9h-165v-263zM297 771l81 62l32 -31l-98 -112q-5 -5 -9 -5h-12q-4 0 -9 5l-98 112l32 31z" />
    <glyph glyph-name="rcaron" unicode="&#x159;" horiz-adv-x="327" 
d="M84 0zM165 418q48 42 79.5 64.5t55.5 32.5l10 -79q-34 -11 -70 -30t-62 -39v-367h-80v500h36zM197 646l81 62l32 -31l-98 -112q-5 -5 -9 -5h-12q-4 0 -9 5l-98 112l32 31z" />
    <glyph glyph-name="Sacute" unicode="&#x15a;" horiz-adv-x="507" 
d="M50 0zM154.5 57q54.5 -6 102.5 -6q51 0 119 6v212l-96 7q-94 7 -140 23t-64 50t-18 102q0 70 17.5 111t56 59.5t104.5 18.5q100 0 195 -17l-10 -63q-73 14 -187 14q-52 0 -88 -5v-214l118 -7q80 -5 122.5 -22.5t60 -55t17.5 -106.5t-20.5 -107.5t-68.5 -55t-135 -16.5
q-99 0 -190 22l12 65q38 -9 92.5 -15zM174 723l145 105q5 4 7 4q3 0 6 -4l39 -49q7 -8 7 -11q0 -4 -7 -10l-24 -19q-8 -6 -22 -10l-133 -35z" />
    <glyph glyph-name="sacute" unicode="&#x15b;" horiz-adv-x="473" 
d="M49 0zM105 480q44 35 138 35q80 0 156 -22l-12 -60q-26 7 -60.5 12t-62.5 5q-62 0 -120 -9v-135q125 -18 182 -35.5t77.5 -46.5t20.5 -86t-19.5 -90t-63.5 -48t-119 -15q-80 0 -173 28l14 67q78 -30 165 -30q35 0 58 3t55 13v133q-136 21 -190.5 37t-72 44t-17.5 90
q0 75 44 110zM165 598l145 105q5 4 7 4q3 0 6 -4l39 -49q7 -8 7 -11q0 -4 -7 -10l-24 -19q-8 -6 -22 -10l-133 -35z" />
    <glyph glyph-name="Scircumflex" unicode="&#x15c;" horiz-adv-x="507" 
d="M50 0zM154.5 57q54.5 -6 102.5 -6q51 0 119 6v212l-96 7q-94 7 -140 23t-64 50t-18 102q0 70 17.5 111t56 59.5t104.5 18.5q100 0 195 -17l-10 -63q-73 14 -187 14q-52 0 -88 -5v-214l118 -7q80 -5 122.5 -22.5t60 -55t17.5 -106.5t-20.5 -107.5t-68.5 -55t-135 -16.5
q-99 0 -190 22l12 65q38 -9 92.5 -15zM140 716l98 112q4 5 9 5h12q5 0 9 -5l98 -112l-32 -31l-81 62l-81 -62z" />
    <glyph glyph-name="scircumflex" unicode="&#x15d;" horiz-adv-x="473" 
d="M49 0zM105 480q44 35 138 35q80 0 156 -22l-12 -60q-26 7 -60.5 12t-62.5 5q-62 0 -120 -9v-135q125 -18 182 -35.5t77.5 -46.5t20.5 -86t-19.5 -90t-63.5 -48t-119 -15q-80 0 -173 28l14 67q78 -30 165 -30q35 0 58 3t55 13v133q-136 21 -190.5 37t-72 44t-17.5 90
q0 75 44 110zM131 591l98 112q4 5 9 5h12q5 0 9 -5l98 -112l-32 -31l-81 62l-81 -62z" />
    <glyph glyph-name="Scedilla" unicode="&#x15e;" horiz-adv-x="507" 
d="M447 64q-17 -37 -55.5 -55.5t-106.5 -22.5q21 -36 21 -79q0 -35 -25 -56.5t-67 -21.5q-29 0 -61 16l6 41h37q24 0 33.5 6.5t9.5 23.5v69q-98 0 -189 22l12 65q38 -9 92.5 -15t102.5 -6q51 0 119 6v212l-96 7q-94 7 -140 23t-64 50t-18 102q0 70 17.5 111t56 59.5
t104.5 18.5q100 0 195 -17l-10 -63q-73 14 -187 14q-52 0 -88 -5v-214l118 -7q80 -5 122.5 -22.5t60 -55t17.5 -106.5q0 -63 -17 -100z" />
    <glyph glyph-name="scedilla" unicode="&#x15f;" horiz-adv-x="473" 
d="M388.5 28q-35.5 -35 -119.5 -41q21 -36 21 -80q0 -35 -25 -56.5t-67 -21.5q-29 0 -61 16l6 41h37q24 0 33.5 6.5t9.5 23.5v69h-1q-80 0 -173 28l14 67q78 -30 165 -30q35 0 58 3t55 13v133q-136 21 -190.5 37t-72 44t-17.5 90q0 75 44 110t138 35q80 0 156 -22l-12 -60
q-26 7 -60.5 12t-62.5 5q-62 0 -120 -9v-135q125 -18 182 -35.5t77.5 -46.5t20.5 -86q0 -75 -35.5 -110z" />
    <glyph glyph-name="Scaron" unicode="&#x160;" horiz-adv-x="507" 
d="M50 0zM154.5 57q54.5 -6 102.5 -6q51 0 119 6v212l-96 7q-94 7 -140 23t-64 50t-18 102q0 70 17.5 111t56 59.5t104.5 18.5q100 0 195 -17l-10 -63q-73 14 -187 14q-52 0 -88 -5v-214l118 -7q80 -5 122.5 -22.5t60 -55t17.5 -106.5t-20.5 -107.5t-68.5 -55t-135 -16.5
q-99 0 -190 22l12 65q38 -9 92.5 -15zM253 771l81 62l32 -31l-98 -112q-5 -5 -9 -5h-12q-4 0 -9 5l-98 112l32 31z" />
    <glyph glyph-name="scaron" unicode="&#x161;" horiz-adv-x="473" 
d="M49 0zM105 480q44 35 138 35q80 0 156 -22l-12 -60q-26 7 -60.5 12t-62.5 5q-62 0 -120 -9v-135q125 -18 182 -35.5t77.5 -46.5t20.5 -86t-19.5 -90t-63.5 -48t-119 -15q-80 0 -173 28l14 67q78 -30 165 -30q35 0 58 3t55 13v133q-136 21 -190.5 37t-72 44t-17.5 90
q0 75 44 110zM244 646l81 62l32 -31l-98 -112q-5 -5 -9 -5h-12q-4 0 -9 5l-98 112l32 31z" />
    <glyph glyph-name="uni0162" unicode="&#x162;" horiz-adv-x="454" 
d="M267 0h-18q14 -18 22.5 -42t8.5 -51q0 -35 -25 -56.5t-67 -21.5q-29 0 -61 16l6 41h37q24 0 33.5 6.5t9.5 23.5v84h-26v558h-170v67h420v-67h-170v-558z" />
    <glyph glyph-name="uni0163" unicode="&#x163;" horiz-adv-x="352" 
d="M210 443v-383q64 -4 73 -4l-5 -55q-44 -8 -73 -10q11 -17 17.5 -39t6.5 -45q0 -35 -25 -56.5t-67 -21.5q-29 0 -61 16l6 41h37q24 0 33.5 6.5t9.5 23.5v80q-32 15 -32 63v384h-74v57h74v112l80 20v-132h93v-57h-93z" />
    <glyph glyph-name="Tcaron" unicode="&#x164;" horiz-adv-x="454" 
d="M17 0zM267 0h-80v558h-170v67h420v-67h-170v-558zM227 771l81 62l32 -31l-98 -112q-5 -5 -9 -5h-12q-4 0 -9 5l-98 112l32 31z" />
    <glyph glyph-name="tcaron" unicode="&#x165;" horiz-adv-x="409" 
d="M56 0zM210 443v-383q64 -4 73 -4l-5 -55q-57 -10 -85 -10q-63 0 -63 68v384h-74v57h74v112l80 20v-132h93v-57h-93zM327 474l21 97q-26 3 -37.5 17t-11.5 49q0 34 15 48.5t48 14.5t48 -14.5t15 -48.5q0 -35 -6.5 -54.5t-25.5 -59.5l-29 -60z" />
    <glyph glyph-name="Tbar" unicode="&#x166;" horiz-adv-x="454" 
d="M267 558v-221h85v-18q0 -24 -7 -31t-31 -7h-47v-281h-80v281h-84v17q0 24 7 31.5t30 7.5h47v221h-170v67h420v-67h-170z" />
    <glyph glyph-name="tbar" unicode="&#x167;" horiz-adv-x="352" 
d="M210 443v-154h85v-18q0 -24 -7 -31t-31 -7h-47v-173q64 -4 73 -4l-5 -55q-57 -10 -85 -10q-63 0 -63 68v174h-84v17q0 24 7 31.5t30 7.5h47v154h-74v57h74v112l80 20v-132h93v-57h-93z" />
    <glyph glyph-name="Utilde" unicode="&#x168;" horiz-adv-x="639" 
d="M88 0zM173.5 1q-48.5 16 -67 56.5t-18.5 122.5v445h80v-572h157q61 0 91.5 4.5t42.5 15.5t12 33v519h80v-445q0 -82 -18.5 -122.5t-67 -56.5t-145.5 -16q-98 0 -146.5 16zM317.5 700q-11.5 7 -44.5 36l-63 -32l-25 41q49 37 73 50.5t39 13.5q12 0 22.5 -7t46.5 -36l63 32
l25 -41q-43 -34 -69 -49t-43 -15q-13 0 -24.5 7z" />
    <glyph glyph-name="utilde" unicode="&#x169;" horiz-adv-x="572" 
d="M93 0zM474 0h-35l-22 50q-39 -31 -86.5 -45t-109.5 -14q-66 0 -97 23.5t-31 73.5v412h80v-444h127q55 0 74.5 13t19.5 51v380h80v-500zM283.5 575q-11.5 7 -44.5 36l-63 -32l-25 41q49 37 73 50.5t39 13.5q12 0 22.5 -7t46.5 -36l63 32l25 -41q-43 -34 -69 -49t-43 -15
q-13 0 -24.5 7z" />
    <glyph glyph-name="Umacron" unicode="&#x16a;" horiz-adv-x="639" 
d="M88 0zM173.5 1q-48.5 16 -67 56.5t-18.5 122.5v445h80v-572h157q61 0 91.5 4.5t42.5 15.5t12 33v519h80v-445q0 -82 -18.5 -122.5t-67 -56.5t-145.5 -16q-98 0 -146.5 16zM211.5 724q-7.5 9 -7.5 33v29h189q28 0 35.5 -8t7.5 -33v-30h-189q-28 0 -35.5 9z" />
    <glyph glyph-name="umacron" unicode="&#x16b;" horiz-adv-x="572" 
d="M93 0zM474 0h-35l-22 50q-39 -31 -86.5 -45t-109.5 -14q-66 0 -97 23.5t-31 73.5v412h80v-444h127q55 0 74.5 13t19.5 51v380h80v-500zM177.5 599q-7.5 9 -7.5 33v29h189q28 0 35.5 -8t7.5 -33v-30h-189q-28 0 -35.5 9z" />
    <glyph glyph-name="Ubreve" unicode="&#x16c;" horiz-adv-x="639" 
d="M88 0zM173.5 1q-48.5 16 -67 56.5t-18.5 122.5v445h80v-572h157q61 0 91.5 4.5t42.5 15.5t12 33v519h80v-445q0 -82 -18.5 -122.5t-67 -56.5t-145.5 -16q-98 0 -146.5 16zM249.5 719q-28.5 24 -40.5 78l59 10q6 -22 20.5 -34t31.5 -12t32 12t21 34l59 -10
q-13 -51 -42 -76.5t-70 -25.5q-42 0 -70.5 24z" />
    <glyph glyph-name="ubreve" unicode="&#x16d;" horiz-adv-x="572" 
d="M93 0zM474 0h-35l-22 50q-39 -31 -86.5 -45t-109.5 -14q-66 0 -97 23.5t-31 73.5v412h80v-444h127q55 0 74.5 13t19.5 51v380h80v-500zM215.5 594q-28.5 24 -40.5 78l59 10q6 -22 20.5 -34t31.5 -12t32 12t21 34l59 -10q-13 -51 -42 -76.5t-70 -25.5q-42 0 -70.5 24z" />
    <glyph glyph-name="Uring" unicode="&#x16e;" horiz-adv-x="639" 
d="M88 0zM173.5 1q-48.5 16 -67 56.5t-18.5 122.5v445h80v-572h157q61 0 91.5 4.5t42.5 15.5t12 33v519h80v-445q0 -82 -18.5 -122.5t-67 -56.5t-145.5 -16q-98 0 -146.5 16zM246.5 689.5q-22.5 23.5 -22.5 72.5q0 48 22.5 71.5t73.5 23.5q49 0 71.5 -23.5t22.5 -71.5
q0 -49 -22.5 -72.5t-71.5 -23.5q-51 0 -73.5 23.5zM320 714q22 0 32 4.5t10 21.5v69h-41q-24 0 -34.5 -4.5t-10.5 -20.5v-70h44z" />
    <glyph glyph-name="uring" unicode="&#x16f;" horiz-adv-x="572" 
d="M93 0zM474 0h-35l-22 50q-39 -31 -86.5 -45t-109.5 -14q-66 0 -97 23.5t-31 73.5v412h80v-444h127q55 0 74.5 13t19.5 51v380h80v-500zM212.5 564.5q-22.5 23.5 -22.5 72.5q0 48 22.5 71.5t73.5 23.5q49 0 71.5 -23.5t22.5 -71.5q0 -49 -22.5 -72.5t-71.5 -23.5
q-51 0 -73.5 23.5zM286 589q22 0 32 4.5t10 21.5v69h-41q-24 0 -34.5 -4.5t-10.5 -20.5v-70h44z" />
    <glyph glyph-name="Uhungarumlaut" unicode="&#x170;" horiz-adv-x="639" 
d="M88 0zM173.5 1q-48.5 16 -67 56.5t-18.5 122.5v445h80v-572h157q61 0 91.5 4.5t42.5 15.5t12 33v519h80v-445q0 -82 -18.5 -122.5t-67 -56.5t-145.5 -16q-98 0 -146.5 16zM140 731l132 98q3 2 6 2q4 0 6 -3l40 -50q1 -2 3.5 -4.5t2.5 -5.5t-3 -6l-28 -23q-7 -6 -20 -8
l-121 -29zM353 731l132 98q3 2 6 2q4 0 6 -3l40 -50q1 -2 3.5 -4.5t2.5 -5.5t-3 -6l-28 -23q-7 -6 -20 -8l-121 -29z" />
    <glyph glyph-name="uhungarumlaut" unicode="&#x171;" horiz-adv-x="572" 
d="M93 0zM474 0h-35l-22 50q-39 -31 -86.5 -45t-109.5 -14q-66 0 -97 23.5t-31 73.5v412h80v-444h127q55 0 74.5 13t19.5 51v380h80v-500zM106 606l132 98q3 2 6 2q4 0 6 -3l40 -50q1 -2 3.5 -4.5t2.5 -5.5t-3 -6l-28 -23q-7 -6 -20 -8l-121 -29zM319 606l132 98q3 2 6 2
q4 0 6 -3l40 -50q1 -2 3.5 -4.5t2.5 -5.5t-3 -6l-28 -23q-7 -6 -20 -8l-121 -29z" />
    <glyph glyph-name="Uogonek" unicode="&#x172;" horiz-adv-x="639" 
d="M551 625v-445q0 -78 -16.5 -118.5t-59.5 -57.5t-127 -19h-2q-29 -7 -37.5 -17t-8.5 -34v-25q0 -16 8 -25t21 -9h56l7 -41q-37 -16 -71 -16q-41 0 -65.5 24t-24.5 64q0 23 14 44t39 36q-81 2 -122.5 19.5t-57.5 57.5t-16 117v445h80v-572h157q61 0 91.5 4.5t42.5 15.5
t12 33v519h80z" />
    <glyph glyph-name="uogonek" unicode="&#x173;" horiz-adv-x="572" 
d="M497 -155q-37 -16 -71 -16q-41 0 -65.5 24t-24.5 64q0 33 27 59.5t69 38.5l-15 35q-39 -31 -86.5 -45t-109.5 -14q-66 0 -97 23.5t-31 73.5v412h80v-444h127q55 0 74.5 13t19.5 51v380h80v-500h-1l-22 -4q-29 -7 -37.5 -17t-8.5 -34v-25q0 -16 8 -25t21 -9h56z" />
    <glyph glyph-name="Wcircumflex" unicode="&#x174;" horiz-adv-x="777" 
d="M25 0zM752 625l-110 -625h-127l-126 510l-127 -510h-128l-109 625h80l93 -553h9l139 553h84l140 -553h9l93 553h80zM275 716l98 112q4 5 9 5h12q5 0 9 -5l98 -112l-32 -31l-81 62l-81 -62z" />
    <glyph glyph-name="wcircumflex" unicode="&#x175;" horiz-adv-x="682" 
d="M7 0zM676 500l-129 -500h-112l-93 383l-94 -383h-112l-129 500h80l104 -433h10l102 433h77l102 -433h10l104 433h80zM228 591l98 112q4 5 9 5h12q5 0 9 -5l98 -112l-32 -31l-81 62l-81 -62z" />
    <glyph glyph-name="Ycircumflex" unicode="&#x176;" horiz-adv-x="472" 
d="M11 0zM461 625l-185 -407v-218h-80v218l-185 407h83l142 -323l142 323h83zM123 716l98 112q4 5 9 5h12q5 0 9 -5l98 -112l-32 -31l-81 62l-81 -62z" />
    <glyph glyph-name="ycircumflex" unicode="&#x177;" horiz-adv-x="435" 
d="M3 0zM429 500l-150 -474q-24 -77 -50 -120t-60.5 -61.5t-85.5 -18.5q-43 0 -80 10l3 43l59 7q41 6 63 16t36 30.5t26 59.5l10 34h-43l-150 474h80l126 -407h10l126 407h80zM105 591l98 112q4 5 9 5h12q5 0 9 -5l98 -112l-32 -31l-81 62l-81 -62z" />
    <glyph glyph-name="Ydieresis" unicode="&#x178;" horiz-adv-x="472" 
d="M11 0zM461 625l-185 -407v-218h-80v218l-185 407h83l142 -323l142 323h83zM110.5 715.5q-8.5 10.5 -8.5 41.5q0 30 8.5 41t36.5 11q27 0 36 -11t9 -41t-8.5 -41t-36.5 -11t-36.5 10.5zM288.5 715.5q-8.5 10.5 -8.5 41.5q0 30 8.5 41t36.5 11q27 0 36 -11t9 -41t-8.5 -41
t-36.5 -11t-36.5 10.5z" />
    <glyph glyph-name="Zacute" unicode="&#x179;" horiz-adv-x="536" 
d="M37 0zM37 54l359 498l-3 6h-305l-10 67h422v-54l-360 -498l3 -6h337v-67h-443v54zM225 723l145 105q5 4 7 4q3 0 6 -4l39 -49q7 -8 7 -11q0 -4 -7 -10l-24 -19q-8 -6 -22 -10l-133 -35z" />
    <glyph glyph-name="zacute" unicode="&#x17a;" horiz-adv-x="462" 
d="M41 0zM319 442h-250l-7 58h360v-44l-283 -392l3 -6h273v-58h-374v44l283 392zM174 598l145 105q5 4 7 4q3 0 6 -4l39 -49q7 -8 7 -11q0 -4 -7 -10l-24 -19q-8 -6 -22 -10l-133 -35z" />
    <glyph glyph-name="Zdotaccent" unicode="&#x17b;" horiz-adv-x="536" 
d="M37 0zM37 54l359 498l-3 6h-305l-10 67h422v-54l-360 -498l3 -6h337v-67h-443v54zM263 731.5q-11 10.5 -11 40.5q0 31 11 42t42 11q30 0 40.5 -11t10.5 -42q0 -30 -10 -40.5t-41 -10.5t-42 10.5z" />
    <glyph glyph-name="zdotaccent" unicode="&#x17c;" horiz-adv-x="462" 
d="M41 0zM319 442h-250l-7 58h360v-44l-283 -392l3 -6h273v-58h-374v44l283 392zM212 606.5q-11 10.5 -11 40.5q0 31 11 42t42 11q30 0 40.5 -11t10.5 -42q0 -30 -10 -40.5t-41 -10.5t-42 10.5z" />
    <glyph glyph-name="Zcaron" unicode="&#x17d;" horiz-adv-x="536" 
d="M37 0zM37 54l359 498l-3 6h-305l-10 67h422v-54l-360 -498l3 -6h337v-67h-443v54zM304 771l81 62l32 -31l-98 -112q-5 -5 -9 -5h-12q-4 0 -9 5l-98 112l32 31z" />
    <glyph glyph-name="zcaron" unicode="&#x17e;" horiz-adv-x="462" 
d="M41 0zM319 442h-250l-7 58h360v-44l-283 -392l3 -6h273v-58h-374v44l283 392zM253 646l81 62l32 -31l-98 -112q-5 -5 -9 -5h-12q-4 0 -9 5l-98 112l32 31z" />
    <glyph glyph-name="florin" unicode="&#x192;" horiz-adv-x="407" 
d="M257.5 548.5q-20.5 -22.5 -26.5 -83.5l-11 -126h142l-4 -47h-142l-30 -346q-5 -64 -35.5 -92t-91.5 -28q-32 0 -65 10l9 45q44 1 63.5 5t27.5 16t10 39l31 351h-71v47h75l5 54q8 92 29.5 145.5t63 77.5t108.5 24q20 0 52.5 -5.5t54.5 -14.5l-18 -67q-21 8 -51.5 13
t-54.5 5q-50 0 -70.5 -22.5z" />
    <glyph glyph-name="Aringacute" unicode="&#x1fa;" horiz-adv-x="533" 
d="M17 0zM392 148h-251l-44 -148h-80l190 625h119l190 -625h-80zM372 214l-101 339h-9l-101 -339h211zM193.5 689.5q-22.5 23.5 -22.5 72.5q0 48 22.5 71.5t73.5 23.5q49 0 71.5 -23.5t22.5 -71.5q0 -49 -22.5 -72.5t-71.5 -23.5q-51 0 -73.5 23.5zM267 714q22 0 32 4.5
t10 21.5v69h-41q-24 0 -34.5 -4.5t-10.5 -20.5v-70h44zM188 935l145 105q5 4 7 4q3 0 6 -4l39 -49q7 -8 7 -11q0 -4 -7 -10l-24 -19q-8 -6 -22 -10l-133 -35z" />
    <glyph glyph-name="aringacute" unicode="&#x1fb;" horiz-adv-x="541" 
d="M61 0zM377.5 496.5q37.5 -12.5 54 -41.5t16.5 -79v-376h-35l-23 50q-35 -31 -79 -45t-101 -14q-81 0 -115 33.5t-34 112.5q0 76 19 107t77 41t199 10h12v136q-40 12 -111 12q-77 0 -163 -23l-11 60q32 13 86 21t104 8q67 0 104.5 -12.5zM351 69q17 13 17 49v119h-151
q-49 0 -66.5 -13t-17.5 -48v-120h153q48 0 65 13zM199.5 564.5q-22.5 23.5 -22.5 72.5q0 48 22.5 71.5t73.5 23.5q49 0 71.5 -23.5t22.5 -71.5q0 -49 -22.5 -72.5t-71.5 -23.5q-51 0 -73.5 23.5zM273 589q22 0 32 4.5t10 21.5v69h-41q-24 0 -34.5 -4.5t-10.5 -20.5v-70h44z
M194 810l145 105q5 4 7 4q3 0 6 -4l39 -49q7 -8 7 -11q0 -4 -7 -10l-24 -19q-8 -6 -22 -10l-133 -35z" />
    <glyph glyph-name="AEacute" unicode="&#x1fc;" horiz-adv-x="742" 
d="M17 0zM179 625h459l-13 -76h-262l54 -204h179v-73h-161l51 -196h202v-76h-267l-36 145h-248l-35 -145h-85zM366 221l-81 332h-47l-82 -332h210zM292 723l145 105q5 4 7 4q3 0 6 -4l39 -49q7 -8 7 -11q0 -4 -7 -10l-24 -19q-8 -6 -22 -10l-133 -35z" />
    <glyph glyph-name="aeacute" unicode="&#x1fd;" horiz-adv-x="835" 
d="M61 0zM642.5 62q38.5 5 93.5 18l11 -60q-36 -13 -90 -21t-111 -8q-64 0 -99 14t-53 48q-37 -32 -81 -47t-103 -15q-81 0 -115 33.5t-34 112.5q0 76 19 107t77 41t199 10h12v136q-40 12 -111 12q-77 0 -163 -23l-11 60q32 13 86 21t104 8q57 0 92.5 -9t55.5 -29
q22 20 57 29t89 9q79 0 119.5 -12.5t57 -43.5t16.5 -90q0 -76 -20 -107t-81 -41t-210 -10v-136q45 -12 115 -12q40 0 78.5 5zM449 263h152q50 0 68.5 13t18.5 48v116h-153q-50 0 -68 -13t-18 -49v-115zM351 69q17 13 17 49v119h-151q-49 0 -66.5 -13t-17.5 -48v-120h153
q48 0 65 13zM339 598l145 105q5 4 7 4q3 0 6 -4l39 -49q7 -8 7 -11q0 -4 -7 -10l-24 -19q-8 -6 -22 -10l-133 -35z" />
    <glyph glyph-name="Oslashacute" unicode="&#x1fe;" horiz-adv-x="631" 
d="M72 0zM542 517q17 -67 17 -205q0 -144 -18.5 -211t-68 -91.5t-156.5 -24.5q-74 0 -113 9l-19 -42q-7 -16 -16 -21.5t-27 -5.5h-27l39 88q-33 18 -50.5 54t-24 94t-6.5 151q0 144 18 211.5t68 92t158 24.5q70 0 113 -10l19 43q7 16 16.5 22t26.5 6h27l-40 -89
q47 -28 64 -95zM171 53l232 519h-160q-49 0 -67.5 -16.5t-18.5 -60.5v-442h14zM473 572h-13l-231 -519h157q49 0 68 17t19 60v442zM237 723l145 105q5 4 7 4q3 0 6 -4l39 -49q7 -8 7 -11q0 -4 -7 -10l-24 -19q-8 -6 -22 -10l-133 -35z" />
    <glyph glyph-name="oslashacute" unicode="&#x1ff;" horiz-adv-x="547" 
d="M66 0zM467.5 407.5q13.5 -52.5 13.5 -157.5q0 -111 -16 -164.5t-59.5 -74t-132.5 -20.5q-61 0 -94 8l-38 -77q-7 -15 -16 -20t-27 -5h-27l59 121q-37 23 -50.5 76t-13.5 156q0 111 16 164.5t59 74t132 20.5q60 0 95 -8l37 76q7 15 16 20t27 5h27l-58 -119
q37 -23 50.5 -75.5zM151 59l187 382h-140q-30 0 -40 -5t-10 -20v-357h3zM399 441h-3l-188 -382h141q30 0 40 5t10 20v357zM194 598l145 105q5 4 7 4q3 0 6 -4l39 -49q7 -8 7 -11q0 -4 -7 -10l-24 -19q-8 -6 -22 -10l-133 -35z" />
    <glyph glyph-name="Scommaaccent" unicode="&#x218;" horiz-adv-x="507" 
d="M50 0zM154.5 57q54.5 -6 102.5 -6q51 0 119 6v212l-96 7q-94 7 -140 23t-64 50t-18 102q0 70 17.5 111t56 59.5t104.5 18.5q100 0 195 -17l-10 -63q-73 14 -187 14q-52 0 -88 -5v-214l118 -7q80 -5 122.5 -22.5t60 -55t17.5 -106.5t-20.5 -107.5t-68.5 -55t-135 -16.5
q-99 0 -190 22l12 65q38 -9 92.5 -15zM218 -266l21 97q-26 3 -37.5 17t-11.5 49q0 34 15 48.5t48 14.5t48 -14.5t15 -48.5q0 -35 -6.5 -54.5t-25.5 -59.5l-29 -60z" />
    <glyph glyph-name="scommaaccent" unicode="&#x219;" horiz-adv-x="473" 
d="M49 0zM105 480q44 35 138 35q80 0 156 -22l-12 -60q-26 7 -60.5 12t-62.5 5q-62 0 -120 -9v-135q125 -18 182 -35.5t77.5 -46.5t20.5 -86t-19.5 -90t-63.5 -48t-119 -15q-80 0 -173 28l14 67q78 -30 165 -30q35 0 58 3t55 13v133q-136 21 -190.5 37t-72 44t-17.5 90
q0 75 44 110zM202 -266l21 97q-26 3 -37.5 17t-11.5 49q0 34 15 48.5t48 14.5t48 -14.5t15 -48.5q0 -35 -6.5 -54.5t-25.5 -59.5l-29 -60z" />
    <glyph glyph-name="uni021A" unicode="&#x21a;" horiz-adv-x="454" 
d="M17 0zM267 0h-80v558h-170v67h420v-67h-170v-558zM192 -266l21 97q-26 3 -37.5 17t-11.5 49q0 34 15 48.5t48 14.5t48 -14.5t15 -48.5q0 -35 -6.5 -54.5t-25.5 -59.5l-29 -60z" />
    <glyph glyph-name="uni021B" unicode="&#x21b;" horiz-adv-x="352" 
d="M56 0zM210 443v-383q64 -4 73 -4l-5 -55q-57 -10 -85 -10q-63 0 -63 68v384h-74v57h74v112l80 20v-132h93v-57h-93zM141 -266l21 97q-26 3 -37.5 17t-11.5 49q0 34 15 48.5t48 14.5t48 -14.5t15 -48.5q0 -35 -6.5 -54.5t-25.5 -59.5l-29 -60z" />
    <glyph glyph-name="uni0237" unicode="&#x237;" horiz-adv-x="276" 
d="M-4 -164l6 45q43 0 62.5 4.5t26.5 16.5t7 39v556l80 13v-580q0 -53 -28.5 -78.5t-86.5 -25.5q-37 0 -67 10z" />
    <glyph glyph-name="circumflex" unicode="&#x2c6;" horiz-adv-x="600" 
d="M79 560zM79 591l98 112q4 5 9 5h12q5 0 9 -5l98 -112l-32 -31l-81 62l-81 -62z" />
    <glyph glyph-name="caron" unicode="&#x2c7;" horiz-adv-x="600" 
d="M79 560zM192 646l81 62l32 -31l-98 -112q-5 -5 -9 -5h-12q-4 0 -9 5l-98 112l32 31z" />
    <glyph glyph-name="breve" unicode="&#x2d8;" horiz-adv-x="600" 
d="M81 570zM121.5 594q-28.5 24 -40.5 78l59 10q6 -22 20.5 -34t31.5 -12t32 12t21 34l59 -10q-13 -51 -42 -76.5t-70 -25.5q-42 0 -70.5 24z" />
    <glyph glyph-name="dotaccent" unicode="&#x2d9;" horiz-adv-x="600" 
d="M79 596zM90 606.5q-11 10.5 -11 40.5q0 31 11 42t42 11q30 0 40.5 -11t10.5 -42q0 -30 -10 -40.5t-41 -10.5t-42 10.5z" />
    <glyph glyph-name="ring" unicode="&#x2da;" horiz-adv-x="600" 
d="M37 541zM59.5 564.5q-22.5 23.5 -22.5 72.5q0 48 22.5 71.5t73.5 23.5q49 0 71.5 -23.5t22.5 -71.5q0 -49 -22.5 -72.5t-71.5 -23.5q-51 0 -73.5 23.5zM133 589q22 0 32 4.5t10 21.5v69h-41q-24 0 -34.5 -4.5t-10.5 -20.5v-70h44z" />
    <glyph glyph-name="ogonek" unicode="&#x2db;" horiz-adv-x="600" 
d="M0 0zM24.5 -147q-24.5 24 -24.5 64q0 39 36.5 68t90.5 36l10 -21l-22 -4q-29 -7 -37.5 -17t-8.5 -34v-25q0 -16 8 -25t21 -9h56l7 -41q-37 -16 -71 -16q-41 0 -65.5 24z" />
    <glyph glyph-name="tilde" unicode="&#x2dc;" horiz-adv-x="600" 
d="M94 568zM226.5 575q-11.5 7 -44.5 36l-63 -32l-25 41q49 37 73 50.5t39 13.5q12 0 22.5 -7t46.5 -36l63 32l25 -41q-43 -34 -69 -49t-43 -15q-13 0 -24.5 7z" />
    <glyph glyph-name="hungarumlaut" unicode="&#x2dd;" horiz-adv-x="600" 
d="M42 577zM42 606l132 98q3 2 6 2q4 0 6 -3l40 -50q1 -2 3.5 -4.5t2.5 -5.5t-3 -6l-28 -23q-7 -6 -20 -8l-121 -29zM255 606l132 98q3 2 6 2q4 0 6 -3l40 -50q1 -2 3.5 -4.5t2.5 -5.5t-3 -6l-28 -23q-7 -6 -20 -8l-121 -29z" />
    <glyph glyph-name="gravecomb" unicode="&#x300;" 
d="M-297 592q-13 3 -21 10l-25 19q-6 6 -6 10q0 3 7 11l39 49q3 4 6 4q2 0 7 -4l145 -105l-19 -29z" />
    <glyph glyph-name="acutecomb" unicode="&#x301;" 
d="M-291 598l145 105q5 4 7 4q3 0 6 -4l39 -49q7 -8 7 -11q0 -4 -7 -10l-24 -19q-8 -6 -22 -10l-133 -35z" />
    <glyph glyph-name="uni0302" unicode="&#x302;" 
d="M-306 591l98 112q4 5 9 5h12q5 0 9 -5l98 -112l-32 -31l-81 62l-81 -62z" />
    <glyph glyph-name="tildecomb" unicode="&#x303;" 
d="M-231.5 575q-11.5 7 -44.5 36l-63 -32l-25 41q49 37 73 50.5t39 13.5q12 0 22.5 -7t46.5 -36l63 32l25 -41q-43 -34 -69 -49t-43 -15q-13 0 -24.5 7z" />
    <glyph glyph-name="uni0304" unicode="&#x304;" 
d="M-307.5 599q-7.5 9 -7.5 33v29h189q28 0 35.5 -8t7.5 -33v-30h-189q-28 0 -35.5 9z" />
    <glyph glyph-name="uni0306" unicode="&#x306;" 
d="M-263.5 594q-28.5 24 -40.5 78l59 10q6 -22 20.5 -34t31.5 -12t32 12t21 34l59 -10q-13 -51 -42 -76.5t-70 -25.5q-42 0 -70.5 24z" />
    <glyph glyph-name="uni0307" unicode="&#x307;" 
d="M-171 606.5q-11 10.5 -11 40.5q0 31 11 42t42 11q30 0 40.5 -11t10.5 -42q0 -30 -10 -40.5t-41 -10.5t-42 10.5z" />
    <glyph glyph-name="uni0308" unicode="&#x308;" 
d="M-313.5 590.5q-8.5 10.5 -8.5 41.5q0 30 8.5 41t36.5 11q27 0 36 -11t9 -41t-8.5 -41t-36.5 -11t-36.5 10.5zM-135.5 590.5q-8.5 10.5 -8.5 41.5q0 30 8.5 41t36.5 11q27 0 36 -11t9 -41t-8.5 -41t-36.5 -11t-36.5 10.5z" />
    <glyph glyph-name="uni030A" unicode="&#x30a;" 
d="M-205.5 564.5q-22.5 23.5 -22.5 72.5q0 48 22.5 71.5t73.5 23.5q49 0 71.5 -23.5t22.5 -71.5q0 -49 -22.5 -72.5t-71.5 -23.5q-51 0 -73.5 23.5zM-132 589q22 0 32 4.5t10 21.5v69h-41q-24 0 -34.5 -4.5t-10.5 -20.5v-70h44z" />
    <glyph glyph-name="uni030B" unicode="&#x30b;" 
d="M-405 606l132 98q3 2 6 2q4 0 6 -3l40 -50q1 -2 3.5 -4.5t2.5 -5.5t-3 -6l-28 -23q-7 -6 -20 -8l-121 -29zM-192 606l132 98q3 2 6 2q4 0 6 -3l40 -50q1 -2 3.5 -4.5t2.5 -5.5t-3 -6l-28 -23q-7 -6 -20 -8l-121 -29z" />
    <glyph glyph-name="uni030C" unicode="&#x30c;" 
d="M-193 646l81 62l32 -31l-98 -112q-5 -5 -9 -5h-12q-4 0 -9 5l-98 112l32 31z" />
    <glyph glyph-name="uni0312" unicode="&#x312;" 
d="M-98 803l-20 -96q26 -3 37.5 -17t11.5 -49q0 -34 -15 -48.5t-48 -14.5t-48 14.5t-15 48.5t6.5 54.5t25.5 59.5l29 60z" />
    <glyph glyph-name="uni0326" unicode="&#x326;" 
d="M-119 -266l21 97q-26 3 -37.5 17t-11.5 49q0 34 15 48.5t48 14.5t48 -14.5t15 -48.5q0 -35 -6.5 -54.5t-25.5 -59.5l-29 -60z" />
    <glyph glyph-name="uni0327" unicode="&#x327;" 
d="M-157 -155l6 41h37q24 0 33.5 6.5t9.5 23.5v105h12q25 -14 40 -45.5t15 -68.5q0 -35 -25 -56.5t-67 -21.5q-29 0 -61 16z" />
    <glyph glyph-name="uni0328" unicode="&#x328;" 
d="M-136.5 -147q-24.5 24 -24.5 64q0 39 36.5 68t90.5 36l10 -21l-22 -4q-29 -7 -37.5 -17t-8.5 -34v-25q0 -16 8 -25t21 -9h56l7 -41q-37 -16 -71 -16q-41 0 -65.5 24z" />
    <glyph glyph-name="uni0335" unicode="&#x335;" 
d="M-275 296.5q7 7.5 30 7.5h212v-18q0 -24 -7 -31t-31 -7h-211v17q0 24 7 31.5z" />
    <glyph glyph-name="uni0336" unicode="&#x336;" 
d="M-591 298.5q7 7.5 30 7.5h528v-22q0 -24 -7 -30.5t-31 -6.5h-527v20q0 24 7 31.5z" />
    <glyph glyph-name="uni0337" unicode="&#x337;" 
d="M-230 295q-5 18 -5 26q0 15 15 19l207 69l8 -25q5 -17 5 -26q0 -14 -15 -19l-207 -68z" />
    <glyph glyph-name="uni0338" unicode="&#x338;" 
d="M-350 -35q-9 -5 -27 -5h-27l334 680q7 15 16 20t27 5h27l-334 -680q-7 -15 -16 -20z" />
    <glyph glyph-name="uni0394" unicode="&#x394;" horiz-adv-x="659" 
d="M53 0zM606 52l-19 -52h-515l-19 52l227 573h99zM496 89q0 9 -2 14l-165 425h-16l-181 -462h335q29 0 29 23z" />
    <glyph glyph-name="uni03A9" unicode="&#x3a9;" horiz-adv-x="654" 
d="M149 272q0 -42 11.5 -62.5t30 -26t50.5 -5.5l-15 -178h-178v51l127 8l8 77q-52 11 -76.5 33t-34 68t-9.5 138q0 117 21 171.5t75 74t168 19.5t168.5 -19.5t75 -74t20.5 -171.5q0 -92 -9 -138t-34 -68t-76 -33l7 -77l128 -8v-51h-179l-15 178h93v335q0 42 -18.5 54
t-58.5 12h-280v-307z" />
    <glyph glyph-name="pi" unicode="&#x3c0;" horiz-adv-x="609" 
d="M486 64q31 -4 45 -5l-5 -54q-36 -10 -57 -10q-63 0 -63 68v365h-135q-23 0 -37 -9.5t-15 -28.5l-60 -390h-56l31 432l-47 12v56h384q5 14 6 36l63 -7q0 -41 -4 -61t-15.5 -28.5t-34.5 -10.5v-365z" />
    <glyph glyph-name="uni060C" unicode="&#x60c;" horiz-adv-x="221" 
d="M147 198l-17 -83q21 -4 29 -16.5t8 -43.5q0 -35 -12.5 -48t-46.5 -13q-30 0 -42 13.5t-12 47.5q0 22 25 84l32 70z" />
    <glyph glyph-name="uni0615" unicode="&#x615;" 
d="M106 784.5q16 -15.5 16 -56.5v-138h-274v40h30v233h48v-122q19 30 46 44.5t73 14.5q45 0 61 -15.5zM74 630v123q-18 8 -44 8q-53 0 -78 -31.5t-26 -99.5h148z" />
    <glyph glyph-name="uni061B" unicode="&#x61b;" horiz-adv-x="221" 
d="M54 0zM65 102q11 14 45 14q33 0 45 -14t12 -47q0 -34 -11.5 -47.5t-45.5 -13.5t-45 13t-11 48q0 33 11 47zM147 478l-17 -83q21 -4 29 -16.5t8 -43.5q0 -35 -12.5 -48t-46.5 -13q-30 0 -42 13.5t-12 47.5q0 22 25 84l32 70z" />
    <glyph glyph-name="uni061F" unicode="&#x61f;" horiz-adv-x="396" 
d="M202 189l-4 149q-85 31 -121 51t-47 44.5t-11 73.5t18.5 78t59 42t109.5 13q72 0 158 -26l-10 -54q-100 20 -158 20q-52 0 -94 -6v-132l95 -34q41 -15 53.5 -23t11.5 -20l-10 -176h-50zM273.5 7.5q-11.5 -13.5 -46.5 -13.5q-34 0 -46 13.5t-12 48.5q0 34 12 48.5t46 14.5
q35 0 46.5 -14t11.5 -49t-11.5 -48.5z" />
    <glyph glyph-name="uni0621" unicode="&#x621;" horiz-adv-x="416" 
d="M398 196v-68l-378 -102v68l101 28q-29 46 -29 137q0 125 62.5 179.5t204.5 54.5v-72q-56 0 -108.5 -11t-88.5 -32v-173q0 -31 8.5 -44t29.5 -13q16 0 46 8z" />
    <glyph glyph-name="uni0622" unicode="&#x622;" horiz-adv-x="276" 
d="M29 0zM106 470h64v-470h-64v470zM134 619.5q-10 6.5 -37 32.5l-56 -26l-12 25q42 29 59.5 38.5t29.5 9.5q8 0 15 -5t21.5 -18t20.5 -18l56 26l12 -25q-36 -25 -55.5 -35.5t-31.5 -10.5t-22 6.5z" />
    <glyph glyph-name="uni0623" unicode="&#x623;" horiz-adv-x="276" 
d="M25 0zM106 470h64v-470h-64v470zM251 680v-41l-226 -60v40l46 13q-14 26 -14 79q0 80 43.5 110t127.5 28v-50q-30 0 -61 -6.5t-50 -18.5l-2 -97q0 -13 5 -19t17 -6t27 4z" />
    <glyph glyph-name="uni0624" unicode="&#x624;" horiz-adv-x="601" 
d="M92 0zM399.5 472.5q45.5 -6.5 95.5 -22.5v-378q0 -51 -29 -115t-77.5 -124t-103.5 -97l-38 51q54 41 99.5 99t68.5 114h-193q-55 0 -82 19.5t-37.5 69t-10.5 149.5q0 104 15.5 153.5t57 68.5t127.5 19q62 0 107.5 -6.5zM383 72q28 0 38 11.5t10 40.5v283h-228
q-26 0 -34.5 -11.5t-8.5 -46.5v-277h223zM405 680v-41l-226 -60v40l46 13q-14 26 -14 79q0 80 43.5 110t127.5 28v-50q-30 0 -61 -6.5t-50 -18.5l-2 -97q0 -13 5 -19t17 -6t27 4z" />
    <glyph glyph-name="uni0625" unicode="&#x625;" horiz-adv-x="276" 
d="M25 0zM106 630h64v-630h-64v630zM251 -249v-41l-226 -60v40l46 13q-14 26 -14 79q0 80 43.5 110t127.5 28v-50q-30 0 -61 -6.5t-50 -18.5l-2 -97q0 -13 5 -19t17 -6t27 4z" />
    <glyph glyph-name="uni0626" unicode="&#x626;" horiz-adv-x="844" 
d="M54 0zM80 31q8 66 21 108l63 -11q-28 -130 -28 -203q0 -40 3 -68t10 -57h283q103 0 156.5 4.5t75.5 15.5t22 33v234l-142 18q-66 8 -100.5 26.5t-47.5 55.5t-13 104q0 70 15.5 111t51.5 59.5t100 18.5q86 0 183 -18l-13 -69q-82 15 -168 15q-62 0 -101 -5v-218l169 -18
q52 -5 80 -25t39 -58t11 -104v-69q0 -76 -27.5 -114t-103 -53.5t-229.5 -15.5q-144 0 -205.5 9.5t-87 46t-25.5 121.5q0 60 8 126zM280 370v-41l-226 -60v40l46 13q-14 26 -14 79q0 80 43.5 110t127.5 28v-50q-30 0 -61 -6.5t-50 -18.5l-2 -97q0 -13 5 -19t17 -6t27 4z" />
    <glyph glyph-name="uni0627" unicode="&#x627;" horiz-adv-x="276" 
d="M106 630h64v-630h-64v630z" />
    <glyph glyph-name="uni0628" unicode="&#x628;" horiz-adv-x="876" 
d="M74 0zM127.5 19.5q-28.5 19.5 -41 63t-12.5 120.5q0 44 7.5 93t19.5 80l61 -11q-24 -84 -24 -153q0 -89 17 -140h551v398h64v-470h-564q-50 0 -78.5 19.5zM404 -173q-18 18 -18 32t17.5 31t31.5 18q14 -1 31.5 -18t17.5 -31t-18 -32t-31 -17q-13 -1 -31 17z" />
    <glyph glyph-name="uni0629" unicode="&#x629;" horiz-adv-x="630" 
d="M90 0zM524 0h-239q-87 0 -127 17t-54 65t-14 153t14 153t54 65t127 17h239v-470zM234 398q-41 0 -58.5 -14t-17.5 -47v-204q0 -33 17.5 -47t58.5 -14h226v326h-226zM222 608q-18 18 -18 32t17.5 31t31.5 18q14 -1 31.5 -18t17.5 -31t-18 -32t-31 -17q-13 -1 -31 17z
M356 608q-18 18 -18 32t17.5 31t31.5 18q14 -1 31.5 -18t17.5 -31t-18 -32t-31 -17q-13 -1 -31 17z" />
    <glyph glyph-name="uni062A" unicode="&#x62a;" horiz-adv-x="876" 
d="M74 0zM127.5 19.5q-28.5 19.5 -41 63t-12.5 120.5q0 44 7.5 93t19.5 80l61 -11q-24 -84 -24 -153q0 -89 17 -140h551v398h64v-470h-564q-50 0 -78.5 19.5zM337 508q-18 18 -18 32t17.5 31t31.5 18q14 -1 31.5 -18t17.5 -31t-18 -32t-31 -17q-13 -1 -31 17zM471 508
q-18 18 -18 32t17.5 31t31.5 18q14 -1 31.5 -18t17.5 -31t-18 -32t-31 -17q-13 -1 -31 17z" />
    <glyph glyph-name="uni062B" unicode="&#x62b;" horiz-adv-x="876" 
d="M74 0zM127.5 19.5q-28.5 19.5 -41 63t-12.5 120.5q0 44 7.5 93t19.5 80l61 -11q-24 -84 -24 -153q0 -89 17 -140h551v398h64v-470h-564q-50 0 -78.5 19.5zM337 508q-18 18 -18 32t17.5 31t31.5 18q14 -1 31.5 -18t17.5 -31t-18 -32t-31 -17q-13 -1 -31 17zM471 508
q-18 18 -18 32t17.5 31t31.5 18q14 -1 31.5 -18t17.5 -31t-18 -32t-31 -17q-13 -1 -31 17zM404 647q-18 18 -18 32t17.5 31t31.5 18q14 -1 31.5 -18t17.5 -31t-18 -32t-31 -17q-13 -1 -31 17z" />
    <glyph glyph-name="uni062C" unicode="&#x62c;" horiz-adv-x="548" 
d="M548 180q-159 0 -251 -18t-133 -58t-41 -109v-186q51 -10 148 -10q33 0 69 5t95 17l11 -67q-34 -13 -87.5 -20t-113.5 -7q-84 0 -123.5 16.5t-54 61t-14.5 140.5q0 101 36 164t116 95t213 38l-8 19q-34 75 -99 110.5t-167 35.5q-47 0 -79 -3l-11 70q57 5 97 5
q136 0 215.5 -54.5t125.5 -180.5h56v-64zM264 20q18 18 33 19q15 -1 33 -19t18 -32t-18.5 -33t-32.5 -18q-14 -1 -32.5 17.5t-18.5 33.5q0 14 18 32z" />
    <glyph glyph-name="uni062D" unicode="&#x62d;" horiz-adv-x="548" 
d="M297 162q-92 -18 -133 -58t-41 -109v-186q51 -10 148 -10q33 0 69 5t95 17l11 -67q-34 -13 -87.5 -20t-113.5 -7q-84 0 -123.5 16.5t-54 61t-14.5 140.5q0 101 36 164t116 95t213 38l-8 19q-34 75 -99 110.5t-167 35.5q-47 0 -79 -3l-11 70q57 5 97 5q136 0 215.5 -54.5
t125.5 -180.5h56v-64q-159 0 -251 -18z" />
    <glyph glyph-name="uni062E" unicode="&#x62e;" horiz-adv-x="548" 
d="M53 0zM297 162q-92 -18 -133 -58t-41 -109v-186q51 -10 148 -10q33 0 69 5t95 17l11 -67q-34 -13 -87.5 -20t-113.5 -7q-84 0 -123.5 16.5t-54 61t-14.5 140.5q0 101 36 164t116 95t213 38l-8 19q-34 75 -99 110.5t-167 35.5q-47 0 -79 -3l-11 70q57 5 97 5
q136 0 215.5 -54.5t125.5 -180.5h56v-64q-159 0 -251 -18zM244 631q-18 18 -18 32t17.5 31t31.5 18q14 -1 31.5 -18t17.5 -31t-18 -32t-31 -17q-13 -1 -31 17z" />
    <glyph glyph-name="uni062F" unicode="&#x62f;" horiz-adv-x="507" 
d="M20 72h361q-44 154 -74.5 225t-67.5 96.5t-101 25.5q-30 0 -68 -9l-17 70q44 11 85 11q93 0 138 -26t81 -110.5t100 -298.5v-56h-437v72z" />
    <glyph glyph-name="uni0630" unicode="&#x630;" horiz-adv-x="507" 
d="M20 0zM20 72h361q-44 154 -74.5 225t-67.5 96.5t-101 25.5q-30 0 -68 -9l-17 70q44 11 85 11q93 0 138 -26t81 -110.5t100 -298.5v-56h-437v72zM136 608q-18 18 -18 32t17.5 31t31.5 18q14 -1 31.5 -18t17.5 -31t-18 -32t-31 -17q-13 -1 -31 17z" />
    <glyph glyph-name="uni0631" unicode="&#x631;" horiz-adv-x="305" 
d="M30 -199q58 28 81.5 72t23.5 121v476h64v-476q0 -93 -33 -152t-107 -96z" />
    <glyph glyph-name="uni0632" unicode="&#x632;" horiz-adv-x="305" 
d="M30 0zM30 -199q58 28 81.5 72t23.5 121v476h64v-476q0 -93 -33 -152t-107 -96zM136 608q-18 18 -18 32t17.5 31t31.5 18q14 -1 31.5 -18t17.5 -31t-18 -32t-31 -17q-13 -1 -31 17z" />
    <glyph glyph-name="uni0633" unicode="&#x633;" horiz-adv-x="1231" 
d="M1127.5 364.5q8.5 -63.5 8.5 -107.5q0 -104 -12 -157.5t-46.5 -76.5t-104.5 -23q-65 0 -103 8t-58 28q-20 -20 -56.5 -28t-100.5 -8h-105v-45q0 -83 -19.5 -123.5t-73 -56t-164.5 -15.5q-103 0 -148.5 17.5t-59 61t-13.5 140.5q0 58 7.5 119.5t19.5 100.5l63 -10
q-26 -123 -26 -196q0 -100 13 -161h193q57 0 87.5 4.5t43.5 15.5t13 33v495h64v-308h150q45 0 62 11t17 42v255h64v-255q0 -31 17 -42t62 -11h137q13 68 13 184q0 84 -26 201l63 11q10 -40 18.5 -103.5z" />
    <glyph glyph-name="uni0634" unicode="&#x634;" horiz-adv-x="1231" 
d="M72 0zM1127.5 364.5q8.5 -63.5 8.5 -107.5q0 -104 -12 -157.5t-46.5 -76.5t-104.5 -23q-65 0 -103 8t-58 28q-20 -20 -56.5 -28t-100.5 -8h-105v-45q0 -83 -19.5 -123.5t-73 -56t-164.5 -15.5q-103 0 -148.5 17.5t-59 61t-13.5 140.5q0 58 7.5 119.5t19.5 100.5l63 -10
q-26 -123 -26 -196q0 -100 13 -161h193q57 0 87.5 4.5t43.5 15.5t13 33v495h64v-308h150q45 0 62 11t17 42v255h64v-255q0 -31 17 -42t62 -11h137q13 68 13 184q0 84 -26 201l63 11q10 -40 18.5 -103.5zM725 608q-18 18 -18 32t17.5 31t31.5 18q14 -1 31.5 -18t17.5 -31
t-18 -32t-31 -17q-13 -1 -31 17zM859 608q-18 18 -18 32t17.5 31t31.5 18q14 -1 31.5 -18t17.5 -31t-18 -32t-31 -17q-13 -1 -31 17zM792 747q-18 18 -18 32t17.5 31t31.5 18q14 -1 31.5 -18t17.5 -31t-18 -32t-31 -17q-13 -1 -31 17z" />
    <glyph glyph-name="uni0635" unicode="&#x635;" horiz-adv-x="1145" 
d="M984.5 470q30.5 -10 44 -32.5t13.5 -63.5v-374h-492v-45q0 -83 -19.5 -123.5t-73 -56t-164.5 -15.5q-103 0 -148.5 17.5t-59 61t-13.5 140.5q0 58 7.5 119.5t19.5 100.5l63 -10q-26 -123 -26 -196q0 -100 13 -161h193q57 0 87.5 4.5t43.5 15.5t13 33v585h64v-196
q35 100 125 153t225 53q54 0 84.5 -10zM978 72v325q-35 11 -109 11q-156 0 -234 -82.5t-84 -253.5h427z" />
    <glyph glyph-name="uni0636" unicode="&#x636;" horiz-adv-x="1145" 
d="M72 0zM984.5 470q30.5 -10 44 -32.5t13.5 -63.5v-374h-492v-45q0 -83 -19.5 -123.5t-73 -56t-164.5 -15.5q-103 0 -148.5 17.5t-59 61t-13.5 140.5q0 58 7.5 119.5t19.5 100.5l63 -10q-26 -123 -26 -196q0 -100 13 -161h193q57 0 87.5 4.5t43.5 15.5t13 33v585h64v-196
q35 100 125 153t225 53q54 0 84.5 -10zM978 72v325q-35 11 -109 11q-156 0 -234 -82.5t-84 -253.5h427zM780 608q-18 18 -18 32t17.5 31t31.5 18q14 -1 31.5 -18t17.5 -31t-18 -32t-31 -17q-13 -1 -31 17z" />
    <glyph glyph-name="uni0637" unicode="&#x637;" horiz-adv-x="799" 
d="M640.5 470q30.5 -10 44 -32.5t13.5 -63.5v-374h-678v72h122v558h64v-356q35 100 125 153t225 53q54 0 84.5 -10zM634 72v325q-35 11 -109 11q-156 0 -234 -82.5t-84 -253.5h427z" />
    <glyph glyph-name="uni0638" unicode="&#x638;" horiz-adv-x="799" 
d="M20 0zM640.5 470q30.5 -10 44 -32.5t13.5 -63.5v-374h-678v72h122v558h64v-356q35 100 125 153t225 53q54 0 84.5 -10zM634 72v325q-35 11 -109 11q-156 0 -234 -82.5t-84 -253.5h427zM469 608q-18 18 -18 32t17.5 31t31.5 18q14 -1 31.5 -18t17.5 -31t-18 -32t-31 -17
q-13 -1 -31 17z" />
    <glyph glyph-name="uni0639" unicode="&#x639;" horiz-adv-x="569" 
d="M201 397v-284q89 30 255 30v-60q-119 0 -191.5 -15.5t-107 -49.5t-34.5 -91v-170q51 -10 148 -10q33 0 69 5t95 17l11 -67q-34 -13 -87.5 -20t-113.5 -7q-84 0 -123.5 16.5t-54 61t-14.5 140.5q0 71 23.5 119.5t73.5 77.5q-19 49 -19 156q0 99 14.5 147.5t55 68
t123.5 19.5q46 0 97 -9t80 -22l-11 -67q-90 26 -175 26q-77 0 -114 -12z" />
    <glyph glyph-name="uni063A" unicode="&#x63a;" horiz-adv-x="569" 
d="M53 0zM201 397v-284q89 30 255 30v-60q-119 0 -191.5 -15.5t-107 -49.5t-34.5 -91v-170q51 -10 148 -10q33 0 69 5t95 17l11 -67q-34 -13 -87.5 -20t-113.5 -7q-84 0 -123.5 16.5t-54 61t-14.5 140.5q0 71 23.5 119.5t73.5 77.5q-19 49 -19 156q0 99 14.5 147.5t55 68
t123.5 19.5q46 0 97 -9t80 -22l-11 -67q-90 26 -175 26q-77 0 -114 -12zM294 608q-18 18 -18 32t17.5 31t31.5 18q14 -1 31.5 -18t17.5 -31t-18 -32t-31 -17q-13 -1 -31 17z" />
    <glyph glyph-name="uni0640" unicode="&#x640;" horiz-adv-x="244" 
d="M-20 72h284v-72h-284v72z" />
    <glyph glyph-name="uni0641" unicode="&#x641;" horiz-adv-x="976" 
d="M74 0zM127.5 19.5q-28.5 19.5 -41 63t-12.5 120.5q0 44 7.5 93t19.5 80l61 -11q-24 -84 -24 -153q0 -89 17 -140h320q-8 56 -8 180q0 95 15.5 142t57 66t127.5 19q52 0 97.5 -6.5t105.5 -22.5v-450h-664q-50 0 -78.5 19.5zM796 83.5q10 11.5 10 40.5v281h-224
q-28 0 -37.5 -11.5t-9.5 -46.5v-275h223q28 0 38 11.5zM666 608q-18 18 -18 32t17.5 31t31.5 18q14 -1 31.5 -18t17.5 -31t-18 -32t-31 -17q-13 -1 -31 17z" />
    <glyph glyph-name="uni0642" unicode="&#x642;" horiz-adv-x="869" 
d="M62 0zM668.5 472.5q45.5 -6.5 95.5 -22.5v-557q0 -57 -13 -89t-43 -46t-82 -14h-432q-50 0 -78.5 22.5t-41 73.5t-12.5 141q0 53 7.5 111.5t19.5 95.5l61 -11q-24 -102 -24 -187q0 -105 17 -174h557v184h-209q-55 0 -82 19.5t-37.5 69t-10.5 149.5q0 104 15.5 153.5
t57 68.5t127.5 19q62 0 107.5 -6.5zM690 83.5q10 11.5 10 40.5v283h-228q-26 0 -34.5 -11.5t-8.5 -46.5v-277h223q28 0 38 11.5zM467 608q-18 18 -18 32t17.5 31t31.5 18q14 -1 31.5 -18t17.5 -31t-18 -32t-31 -17q-13 -1 -31 17zM601 608q-18 18 -18 32t17.5 31t31.5 18
q14 -1 31.5 -18t17.5 -31t-18 -32t-31 -17q-13 -1 -31 17z" />
    <glyph glyph-name="uni0643" unicode="&#x643;" horiz-adv-x="859" 
d="M539 480v-41l-226 -60v40l46 13q-14 26 -14 79q0 80 43.5 110t127.5 28v-50q-30 0 -61 -6.5t-50 -18.5l-2 -97q0 -13 5 -19t17 -6t27 4zM706 72v558h64v-630h-564q-50 0 -78.5 19.5t-41 63t-12.5 120.5q0 44 7.5 93t19.5 80l61 -11q-24 -84 -24 -153q0 -89 17 -140h551z
" />
    <glyph glyph-name="uni0644" unicode="&#x644;" horiz-adv-x="659" 
d="M342 -168q57 0 87.5 4.5t43.5 15.5t13 33v743h64v-673q0 -83 -19.5 -123.5t-73 -56t-164.5 -15.5q-98 0 -144 17.5t-61.5 62.5t-15.5 139q0 63 8 133.5t21 116.5l59 -10q-24 -123 -24 -226q0 -100 13 -161h193z" />
    <glyph glyph-name="uni0645" unicode="&#x645;" horiz-adv-x="647" 
d="M105 0q-17 -57 -17 -144q0 -66 27 -177l-62 -13q-13 35 -21 92.5t-8 109.5q0 76 10 120t33 63.5t63 20.5q-20 56 -20 151q0 104 47 217q34 17 90.5 28t113.5 11q69 0 107.5 -11.5t55 -37.5t16.5 -72v-358h-435zM357 407q-78 0 -153 -18q-30 -95 -30 -166q0 -95 21 -151
h281v323q-44 12 -119 12z" />
    <glyph glyph-name="uni0646" unicode="&#x646;" horiz-adv-x="659" 
d="M72 0zM342 -168q57 0 87.5 4.5t43.5 15.5t13 33v585h64v-515q0 -83 -19.5 -123.5t-73 -56t-164.5 -15.5q-98 0 -144 17.5t-61.5 62.5t-15.5 139q0 63 8 133.5t21 116.5l59 -10q-24 -123 -24 -226q0 -100 13 -161h193zM286 608q-18 18 -18 32t17.5 31t31.5 18
q14 -1 31.5 -18t17.5 -31t-18 -32t-31 -17q-13 -1 -31 17z" />
    <glyph glyph-name="uni0647" unicode="&#x647;" horiz-adv-x="630" 
d="M524 0h-239q-87 0 -127 17t-54 65t-14 153t14 153t54 65t127 17h239v-470zM234 398q-41 0 -58.5 -14t-17.5 -47v-204q0 -33 17.5 -47t58.5 -14h226v326h-226z" />
    <glyph glyph-name="uni0648" unicode="&#x648;" horiz-adv-x="601" 
d="M399.5 472.5q45.5 -6.5 95.5 -22.5v-378q0 -51 -29 -115t-77.5 -124t-103.5 -97l-38 51q54 41 99.5 99t68.5 114h-193q-55 0 -82 19.5t-37.5 69t-10.5 149.5q0 104 15.5 153.5t57 68.5t127.5 19q62 0 107.5 -6.5zM383 72q28 0 38 11.5t10 40.5v283h-228
q-26 0 -34.5 -11.5t-8.5 -46.5v-277h223z" />
    <glyph glyph-name="uni0649" unicode="&#x649;" horiz-adv-x="844" 
d="M80 31q8 66 21 108l63 -11q-28 -130 -28 -203q0 -40 3 -68t10 -57h283q103 0 156.5 4.5t75.5 15.5t22 33v234l-142 18q-66 8 -100.5 26.5t-47.5 55.5t-13 104q0 70 15.5 111t51.5 59.5t100 18.5q86 0 183 -18l-13 -69q-82 15 -168 15q-62 0 -101 -5v-218l169 -18
q52 -5 80 -25t39 -58t11 -104v-69q0 -76 -27.5 -114t-103 -53.5t-229.5 -15.5q-144 0 -205.5 9.5t-87 46t-25.5 121.5q0 60 8 126z" />
    <glyph glyph-name="uni064A" unicode="&#x64a;" horiz-adv-x="844" 
d="M72 0zM80 31q8 66 21 108l63 -11q-28 -130 -28 -203q0 -40 3 -68t10 -57h283q103 0 156.5 4.5t75.5 15.5t22 33v234l-142 18q-66 8 -100.5 26.5t-47.5 55.5t-13 104q0 70 15.5 111t51.5 59.5t100 18.5q86 0 183 -18l-13 -69q-82 15 -168 15q-62 0 -101 -5v-218l169 -18
q52 -5 80 -25t39 -58t11 -104v-69q0 -76 -27.5 -114t-103 -53.5t-229.5 -15.5q-144 0 -205.5 9.5t-87 46t-25.5 121.5q0 60 8 126zM314 -273zM332 -411q-18 18 -18 32t17.5 31t31.5 18q14 -1 31.5 -18t17.5 -31t-18 -32t-31 -17q-13 -1 -31 17zM332 -272q-18 18 -18 32
t17.5 31t31.5 18q14 -1 31.5 -18t17.5 -31t-18 -32t-31 -17q-13 -1 -31 17z" />
    <glyph glyph-name="uni064B" unicode="&#x64b;" 
d="M20 587zM20 631l190 51v-44l-190 -51v44zM20 725l190 51v-44l-190 -51v44z" />
    <glyph glyph-name="uni064C" unicode="&#x64c;" 
d="M58 572q-21 0 -29.5 18t-8.5 61q0 27 3.5 56t9.5 50l51 8q-9 -49 -9 -93q0 -32 6 -56l69 19q-9 14 -9 69q0 51 10.5 83t45 51.5t102.5 19.5q4 0 16 -0.5t17 0.5l1 -214l-255 -69q-10 -3 -20 -3zM277 811l-78 -20v-143l78 20v143z" />
    <glyph glyph-name="uni064D" unicode="&#x64d;" 
d="M20 -27zM20 -217l190 51v-44l-190 -51v44zM20 -78l190 51v-44l-190 -51v44z" />
    <glyph glyph-name="uni064E" unicode="&#x64e;" 
d="M20 631l190 51v-44l-190 -51v44z" />
    <glyph glyph-name="uni064F" unicode="&#x64f;" 
d="M150 641q-9 15 -9 70q0 51 10.5 83t45 51.5t102.5 19.5l33 -1l1 -215l-313 -83v40zM277 818l-78 -21v-143l78 21v143z" />
    <glyph glyph-name="uni0650" unicode="&#x650;" 
d="M20 -140l190 51v-44l-190 -51v44z" />
    <glyph glyph-name="uni0651" unicode="&#x651;" 
d="M333 636l-255 -69q-10 -3 -20 -3q-20 0 -29 19t-9 61q0 27 3.5 56.5t9.5 50.5l53 8q-9 -49 -9 -93q0 -32 6 -56l78 20q-8 17 -8 71v73l47 13v-145l77 19v148l55 21z" />
    <glyph glyph-name="uni0652" unicode="&#x652;" 
d="M22 684q0 97 97 97q95 0 95 -97q0 -98 -95 -98q-97 0 -97 98zM120 638q20 0 27 5.5t7 21.5v64h-35q-22 0 -29.5 -5.5t-7.5 -20.5v-65h38z" />
    <glyph glyph-name="uni0653" unicode="&#x653;" 
d="M126 619.5q-10 6.5 -37 32.5l-56 -26l-12 25q42 29 59.5 38.5t29.5 9.5q8 0 15 -5t21.5 -18t20.5 -18l56 26l12 -25q-36 -25 -55.5 -35.5t-31.5 -10.5t-22 6.5z" />
    <glyph glyph-name="uni0654" unicode="&#x654;" 
d="M246 680v-41l-226 -60v40l46 13q-14 26 -14 79q0 80 43.5 110t127.5 28v-50q-30 0 -61 -6.5t-50 -18.5l-2 -97q0 -13 5 -19t17 -6t27 4z" />
    <glyph glyph-name="uni0655" unicode="&#x655;" 
d="M246 -249v-41l-226 -60v40l46 13q-14 26 -14 79q0 80 43.5 110t127.5 28v-50q-30 0 -61 -6.5t-50 -18.5l-2 -97q0 -13 5 -19t17 -6t27 4z" />
    <glyph glyph-name="uni0656" unicode="&#x656;" 
d="M17 -93zM17 -105l47 12v-198l-47 -12v198z" />
    <glyph glyph-name="uni0658" unicode="&#x658;" 
d="M151 619q36 0 48 6.5t12 25.5v231h54l-1 -186q-1 -52 -11.5 -77t-37.5 -35t-82 -10q-48 0 -71.5 9t-32.5 31t-9 68q0 24 3 48.5t7 38.5l51 -6q-7 -39 -7 -76q0 -38 8 -68h69z" />
    <glyph glyph-name="uni0660" unicode="&#x660;" horiz-adv-x="226" 
d="M70.5 371.5q11.5 12.5 42.5 12.5q29 0 41.5 -13t12.5 -44q0 -32 -12 -45t-42 -13t-42 12.5t-12 45.5q0 32 11.5 44.5z" />
    <glyph glyph-name="uni0661" unicode="&#x661;" horiz-adv-x="260" 
d="M162 625v-625h-64v625h64z" />
    <glyph glyph-name="uni0662" unicode="&#x662;" horiz-adv-x="525" 
d="M463 625v-360q0 -40 -31.5 -59.5t-100.5 -19.5q-103 0 -169 41v-227h-64v625h64v-306q0 -34 24 -47t80 -13h133v366h64z" />
    <glyph glyph-name="uni0663" unicode="&#x663;" horiz-adv-x="805" 
d="M98 625h64v-319q0 -34 23 -47t81 -13h123v379h64v-319q0 -34 22.5 -47t80.5 -13h123v379h64v-372q0 -40 -33 -59.5t-99 -19.5q-52 0 -91.5 12.5t-72.5 39.5q-19 -52 -126 -52q-49 0 -87.5 11t-71.5 34v-219h-64v625z" />
    <glyph glyph-name="uni0664" unicode="&#x664;" horiz-adv-x="493" 
d="M460 72v-72h-418v56q20 132 98 259v5q-36 19 -50.5 57.5t-14.5 93.5q0 86 42 127.5t137 41.5q118 0 190 -25l-8 -66q-44 9 -97.5 14t-99.5 5q-69 0 -96 -7v-195l183 -27v-43h-133q-67 -108 -86 -224h353z" />
    <glyph glyph-name="uni0665" unicode="&#x665;" horiz-adv-x="595" 
d="M78.5 529.5q14.5 64.5 61.5 87.5t158 23t157.5 -22.5t61 -87.5t14.5 -218q0 -157 -13.5 -220.5t-59.5 -85t-160 -21.5q-113 0 -159.5 21.5t-60.5 85.5t-14 220q0 153 14.5 217.5zM226 570q-53 0 -73.5 -11t-20.5 -42v-462h243q51 0 69.5 10.5t18.5 42.5v462h-237z" />
    <glyph glyph-name="uni0666" unicode="&#x666;" horiz-adv-x="425" 
d="M327 0h-64v553h-246v72h310v-625z" />
    <glyph glyph-name="uni0667" unicode="&#x667;" horiz-adv-x="501" 
d="M91 625q65 -290 155 -561h9q90 271 155 561h71q-75 -305 -184 -625h-93q-109 320 -184 625h71z" />
    <glyph glyph-name="uni0668" unicode="&#x668;" horiz-adv-x="501" 
d="M204 625h93q109 -320 184 -625h-71q-65 290 -155 561h-9q-90 -271 -155 -561h-71q75 305 184 625z" />
    <glyph glyph-name="uni0669" unicode="&#x669;" horiz-adv-x="502" 
d="M160 221q-55 0 -85 19.5t-42 62.5t-12 119q0 79 12.5 122t45.5 62t96 19h229v-625h-64v221h-180zM340 557h-202q-25 0 -37 -9.5t-12 -32.5v-180q0 -23 12 -32.5t37 -9.5h202v264z" />
    <glyph glyph-name="uni066A" unicode="&#x66a;" horiz-adv-x="1139" 
d="M68 0zM79.5 567q11.5 43 45.5 58t112 15q77 0 111 -15t45.5 -57.5t11.5 -140.5q0 -100 -11 -142t-44.5 -56.5t-112.5 -14.5t-113 14.5t-45 56.5t-11 142q0 97 11.5 140zM125 294q0 -21 13.5 -27.5t56.5 -6.5h154v300q0 21 -15.5 28t-60.5 7h-148v-301zM466 -34.5
q-8 -5.5 -27 -5.5h-15l233 680q4 13 13.5 19t29.5 6h15l-233 -680q-8 -14 -16 -19.5zM746.5 343q11.5 43 45.5 58t112 15q77 0 111 -15t45.5 -57.5t11.5 -140.5q0 -100 -11 -142t-44.5 -56.5t-112.5 -14.5t-113 14.5t-45 56.5t-11 142q0 97 11.5 140zM792 70
q0 -21 13.5 -27.5t56.5 -6.5h154v300q0 21 -15.5 28t-60.5 7h-148v-301z" />
    <glyph glyph-name="uni066B" unicode="&#x66b;" horiz-adv-x="221" 
d="M54 0zM74 -88l17 83q-21 4 -29 16.5t-8 43.5q0 35 12.5 48t46.5 13q30 0 42 -13.5t12 -47.5q0 -22 -25 -84l-32 -70z" />
    <glyph glyph-name="uni066C" unicode="&#x66c;" horiz-adv-x="221" 
d="M54 116zM74 127l17 83q-21 4 -29 16.5t-8 43.5q0 35 12.5 48t46.5 13q30 0 42 -13.5t12 -47.5q0 -22 -25 -84l-32 -70z" />
    <glyph glyph-name="uni066D" unicode="&#x66d;" horiz-adv-x="514" 
d="M55 343zM413 536l-126 -17l94 -88l26 -38l-69 -50l-26 39l-55 115l-54 -115l-27 -39l-69 50l26 38l94 88l-126 17l-46 14l27 80l45 -15l112 -61l-24 127v47h85v-47l-24 -127l111 61l45 15l27 -80z" />
    <glyph glyph-name="uni066E" unicode="&#x66e;" horiz-adv-x="876" 
d="M127.5 19.5q-28.5 19.5 -41 63t-12.5 120.5q0 44 7.5 93t19.5 80l61 -11q-24 -84 -24 -153q0 -89 17 -140h551v398h64v-470h-564q-50 0 -78.5 19.5z" />
    </font>
</defs>
</svg>
