<svg xmlns="http://www.w3.org/2000/svg" width="56" height="50" viewBox="0 0 56 50">
    <g fill="none" fill-rule="evenodd">
        <path fill="#B8B7B9" d="M55.007 49.611V18.91H0v30.702h2.558V21.468h49.89V49.61z"/>
        <path stroke="#B8B7B9" stroke-linejoin="round" d="M2.558 21.468L6.491 25.4a4.044 4.044 0 0 1 1.184 2.86v19.432M52.449 21.468L48.516 25.4a4.044 4.044 0 0 0-1.184 2.86v19.432"/>
        <path stroke="#B8B7B9" stroke-linecap="round" d="M14.072 32.238L37.634 8.675M34.54 31.415L48.324 17.63M24.306 31.99l16.918-16.918"/>
        <path stroke="#B8B7B9" d="M55.071 8.068a7.046 7.046 0 0 1-1.447 4.283 7.038 7.038 0 0 1-3.283 2.384 7.09 7.09 0 0 1-4.674.005 7.058 7.058 0 0 1-3.285-2.394 7.01 7.01 0 0 1-1.446-4.278c0-.053 0-.104.005-.156.004-.353.042-.706.098-1.056a7.007 7.007 0 0 1 1.089-2.704c0-.009.005-.014.009-.02a7.041 7.041 0 0 1 3.835-2.831 7.067 7.067 0 0 1 4.063-.005 7.086 7.086 0 0 1 3.779 2.747 6.996 6.996 0 0 1 1.252 3.86c.005.056.005.109.005.165z"/>
        <path fill="#B8B7B9" d="M46.68 9.654l-.597-1.852a.632.632 0 0 1 .229-.704l1.555-1.138a.631.631 0 0 1 .749.001l1.558 1.145c.22.161.31.444.228.704l-.598 1.844a.627.627 0 0 1-.601.434h-1.92a.629.629 0 0 1-.603-.434M50.174 2.408l-1.56 1.14a.628.628 0 0 1-.744-.004L46.31 2.4a.626.626 0 0 1-.226-.702l.127-.396a7.052 7.052 0 0 1 4.062-.004l.127.405a.639.639 0 0 1-.226.706M43.584 6.522l-1.57 1.126a.626.626 0 0 1-.74 0l-.338-.238c.028-1.431.49-2.909 1.253-3.852h.424c.274 0 .514.168.598.428l.603 1.83a.623.623 0 0 1-.23.706M45.838 14.22l-.34.25a7.055 7.055 0 0 1-3.283-2.393l.132-.4a.63.63 0 0 1 .597-.434l1.933-.01c.272 0 .518.18.603.444l.588 1.842a.632.632 0 0 1-.23.702M53.776 12.077a7.053 7.053 0 0 1-3.284 2.385l-.344-.25a.626.626 0 0 1-.226-.702l.588-1.838a.627.627 0 0 1 .604-.438l1.932.009c.273 0 .514.174.598.434l.132.4zM55.36 7.408l-.344.245a.636.636 0 0 1-.74.002l-1.564-1.133a.63.63 0 0 1-.232-.71l.609-1.825a.624.624 0 0 1 .597-.429h.42c.764.942 1.226 2.417 1.254 3.85"/>
    </g>
</svg>
