<svg xmlns="http://www.w3.org/2000/svg" width="49" height="50" viewBox="0 0 49 50">
    <g fill="none" fill-rule="evenodd">
        <path stroke="#B8B7B9" d="M46.113 45.045a9.217 9.217 0 0 1-4.3 3.122 9.132 9.132 0 0 1-3.06.525 9.295 9.295 0 0 1-3.061-.519 9.243 9.243 0 0 1-4.3-3.135 9.18 9.18 0 0 1-1.895-5.602c0-.067 0-.136.007-.204a9.33 9.33 0 0 1 .13-1.381 9.17 9.17 0 0 1 1.424-3.543c.038-.062.061-.099.087-.136a9.208 9.208 0 0 1 4.949-3.596 9.031 9.031 0 0 1 2.659-.395c.925 0 1.814.136 2.659.388a9.262 9.262 0 0 1 4.949 3.598A9.148 9.148 0 0 1 48 39.22c.007.075.007.142.007.216 0 2.11-.71 4.054-1.895 5.609z"/>
        <path fill="#B8B7B9" d="M41.057 41.566l.782-2.335c.146-.452-.013-.904-.396-1.185l-2.04-1.478a1.119 1.119 0 0 0-1.3.008l-2.04 1.497a1.1 1.1 0 0 0-.397 1.227l.782 2.263c.145.453.566.595 1.048.595h2.514c.48 0 .902-.14 1.047-.592M38.102 33.731a1.09 1.09 0 0 0 1.298.007l2.044-1.493a1.1 1.1 0 0 0 .394-1.226l-.166-.532a.27.27 0 0 0-.182-.178 9.53 9.53 0 0 0-5.476.006.272.272 0 0 0-.18.177l-.166.517c-.149.454.01.946.394 1.224l2.04 1.498zM33.531 37.06l-.789-2.63c-.146-.447-.565-.983-1.042-.983h-.555c-.082 0-.16.273-.212.337-1.011 1.248-1.663 3.363-1.702 5.329-.002.09.042.235.116.286l.439.337a1.086 1.086 0 0 0 1.289.026l2.054-1.472c.39-.275.552-.767.402-1.23M35.926 44.43a1.1 1.1 0 0 0-1.05-.768l-2.528.012c-.476 0-.894.304-1.042.756l-.173.523a.269.269 0 0 0 .041.25 9.483 9.483 0 0 0 4.428 3.227.276.276 0 0 0 .253-.038l.44-.326c.381-.275.544-.765.403-1.222l-.772-2.413zM46.2 44.436a1.095 1.095 0 0 0-1.042-.756l-2.545-.012c-.472 0-.887.306-1.034.764l-.771 2.404c-.148.454.01.946.395 1.224l.45.328a.27.27 0 0 0 .25.037 9.456 9.456 0 0 0 4.428-3.216.27.27 0 0 0 .041-.25l-.172-.523zM46.572 33.784c-.051-.064-.13-.336-.211-.336h-.549c-.478 0-.896.536-1.042.983l-.797 2.509c-.15.465.013 1.021.402 1.295l2.051 1.515c.19.133.412.218.641.218.233 0 .456-.066.642-.2l.45-.317c.074-.053.116-.254.115-.343-.038-1.964-.69-4.075-1.702-5.324"/>
        <path stroke="#B8B7B9" stroke-linecap="round" stroke-linejoin="round" d="M24.513 28.882l1.862 4.346M32.584 27.02l-4.346-1.862M26.376 27.02l3.421 3.421"/>
        <path stroke="#B8B7B9" stroke-linejoin="round" d="M13.284 34.149L1.438 22.303a3.053 3.053 0 1 1 3.708-4.787l8.278 4.385c-.133 1.97 1.752 5.193 3.263 6.704a7.06 7.06 0 0 0 1.668 1.24c.54.29.679 1.001.306 1.487l-1.984 2.592a2.261 2.261 0 0 1-3.393.225z"/>
        <path stroke="#B8B7B9" d="M13.424 21.901l2.247-.802a1.328 1.328 0 0 1 1.384 2.189l-2.679 2.678"/>
        <path stroke="#B8B7B9" stroke-linecap="round" d="M7.943 19.164l-.909 1.992M9.852 20.289l-.908 1.993M11.748 21.406L10.84 23.4M1.512 23.085l-.6.6M3.912 25.485l-.6.6M6.312 27.886l-.6.6M9.913 31.486l-.6.6M12.313 33.887l-.6.6"/>
        <path stroke="#B8B7B9" stroke-linejoin="round" d="M1.067 18.868l7.86 7.86a3.322 3.322 0 0 0 1.973.952 3.327 3.327 0 0 1 1.973.952l4.533 4.533"/>
        <path stroke="#B8B7B9" stroke-linecap="round" d="M18.511 30.567L47.99 1.09M15.671 21.099L36.194.576M28.815 8.082l5.964 5.964"/>
    </g>
</svg>
