<svg xmlns="http://www.w3.org/2000/svg" width="55" height="64" viewBox="0 0 55 64">
    <g fill="none" fill-rule="evenodd">
        <path stroke="#B8B7B9" d="M.839 10.176a9.47 9.47 0 0 1 1.944-5.757 9.46 9.46 0 0 1 4.414-3.204 9.373 9.373 0 0 1 3.141-.539c1.102 0 2.16.19 3.142.532a9.486 9.486 0 0 1 4.413 3.218 9.423 9.423 0 0 1 1.945 5.75c0 .07 0 .14-.007.209-.006.475-.057.95-.133 1.418a9.412 9.412 0 0 1-1.463 3.636c0 .012-.006.019-.012.025l-.076.114a9.451 9.451 0 0 1-5.08 3.692 9.27 9.27 0 0 1-2.729.405c-.95 0-1.862-.14-2.729-.399a9.506 9.506 0 0 1-5.08-3.692 9.389 9.389 0 0 1-1.684-5.187c-.006-.076-.006-.145-.006-.221z"/>
        <path fill="#B8B7B9" d="M7.973 7.99l-.803 2.396c-.15.464.014.928.407 1.216L9.67 13.12c.39.286.946.276 1.336-.009l2.092-1.537c.393-.287.557-.794.408-1.258l-.803-2.323c-.148-.465-.58-.61-1.075-.61h-2.58c-.493 0-.926.144-1.075.607M11.006 16.031a1.12 1.12 0 0 0-1.333-.006l-2.097 1.532c-.394.29-.556.798-.405 1.258l.171.546a.276.276 0 0 0 .187.183 9.78 9.78 0 0 0 5.62-.007.28.28 0 0 0 .185-.18l.17-.532a1.118 1.118 0 0 0-.404-1.256l-2.094-1.538zM15.697 12.615l.81 2.7c.15.458.58 1.008 1.07 1.008h.57c.083 0 .164-.28.216-.346 1.039-1.281 1.708-3.452 1.747-5.47.002-.092-.042-.24-.118-.293l-.45-.346a1.115 1.115 0 0 0-1.324-.026l-2.108 1.51c-.4.282-.566.788-.413 1.263M13.24 5.05a1.13 1.13 0 0 0 1.076.789l2.595-.013c.489 0 .918-.311 1.07-.775l.178-.538a.276.276 0 0 0-.043-.256A9.733 9.733 0 0 0 13.572.945a.283.283 0 0 0-.26.04l-.452.333a1.133 1.133 0 0 0-.413 1.255l.792 2.477zM2.695 5.044c.152.464.582.776 1.07.776l2.611.012c.485 0 .91-.314 1.062-.783l.79-2.468a1.117 1.117 0 0 0-.405-1.256L7.362.988A.278.278 0 0 0 7.106.95a9.705 9.705 0 0 0-4.545 3.3.277.277 0 0 0-.043.257l.177.537zM2.313 15.977c.052.066.133.345.216.345h.564c.49 0 .92-.55 1.07-1.009l.817-2.575c.153-.477-.013-1.048-.412-1.33L2.462 9.854a1.158 1.158 0 0 0-.658-.224c-.239 0-.467.067-.658.206l-.463.325c-.075.054-.118.26-.117.352.039 2.015.708 4.182 1.747 5.464"/>
        <g stroke="#B8B7B9" stroke-linecap="round" stroke-linejoin="round">
            <path d="M23.835 21.529l-1.911-4.46M15.552 23.44l4.46 1.912M21.924 23.44l-3.512-3.51"/>
        </g>
        <g stroke="#B8B7B9" stroke-linecap="round">
            <path stroke-linejoin="round" stroke-width=".856" d="M42.329 35.464l-8.121 8.122-6.091-6.09 8.121-8.122zM23.04 30.388a1.435 1.435 0 0 0 0 2.031l5.077 5.076 2.03-2.03-5.076-5.077a1.435 1.435 0 0 0-2.03 0z"/>
            <path stroke-linejoin="round" stroke-width=".856" d="M23.717 27.005a1.435 1.435 0 0 0 0 2.03l6.43 6.43 2.03-2.031-6.43-6.43a1.435 1.435 0 0 0-2.03 0zM25.748 24.974a1.435 1.435 0 0 0 0 2.03l6.43 6.43 2.03-2.03-6.43-6.43a1.435 1.435 0 0 0-2.03 0z"/>
            <path stroke-linejoin="round" stroke-width=".856" d="M27.778 22.944a1.435 1.435 0 0 0 0 2.03l6.43 6.43 2.03-2.03-6.43-6.43a1.435 1.435 0 0 0-2.03 0zM36.576 24.974a1.435 1.435 0 0 0 0 2.03l2.37 2.37 2.03-2.03-2.369-2.37a1.435 1.435 0 0 0-2.03 0z"/>
            <path stroke-linejoin="round" stroke-width=".856" d="M40.975 27.343l-3.384 3.384 4.738 4.737a4.786 4.786 0 0 0 0-6.768l-1.354-1.353zM37.591 40.202l-3.384 3.384-4.737-4.737a4.786 4.786 0 0 1 6.768 0l1.353 1.353z"/>
            <path d="M34.208 43.586l19.57 19.594M40.467 37.533l13.26 13.246M42.565 39.628l-6.089 6.23"/>
        </g>
    </g>
</svg>
