<svg xmlns="http://www.w3.org/2000/svg" width="41" height="49" viewBox="0 0 41 49">
    <g fill="none" fill-rule="evenodd">
        <path stroke="#B8B7B9" stroke-width="1.003" d="M39.57 28.115c0 10.747-8.713 19.46-19.46 19.46-10.747 0-19.46-8.713-19.46-19.46 0-10.747 8.713-19.46 19.46-19.46 10.747 0 19.46 8.713 19.46 19.46z"/>
        <circle cx="20.108" cy="27.892" r="13.622" stroke="#B8B7B9" stroke-width="1.003"/>
        <path fill="#B8B7B9" d="M20.388 32v-8.4h-1.416v3.648H14.52V23.6h-1.416V32h1.416v-3.48h4.452V32h1.416zm7.944-7.128V23.6H21.6v1.272h2.652V32h1.416v-7.128h2.664z"/>
        <path fill="#B8B7B9" stroke="#B8B7B9" d="M21.407 9.081V3.243h-2.595v5.838M35.515 16.091l2.927-2.926a1.298 1.298 0 0 0-1.834-1.836l-2.927 2.927M14.92 3.243H25.3V.65H14.92z"/>
    </g>
</svg>
