<svg xmlns="http://www.w3.org/2000/svg" width="47" height="43" viewBox="0 0 47 43">
    <g fill="none" fill-rule="evenodd" stroke="#B8B7B9" stroke-linejoin="round">
        <path stroke-linecap="round" d="M8.443 6.32L6.618 2.06M.534 8.144L4.793 9.97M6.618 8.144L3.265 4.791"/>
        <path fill="#B8B7B9" d="M9.254 12.38a1.485 1.485 0 1 1-2.97.002 1.485 1.485 0 0 1 2.97-.001z"/>
        <path d="M7.768 10.896h4.27M17.066 15.157l1.185 3.209h6.169l-1.512-4.095a7.402 7.402 0 1 0-5.841.886z"/>
        <path stroke-linecap="round" d="M7.235 32.773v-16.03c0-1.635-1.158-2.646-2.793-2.646h.209c-1.636 0-2.752 1.01-2.752 2.646V34.28c0 2.249 1.698 4.362 3.946 4.362h-.063a4.003 4.003 0 0 0 3.036-1.392l7.142-8.213H7.57l3.109-7.789c.656-1.59 2.207-2.883 3.927-2.883h16.302l9.462 23.478H21.597l-7.531-17.837M31.247 18.366h.771c2.734 0 5.21 1.875 6.303 4.38l2.634 6.292h-5.44M40.955 29.038l5.233 12.745"/>
    </g>
</svg>
