<svg xmlns="http://www.w3.org/2000/svg" width="37" height="60" viewBox="0 0 37 60">
    <g fill="none" fill-rule="evenodd">
        <path stroke="#B8B7B9" d="M26.482 51.506a7.47 7.47 0 0 1-1.534 4.54 7.462 7.462 0 0 1-3.482 2.529 7.383 7.383 0 0 1-2.478.424c-.87 0-1.703-.149-2.478-.419a7.483 7.483 0 0 1-3.481-2.539 7.432 7.432 0 0 1-1.534-4.535c0-.056 0-.11.005-.166.004-.374.045-.748.105-1.119a7.43 7.43 0 0 1 1.154-2.867c0-.01.005-.015.01-.02l.059-.09a7.465 7.465 0 0 1 4.006-2.912 7.493 7.493 0 0 1 4.308-.005 7.513 7.513 0 0 1 4.007 2.912 7.417 7.417 0 0 1 1.327 4.092c.006.06.006.115.006.175z"/>
        <path fill="#B8B7B9" d="M17.332 53.294L16.7 51.33a.67.67 0 0 1 .242-.746l1.65-1.207a.67.67 0 0 1 .793.001l1.652 1.214c.233.17.33.47.242.746l-.634 1.956a.667.667 0 0 1-.637.46H17.97a.667.667 0 0 1-.639-.46M21.037 45.506l-1.654 1.208a.665.665 0 0 1-.79-.004l-1.652-1.214a.664.664 0 0 1-.24-.744l.134-.42a7.477 7.477 0 0 1 4.306-.004l.136.428c.09.275-.011.58-.24.75M14.307 50.402l-1.664 1.193a.663.663 0 0 1-.784 0l-.36-.252c.03-1.518.52-3.084 1.33-4.084h.449c.29 0 .545.178.635.453l.638 1.94a.66.66 0 0 1-.244.75M16.87 58.315l-.36.264a7.48 7.48 0 0 1-3.48-2.537l.139-.425a.668.668 0 0 1 .633-.46l2.05-.01c.288 0 .549.19.638.47l.624 1.953a.67.67 0 0 1-.244.745M24.948 56.047a7.468 7.468 0 0 1-3.481 2.528l-.365-.265a.664.664 0 0 1-.24-.744l.623-1.95c.091-.279.35-.469.64-.463l2.049.01c.29 0 .545.184.634.46l.14.424zM26.477 51.34l-.365.261a.674.674 0 0 1-.784.002l-1.659-1.2a.669.669 0 0 1-.245-.755l.645-1.934a.661.661 0 0 1 .634-.454h.445c.81.998 1.299 2.562 1.329 4.08"/>
        <path stroke="#B8B7B9" stroke-linejoin="round" d="M25.092 15.598h8.137V6.103h-8.137z"/>
        <path stroke="#B8B7B9" d="M31.873 3.39a2.712 2.712 0 1 1-5.425 0 2.712 2.712 0 1 1 5.425 0zM25.092 34.586h8.137V15.598h-8.137z"/>
        <path fill="#FFF" d="M29.16 35.264V18.988"/>
        <path stroke="#B8B7B9" d="M29.16 35.264V18.988M25.77 22.379h6.781M27.126 38.655a2.035 2.035 0 0 1-2.034-2.035v-2.034h4.069v2.034a2.035 2.035 0 0 1-2.035 2.035z"/>
        <path stroke="#B8B7B9" d="M31.195 38.655a2.035 2.035 0 0 1-2.034-2.035v-2.034h4.068v2.034a2.035 2.035 0 0 1-2.034 2.035zM34.586 19.666a1.357 1.357 0 0 1-1.357-1.356V6.103a2.712 2.712 0 0 1 2.713 2.713v9.494c0 .749-.608 1.356-1.356 1.356z"/>
        <path stroke="#B8B7B9" stroke-linejoin="round" d="M14.241 15.598h8.138V6.103h-8.138z"/>
        <path stroke="#B8B7B9" d="M21.023 3.39a2.712 2.712 0 1 1-5.425 0 2.712 2.712 0 1 1 5.425 0zM14.241 34.586h8.138V15.598h-8.138z"/>
        <path fill="#FFF" d="M18.31 35.264V18.988"/>
        <path stroke="#B8B7B9" d="M18.31 35.264V18.988M14.92 22.379h6.78M16.276 38.655a2.035 2.035 0 0 1-2.035-2.035v-2.034h4.07v2.034a2.035 2.035 0 0 1-2.035 2.035z"/>
        <path stroke="#B8B7B9" d="M20.345 38.655a2.035 2.035 0 0 1-2.035-2.035v-2.034h4.069v2.034a2.035 2.035 0 0 1-2.034 2.035zM23.735 19.666a1.357 1.357 0 0 1-1.356-1.356V6.103h2.713V18.31c0 .749-.608 1.356-1.357 1.356z"/>
        <path stroke="#B8B7B9" stroke-linejoin="round" d="M3.39 15.598h8.139V6.103H3.39z"/>
        <path stroke="#B8B7B9" d="M10.172 3.39a2.712 2.712 0 1 1-5.425 0 2.712 2.712 0 1 1 5.425 0zM3.39 34.586h8.139V15.598H3.39z"/>
        <path fill="#FFF" d="M7.46 35.264V18.988"/>
        <path stroke="#B8B7B9" d="M7.46 35.264V18.988M4.069 22.379h6.781M5.425 38.655a2.035 2.035 0 0 1-2.034-2.035v-2.034H7.46v2.034a2.035 2.035 0 0 1-2.035 2.035z"/>
        <path stroke="#B8B7B9" d="M9.494 38.655A2.035 2.035 0 0 1 7.46 36.62v-2.034h4.069v2.034a2.035 2.035 0 0 1-2.035 2.035zM12.885 19.666a1.357 1.357 0 0 1-1.356-1.356V6.103h2.712V18.31c0 .749-.607 1.356-1.356 1.356zM2.034 19.666A1.357 1.357 0 0 1 .678 18.31V8.816a2.712 2.712 0 0 1 2.713-2.713V18.31c0 .749-.608 1.356-1.357 1.356zM.678 11.585h2.713M11.529 11.585h2.712M22.379 11.585h2.713M33.23 11.585h2.712"/>
    </g>
</svg>
