<svg xmlns="http://www.w3.org/2000/svg" width="46" height="46" viewBox="0 0 46 46">
    <g fill="none" fill-rule="evenodd">
        <path stroke="#FFF" d="M32.628 16.581c0 3.659-1.23 7.029-3.284 9.725a15.996 15.996 0 0 1-7.457 5.413 15.84 15.84 0 0 1-5.306.909c-1.861 0-3.648-.321-5.306-.899a16.038 16.038 0 0 1-7.456-5.434A15.92 15.92 0 0 1 .535 16.58c0-.117 0-.235.01-.353.011-.802.097-1.604.225-2.396a15.91 15.91 0 0 1 2.471-6.14c0-.022.011-.032.022-.043l.128-.193a15.97 15.97 0 0 1 8.58-6.236 15.665 15.665 0 0 1 4.61-.685c1.605 0 3.146.235 4.611.674 3.52 1.048 6.526 3.284 8.58 6.237a15.864 15.864 0 0 1 2.845 8.761c.01.128.01.246.01.374z"/>
        <path stroke="#FFF" stroke-linecap="round" d="M45.465 45.465L30.132 30.132M35.19 22.353l10.275 10.275M22.353 35.19l10.275 10.275"/>
        <path fill="#FFF" d="M13.035 20.42l-1.355-4.21c-.19-.59.019-1.234.518-1.6l3.534-2.587a1.437 1.437 0 0 1 1.699.001l3.536 2.6c.498.366.706 1.01.516 1.598l-1.354 4.2a1.437 1.437 0 0 1-1.368.995h-4.359a1.436 1.436 0 0 1-1.367-.996"/>
        <path stroke="#FFF" stroke-linejoin="round" d="M13.035 20.42l-1.355-4.21c-.19-.59.019-1.234.518-1.6l3.534-2.587a1.437 1.437 0 0 1 1.699.001l3.536 2.6c.498.366.706 1.01.516 1.598l-1.354 4.2a1.437 1.437 0 0 1-1.368.995h-4.359a1.436 1.436 0 0 1-1.367-.996z"/>
        <path fill="#FFF" d="M20.967 3.733l-3.54 2.59a1.429 1.429 0 0 1-1.69-.011l-3.542-2.6a1.416 1.416 0 0 1-.513-1.594l.289-.898a15.665 15.665 0 0 1 4.61-.685c1.605 0 3.146.235 4.611.674l.289.92a1.448 1.448 0 0 1-.514 1.604"/>
        <path stroke="#FFF" stroke-linejoin="round" d="M20.967 3.733l-3.54 2.59a1.429 1.429 0 0 1-1.69-.011l-3.542-2.6a1.416 1.416 0 0 1-.513-1.594l.289-.898a15.665 15.665 0 0 1 4.61-.685c1.605 0 3.146.235 4.611.674l.289.92a1.448 1.448 0 0 1-.514 1.604z"/>
        <path fill="#FFF" d="M6.558 14.217l-3.563 2.557a1.429 1.429 0 0 1-1.68 0l-.77-.54c.065-3.252 1.113-6.606 2.846-8.746h.963c.62 0 1.166.38 1.359.969l1.369 4.152a1.42 1.42 0 0 1-.524 1.608"/>
        <path fill="#FFF" d="M6.558 14.217l-3.563 2.557a1.429 1.429 0 0 1-1.68 0l-.77-.54c.065-3.252 1.113-6.606 2.846-8.746h.963c.62 0 1.166.38 1.359.969l1.369 4.152a1.42 1.42 0 0 1-.524 1.608zM12.046 31.162l-.77.567a16.038 16.038 0 0 1-7.457-5.434l.3-.91a1.436 1.436 0 0 1 1.358-.984l4.386-.021c.62 0 1.177.407 1.37 1.006l1.337 4.182a1.438 1.438 0 0 1-.524 1.594"/>
        <path stroke="#FFF" stroke-linejoin="round" d="M12.046 31.162l-.77.567a16.038 16.038 0 0 1-7.457-5.434l.3-.91a1.436 1.436 0 0 1 1.358-.984l4.386-.021c.62 0 1.177.407 1.37 1.006l1.337 4.182a1.438 1.438 0 0 1-.524 1.594z"/>
        <path fill="#FFF" d="M29.344 26.306a15.996 15.996 0 0 1-7.457 5.413l-.78-.567a1.416 1.416 0 0 1-.514-1.594l1.337-4.172c.193-.6.75-1.006 1.37-.995l4.386.021c.62 0 1.166.396 1.358.984l.3.91z"/>
        <path stroke="#FFF" stroke-linejoin="round" d="M29.344 26.306a15.996 15.996 0 0 1-7.457 5.413l-.78-.567a1.416 1.416 0 0 1-.514-1.594l1.337-4.172c.193-.6.75-1.006 1.37-.995l4.386.021c.62 0 1.166.396 1.358.984l.3.91z"/>
        <path fill="#FFF" d="M32.617 16.228l-.78.557a1.446 1.446 0 0 1-1.68.005l-3.552-2.57a1.432 1.432 0 0 1-.524-1.617l1.38-4.14a1.417 1.417 0 0 1 1.359-.975h.952c1.733 2.14 2.781 5.488 2.845 8.74"/>
        <path stroke="#FFF" stroke-linejoin="round" d="M32.617 16.228l-.78.557a1.446 1.446 0 0 1-1.68.005l-3.552-2.57a1.432 1.432 0 0 1-.524-1.617l1.38-4.14a1.417 1.417 0 0 1 1.359-.975h.952c1.733 2.14 2.781 5.488 2.845 8.74z"/>
    </g>
</svg>
