<svg xmlns="http://www.w3.org/2000/svg" width="40" height="50" viewBox="0 0 40 50">
    <g fill="none" fill-rule="evenodd">
        <path stroke="#B8B7B9" d="M33.53 14.482c0 3.167-1.065 6.082-2.842 8.416a13.846 13.846 0 0 1-6.454 4.684c-1.434.51-2.98.787-4.591.787-1.611 0-3.157-.277-4.592-.777A13.874 13.874 0 0 1 8.6 22.888a13.777 13.777 0 0 1-2.843-8.406c0-.102 0-.204.01-.306.009-.694.083-1.388.193-2.074A13.761 13.761 0 0 1 8.1 6.79c0-.019.008-.028.018-.037a13.813 13.813 0 0 1 7.536-5.564 13.861 13.861 0 0 1 7.981-.01 13.899 13.899 0 0 1 7.424 5.398 13.73 13.73 0 0 1 2.462 7.582c.01.11.01.213.01.324z"/>
        <path fill="#B8B7B9" d="M23.101 17.677l1.173-3.504c.219-.677-.02-1.354-.594-1.776l-3.061-2.218c-.57-.42-1.381-.406-1.953.012l-3.057 2.245a1.653 1.653 0 0 0-.597 1.84l1.173 3.399c.218.678.85.891 1.57.891h3.775c.721 0 1.352-.21 1.571-.89M18.667 5.922a1.639 1.639 0 0 0 1.948.011l3.067-2.242a1.65 1.65 0 0 0 .591-1.839l-.25-.796a.407.407 0 0 0-.272-.268c-2.673-.803-5.588-.797-8.218.01a.41.41 0 0 0-.27.265l-.248.776c-.223.68.015 1.42.59 1.836l3.062 2.247zM11.81 10.917L10.625 6.97c-.22-.67-.849-1.473-1.564-1.473 0 0-1.074.41-1.152.504-1.516 1.874-2.495 5.047-2.553 7.996-.003.135.063.352.174.43l.658.507c.28.206.614.338.967.338.35 0 .685-.098.967-.303l3.081-2.206a1.63 1.63 0 0 0 .605-1.846M15.402 21.976a1.65 1.65 0 0 0-1.575-1.154l-3.794.018c-.713 0-1.342.456-1.563 1.133l-.26.787a.41.41 0 0 0 .062.375 14.24 14.24 0 0 0 6.643 4.84.41.41 0 0 0 .379-.056l.663-.487c.571-.415.815-1.15.603-1.835l-1.158-3.621zM30.817 21.984a1.642 1.642 0 0 0-1.564-1.134l-3.817-.019c-.709 0-1.333.46-1.553 1.146l-1.157 3.608a1.63 1.63 0 0 0 .593 1.836l.675.491a.404.404 0 0 0 .375.056 14.188 14.188 0 0 0 6.643-4.823.404.404 0 0 0 .063-.375l-.258-.786zM31.375 6.002c-.077-.095-1.14-.506-1.14-.506-.717 0-1.346.807-1.565 1.476l-1.194 3.764c-.225.697.02 1.532.603 1.944l3.077 2.272c.284.2.617.327.963.327.349 0 .682-.096.962-.299l.676-.476c.11-.078.174-.38.172-.515-.058-2.946-1.036-6.113-2.554-7.987"/>
        <path stroke="#B8B7B9" stroke-linejoin="round" d="M27.621 47.982L7.27 36.232a4.282 4.282 0 0 1-1.568-5.849 4.283 4.283 0 0 1 4.854-1.984l14.869 4.127a9.944 9.944 0 0 0 4.794 6.71 9.945 9.945 0 0 0 2.71 1.074c.836.196 1.283 1.11.955 1.903l-1.747 4.233a3.17 3.17 0 0 1-4.516 1.536z"/>
        <path stroke="#B8B7B9" d="M25.425 32.527l2.754-1.903a1.861 1.861 0 0 1 2.67 2.462l-2.657 4.601"/>
        <path stroke="#B8B7B9" stroke-linecap="round" d="M14.943 29.617l-.507 3.028M17.939 30.449l-.507 3.028M20.913 31.274l-.507 3.029M8.047 37.565l-.595 1.03M12.171 39.945l-.595 1.031M16.295 42.326l-.595 1.031M22.48 45.898l-.594 1.03M26.605 48.279l-.596 1.03"/>
        <path stroke="#B8B7B9" stroke-linejoin="round" d="M5.52 31.713l13.503 7.796a4.671 4.671 0 0 0 3.02.574 4.664 4.664 0 0 1 3.018.573l7.789 4.496"/>
        <g>
            <path stroke="#B8B7B9" stroke-linecap="round" d="M2.881 21.095a17.724 17.724 0 0 1-1.69-7.571c0-2.703.607-5.274 1.69-7.572"/>
            <path fill="#B8B7B9" d="M.023 5.105L4.73 1.809l.502 5.725z"/>
        </g>
        <g>
            <path stroke="#B8B7B9" stroke-linecap="round" d="M36.405 7.476a17.724 17.724 0 0 1 1.69 7.572c0 2.702-.607 5.273-1.69 7.571"/>
            <path fill="#B8B7B9" d="M39.263 23.467l-4.707 3.295-.502-5.724z"/>
        </g>
    </g>
</svg>
