<svg xmlns="http://www.w3.org/2000/svg" width="52" height="52" viewBox="0 0 52 52">
    <g fill="none" fill-rule="evenodd">
        <path stroke="#B8B7B9" d="M28.128 14.564c0 3.093-1.04 5.94-2.776 8.22a13.524 13.524 0 0 1-6.303 4.575 13.378 13.378 0 0 1-4.485.769 13.61 13.61 0 0 1-4.485-.76 13.552 13.552 0 0 1-6.302-4.594A13.457 13.457 0 0 1 1 14.564c0-.1 0-.199.01-.299.009-.678.08-1.356.189-2.025a13.441 13.441 0 0 1 2.09-5.19c0-.019.008-.028.017-.036.036-.055.072-.11.11-.163a13.492 13.492 0 0 1 7.25-5.272 13.539 13.539 0 0 1 7.795-.01 13.576 13.576 0 0 1 7.253 5.273 13.41 13.41 0 0 1 2.405 7.406c.009.108.009.208.009.316z"/>
        <path fill="#B8B7B9" d="M18.281 17.927l1.146-3.422c.214-.662-.02-1.324-.58-1.735l-2.99-2.166c-.556-.41-1.349-.397-1.907.011l-2.986 2.193a1.614 1.614 0 0 0-.584 1.798l1.147 3.318c.212.663.83.871 1.533.871h3.686c.705 0 1.321-.205 1.535-.868M13.95 6.6a1.6 1.6 0 0 0 1.903.01l2.995-2.19a1.611 1.611 0 0 0 .578-1.796l-.244-.778a.397.397 0 0 0-.267-.262 13.965 13.965 0 0 0-8.026.01.4.4 0 0 0-.263.26l-.243.757a1.595 1.595 0 0 0 .577 1.793L13.95 6.6zM7.302 12.108L6.147 8.253c-.216-.654-.83-1.439-1.528-1.439 0 0-1.05.4-1.125.493-1.481 1.83-2.437 4.929-2.494 7.81-.002.132.062.343.17.419l.643.495c.273.202.6.33.944.33.343 0 .67-.095.945-.295l3.01-2.154c.57-.404.809-1.125.59-1.804M10.37 21.894a1.612 1.612 0 0 0-1.538-1.127l-3.706.018c-.697 0-1.31.445-1.527 1.107l-.253.768a.4.4 0 0 0 .06.367 13.908 13.908 0 0 0 6.488 4.728.4.4 0 0 0 .37-.055l.648-.477a1.617 1.617 0 0 0 .59-1.792l-1.132-3.537zM26.425 20.73a1.604 1.604 0 0 0-1.527-1.107l-3.73-.018c-.69 0-1.3.448-1.515 1.118l-1.13 3.525a1.592 1.592 0 0 0 .578 1.793l.66.48a.394.394 0 0 0 .366.055 13.858 13.858 0 0 0 6.488-4.712.395.395 0 0 0 .062-.366l-.252-.768zM25.82 7.307c-.076-.093-1.115-.493-1.115-.493-.7 0-1.314.787-1.528 1.44l-1.166 3.677c-.22.68.019 1.497.589 1.9l3.005 2.218c.278.195.603.32.941.32.34 0 .666-.095.94-.292l.66-.465c.107-.077.17-.372.167-.504-.055-2.877-1.011-5.97-2.494-7.801"/>
        <path stroke="#B8B7B9" stroke-linejoin="round" d="M49.244 38.727L29.366 50.204a4.183 4.183 0 1 1-5.022-6.605l10.754-10.562a9.714 9.714 0 0 0 8.016-.778 9.716 9.716 0 0 0 2.232-1.769c.575-.611 1.566-.543 2.077.122l2.727 3.546a3.096 3.096 0 0 1-.906 4.57z"/>
        <path stroke="#B8B7B9" d="M34.99 32.969l-.263-3.26a1.818 1.818 0 0 1 3.386-1.056l2.595 4.496"/>
        <path stroke="#B8B7B9" stroke-linecap="round" d="M27.744 40.535l2.315 1.908M30.07 38.21l2.315 1.907M32.395 35.884l2.315 1.908M30.07 49.837l.581 1.007M34.72 47.512l.582 1.007M38.21 45.186l.58 1.007M44.023 41.698l.582 1.007M48.674 39.372l.582 1.007"/>
        <path stroke="#B8B7B9" stroke-linejoin="round" d="M24.256 48.95l13.19-7.615a4.546 4.546 0 0 0 1.959-2.273 4.56 4.56 0 0 1 1.959-2.275l7.607-4.392"/>
        <path stroke="#B8B7B9" stroke-linecap="round" stroke-linejoin="round" d="M23.124 40.026l-7.008-8.793M24.65 36.211l-3.883-4.978"/>
    </g>
</svg>
