<svg xmlns="http://www.w3.org/2000/svg" width="70" height="43" viewBox="0 0 70 43">
    <g fill="none" fill-rule="evenodd">
        <path stroke="#B8B7B9" stroke-linecap="round" stroke-linejoin="round" d="M47.807 24.728h21.43"/>
        <path fill="#B8B7B9" d="M49.754 29.647l-8.541-4.932 8.54-4.933z"/>
        <path stroke="#B8B7B9" stroke-linecap="round" stroke-linejoin="round" d="M62.644 13.188H41.213"/>
        <path fill="#B8B7B9" d="M60.995 8.243l8.54 4.932-8.54 4.932z"/>
        <g stroke="#B8B7B9" stroke-linejoin="round">
            <path d="M41.907 35.231c-1.126-4.255-2.74-3.008-15.516-8.534l.14-2.523c1.51-1.34 2.474-3.448 3.234-6.223.074-.265.137-.539.206-.81 1.326-.068 2.384-1.367 2.384-2.971 0-1.229-.62-2.28-1.503-2.74C31.099 5.833 29.154.825 21.808.825c-7.348 0-9.291 5.008-9.044 10.605-.885.46-1.505 1.511-1.505 2.74 0 1.604 1.058 2.903 2.385 2.972.068.27.132.544.205.81.761 2.774 1.724 4.882 3.236 6.222l.115 2.523C3.795 32.51 2.794 31.127 1.708 35.23l-.87 5.709a1.283 1.283 0 0 0 1.27 1.475h39.4c.784 0 1.386-.699 1.267-1.475l-.868-5.709z"/>
            <path stroke-linecap="round" d="M28.8 27.935c0 2.736-3.13 3.842-6.993 3.842-3.862 0-6.993-1.106-6.993-3.842"/>
        </g>
    </g>
</svg>
