<svg xmlns="http://www.w3.org/2000/svg" width="49" height="49" viewBox="0 0 49 49">
    <g fill="none" fill-rule="evenodd">
        <path fill="#B8B7B9" d="M49 27.349V0H0v27.349h2.28V2.279h44.44v25.07z"/>
        <path stroke="#B8B7B9" stroke-linejoin="round" d="M2.28 2.28l3.502 3.502a3.602 3.602 0 0 1 1.055 2.547v17.31M46.72 2.28l-3.502 3.502a3.602 3.602 0 0 0-1.055 2.547v17.31"/>
        <path stroke="#B8B7B9" d="M34.186 38.174a9.656 9.656 0 0 1-1.983 5.87 9.646 9.646 0 0 1-4.5 3.267 9.557 9.557 0 0 1-3.203.55 9.728 9.728 0 0 1-3.203-.543 9.673 9.673 0 0 1-4.5-3.28 9.608 9.608 0 0 1-1.983-5.864c0-.07 0-.142.007-.213.005-.484.058-.968.135-1.446a9.596 9.596 0 0 1 1.492-3.707c0-.012.006-.019.013-.026l.077-.116a9.637 9.637 0 0 1 5.18-3.764 9.452 9.452 0 0 1 2.782-.414 9.68 9.68 0 0 1 2.783.407 9.693 9.693 0 0 1 5.179 3.765 9.573 9.573 0 0 1 1.717 5.289c.007.077.007.148.007.225z"/>
        <path fill="#B8B7B9" d="M27.349 40.77l.818-2.443c.153-.473-.014-.946-.415-1.24l-2.134-1.548a1.17 1.17 0 0 0-1.362.01l-2.133 1.566a1.15 1.15 0 0 0-.416 1.284l.818 2.369c.152.474.593.622 1.096.622h2.632c.502 0 .943-.147 1.096-.62M24.256 32.487a1.141 1.141 0 0 0 1.359.007l2.139-1.562a1.15 1.15 0 0 0 .412-1.284l-.174-.556a.282.282 0 0 0-.19-.187 9.973 9.973 0 0 0-5.731.007.285.285 0 0 0-.188.185l-.175.541c-.154.475.012.99.413 1.281l2.135 1.568zM19.314 35.688l-.826-2.753c-.153-.467-.592-1.028-1.09-1.028h-.582c-.085 0-.167.286-.22.352-1.06 1.307-1.742 3.52-1.782 5.577-.002.095.043.246.12.3l.46.353a1.137 1.137 0 0 0 1.35.026l2.148-1.54c.408-.288.578-.803.422-1.287M22.124 42.967a1.152 1.152 0 0 0-1.099-.804l-2.646.012c-.498 0-.935.318-1.09.791l-.181.548a.281.281 0 0 0 .043.261 9.924 9.924 0 0 0 4.633 3.378.288.288 0 0 0 .264-.04l.462-.34c.399-.29.569-.802.422-1.28l-.808-2.526zM33.05 42.966a1.146 1.146 0 0 0-1.091-.79l-2.663-.013c-.495 0-.93.32-1.083.799l-.807 2.516c-.155.475.012.99.414 1.28l.47.344a.283.283 0 0 0 .261.038 9.895 9.895 0 0 0 4.635-3.365.282.282 0 0 0 .043-.26l-.18-.549zM32.405 32.26c-.053-.068-.135-.353-.22-.353h-.575c-.5 0-.938.562-1.09 1.029l-.835 2.625c-.156.487.014 1.07.42 1.357l2.148 1.585c.198.139.43.228.67.228.245 0 .477-.069.672-.21l.472-.332c.076-.054.12-.265.12-.359-.04-2.054-.723-4.264-1.782-5.57"/>
        <g stroke="#B8B7B9" stroke-width="2">
            <path d="M18.233 9.116L31.58 22.824M31.58 9.116L18.233 22.824"/>
        </g>
    </g>
</svg>
