<svg xmlns="http://www.w3.org/2000/svg" width="49" height="49" viewBox="0 0 49 49">
    <g fill="none" fill-rule="evenodd">
        <g transform="translate(1 40.163)">
            <circle cx="3.918" cy="3.918" r="3.918" stroke="#B8B7B9"/>
            <circle cx="3.918" cy="3.918" r="1.959" fill="#B8B7B9"/>
        </g>
        <g transform="translate(10.796 40.163)">
            <circle cx="3.918" cy="3.918" r="3.918" stroke="#B8B7B9"/>
            <circle cx="3.918" cy="3.918" r="1.959" fill="#B8B7B9"/>
        </g>
        <g stroke="#B8B7B9" transform="translate(20.592 40.163)">
            <circle cx="3.918" cy="3.918" r="3.918"/>
            <circle cx="13.714" cy="3.918" r="3.918"/>
            <circle cx="23.51" cy="3.918" r="3.918"/>
        </g>
        <path fill="#B8B7B9" d="M46.061 23.51V0H3.94v23.51h1.959V1.96h38.204v21.55z"/>
        <path stroke="#B8B7B9" stroke-linejoin="round" d="M5.898 1.96l3.011 3.01c.581.581.907 1.369.907 2.19v14.88M44.102 1.96l-3.011 3.01a3.096 3.096 0 0 0-.907 2.19v14.88"/>
        <path stroke="#B8B7B9" d="M33.327 26.939a8.3 8.3 0 0 1-1.705 5.046 8.292 8.292 0 0 1-3.868 2.808 8.216 8.216 0 0 1-2.754.472 8.362 8.362 0 0 1-2.754-.466 8.315 8.315 0 0 1-3.868-2.82 8.26 8.26 0 0 1-1.705-5.04c0-.061 0-.123.006-.183.005-.417.05-.833.117-1.244a8.25 8.25 0 0 1 1.282-3.186c0-.01.005-.017.011-.023l.067-.1a8.284 8.284 0 0 1 4.452-3.235A8.125 8.125 0 0 1 25 18.612a8.32 8.32 0 0 1 2.392.35 8.332 8.332 0 0 1 4.452 3.237 8.23 8.23 0 0 1 1.477 4.546c.006.066.006.127.006.194z"/>
        <path fill="#B8B7B9" d="M27.449 29.17l.703-2.1a.935.935 0 0 0-.356-1.066l-1.835-1.33a1.006 1.006 0 0 0-1.17.007l-1.834 1.347a.99.99 0 0 0-.358 1.103l.703 2.037c.13.408.51.535.943.535h2.262c.432 0 .81-.126.942-.533M24.79 22.05a.98.98 0 0 0 1.168.006l1.839-1.344a.99.99 0 0 0 .355-1.103l-.15-.478a.242.242 0 0 0-.164-.16 8.573 8.573 0 0 0-4.926.006.245.245 0 0 0-.162.158l-.15.466a.98.98 0 0 0 .355 1.1l1.836 1.349zM20.542 24.801l-.71-2.366c-.132-.402-.509-.884-.938-.884h-.5c-.073 0-.143.246-.19.303-.91 1.123-1.496 3.026-1.53 4.794-.002.081.037.211.103.257l.395.304a.977.977 0 0 0 1.16.023l1.847-1.324a.977.977 0 0 0 .363-1.107M22.957 31.059a.99.99 0 0 0-.944-.692l-2.275.011a.984.984 0 0 0-.937.68l-.156.471a.242.242 0 0 0 .037.224 8.531 8.531 0 0 0 3.983 2.904.248.248 0 0 0 .227-.034l.397-.293a.993.993 0 0 0 .363-1.1l-.695-2.171zM32.35 31.058a.985.985 0 0 0-.938-.68l-2.29-.01a.978.978 0 0 0-.93.686l-.694 2.163a.979.979 0 0 0 .356 1.101l.404.295a.243.243 0 0 0 .225.033 8.506 8.506 0 0 0 3.984-2.893.242.242 0 0 0 .037-.224l-.155-.471zM31.796 21.854c-.046-.058-.117-.303-.19-.303h-.494c-.43 0-.806.483-.937.885l-.718 2.257c-.134.418.012.918.362 1.165l1.846 1.363a.972.972 0 0 0 1.154.016l.405-.285c.066-.048.104-.229.103-.31-.034-1.765-.621-3.665-1.531-4.788"/>
    </g>
</svg>
