<svg xmlns="http://www.w3.org/2000/svg" xmlns:xlink="http://www.w3.org/1999/xlink" width="41" height="45" viewBox="0 0 41 45">
    <defs>
        <path id="a" d="M0 6.016h5.623V0H0z"/>
        <path id="c" d="M5.623 0H0v6.015h5.623V0z"/>
    </defs>
    <g fill="none" fill-rule="evenodd">
        <path stroke="#B8B7B9" stroke-linecap="round" d="M26.07 3.044c8.194 2.262 14.221 9.885 14.221 18.94 0 9.316-6.38 17.117-14.936 19.122"/>
        <g transform="translate(20.281 38.07)">
            <mask id="b" fill="#fff">
                <use xlink:href="#a"/>
            </mask>
            <path fill="#B8B7B9" d="M4.795 0L0 3.724l5.623 2.292z" mask="url(#b)"/>
        </g>
        <path stroke="#B8B7B9" stroke-linecap="round" d="M15.221 42.121C7.027 39.86 1 32.237 1 23.181 1 13.865 7.38 6.064 15.936 4.06"/>
        <g transform="translate(15.207 .523)">
            <mask id="d" fill="#fff">
                <use xlink:href="#c"/>
            </mask>
            <path fill="#B8B7B9" d="M.828 6.016L5.623 2.29 0 0z" mask="url(#d)"/>
        </g>
        <path stroke="#B8B7B9" d="M29.414 22.833a8.6 8.6 0 0 1-1.765 5.227 8.59 8.59 0 0 1-4.008 2.91 8.51 8.51 0 0 1-2.852.489c-1.001 0-1.961-.173-2.853-.483a8.614 8.614 0 0 1-4.007-2.922 8.556 8.556 0 0 1-1.766-5.221c0-.063 0-.127.006-.19.005-.431.052-.862.12-1.288a8.546 8.546 0 0 1 1.329-3.3c0-.012.005-.018.011-.024l.07-.104a8.582 8.582 0 0 1 4.611-3.351 8.417 8.417 0 0 1 2.479-.369c.862 0 1.69.127 2.478.362a8.632 8.632 0 0 1 4.612 3.353 8.525 8.525 0 0 1 1.53 4.71c.005.07.005.132.005.201z"/>
        <path fill="#B8B7B9" d="M23.264 25.04l.866-2.584c.161-.5-.015-1-.439-1.312l-2.258-1.637a1.239 1.239 0 0 0-1.44.01l-2.257 1.658c-.424.31-.602.857-.44 1.357l.865 2.506c.16.502.627.658 1.16.658h2.784c.531 0 .998-.155 1.16-.655M19.557 17.768a1.016 1.016 0 0 0 1.21.006l1.904-1.391c.358-.264.505-.725.368-1.143l-.156-.495a.251.251 0 0 0-.169-.166 8.881 8.881 0 0 0-5.103.006.253.253 0 0 0-.168.164l-.155.482c-.138.423.01.882.367 1.14l1.902 1.397zM16.17 20.619l-.735-2.452c-.136-.416-.527-.915-.972-.915h-.517c-.076 0-.15.254-.197.313-.943 1.164-1.55 3.135-1.586 4.967-.002.084.038.219.107.266l.41.315a1.012 1.012 0 0 0 1.2.023l1.915-1.37c.363-.257.514-.716.375-1.147M17.658 27.101a1.026 1.026 0 0 0-.979-.716l-2.356.01a1.02 1.02 0 0 0-.971.705l-.161.488a.25.25 0 0 0 .038.233 8.838 8.838 0 0 0 4.126 3.008.257.257 0 0 0 .235-.036l.412-.303c.355-.257.506-.714.375-1.14l-.72-2.249zM27.387 27.1a1.02 1.02 0 0 0-.971-.704l-2.372-.011c-.44 0-.827.285-.964.711l-.718 2.24c-.138.424.01.883.368 1.141l.42.306a.252.252 0 0 0 .232.034 8.812 8.812 0 0 0 4.127-2.996.251.251 0 0 0 .038-.233l-.16-.488zM27.829 17.565c-.048-.06-.121-.313-.197-.313h-.512c-.445 0-.835.5-.97.916l-.744 2.338c-.139.433.012.952.375 1.208l1.912 1.411a1.007 1.007 0 0 0 1.195.016l.42-.295c.068-.049.108-.236.107-.32-.036-1.83-.644-3.797-1.586-4.96"/>
    </g>
</svg>
