<svg xmlns="http://www.w3.org/2000/svg" width="38" height="47" viewBox="0 0 38 47">
    <g fill="none" fill-rule="evenodd">
        <path stroke="#B8B7B9" stroke-linecap="round" stroke-linejoin="round" d="M37.238 45.919v-18.33c0-2.593-.996-5.09-2.78-6.972l-4.072-4.293h-.52"/>
        <path stroke="#B8B7B9" stroke-linejoin="round" d="M7.757 25.962l-2.853 2.853a2.564 2.564 0 0 1-3.627 0 2.562 2.562 0 0 1 0-3.625l6.47-6.47"/>
        <path stroke="#B8B7B9" stroke-linecap="round" stroke-linejoin="round" d="M7.22 16.325H3.575c-1.455 0-2.146-1.344-2.146-2.799v.084c0-1.455.691-2.551 2.146-2.551H7.22"/>
        <path stroke="#B8B7B9" stroke-linejoin="round" d="M7.766 33.011c-.872.51-1.885.631-2.956-.44a2.562 2.562 0 0 1 0-3.625l2.966-2.966"/>
        <path fill="#FFDE17" d="M30.392.527v32.65a.521.521 0 0 1-.527.526h-2.159l-4.95-10.332a5.169 5.169 0 0 0-4.613-2.812 5.22 5.22 0 0 0-3.94 1.8c-1 1.18-1.421 2.686-1.158 4.277l1.622 7.067H7.221V.527c0-.295.232-.527.527-.527h22.117c.295 0 .527.232.527.527"/>
        <path stroke="#B8B7B9" stroke-linecap="round" stroke-linejoin="round" d="M37.238 45.919H26.17a8.913 8.913 0 0 1-8.807-7.538l-2.779-12.076a3.605 3.605 0 0 1 3.562-4.162c1.35 0 2.587.753 3.205 1.953l4.695 9.64"/>
    </g>
</svg>
