<svg width="400" height="63" viewBox="0 0 400 63" xmlns="http://www.w3.org/2000/svg" xmlns:xlink="http://www.w3.org/1999/xlink"><title>38403AEE-825A-4467-95F9-C06EF3A78E73</title><defs><rect id="a" width="400" height="63" rx="4"/><mask id="b" x="0" y="0" width="400" height="63" fill="#fff"><use xlink:href="#a"/></mask></defs><g fill="none" fill-rule="evenodd"><use stroke="#C2C2C2" mask="url(#b)" stroke-width="2" fill="#FFF" xlink:href="#a"/><path d="M50.46 31.807c0-.957-.086-1.878-.245-2.762H37.5v5.222h7.265a6.21 6.21 0 0 1-2.693 4.075v3.387h4.363c2.552-2.35 4.025-5.81 4.025-9.922z" fill="#4285F4" fill-rule="nonzero"/><path d="M37.5 45c3.645 0 6.7-1.209 8.935-3.27l-4.363-3.388c-1.21.81-2.756 1.289-4.572 1.289-3.516 0-6.492-2.375-7.554-5.566h-4.51v3.498C27.657 41.975 32.223 45 37.5 45z" fill="#34A853" fill-rule="nonzero"/><path d="M29.946 34.065a8.115 8.115 0 0 1-.423-2.565c0-.89.153-1.755.423-2.565v-3.498h-4.51A13.495 13.495 0 0 0 24 31.5c0 2.178.522 4.24 1.436 6.063l4.51-3.498z" fill="#FBBC05" fill-rule="nonzero"/><path d="M37.5 23.37c1.982 0 3.762.68 5.16 2.018l3.873-3.872C44.195 19.338 41.139 18 37.5 18c-5.277 0-9.843 3.025-12.064 7.437l4.51 3.498c1.062-3.19 4.038-5.566 7.554-5.566z" fill="#EA4335" fill-rule="nonzero"/><path d="M24 18h27v27H24z"/><text font-family="SourceSansPro-Regular, Source Sans Pro" font-size="18" fill="#232323"><tspan x="132.5" y="36">Login with Google</tspan></text></g></svg>