<svg width="58" height="36" viewBox="0 0 58 36" xmlns="http://www.w3.org/2000/svg"><title>DECC2137-5459-4814-912B-680B18D5A7E0</title><g fill="none" fill-rule="evenodd"><path fill="#0B2D5A" d="M.727 35.742h56.49V0H.728z"/><path d="M29.018 29.29a15.382 15.382 0 0 0 10.359 3.998c8.542 0 15.448-6.906 15.448-15.447 0-8.512-6.906-15.448-15.448-15.448a15.382 15.382 0 0 0-10.36 3.998c-3.119 2.847-5.088 6.906-5.088 11.45 0 4.543 1.969 8.632 5.089 11.45" fill="#F1AB3D"/><path d="M52.765 26.443c0-.273.212-.485.515-.485.272 0 .485.212.485.485s-.213.515-.485.515a.51.51 0 0 1-.515-.515zm.515.394c.182 0 .363-.182.363-.394a.368.368 0 0 0-.363-.364c-.212 0-.394.152-.394.364s.182.394.394.394zm-.09-.152h-.092v-.454h.182c.03 0 .09 0 .121.03.03.03.06.06.06.091 0 .06-.03.121-.09.121l.09.212h-.12l-.061-.182h-.09v.182zm0-.272h.12c.03 0 .03-.03.03-.061 0 0 0-.03-.03-.03h-.12v.09z" fill="#F1AB3D"/><path d="M34.016 16.205c-.061-.545-.152-1.09-.273-1.636h-9.45a16.6 16.6 0 0 1 .454-1.635h8.542a18.18 18.18 0 0 0-.636-1.636h-7.27c.273-.545.575-1.09.909-1.636h5.452a10.146 10.146 0 0 0-1.181-1.635h-3.09c.455-.576 1-1.121 1.545-1.636a15.324 15.324 0 0 0-10.36-3.998c-8.54 0-15.447 6.936-15.447 15.448 0 8.541 6.906 15.447 15.448 15.447 3.998 0 7.633-1.514 10.359-3.998a20.08 20.08 0 0 0 1.575-1.636h-3.12a16.095 16.095 0 0 1-1.181-1.635h5.452c.333-.515.636-1.06.909-1.636h-7.27a13.069 13.069 0 0 1-.636-1.636h8.542c.182-.545.333-1.09.454-1.635a14.84 14.84 0 0 0 .273-4.907" fill="#D82331"/><path d="M52.765 21.415c0-.273.212-.485.515-.485.272 0 .485.212.485.485 0 .272-.213.515-.485.515a.51.51 0 0 1-.515-.515zm.515.394c.182 0 .363-.182.363-.394a.368.368 0 0 0-.363-.364c-.212 0-.394.152-.394.364s.182.394.394.394zm-.09-.152h-.092v-.454h.182c.03 0 .09 0 .121.03.03.03.06.06.06.09 0 .062-.03.122-.09.122l.09.212h-.12l-.061-.182h-.09v.182zm0-.272h.12c.03 0 .03-.03.03-.061 0 0 0-.03-.03-.03h-.12v.09z" fill="#FFF"/><path d="M23.778 22.293c-.515.152-.879.212-1.272.212-.788 0-1.273-.484-1.273-1.393 0-.182.03-.363.06-.576l.092-.606.09-.514.728-4.362h1.605l-.182.97h1l-.243 1.604h-1l-.453 2.606c0 .09-.03.181-.03.242 0 .333.181.484.575.484.212 0 .333-.03.515-.06l-.212 1.393M28.957 22.233a5.711 5.711 0 0 1-1.726.272c-1.787 0-2.848-.969-2.848-2.847 0-2.181 1.242-3.816 2.939-3.816 1.363 0 2.241.908 2.241 2.332 0 .454-.06.909-.212 1.575H26.02v.181c0 .758.485 1.121 1.454 1.121.606 0 1.151-.12 1.757-.393l-.273 1.575zm-1-3.787v-.303c0-.515-.302-.817-.787-.817-.545 0-.908.393-1.06 1.12h1.848zM10.965 22.384H9.3l.97-6.027-2.151 6.027H6.967l-.121-5.997-1.03 5.997H4.21l1.302-7.845h2.393l.09 4.846 1.606-4.846h2.666l-1.303 7.845M14.994 19.537c-.182 0-.212-.03-.333-.03-.94 0-1.424.363-1.424.969 0 .424.242.666.606.666.818 0 1.12-.666 1.15-1.605zm1.333 2.847h-1.455l.03-.666c-.363.515-.847.787-1.756.787-.818 0-1.484-.727-1.484-1.756 0-.304.06-.576.12-.819.273-.999 1.273-1.605 2.788-1.635.182 0 .484 0 .727.03.06-.212.06-.302.06-.424 0-.424-.333-.545-1.12-.545-.485 0-1 .09-1.394.182l-.212.09h-.121l.242-1.423c.788-.242 1.333-.333 1.939-.333 1.454 0 2.21.636 2.21 1.878 0 .303.031.545-.09 1.242l-.333 2.271-.06.394-.061.333v.212l-.03.182zM37.014 16.084c.455 0 .879.12 1.485.424l.272-1.727c-.151-.06-.182-.06-.394-.151l-.696-.152a2.719 2.719 0 0 0-.758-.09c-.817 0-1.302 0-1.817.333-.273.151-.606.394-1 .818l-.181-.06-1.727 1.21.091-.666h-1.787l-1 6.361h1.666l.606-3.423s.242-.484.364-.636c.303-.393.575-.393.908-.393h.121c-.03.363-.06.787-.06 1.211 0 2.09 1.181 3.392 2.999 3.392.454 0 .848-.06 1.453-.242l.304-1.787c-.546.273-1 .394-1.424.394-.97 0-1.545-.697-1.545-1.908 0-1.697.848-2.908 2.12-2.908M51.16 14.539l-.364 2.242c-.394-.606-.878-.879-1.514-.879-.879 0-1.697.485-2.211 1.424l-1.06-.636.09-.667h-1.787l-1.03 6.361h1.697l.545-3.423s.424-.484.545-.636c.242-.302.515-.393.727-.393a5.954 5.954 0 0 0-.303 1.877c0 1.606.848 2.666 2.06 2.666.605 0 1.09-.212 1.545-.727l-.091.636h1.605l1.272-7.845H51.16zm-2.03 6.33c-.575 0-.848-.393-.848-1.241 0-1.242.515-2.151 1.303-2.151.575 0 .878.455.878 1.272 0 1.242-.545 2.12-1.333 2.12zM41.406 19.537c-.181 0-.212-.03-.333-.03-.939 0-1.423.363-1.423.969 0 .424.242.666.605.666.818 0 1.121-.666 1.151-1.605zm1.333 2.847h-1.454l.03-.666c-.363.515-.848.787-1.756.787-.818 0-1.545-.696-1.545-1.756.03-1.515 1.151-2.454 2.968-2.454.182 0 .485 0 .727.03.06-.212.06-.302.06-.424 0-.424-.332-.545-1.12-.545-.485 0-1.03.09-1.393.182l-.242.09h-.091l.242-1.423c.787-.242 1.333-.333 1.939-.333 1.453 0 2.21.636 2.21 1.878 0 .303.03.545-.09 1.242l-.333 2.271-.061.394-.06.333-.03.212v.182zM19.81 17.386c.333 0 .787.03 1.272.091l.242-1.484c-.484-.06-1.12-.121-1.514-.121-1.848 0-2.484 1-2.484 2.18 0 .758.363 1.333 1.242 1.727.696.333.818.394.818.666 0 .394-.364.637-1.03.637-.485 0-.94-.091-1.484-.243l-.182 1.454h.03l.303.06c.091.031.242.061.424.061.424.06.757.06.97.06 1.847 0 2.635-.696 2.635-2.12 0-.878-.424-1.393-1.272-1.756-.697-.333-.788-.364-.788-.666 0-.304.303-.546.818-.546" fill="#0B2D5A"/><path d="M39.225 14.297l-.272 1.696c-.606-.303-1.03-.424-1.484-.424-1.272 0-2.15 1.211-2.15 2.938 0 1.181.605 1.908 1.574 1.908.424 0 .879-.121 1.424-.394l-.303 1.788c-.606.151-1 .212-1.484.212-1.787 0-2.908-1.272-2.908-3.363 0-2.816 1.545-4.755 3.756-4.755.303 0 .545.03.757.06l.697.182c.212.091.242.091.393.152M33.864 15.478c-.06-.03-.12-.03-.182-.03-.545 0-.848.272-1.362 1.03l.15-.97h-1.544l-1 6.392h1.666c.606-3.908.758-4.574 1.575-4.574h.122c.151-.758.333-1.333.636-1.848h-.06M24.202 21.809a3.655 3.655 0 0 1-1.212.212c-.848 0-1.333-.485-1.333-1.394 0-.182.03-.363.061-.575l.09-.636.092-.485.727-4.362h1.665l-.181.94h.848l-.242 1.574h-.848l-.455 2.636c0 .12-.03.211-.03.272 0 .333.182.485.575.485.212 0 .333-.03.455-.06l-.212 1.393M17.75 17.538c0 .787.394 1.363 1.272 1.756.697.334.788.425.788.727 0 .394-.303.576-.97.576-.484 0-.938-.09-1.484-.273l-.242 1.485h.09l.304.06c.09.03.242.06.424.06.393.031.727.061.939.061 1.757 0 2.574-.666 2.574-2.12 0-.878-.333-1.393-1.181-1.787-.697-.303-.787-.394-.787-.666 0-.364.272-.546.817-.546.334 0 .788.06 1.212.122l.242-1.485a12.74 12.74 0 0 0-1.484-.12c-1.878 0-2.514.969-2.514 2.15M52.038 21.9h-1.605l.09-.637c-.454.485-.938.697-1.544.697-1.212 0-2.03-1.03-2.03-2.635 0-2.12 1.242-3.908 2.726-3.908.667 0 1.151.273 1.606.879l.363-2.242h1.666L52.038 21.9zm-2.484-1.515c.788 0 1.333-.878 1.333-2.15 0-.788-.303-1.242-.878-1.242-.758 0-1.303.878-1.303 2.15 0 .818.273 1.242.848 1.242zM29.32 21.748a5.555 5.555 0 0 1-1.726.273c-1.878 0-2.847-1-2.847-2.848 0-2.21 1.242-3.816 2.938-3.816 1.363 0 2.241.909 2.241 2.332 0 .454-.06.909-.181 1.575h-3.332c-.03.091-.03.121-.03.182 0 .727.484 1.12 1.484 1.12.575 0 1.12-.12 1.726-.393l-.272 1.575zm-.938-3.786v-.334c0-.514-.273-.817-.788-.817s-.908.424-1.06 1.15h1.848zM11.39 21.9H9.722l.97-6.028L8.542 21.9h-1.15l-.122-5.998L6.24 21.9H4.695l1.303-7.846H8.39l.091 4.847 1.606-4.847h2.605L11.389 21.9M15.539 19.052c-.182-.03-.273-.03-.394-.03-.939 0-1.423.333-1.423.97 0 .393.242.666.605.666.697 0 1.181-.667 1.212-1.606zM16.75 21.9h-1.393l.03-.667c-.424.515-.969.757-1.756.757-.909 0-1.515-.696-1.515-1.726 0-1.545 1.06-2.454 2.938-2.454.182 0 .424 0 .667.03.06-.181.06-.272.06-.393 0-.424-.273-.576-1.06-.576-.485 0-1.03.06-1.393.182l-.242.06-.152.031.242-1.424c.848-.242 1.394-.333 2-.333 1.453 0 2.21.636 2.21 1.848 0 .333-.03.575-.15 1.272l-.334 2.272-.06.393-.031.334-.03.212-.03.182zM41.951 19.052c-.181-.03-.272-.03-.393-.03-.94 0-1.424.333-1.424.97 0 .393.242.666.606.666.666 0 1.181-.667 1.211-1.606zm1.212 2.848H41.77l.03-.667c-.424.515-1 .757-1.757.757-.908 0-1.544-.696-1.544-1.726 0-1.545 1.09-2.454 2.968-2.454.182 0 .424 0 .666.03.06-.181.06-.272.06-.393 0-.424-.272-.576-1.06-.576-.484 0-1.03.06-1.393.182l-.242.06-.151.031.242-1.424c.848-.242 1.393-.333 2-.333 1.453 0 2.21.636 2.21 1.848 0 .333-.03.575-.151 1.272l-.333 2.272-.061.393-.06.334-.03.212v.182zM47.646 15.478c-.03-.03-.09-.03-.152-.03-.545 0-.878.272-1.393 1.03l.152-.97h-1.515l-1.03 6.392h1.697c.575-3.908.757-4.574 1.544-4.574h.122c.15-.758.363-1.333.636-1.848h-.06" fill="#FFF"/></g></svg>