<?xml version="1.0" encoding="UTF-8"?>
<svg width="16px" height="16px" viewBox="0 0 16 16" version="1.1" xmlns="http://www.w3.org/2000/svg" xmlns:xlink="http://www.w3.org/1999/xlink">
    <!-- Generator: sketchtool 42 (36781) - http://www.bohemiancoding.com/sketch -->
    <title>CFC5ECD1-6AD1-4977-BBF8-DA18831E6A61</title>
    <desc>Created with sketchtool.</desc>
    <defs></defs>
    <g id="Page-1" stroke="none" stroke-width="1" fill="none" fill-rule="evenodd">
        <g id="Web-1440_Match-Ticket-Application-Overview" transform="translate(-905.000000, -1652.000000)" fill="#6D6D6D">
            <g id="table-2" transform="translate(375.000000, 1372.000000)">
                <g id="Check-Availability" transform="translate(0.000000, 236.000000)">
                    <g id="Group" transform="translate(530.000000, 44.000000)">
                        <path d="M11.0624576,10.1250612 L9.82845885,11.3594289 C9.08400161,12.1038862 7.86623482,12.1038862 7.12177758,11.3594289 L4.19006214,8.42771348 C3.4456049,7.68325623 3.4456049,6.46512054 4.18969324,5.72066329 L5.39749949,4.51322594 C4.96698333,3.40945187 4.72866848,2.2097616 4.72866848,0.953997245 C4.72866848,0.63194017 4.74526936,0.314309997 4.77551985,0 L0.0693547881,0 C0.0236101406,0.46334901 0,0.932231646 0,1.40701682 C0,9.22750699 6.34006058,15.5675676 14.1605507,15.5675676 C14.667431,15.5675676 15.1680397,15.5402683 15.6612703,15.4882523 L15.6612703,10.694287 C15.291624,10.7359736 14.9164442,10.7606905 14.5353617,10.7606905 C13.3120613,10.7603216 12.1422526,10.5341807 11.0624576,10.1250612 L11.0624576,10.1250612 Z" id="Shape"></path>
                    </g>
                </g>
            </g>
        </g>
    </g>
</svg>