<svg width="54" height="36" viewBox="0 0 54 36" xmlns="http://www.w3.org/2000/svg"><title>05F70F57-5C5B-446B-85EF-27C060FB8529</title><g fill="none" fill-rule="evenodd"><path fill="#185588" d="M52.264 35.79H0V0h53.167v35.79h-.903"/><path fill="#FFF" d="M.903 34.887h51.361V.903H.904z"/><path fill="#185588" d="M19.467 23.414l3.335-10.998h2.976l-3.336 10.998h-2.975M18.136 12.419l-2.677 4.662c-.682 1.22-1.08 1.838-1.272 2.61h-.04c.047-.979-.09-2.18-.102-2.858l-.296-4.414h-5.01l-.052.296c1.287 0 2.05.646 2.26 1.97l.977 8.729h3.084l6.234-10.995h-3.106M40.94 16.927c-.034-.813-.061-1.917-.006-2.584h-.044c-.181.546-.959 2.185-1.301 2.992l-1.108 2.41h2.61l-.152-2.818zm.34 6.487l-.081-1.636-3.716-.003-.76 1.639H33.49l5.859-10.977h3.966l.992 10.977h-3.027zM28.903 23.727c-2.101 0-3.496-.667-4.491-1.261l1.417-2.165c.894.5 1.596 1.076 3.21 1.076.52 0 1.02-.134 1.304-.626.414-.716-.096-1.1-1.258-1.759l-.574-.373c-1.724-1.178-2.47-2.296-1.658-4.249.52-1.25 1.889-2.196 4.148-2.196 1.557 0 3.017.674 3.869 1.332l-1.63 1.912c-.83-.672-1.519-1.011-2.307-1.011-.628 0-1.105.242-1.27.569-.31.614.1 1.033 1.006 1.595l.683.434c2.092 1.32 2.59 2.704 2.067 3.997-.903 2.228-2.669 2.725-4.516 2.725M45.334 12.915c-.307 0-.545.24-.545.586 0 .322.208.585.545.585.304 0 .542-.238.542-.585 0-.345-.238-.586-.542-.586zm0 1.295c-.407 0-.697-.306-.697-.71 0-.426.322-.708.697-.708.372 0 .694.282.694.709 0 .426-.322.709-.694.709zm.004-.749c.097 0 .182-.01.182-.123 0-.095-.093-.107-.17-.107h-.156v.23h.144zm-.144.445h-.129v-.784h.298c.19 0 .286.066.286.225 0 .142-.087.201-.205.214l.22.345h-.146l-.203-.335h-.121v.335z"/><path fill="#EEA239" d="M2.258 33.351H51V26.83H2.258z"/><path fill="#185588" d="M2.168 9.051H50.91V2.53H2.17zM49.936 31.896c-.307 0-.546.24-.546.585 0 .323.209.586.546.586.303 0 .542-.239.542-.586 0-.344-.239-.585-.542-.585zm0 1.294c-.407 0-.697-.305-.697-.709 0-.426.322-.709.697-.709.371 0 .694.283.694.71 0 .426-.323.708-.694.708zm.004-.748c.097 0 .182-.01.182-.124 0-.094-.093-.106-.17-.106h-.156v.23h.144zm-.144.445h-.129v-.784h.297c.19 0 .287.066.287.225 0 .142-.088.201-.205.214l.22.345h-.146l-.203-.335h-.121v.335z"/></g></svg>