<?xml version="1.0" encoding="UTF-8" standalone="no"?>
<svg width="29px" height="28px" viewBox="0 0 29 28" version="1.1" xmlns="http://www.w3.org/2000/svg" xmlns:xlink="http://www.w3.org/1999/xlink">
    <!-- Generator: Sketch 40.3 (33839) - http://www.bohemiancoding.com/sketch -->
    <title>Applause</title>
    <desc>Created with Sketch.</desc>
    <defs></defs>
    <g id="Page-1" stroke="none" stroke-width="1" fill="none" fill-rule="evenodd" stroke-linecap="round" stroke-linejoin="round">
        <g id="Emojis" transform="translate(-366.000000, -80.000000)" stroke="#000000">
            <g id="Black" transform="translate(134.000000, 80.000000)">
                <g id="Applause" transform="translate(232.000000, 1.000000)">
                    <path d="M3.7593,19.0063 L1.3893,20.2773" id="Stroke-1"></path>
                    <path d="M5.7981,20.9365 L4.6581,23.3725" id="Stroke-3"></path>
                    <g id="Group-8" transform="translate(0.000000, 0.285100)">
                        <path d="M12.586,21.8872 C18.148,26.7622 22.484,26.6792 26.115,21.7852 C28.961,17.9492 27.432,13.2882 24.503,11.3662 C21.836,9.6162 21.107,8.4912 20.253,9.7202 C19.924,10.1942 20.065,11.5872 21.232,12.9302 C22.45,14.3302 22.705,14.5472 23.138,15.1552 C23.162,15.1882 23.033,15.1812 22.771,14.8752 C20.486,12.2102 17.688,9.4792 16.003,7.8882 C14.733,6.6902 13.006,8.3302 14.05,9.6652 C15.359,11.3382 17.777,14.0202 18.175,14.5042 C18.357,14.7252 18.531,15.0142 18.525,15.0162 C18.513,15.0222 18.491,14.9552 17.964,14.4342 C16.906,13.3882 13.987,10.0782 13.062,9.2882 C11.862,8.2652 10.05,10.0882 11.191,11.4772 C12.332,12.8652 15.038,15.7942 15.778,16.8892 C15.844,16.9852 15.986,17.1842 15.981,17.1772 C15.945,17.1252 15.774,16.9292 15.471,16.6162 C14.826,15.9502 11.738,12.4132 11.274,11.9362 C10.438,11.0772 8.429,12.6572 9.44,14.2722 C10.452,15.8862 12.925,18.0672 13.711,18.9492 C13.838,19.0922 13.877,19.1242 13.68,18.9342 C13.136,18.4112 10.679,15.8012 10.219,15.3792 C9.604,14.8152 8.03,16.2222 8.898,17.3712 C9.637,18.3502 11.183,20.6582 12.586,21.8872 L12.586,21.8872 Z" id="Stroke-4"></path>
                        <path d="M9.5395,15.029 C7.4275,14.799 4.4545,14.547 2.5805,14.299 C0.8025,14.065 0.8735,11.615 3.0915,11.783 C3.7425,11.832 6.2525,11.975 6.9085,12.031 C7.1215,12.05 7.1275,11.904 6.9385,11.849 C5.4385,11.413 2.1455,10.293 1.6155,10.093 C-0.0515,9.462 0.1065,6.985 2.3825,7.615 C3.8555,8.023 7.3465,8.836 8.2275,9.104 C8.5845,9.213 8.5275,9.252 8.2005,9.072 C7.0405,8.433 2.8485,6.449 2.1265,6.062 C0.4745,5.177 1.4365,3.094 3.2475,3.879 C4.2865,4.33 7.9255,5.736 9.4045,6.262 C9.7495,6.385 9.7205,6.401 9.4155,6.197 C7.9215,5.197 4.6735,2.925 3.9185,2.429 C2.6015,1.564 3.4805,-0.934 6.0585,0.832 L14.9915,5.934 C15.2415,6.09 15.7575,6.356 15.8515,6.325 C15.8735,6.317 15.6755,5.882 15.0695,5.075 C14.4135,4.2 12.5435,2.137 13.5435,1.2 C14.6745,0.139 15.9815,1.241 17.6945,3.372 C19.4825,5.594 20.8775,6.804 20.8775,8.616 C20.8775,8.796 20.8765,8.965 20.8735,9.125" id="Stroke-6"></path>
                    </g>
                </g>
            </g>
        </g>
    </g>
</svg>