<?xml version="1.0" encoding="UTF-8" standalone="no"?>
<svg width="23px" height="24px" viewBox="0 0 23 24" version="1.1" xmlns="http://www.w3.org/2000/svg" xmlns:xlink="http://www.w3.org/1999/xlink">
    <!-- Generator: Sketch 40.3 (33839) - http://www.bohemiancoding.com/sketch -->
    <title>Boo</title>
    <desc>Created with Sketch.</desc>
    <defs></defs>
    <g id="Page-1" stroke="none" stroke-width="1" fill="none" fill-rule="evenodd">
        <g id="Emojis" transform="translate(-210.000000, -83.000000)">
            <g id="Black" transform="translate(134.000000, 80.000000)">
                <g id="Boo" transform="translate(76.000000, 3.000000)">
                    <path d="M9.4518,9.6751 C9.4518,10.5031 8.7798,11.1751 7.9518,11.1751 C7.1238,11.1751 6.4518,10.5031 6.4518,9.6751 C6.4518,8.8471 7.1238,8.1751 7.9518,8.1751 C8.7798,8.1751 9.4518,8.8471 9.4518,9.6751" id="Fill-1" fill="#000000"></path>
                    <path d="M7.1863,6.0245 L9.9643,7.6285" id="Stroke-3" stroke="#000000" stroke-linecap="round" stroke-linejoin="round"></path>
                    <path d="M13.5482,9.6751 C13.5482,10.5031 14.2202,11.1751 15.0482,11.1751 C15.8762,11.1751 16.5482,10.5031 16.5482,9.6751 C16.5482,8.8471 15.8762,8.1751 15.0482,8.1751 C14.2202,8.1751 13.5482,8.8471 13.5482,9.6751" id="Fill-5" fill="#000000"></path>
                    <path d="M15.8137,6.0245 L13.0357,7.6285" id="Stroke-7" stroke="#000000" stroke-linecap="round" stroke-linejoin="round"></path>
                    <path d="M22.5,0.9583 C22.5,0.7053 22.295,0.5003 22.042,0.5003 C21.789,0.5003 21.583,0.7053 21.583,0.9583 C21.583,1.8223 20.617,2.7013 18.922,3.3903 C16.886,1.5243 14.263,0.5003 11.5,0.5003 C8.737,0.5003 6.114,1.5243 4.078,3.3903 C2.383,2.7013 1.417,1.8223 1.417,0.9583 C1.417,0.7053 1.211,0.5003 0.958,0.5003 C0.705,0.5003 0.5,0.7053 0.5,0.9583 C0.5,2.7933 0.967,4.6103 1.854,6.2293 C0.967,7.8483 0.5,9.6643 0.5,11.5003 C0.5,17.5653 5.434,22.5003 11.5,22.5003 C17.566,22.5003 22.5,17.5653 22.5,11.5003 C22.5,9.6643 22.033,7.8483 21.146,6.2293 C22.033,4.6103 22.5,2.7933 22.5,0.9583 L22.5,0.9583 Z" id="Stroke-9" stroke="#000000" stroke-linecap="round" stroke-linejoin="round"></path>
                    <path d="M14.5,15.8465 C14.5,18.0555 13.157,19.8465 11.5,19.8465 C9.843,19.8465 8.5,18.0555 8.5,15.8465 C8.5,13.6375 9.843,11.8465 11.5,11.8465 C13.157,11.8465 14.5,13.6375 14.5,15.8465" id="Fill-11" fill="#000000"></path>
                </g>
            </g>
        </g>
    </g>
</svg>