<?xml version="1.0" encoding="UTF-8" standalone="no"?>
<svg width="33px" height="23px" viewBox="0 0 33 23" version="1.1" xmlns="http://www.w3.org/2000/svg" xmlns:xlink="http://www.w3.org/1999/xlink">
    <!-- Generator: Sketch 40.3 (33839) - http://www.bohemiancoding.com/sketch -->
    <title>Chant</title>
    <desc>Created with Sketch.</desc>
    <defs>
        <polygon id="path-1" points="0 0.6466 0 10.4176633 7.5998 10.4176633 7.5998 0.6466 6.77626358e-21 0.6466"></polygon>
    </defs>
    <g id="Page-1" stroke="none" stroke-width="1" fill="none" fill-rule="evenodd">
        <g id="Emojis" transform="translate(-227.000000, -168.000000)">
            <g id="Black" transform="translate(134.000000, 80.000000)">
                <g id="Chant" transform="translate(93.000000, 88.000000)">
                    <path d="M13.3516,19.4631 C15.3266,21.3441 17.9966,22.5001 20.9326,22.5001 C26.9986,22.5001 31.9326,17.5651 31.9326,11.5001 C31.9326,9.6651 31.4656,7.8481 30.5786,6.2291 C31.4656,4.6101 31.9326,2.7931 31.9326,0.9581 C31.9326,0.7051 31.7276,0.5001 31.4746,0.5001 C31.2216,0.5001 31.0166,0.7051 31.0166,0.9581 C31.0166,1.8231 30.0506,2.7021 28.3556,3.3901 C26.3196,1.5251 23.6956,0.5001 20.9326,0.5001 C18.1706,0.5001 15.5466,1.5251 13.5106,3.3901 C11.8156,2.7021 10.8496,1.8231 10.8496,0.9581 C10.8496,0.7051 10.6446,0.5001 10.3916,0.5001 C10.1386,0.5001 9.9326,0.7051 9.9326,0.9581 C9.9326,2.7931 10.4006,4.6101 11.2866,6.2291 C10.4006,7.8481 9.9326,9.6651 9.9326,11.5001 C9.9326,13.6561 10.5566,15.6691 11.6326,17.3691" id="Stroke-1" stroke="#000000" stroke-linecap="round"></path>
                    <path d="M4.3889,12.1766 C4.4449,14.9076 8.2849,17.9006 14.8259,17.5976" id="Stroke-3" stroke="#000000" stroke-linecap="round"></path>
                    <g id="Group-7" transform="translate(0.000000, 1.000000)">
                        <mask id="mask-2" fill="white">
                            <use xlink:href="#path-1"></use>
                        </mask>
                        <g id="Clip-6"></g>
                        <path d="M3.4658,0.6466 L3.4658,6.9066 C2.8398,6.6456 2.0118,6.7296 1.2958,7.1276 C0.1998,7.7376 -0.2982,8.8866 0.1838,9.6926 C0.6668,10.4986 1.9468,10.6566 3.0438,10.0456 C3.8108,9.6176 4.3148,8.9016 4.3358,8.2086 C4.3428,6.3976 4.3398,4.6346 4.3398,2.8176 C5.9228,2.8176 6.8608,3.4336 6.5118,4.9896 C6.3218,5.7836 5.9168,6.4806 5.4238,6.9656 C6.7248,6.2416 7.5998,5.0686 7.5998,3.9046 C7.5998,2.8186 6.5478,2.1626 5.6408,1.7326 C5.1788,1.5136 4.5558,1.1956 4.3388,0.6476 L3.4648,0.6476 L3.4658,0.6466 Z" id="Fill-5" fill="#000000" mask="url(#mask-2)"></path>
                    </g>
                    <path d="M20.9721,19.7402 C19.2121,19.7512 16.7621,16.9172 16.7401,13.4232 C16.7211,10.2482 18.9021,11.0302 20.9021,11.0182 C22.9011,11.0062 25.1061,10.2082 25.1251,13.3832 C25.1471,16.8772 22.7321,19.7292 20.9721,19.7402" id="Fill-8" fill="#000000"></path>
                    <path d="M18.8034,7.5162 C17.8194,5.7012 16.0844,6.0402 15.0634,7.5382" id="Stroke-10" stroke="#000000" stroke-linecap="round"></path>
                    <path d="M23.0638,7.5162 C24.0478,5.7012 25.7828,6.0402 26.8038,7.5382" id="Stroke-12" stroke="#000000" stroke-linecap="round"></path>
                </g>
            </g>
        </g>
    </g>
</svg>