<?xml version="1.0" encoding="UTF-8" standalone="no"?>
<svg width="36px" height="26px" viewBox="0 0 36 26" version="1.1" xmlns="http://www.w3.org/2000/svg" xmlns:xlink="http://www.w3.org/1999/xlink">
    <!-- Generator: Sketch 40.3 (33839) - http://www.bohemiancoding.com/sketch -->
    <title>Cheerio</title>
    <desc>Created with Sketch.</desc>
    <defs></defs>
    <g id="Page-1" stroke="none" stroke-width="1" fill="none" fill-rule="evenodd">
        <g id="Emojis" transform="translate(-608.000000, -166.000000)">
            <g id="Black" transform="translate(134.000000, 80.000000)">
                <g id="Cheerio" transform="translate(474.000000, 86.000000)">
                    <path d="M5.42,19.7388 C4.427,18.2928 2.303,16.0228 0.806,13.9028 C-0.243,12.4168 1.631,10.7828 3.033,12.5508 C3.445,13.0698 5.067,15.0388 5.476,15.5658 C5.609,15.7368 5.722,15.6408 5.633,15.4628 C4.925,14.0458 3.492,10.8198 3.276,10.2868 C2.598,8.6108 4.553,7.0228 5.651,9.1528 C6.361,10.5308 8.159,13.6918 8.565,14.5338 C8.73,14.8748 8.662,14.8588 8.571,14.4908 C8.249,13.1868 6.841,8.6968 6.632,7.8928 C6.154,6.0528 8.368,5.3348 9.03,7.2248 C9.41,8.3098 10.868,11.9888 11.494,13.4528 C11.64,13.7948 11.608,13.7848 11.55,13.4178 C11.266,11.6158 10.724,7.6308 10.573,6.7268 C10.311,5.1488 12.777,4.0848 13.237,7.2218 L15.586,17.3908 C15.641,17.6848 15.798,18.2518 15.886,18.3008 C15.907,18.3118 16.095,17.8638 16.28,16.8578 C16.48,15.7658 16.729,12.9528 18.116,13.0528 C19.685,13.1648 19.764,14.8978 19.356,17.6408 C18.931,20.5028 18.152,21.6588 17.063,22.9808 C15.524,24.8498 13.082,25.7798 9.732,24.2838 C7.736,23.3928 6.952,21.9708 5.42,19.7388 L5.42,19.7388 Z" id="Stroke-1" stroke="#000000" stroke-linecap="round" stroke-linejoin="round"></path>
                    <path d="M21.6663,9.4108 C21.5593,10.1728 20.8553,10.7048 20.0953,10.5978 C19.3343,10.4908 18.8043,9.7868 18.9113,9.0238 C19.0183,8.2618 19.7213,7.7298 20.4823,7.8368 C21.2433,7.9438 21.7733,8.6488 21.6663,9.4108" id="Fill-3" fill="#000000"></path>
                    <path d="M28.3678,10.3513 C28.2608,11.1133 27.5568,11.6453 26.7968,11.5383 C26.0358,11.4313 25.5058,10.7273 25.6128,9.9643 C25.7198,9.2023 26.4228,8.6703 27.1838,8.7773 C27.9448,8.8843 28.4748,9.5893 28.3678,10.3513" id="Fill-5" fill="#000000"></path>
                    <path d="M19.7102,15.8673 C20.4342,16.5563 21.4152,17.1893 22.6672,17.3653 C25.7472,17.7973 27.8042,15.0923 27.8042,15.0923" id="Stroke-7" stroke="#000000" stroke-linecap="round"></path>
                    <path d="M18.3891,20.9395 C19.4481,21.5255 20.6291,21.9305 21.8961,22.1085 C27.4671,22.8905 32.6361,18.9855 33.4201,13.4035 C33.6571,11.7145 33.4621,9.9825 32.8571,8.3785 C33.8801,7.0035 34.5441,5.3915 34.7811,3.7025 C34.8141,3.4695 34.6521,3.2545 34.4191,3.2215 C34.1871,3.1895 33.9721,3.3515 33.9391,3.5845 C33.8281,4.3795 32.8271,5.0645 31.1811,5.4795 C29.5521,3.5005 27.2751,2.2195 24.7371,1.8625 C22.2001,1.5065 19.6581,2.1115 17.5471,3.5665 C16.0791,2.7145 15.3051,1.7805 15.4171,0.9855 C15.4501,0.7525 15.2881,0.5365 15.0551,0.5045 C14.8231,0.4715 14.6081,0.6345 14.5751,0.8665 C14.3381,2.5555 14.5331,4.2875 15.1381,5.8915 C14.4711,6.7875 13.9571,7.7845 13.6141,8.8365" id="Stroke-9" stroke="#000000" stroke-linejoin="round"></path>
                </g>
            </g>
        </g>
    </g>
</svg>