<?xml version="1.0" encoding="UTF-8" standalone="no"?>
<svg width="39px" height="30px" viewBox="0 0 39 30" version="1.1" xmlns="http://www.w3.org/2000/svg" xmlns:xlink="http://www.w3.org/1999/xlink">
    <!-- Generator: Sketch 40.3 (33839) - http://www.bohemiancoding.com/sketch -->
    <title>Cheer</title>
    <desc>Created with Sketch.</desc>
    <defs></defs>
    <g id="Page-1" stroke="none" stroke-width="1" fill="none" fill-rule="evenodd">
        <g id="Emojis" transform="translate(-447.000000, -80.000000)">
            <g id="Black" transform="translate(134.000000, 80.000000)">
                <g id="Cheer" transform="translate(313.000000, 0.000000)">
                    <path d="M37.5948,13.9846 C37.6818,13.7736 37.5818,13.5316 37.3708,13.4436 C37.1598,13.3566 36.9178,13.4576 36.8308,13.6686 C36.5328,14.3906 35.4238,14.7916 33.7738,14.7826 C32.7208,12.5226 30.8878,10.7636 28.5858,9.8106 C26.2828,8.8586 23.7428,8.8106 21.4018,9.6666 C20.2278,8.5076 19.7258,7.4406 20.0238,6.7186 C20.1118,6.5076 20.0118,6.2656 19.8008,6.1776 C19.5898,6.0906 19.3478,6.1916 19.2598,6.4026 C18.6268,7.9356 18.3888,9.6136 18.5688,11.2706 C17.2708,12.3166 16.2538,13.6726 15.6198,15.2056 C13.5258,20.2706 15.9338,26.0916 20.9888,28.1816 C26.0438,30.2716 31.8598,27.8526 33.9548,22.7876 C34.5888,21.2546 34.8258,19.5766 34.6468,17.9196 C35.9438,16.8726 36.9608,15.5166 37.5948,13.9846 L37.5948,13.9846 Z" id="Stroke-1" stroke="#000000" stroke-linecap="round" stroke-linejoin="round"></path>
                    <path d="M24.0699,15.4485 C24.2779,13.3945 22.6529,12.6985 20.9669,13.3615" id="Stroke-3" stroke="#000000" stroke-linecap="round" stroke-linejoin="round"></path>
                    <path d="M27.2961,16.3817 C28.9141,15.0997 30.3761,16.0917 30.7261,17.8707" id="Stroke-5" stroke="#000000" stroke-linecap="round" stroke-linejoin="round"></path>
                    <path d="M22.8794,24.3747 C21.7624,23.9557 19.8314,21.1607 20.6634,18.9427 C21.4194,16.9287 23.8374,17.9417 25.1064,18.4177 C26.3754,18.8937 28.8704,19.7497 28.1144,21.7637 C27.2814,23.9807 23.9964,24.7937 22.8794,24.3747" id="Fill-7" fill="#000000"></path>
                    <path d="M3.42,7.2816 C3.433,7.2966 3.484,7.3526 3.529,7.4016 C3.519,7.3916 3.511,7.3816 3.502,7.3706 C3.428,7.2876 3.415,7.2756 3.42,7.2816 L3.42,7.2816 Z" id="Stroke-9" stroke="#000000" stroke-linecap="round" stroke-linejoin="round"></path>
                    <path d="M10.0054,5.3608 C10.1934,5.5768 10.4094,5.8268 10.6874,6.1588 C10.7904,6.2818 10.8464,6.4148 10.8814,6.5518 C10.9294,6.4008 10.9924,6.2548 11.0894,6.1238 L11.1914,5.9838 C10.8714,6.0298 10.4584,5.7698 10.0054,5.3608 L10.0054,5.3608 Z" id="Stroke-11" stroke="#000000" stroke-linecap="round" stroke-linejoin="round"></path>
                    <path d="M4.0887,8.069 C4.0717,8.048 4.0547,8.027 4.0387,8.007 C4.0547,8.027 4.0717,8.048 4.0887,8.069 L4.0887,8.069 Z" id="Stroke-13" stroke="#000000" stroke-linecap="round" stroke-linejoin="round"></path>
                    <path d="M3.8256,7.7469 C3.7916,7.7069 3.7566,7.6659 3.7216,7.6249 C3.7556,7.6649 3.7866,7.7009 3.8256,7.7469 L3.8256,7.7469 Z" id="Stroke-15" stroke="#000000" stroke-linecap="round" stroke-linejoin="round"></path>
                    <path d="M5.7914,5.4312 C5.7844,5.4202 5.7764,5.4192 6.1934,5.9802 C6.2474,6.0532 6.2984,6.1172 6.3514,6.1862 C6.2634,6.0632 6.1834,5.9532 6.1014,5.8412 C5.9414,5.6242 5.8484,5.5182 5.7914,5.4312 L5.7914,5.4312 Z" id="Stroke-17" stroke="#000000" stroke-linecap="round" stroke-linejoin="round"></path>
                    <path d="M11.5677,8.5154 C11.1377,8.1914 10.8847,7.7244 10.8217,7.2514 C10.4377,8.2184 8.9817,9.0834 8.1767,8.5324 C8.2077,8.5824 8.2387,8.6294 8.2697,8.6814 C8.8417,9.6644 6.6037,11.4074 5.8127,10.3674 C5.7497,10.2844 5.6947,10.2104 5.6347,10.1314 C6.0257,10.7774 4.8347,11.8394 3.6417,12.0684 C5.3707,14.0154 8.6897,14.1474 11.3177,12.2654 C12.8397,11.1764 13.8027,9.6474 14.0977,8.1124 L13.9657,8.2924 C13.4377,9.0114 12.3587,9.1114 11.5677,8.5154 L11.5677,8.5154 Z" id="Stroke-19" stroke="#000000" stroke-linecap="round" stroke-linejoin="round"></path>
                    <path d="M14.0978,8.1126 L15.6838,5.9526 C16.2118,5.2326 15.9968,4.1566 15.2058,3.5606 C14.4358,2.9796 13.3958,3.0646 12.8548,3.7326" id="Stroke-21" stroke="#000000" stroke-linecap="round" stroke-linejoin="round"></path>
                    <path d="M12.8544,3.7327 C12.8314,2.7307 12.0604,1.7577 11.1754,1.0377 C10.0844,0.1507 7.4964,0.0577 3.7284,3.1487 C0.9374,5.4387 -1.0236,8.3337 2.0804,11.6687 C2.4804,12.0977 3.0614,12.1797 3.6414,12.0687" id="Stroke-23" stroke="#000000" stroke-linecap="round" stroke-linejoin="round"></path>
                    <path d="M3.8256,7.7469 C3.8986,7.8339 3.9696,7.9209 4.0386,8.0069 C3.9946,7.9519 3.9436,7.8869 3.9026,7.8369 C3.8716,7.7989 3.8536,7.7809 3.8256,7.7469 L3.8256,7.7469 Z" id="Stroke-25" stroke="#000000" stroke-linecap="round" stroke-linejoin="round"></path>
                    <path d="M3.7219,7.6251 C3.6419,7.5321 3.5779,7.4561 3.5289,7.4021 C3.5959,7.4781 3.6589,7.5511 3.7219,7.6251 L3.7219,7.6251 Z" id="Stroke-27" stroke="#000000" stroke-linecap="round" stroke-linejoin="round"></path>
                    <path d="M4.0887,8.069 C4.5627,8.664 4.9857,9.269 5.6347,10.131 C5.6347,10.13 5.6347,10.128 5.6337,10.126 C5.3377,9.648 4.6287,8.74 4.0887,8.069 L4.0887,8.069 Z" id="Stroke-29" stroke="#000000" stroke-linecap="round" stroke-linejoin="round"></path>
                    <path d="M9.0519,4.3312 C9.1209,4.4392 9.2259,4.4682 10.0049,5.3612 C10.4579,5.7702 10.8719,6.0302 11.1919,5.9842" id="Stroke-31" stroke="#000000" stroke-linecap="round" stroke-linejoin="round"></path>
                    <path d="M3.6416,12.0684 C4.8346,11.8394 6.0256,10.7774 5.6356,10.1314 C4.9856,9.2694 4.5626,8.6634 4.0886,8.0694 C4.0716,8.0484 4.0546,8.0264 4.0386,8.0064 C3.9696,7.9204 3.8986,7.8344 3.8256,7.7464 C3.7876,7.7004 3.7556,7.6644 3.7216,7.6254 C3.6596,7.5514 3.5956,7.4774 3.5286,7.4024 C3.4846,7.3524 3.4336,7.2974 3.4196,7.2814 C3.4146,7.2754 3.4286,7.2884 3.5016,7.3704 C3.5116,7.3814 3.5196,7.3914 3.5286,7.4024 C3.5786,7.4564 3.6416,7.5324 3.7216,7.6254 C3.7566,7.6654 3.7926,7.7064 3.8256,7.7464 C3.8536,7.7814 3.8716,7.7994 3.9026,7.8364 C3.9436,7.8874 3.9946,7.9524 4.0386,8.0064 C4.0556,8.0274 4.0726,8.0484 4.0886,8.0694 C4.6286,8.7394 5.3376,9.6474 5.6336,10.1264 C5.6346,10.1284 5.6346,10.1294 5.6356,10.1314 C5.6946,10.2104 5.7496,10.2844 5.8136,10.3674 C6.6036,11.4074 8.8416,9.6644 8.2696,8.6814 C8.2386,8.6294 8.2076,8.5824 8.1766,8.5324 C8.0966,8.4774 8.0206,8.4104 7.9556,8.3254 C7.0196,7.1164 6.6366,6.5824 6.3506,6.1854 C6.2986,6.1174 6.2476,6.0524 6.1936,5.9794 C5.7766,5.4194 5.7846,5.4204 5.7916,5.4314 C5.8486,5.5184 5.9416,5.6244 6.1016,5.8414 C6.1836,5.9534 6.2636,6.0634 6.3506,6.1854 C7.0896,7.1484 7.6616,7.6964 8.1766,8.5324 C8.9826,9.0834 10.4376,8.2184 10.8216,7.2514 C10.7906,7.0134 10.8096,6.7764 10.8816,6.5514 C10.8466,6.4154 10.7906,6.2824 10.6876,6.1594 C10.4096,5.8274 10.1936,5.5764 10.0056,5.3604 C9.4316,4.8424 8.8056,4.1164 8.2596,3.5664" id="Stroke-33" stroke="#000000" stroke-linecap="round" stroke-linejoin="round"></path>
                    <path d="M7.9553,8.3258 C8.0213,8.4108 8.0963,8.4778 8.1773,8.5328 C7.6613,7.6958 7.0893,7.1478 6.3513,6.1858 C6.6363,6.5828 7.0193,7.1168 7.9553,8.3258 L7.9553,8.3258 Z" id="Stroke-35" stroke="#000000" stroke-linecap="round" stroke-linejoin="round"></path>
                    <path d="M11.1918,5.9841 C11.2528,5.9751 11.3168,5.9771 11.3698,5.9431 C12.3618,5.3191 12.7848,4.6321 12.8458,3.9521" id="Stroke-37" stroke="#000000" stroke-linecap="round" stroke-linejoin="round"></path>
                    <path d="M7.4134,16.7838 L7.0214,19.4438" id="Stroke-39" stroke="#000000" stroke-linecap="round" stroke-linejoin="round"></path>
                    <path d="M10.1785,16.2972 L11.4545,18.6642" id="Stroke-41" stroke="#000000" stroke-linecap="round" stroke-linejoin="round"></path>
                </g>
            </g>
        </g>
    </g>
</svg>