<?xml version="1.0" encoding="UTF-8" standalone="no"?>
<svg width="23px" height="24px" viewBox="0 0 23 24" version="1.1" xmlns="http://www.w3.org/2000/svg" xmlns:xlink="http://www.w3.org/1999/xlink">
    <!-- Generator: Sketch 40.3 (33839) - http://www.bohemiancoding.com/sketch -->
    <title>Disappointed</title>
    <desc>Created with Sketch.</desc>
    <defs></defs>
    <g id="Page-1" stroke="none" stroke-width="1" fill="none" fill-rule="evenodd">
        <g id="Emojis" transform="translate(-329.000000, -168.000000)">
            <g id="Black" transform="translate(134.000000, 80.000000)">
                <g id="Disappointed" transform="translate(195.000000, 88.000000)">
                    <path d="M9.3518,10.1845 C9.3518,11.0125 8.6798,11.6845 7.8518,11.6845 C7.0238,11.6845 6.3518,11.0125 6.3518,10.1845 C6.3518,9.3565 7.0238,8.6845 7.8518,8.6845 C8.6798,8.6845 9.3518,9.3565 9.3518,10.1845" id="Fill-1" fill="#000000"></path>
                    <path d="M16.6482,10.1845 C16.6482,11.0125 15.9762,11.6845 15.1482,11.6845 C14.3202,11.6845 13.6482,11.0125 13.6482,10.1845 C13.6482,9.3565 14.3202,8.6845 15.1482,8.6845 C15.9762,8.6845 16.6482,9.3565 16.6482,10.1845" id="Fill-3" fill="#000000"></path>
                    <path d="M16.7568,17.5114 C16.7568,17.5114 14.7398,14.3214 11.3868,14.3214 C8.0348,14.3214 6.2428,17.5114 6.2428,17.5114" id="Stroke-5" stroke="#000000" stroke-linecap="round"></path>
                    <path d="M22.5,0.9583 C22.5,0.7053 22.295,0.5003 22.042,0.5003 C21.789,0.5003 21.583,0.7053 21.583,0.9583 C21.583,1.8223 20.617,2.7013 18.922,3.3903 C16.886,1.5243 14.263,0.5003 11.5,0.5003 C8.737,0.5003 6.114,1.5243 4.078,3.3903 C2.383,2.7013 1.417,1.8223 1.417,0.9583 C1.417,0.7053 1.211,0.5003 0.958,0.5003 C0.705,0.5003 0.5,0.7053 0.5,0.9583 C0.5,2.7933 0.967,4.6103 1.854,6.2293 C0.967,7.8483 0.5,9.6643 0.5,11.5003 C0.5,17.5653 5.434,22.5003 11.5,22.5003 C17.566,22.5003 22.5,17.5653 22.5,11.5003 C22.5,9.6643 22.033,7.8483 21.146,6.2293 C22.033,4.6103 22.5,2.7933 22.5,0.9583 L22.5,0.9583 Z" id="Stroke-7" stroke="#000000" stroke-linejoin="round"></path>
                </g>
            </g>
        </g>
    </g>
</svg>