<?xml version="1.0" encoding="UTF-8" standalone="no"?>
<svg width="23px" height="24px" viewBox="0 0 23 24" version="1.1" xmlns="http://www.w3.org/2000/svg" xmlns:xlink="http://www.w3.org/1999/xlink">
    <!-- Generator: Sketch 40.3 (33839) - http://www.bohemiancoding.com/sketch -->
    <title>Like</title>
    <desc>Created with Sketch.</desc>
    <defs></defs>
    <g id="Page-1" stroke="none" stroke-width="1" fill="none" fill-rule="evenodd">
        <g id="Emojis" transform="translate(-134.000000, -83.000000)">
            <g id="Black" transform="translate(134.000000, 80.000000)">
                <g id="Like" transform="translate(0.000000, 3.000000)">
                    <path d="M11.5005,19.3866 C7.8535,19.3866 4.6845,17.0466 3.6145,13.5626 C3.5715,13.4236 3.5965,13.2736 3.6835,13.1556 C3.7705,13.0386 3.9075,12.9696 4.0525,12.9696 L18.9485,12.9696 C19.0935,12.9696 19.2305,13.0386 19.3165,13.1556 C19.4035,13.2736 19.4285,13.4236 19.3855,13.5626 C18.3165,17.0466 15.1475,19.3866 11.5005,19.3866 L11.5005,19.3866 Z" id="Stroke-1" stroke="#000000" stroke-linecap="round" stroke-linejoin="round"></path>
                    <path d="M22.5,0.9583 C22.5,0.7053 22.295,0.5003 22.042,0.5003 C21.789,0.5003 21.583,0.7053 21.583,0.9583 C21.583,1.8223 20.617,2.7013 18.922,3.3903 C16.886,1.5243 14.263,0.5003 11.5,0.5003 C8.737,0.5003 6.114,1.5243 4.078,3.3903 C2.383,2.7013 1.417,1.8223 1.417,0.9583 C1.417,0.7053 1.211,0.5003 0.958,0.5003 C0.705,0.5003 0.5,0.7053 0.5,0.9583 C0.5,2.7933 0.967,4.6103 1.854,6.2293 C0.967,7.8483 0.5,9.6643 0.5,11.5003 C0.5,17.5653 5.434,22.5003 11.5,22.5003 C17.566,22.5003 22.5,17.5653 22.5,11.5003 C22.5,9.6643 22.033,7.8483 21.146,6.2293 C22.033,4.6103 22.5,2.7933 22.5,0.9583 L22.5,0.9583 Z" id="Stroke-3" stroke="#000000" stroke-linecap="round" stroke-linejoin="round"></path>
                    <path d="M7.8333,10.9036 C8.0613,10.6736 9.3663,9.3566 10.1813,8.5346 C10.9113,7.7976 10.8963,6.7236 10.2323,6.0566 C9.5673,5.3906 8.4833,5.2086 7.8333,6.7236 C7.2553,5.1776 6.0993,5.3906 5.4343,6.0566 C4.7703,6.7236 4.7553,7.7976 5.4853,8.5346 C6.3003,9.3566 7.6053,10.6736 7.8333,10.9036" id="Fill-5" fill="#000000"></path>
                    <path d="M15.1666,10.9036 C15.3946,10.6736 16.6996,9.3566 17.5146,8.5346 C18.2446,7.7976 18.2296,6.7236 17.5656,6.0566 C16.9016,5.3906 15.8166,5.2086 15.1666,6.7236 C14.5886,5.1776 13.4326,5.3906 12.7676,6.0566 C12.1036,6.7236 12.0886,7.7976 12.8186,8.5346 C13.6336,9.3566 14.9386,10.6736 15.1666,10.9036" id="Fill-7" fill="#000000"></path>
                </g>
            </g>
        </g>
    </g>
</svg>