<?xml version="1.0" encoding="UTF-8" standalone="no"?>
<svg width="23px" height="24px" viewBox="0 0 23 24" version="1.1" xmlns="http://www.w3.org/2000/svg" xmlns:xlink="http://www.w3.org/1999/xlink">
    <!-- Generator: Sketch 40.3 (33839) - http://www.bohemiancoding.com/sketch -->
    <title>Open mouth</title>
    <desc>Created with Sketch.</desc>
    <defs></defs>
    <g id="Page-1" stroke="none" stroke-width="1" fill="none" fill-rule="evenodd">
        <g id="Emojis" transform="translate(-134.000000, -168.000000)">
            <g id="Black" transform="translate(134.000000, 80.000000)">
                <g id="Open-mouth" transform="translate(0.000000, 88.000000)">
                    <path d="M22.5,0.9583 C22.5,0.7053 22.295,0.5003 22.042,0.5003 C21.789,0.5003 21.583,0.7053 21.583,0.9583 C21.583,1.8223 20.617,2.7013 18.922,3.3903 C16.886,1.5243 14.263,0.5003 11.5,0.5003 C8.737,0.5003 6.114,1.5243 4.078,3.3903 C2.383,2.7013 1.417,1.8223 1.417,0.9583 C1.417,0.7053 1.211,0.5003 0.958,0.5003 C0.705,0.5003 0.5,0.7053 0.5,0.9583 C0.5,2.7933 0.967,4.6103 1.854,6.2293 C0.967,7.8483 0.5,9.6643 0.5,11.5003 C0.5,17.5653 5.434,22.5003 11.5,22.5003 C17.566,22.5003 22.5,17.5653 22.5,11.5003 C22.5,9.6643 22.033,7.8483 21.146,6.2293 C22.033,4.6103 22.5,2.7933 22.5,0.9583 L22.5,0.9583 Z" id="Stroke-1" stroke="#000000" stroke-linecap="round" stroke-linejoin="round"></path>
                    <path d="M11.2898,9.8948 C13.5428,9.8948 15.3758,13.4238 15.3758,16.2148 C15.3758,18.7508 13.8488,20.2968 11.2898,20.2968 C8.7308,20.2968 7.2038,18.7508 7.2038,16.2148 C7.2038,13.4238 9.0368,9.8948 11.2898,9.8948" id="Fill-3" fill="#000000"></path>
                    <path d="M15.2663,7.9796 C15.2663,8.8076 14.5943,9.4796 13.7663,9.4796 C12.9383,9.4796 12.2663,8.8076 12.2663,7.9796 C12.2663,7.1516 12.9383,6.4796 13.7663,6.4796 C14.5943,6.4796 15.2663,7.1516 15.2663,7.9796" id="Fill-5" fill="#000000"></path>
                    <path d="M12.1988,4.6151 C12.8608,3.5041 14.3278,3.1531 15.4648,3.8321" id="Stroke-7" stroke="#000000" stroke-linecap="round" stroke-linejoin="round"></path>
                    <path d="M7.3132,7.9796 C7.3132,8.8076 7.9852,9.4796 8.8132,9.4796 C9.6412,9.4796 10.3132,8.8076 10.3132,7.9796 C10.3132,7.1516 9.6412,6.4796 8.8132,6.4796 C7.9852,6.4796 7.3132,7.1516 7.3132,7.9796" id="Fill-9" fill="#000000"></path>
                    <path d="M10.465,4.6151 C9.803,3.5041 8.336,3.1531 7.199,3.8321" id="Stroke-11" stroke="#000000" stroke-linecap="round" stroke-linejoin="round"></path>
                </g>
            </g>
        </g>
    </g>
</svg>