<?xml version="1.0" encoding="UTF-8"?>
<svg width="24px" height="24px" viewBox="0 0 24 24" version="1.1" xmlns="http://www.w3.org/2000/svg" xmlns:xlink="http://www.w3.org/1999/xlink">
    <!-- Generator: Sketch 42 (36781) - http://www.bohemiancoding.com/sketch -->
    <title>Roar</title>
    <desc>Created with Sketch.</desc>
    <defs></defs>
    <g id="Page-1" stroke="none" stroke-width="1" fill="none" fill-rule="evenodd">
        <g id="Moods" transform="translate(-484.000000, -950.000000)">
            <g id="Black-Outline" transform="translate(477.000000, 475.250000)">
                <g id="Roar" transform="translate(8.000000, 475.750000)">
                    <path d="M22.3991,0.8466 C22.3991,0.5936 22.1941,0.3886 21.9411,0.3886 C21.6881,0.3886 21.4821,0.5936 21.4821,0.8466 C21.4821,1.7106 20.5161,2.5896 18.8211,3.2786 C16.7851,1.4126 14.1621,0.3886 11.3991,0.3886 C8.6361,0.3886 6.0131,1.4126 3.9771,3.2786 C2.2821,2.5896 1.3161,1.7106 1.3161,0.8466 C1.3161,0.5936 1.1101,0.3886 0.8571,0.3886 C0.6041,0.3886 0.3991,0.5936 0.3991,0.8466 C0.3991,2.6816 0.8661,4.4986 1.7531,6.1176 C0.8661,7.7366 0.3991,9.5526 0.3991,11.3886 C0.3991,17.4536 5.3331,22.3886 11.3991,22.3886 C17.4651,22.3886 22.3991,17.4536 22.3991,11.3886 C22.3991,9.5526 21.9321,7.7366 21.0451,6.1176 C21.9321,4.4986 22.3991,2.6816 22.3991,0.8466 L22.3991,0.8466 Z" id="Stroke-347" stroke="#000000" stroke-linejoin="round"></path>
                    <path d="M13.8999939,12 L12.8999939,13 L11.8999939,11 C11.7200899,11.0203046 11.5688789,11 11.8999939,11 C11.2311089,11 11.078916,11.0203046 10.8999939,11 L9.8999939,13 L8.8999939,12 C7.49698277,12.2550157 6.8999939,13.2441383 6.8999939,15 C6.8999939,17.0062847 8.9187589,19 11.8999939,19 C13.8812289,19 15.8999939,17.0062847 15.8999939,15 C15.8999939,13.2441383 15.303005,12.2550157 13.8999939,12" id="Fill-349" fill="#000000"></path>
                    <path d="M9.351,8.7217 C9.351,9.5497 8.679,10.2217 7.851,10.2217 C7.023,10.2217 6.351,9.5497 6.351,8.7217 C6.351,7.8937 7.023,7.2217 7.851,7.2217 C8.679,7.2217 9.351,7.8937 9.351,8.7217" id="Fill-351" fill="#000000"></path>
                    <path d="M7.0854,5.0712 L9.8634,6.6752" id="Stroke-353" stroke="#000000" stroke-linecap="round"></path>
                    <path d="M13.4473,8.7217 C13.4473,9.5497 14.1193,10.2217 14.9473,10.2217 C15.7753,10.2217 16.4473,9.5497 16.4473,8.7217 C16.4473,7.8937 15.7753,7.2217 14.9473,7.2217 C14.1193,7.2217 13.4473,7.8937 13.4473,8.7217" id="Fill-355" fill="#000000"></path>
                    <path d="M15.7128,5.0712 L12.9348,6.6752" id="Stroke-357" stroke="#000000" stroke-linecap="round"></path>
                </g>
            </g>
        </g>
    </g>
</svg>