<?xml version="1.0" encoding="UTF-8" standalone="no"?>
<svg width="23px" height="24px" viewBox="0 0 23 24" version="1.1" xmlns="http://www.w3.org/2000/svg" xmlns:xlink="http://www.w3.org/1999/xlink">
    <!-- Generator: Sketch 40.3 (33839) - http://www.bohemiancoding.com/sketch -->
    <title>Stuck out tongue</title>
    <desc>Created with Sketch.</desc>
    <defs></defs>
    <g id="Page-1" stroke="none" stroke-width="1" fill="none" fill-rule="evenodd">
        <g id="Emojis" transform="translate(-538.000000, -83.000000)">
            <g id="Black" transform="translate(134.000000, 80.000000)">
                <g id="Stuck-out-tongue" transform="translate(404.000000, 3.000000)">
                    <path d="M16.5915,9.0027 C16.5915,9.8307 15.9195,10.5027 15.0915,10.5027 C14.2635,10.5027 13.5915,9.8307 13.5915,9.0027 C13.5915,8.1747 14.2635,7.5027 15.0915,7.5027 C15.9195,7.5027 16.5915,8.1747 16.5915,9.0027" id="Fill-1" fill="#000000"></path>
                    <path d="M6.2432,13.1394 C6.2432,13.1394 8.2602,16.3294 11.6132,16.3294 C14.9652,16.3294 16.7572,13.1394 16.7572,13.1394" id="Stroke-3" stroke="#000000" stroke-linecap="round"></path>
                    <path d="M15.6769,14.2899 C15.6829,14.3219 15.6979,15.2349 15.6979,15.2679 L15.6979,17.5729 C15.6979,18.8429 14.6659,19.8779 13.3999,19.8779 C12.1329,19.8779 11.1009,18.8429 11.1009,17.5729 L11.1009,16.1119" id="Stroke-5" stroke="#000000"></path>
                    <path d="M13.4071,16.0618 L13.4071,17.6918" id="Stroke-7" stroke="#000000" stroke-linecap="round"></path>
                    <path d="M22.5,0.9583 C22.5,0.7053 22.295,0.5003 22.042,0.5003 C21.789,0.5003 21.583,0.7053 21.583,0.9583 C21.583,1.8223 20.617,2.7013 18.922,3.3903 C16.886,1.5243 14.263,0.5003 11.5,0.5003 C8.737,0.5003 6.114,1.5243 4.078,3.3903 C2.383,2.7013 1.417,1.8223 1.417,0.9583 C1.417,0.7053 1.211,0.5003 0.958,0.5003 C0.705,0.5003 0.5,0.7053 0.5,0.9583 C0.5,2.7933 0.967,4.6103 1.854,6.2293 C0.967,7.8483 0.5,9.6643 0.5,11.5003 C0.5,17.5653 5.434,22.5003 11.5,22.5003 C17.566,22.5003 22.5,17.5653 22.5,11.5003 C22.5,9.6643 22.033,7.8483 21.146,6.2293 C22.033,4.6103 22.5,2.7933 22.5,0.9583 L22.5,0.9583 Z" id="Stroke-9" stroke="#000000" stroke-linejoin="round"></path>
                    <path d="M4.6148,9.8917 L8.4328,9.8917" id="Stroke-11" stroke="#000000" stroke-linecap="round"></path>
                    <path d="M5.8297,8.2614 L8.6087,9.8654" id="Stroke-13" stroke="#000000" stroke-linecap="round"></path>
                </g>
            </g>
        </g>
    </g>
</svg>