<?xml version="1.0" encoding="UTF-8" standalone="no"?>
<svg width="28px" height="25px" viewBox="0 0 28 25" version="1.1" xmlns="http://www.w3.org/2000/svg" xmlns:xlink="http://www.w3.org/1999/xlink">
    <!-- Generator: Sketch 40.3 (33839) - http://www.bohemiancoding.com/sketch -->
    <title>Whistle</title>
    <desc>Created with Sketch.</desc>
    <defs></defs>
    <g id="Page-1" stroke="none" stroke-width="1" fill="none" fill-rule="evenodd" stroke-linecap="round" stroke-linejoin="round">
        <g id="Emojis" transform="translate(-286.000000, -83.000000)" stroke="#000000">
            <g id="Black" transform="translate(134.000000, 80.000000)">
                <g id="Whistle" transform="translate(152.000000, 3.000000)">
                    <path d="M0.9114,1.2341 C3.9054,2.0171 11.8534,4.7891 16.5664,5.9871 L15.8104,8.9471 L18.6374,9.6691 L19.3944,6.7041 C20.3364,6.9441 20.2564,6.9231 20.2564,6.9231 C24.8934,8.1071 27.7094,12.7511 26.5534,17.2791 C25.3964,21.8081 20.6754,24.5271 16.0374,23.3431 C11.4014,22.1591 8.5654,17.5101 9.7214,12.9811 C9.9604,12.0451 10.3564,11.1931 10.8664,10.4301 L0.9394,4.5671 C0.9394,4.5671 -0.0306,0.9881 0.9114,1.2341 L0.9114,1.2341 Z" id="Stroke-1"></path>
                    <path d="M23.8107,16.5289 C23.0187,19.6319 19.7827,21.4949 16.6057,20.6839" id="Stroke-3"></path>
                    <path d="M19.7529,3.6315 L21.0179,1.2585" id="Stroke-5"></path>
                    <path d="M16.9854,3.1585 L16.5804,0.4995" id="Stroke-7"></path>
                </g>
            </g>
        </g>
    </g>
</svg>