<?xml version="1.0" encoding="UTF-8" standalone="no"?>
<svg width="23px" height="24px" viewBox="0 0 23 24" version="1.1" xmlns="http://www.w3.org/2000/svg" xmlns:xlink="http://www.w3.org/1999/xlink">
    <!-- Generator: Sketch 40.3 (33839) - http://www.bohemiancoding.com/sketch -->
    <title>Wink</title>
    <desc>Created with Sketch.</desc>
    <defs></defs>
    <g id="Page-1" stroke="none" stroke-width="1" fill="none" fill-rule="evenodd">
        <g id="Emojis" transform="translate(-614.000000, -83.000000)">
            <g id="Black" transform="translate(134.000000, 80.000000)">
                <g id="Wink" transform="translate(480.000000, 3.000000)">
                    <path d="M16.9299,8.0819 C16.9299,8.9099 16.2579,9.5819 15.4299,9.5819 C14.6019,9.5819 13.9299,8.9099 13.9299,8.0819 C13.9299,7.2539 14.6019,6.5819 15.4299,6.5819 C16.2579,6.5819 16.9299,7.2539 16.9299,8.0819" id="Fill-1" fill="#000000"></path>
                    <path d="M11.5005,19.3866 C7.8535,19.3866 4.6845,17.0466 3.6145,13.5626 C3.5715,13.4236 3.5965,13.2736 3.6835,13.1556 C3.7705,13.0386 3.9075,12.9696 4.0525,12.9696 L18.9485,12.9696 C19.0935,12.9696 19.2305,13.0386 19.3165,13.1556 C19.4035,13.2736 19.4285,13.4236 19.3855,13.5626 C18.3165,17.0466 15.1475,19.3866 11.5005,19.3866 L11.5005,19.3866 Z" id="Stroke-3" stroke="#000000"></path>
                    <path d="M5.3429,8.9569 L9.1609,8.9569" id="Stroke-5" stroke="#000000" stroke-linecap="round"></path>
                    <path d="M6.5578,7.3267 L9.3368,8.9307" id="Stroke-7" stroke="#000000" stroke-linecap="round"></path>
                    <path d="M22.5,0.9583 C22.5,0.7053 22.295,0.5003 22.042,0.5003 C21.789,0.5003 21.583,0.7053 21.583,0.9583 C21.583,1.8223 20.617,2.7013 18.922,3.3903 C16.886,1.5243 14.263,0.5003 11.5,0.5003 C8.737,0.5003 6.114,1.5243 4.078,3.3903 C2.383,2.7013 1.417,1.8223 1.417,0.9583 C1.417,0.7053 1.211,0.5003 0.958,0.5003 C0.705,0.5003 0.5,0.7053 0.5,0.9583 C0.5,2.7933 0.967,4.6103 1.854,6.2293 C0.967,7.8483 0.5,9.6643 0.5,11.5003 C0.5,17.5653 5.434,22.5003 11.5,22.5003 C17.566,22.5003 22.5,17.5653 22.5,11.5003 C22.5,9.6643 22.033,7.8483 21.146,6.2293 C22.033,4.6103 22.5,2.7933 22.5,0.9583 L22.5,0.9583 Z" id="Stroke-9" stroke="#000000" stroke-linejoin="round"></path>
                </g>
            </g>
        </g>
    </g>
</svg>