<?xml version="1.0" encoding="UTF-8"?>
<svg width="14px" height="12px" viewBox="0 0 14 12" version="1.1" xmlns="http://www.w3.org/2000/svg" xmlns:xlink="http://www.w3.org/1999/xlink">
    <!-- Generator: sketchtool 40.3 (33839) - http://www.bohemiancoding.com/sketch -->
    <title>AD5C9E40-E3A8-4FA5-929B-04020AEBBD59</title>
    <desc>Created with sketchtool.</desc>
    <defs></defs>
    <g id="WEB-1440" stroke="none" stroke-width="1" fill="none" fill-rule="evenodd">
        <g id="Web-1440_Completing-Profile-Version-2---Social-&amp;-Manual" transform="translate(-884.000000, -611.000000)" fill="#757575">
            <g id="Group-4" transform="translate(735.000000, 595.000000)">
                <g id="Check" transform="translate(149.000000, 16.000000)">
                    <g id="Shape">
                        <path d="M12.723375,0.178769231 C12.4996667,-0.0573846154 12.13275,-0.0573846154 11.9088958,0.178769231 L4.68475,7.80030769 C4.46089583,8.03646154 4.094125,8.03646154 3.87027083,7.80030769 L2.09095833,5.92338462 C1.86710417,5.68723077 1.50033333,5.68723077 1.27647917,5.92338462 L0.185208333,7.07523077 C-0.0386458333,7.31138462 -0.0386458333,7.69830769 0.185208333,7.93446154 L3.87027083,11.8212308 C4.094125,12.0573846 4.46089583,12.0573846 4.68475,11.8212308 L13.8146458,2.18923077 C14.0386458,1.95292308 14.0386458,1.56615385 13.8146458,1.32984615 L12.723375,0.178769231 L12.723375,0.178769231 Z"></path>
                    </g>
                </g>
            </g>
        </g>
    </g>
</svg>