<?xml version="1.0"?>
<!--Icons from directory ""-->
<svg xmlns="http://www.w3.org/2000/svg" width="39" height="325" viewBox="0 0 39 325"><svg xmlns:xlink="http://www.w3.org/1999/xlink" height="28" width="29" version="1.1" viewBox="0 0 29 28" id="applause" y="0"><title>Applause</title><desc>Created with Sketch.</desc><g id="applause-Native-Search" stroke-linejoin="round" fill-rule="evenodd" stroke-linecap="round" fill="none"><g id="applause-1.1-copy-3" stroke="#fff" transform="translate(-906 -614)"><g id="applause-White-Outline" transform="translate(901 475.25)"><g id="applause-Applause" transform="translate(5 139)"><path id="applause-Stroke-415" d="m3.9018 19.477l-2.37 1.271"/><path id="applause-Stroke-417" d="m5.9406 21.408l-1.14 2.436"/><path id="applause-Stroke-419" d="m12.728 22.643c5.562 4.875 9.898 4.792 13.53-0.102 2.846-3.836 1.316-8.497-1.612-10.419-2.668-1.75-3.396-2.8746-4.25-1.646-0.33 0.474-0.188 1.867 0.978 3.21 1.218 1.4 1.474 1.617 1.906 2.225 0.024 0.034-0.104 0.026-0.366-0.28-2.286-2.665-5.084-5.396-6.768-6.9866-1.27-1.198-2.998 0.442-1.954 1.7766 1.31 1.674 3.728 4.355 4.126 4.839 0.182 0.221 0.356 0.51 0.35 0.512-0.012 0.006-0.034-0.061-0.562-0.582-1.058-1.046-3.976-4.356-4.902-5.146-1.2-1.0226-3.012 0.8-1.87 2.189 1.14 1.388 3.846 4.317 4.586 5.412 0.066 0.097 0.208 0.295 0.204 0.288-0.036-0.052-0.208-0.248-0.51-0.561-0.646-0.666-3.734-4.203-4.198-4.68-0.836-0.859-2.8445 0.721-1.8335 2.336 1.0115 1.614 3.4855 3.795 4.2715 4.677 0.126 0.143 0.166 0.175-0.032-0.015-0.544-0.523-3-3.133-3.46-3.555-0.6155-0.564-2.1895 0.843-1.3215 1.992 0.739 0.979 2.2855 3.287 3.6875 4.516z"/><path id="applause-Stroke-421" d="m9.682 15.785c-2.112-0.23-5.085-0.482-6.959-0.729-1.778-0.235-1.707-2.685 0.511-2.517 0.651 0.049 3.161 0.192 3.817 0.248 0.213 0.019 0.219-0.127 0.03-0.182-1.5-0.436-4.793-1.556-5.323-1.756-1.667-0.631-1.509-3.1077 0.767-2.4777 1.473 0.408 4.964 1.221 5.845 1.489 0.357 0.109 0.3 0.1477-0.027-0.032-1.16-0.639-5.352-2.623-6.074-3.01-1.652-0.885-0.69-2.968 1.121-2.183 1.039 0.451 4.678 1.857 6.157 2.383 0.345 0.123 0.316 0.139 0.011-0.064-1.494-1.001-4.742-3.273-5.497-3.769-1.317-0.865-0.438-3.363 2.14-1.597l8.933 5.102c0.25 0.156 0.766 0.422 0.86 0.391 0.022-0.008-0.176-0.443-0.782-1.25-0.656-0.875-2.526-2.938-1.526-3.875 1.131-1.061 2.438 0.041 4.151 2.172 1.788 2.222 3.183 3.432 3.183 5.244 0 0.18-0.001 0.349-0.004 0.509"/></g></g></g></g></svg><svg xmlns:xlink="http://www.w3.org/1999/xlink" height="24" width="24" version="1.1" viewBox="0 0 24 24" id="boo" y="28"><title>Boo</title><desc>Created with Sketch.</desc><g id="boo-Native-Search" fill-rule="evenodd" fill="none"><g id="boo-1.1-copy-3" transform="translate(-908 -522)"><g id="boo-White-Outline" transform="translate(901 475.25)"><g id="boo-Boo" transform="translate(8 47)"><path id="boo-Fill-215" fill="#fff" d="m9.1583 9.5677c0 0.8283-0.672 1.5003-1.5 1.5003s-1.5-0.672-1.5-1.5003c0-0.828 0.672-1.5 1.5-1.5s1.5 0.672 1.5 1.5"/><path id="boo-Stroke-217" stroke-linejoin="round" stroke="#fff" stroke-linecap="round" d="m6.8928 5.9171l2.779 1.604"/><path id="boo-Fill-219" fill="#fff" d="m13.255 9.5677c0 0.8283 0.672 1.5003 1.5 1.5003s1.5-0.672 1.5-1.5003c0-0.828-0.672-1.5-1.5-1.5s-1.5 0.672-1.5 1.5"/><path id="boo-Stroke-221" stroke-linejoin="round" stroke="#fff" stroke-linecap="round" d="m15.52 5.9171l-2.779 1.604"/><path id="boo-Stroke-223" stroke-linejoin="round" stroke="#fff" stroke-linecap="round" d="m22.206 0.851c0-0.253-0.204-0.458-0.458-0.458-0.252 0-0.458 0.205-0.458 0.458 0 0.864-0.966 1.744-2.662 2.432-2.036-1.865-4.658-2.89-7.422-2.89-2.7625 0-5.3855 1.025-7.4215 2.89-1.695-0.688-2.661-1.568-2.661-2.432 0-0.253-0.206-0.458-0.459-0.458s-0.458 0.205-0.458 0.458c0 1.835 0.467 3.652 1.354 5.271-0.887 1.619-1.354 3.436-1.354 5.271 0 6.065 4.934 11 11 11s11-4.935 11-11c0-1.835-0.468-3.652-1.354-5.271 0.886-1.619 1.354-3.436 1.354-5.271v0z"/><path id="boo-Fill-225" fill="#fff" d="m14.206 15.739c0 2.209-1.342 4-3 4-1.6565 0-2.9995-1.791-2.9995-4s1.343-4 2.9995-4c1.658 0 3 1.791 3 4"/></g></g></g></g></svg><svg xmlns:xlink="http://www.w3.org/1999/xlink" height="24" width="33" version="1.1" viewBox="0 0 33 24" id="chant" y="52"><title>Chant</title><desc>Created with Sketch.</desc><g id="chant-Native-Search" fill-rule="evenodd" fill="none"><g id="chant-1.1-copy-3" transform="translate(-904 -999)"><g id="chant-White-Outline" transform="translate(901 475.25)"><g id="chant-Chant" transform="translate(3 524)"><path id="chant-Stroke-239" stroke="#fff" stroke-linecap="round" d="m13.592 19.343c1.974 1.881 4.646 3.037 7.58 3.037 6.066 0 11-4.935 11-11 0-1.8353-0.466-3.6523-1.352-5.2713 0.886-1.619 1.352-3.436 1.352-5.271 0-0.253-0.204-0.458-0.458-0.458-0.252 0-0.458 0.205-0.458 0.458 0 0.865-0.966 1.744-2.66 2.432-2.036-1.865-4.66-2.89-7.424-2.89-2.762 0-5.386 1.025-7.422 2.89-1.694-0.688-2.66-1.567-2.66-2.432 0-0.253-0.206-0.458-0.458-0.458-0.254 0-0.46 0.205-0.46 0.458 0 1.835 0.468 3.652 1.354 5.271-0.886 1.619-1.354 3.436-1.354 5.2713 0 2.156 0.624 4.169 1.7 5.869"/><path id="chant-Stroke-241" stroke="#fff" stroke-linecap="round" d="m4.651 12.056c0.056 2.731 3.896 5.724 10.438 5.422"/><path id="chant-Fill-243" fill="#fff" d="m3.7058 1.5262v6.26c-0.626-0.261-1.454-0.177-2.17 0.221-1.096 0.61-1.594 1.759-1.112 2.5648 0.483 0.806 1.763 0.964 2.86 0.353 0.767-0.428 1.271-1.1438 1.292-1.8368 0.007-1.811 0.004-3.574 0.004-5.39 1.583 0 2.52 0.615 2.172 2.171-0.19 0.794-0.595 1.491-1.088 1.976 1.301-0.724 2.176-1.897 2.176-3.061 0-1.086-1.052-1.742-1.959-2.172-0.462-0.219-1.085-0.537-1.302-1.085h-0.874l0.001-0.001z"/><path id="chant-Fill-245" fill="#fff" d="m21.212 19.62c-1.76 0.011-4.21-2.823-4.232-6.317-0.019-3.175 2.162-2.393 4.162-2.405 1.999-0.012 4.204-0.81 4.223 2.365 0.022 3.494-2.393 6.346-4.153 6.357"/><path id="chant-Stroke-247" stroke="#fff" stroke-linecap="round" d="m19.066 7.3958c-0.984-1.815-2.719-1.476-3.74 0.022"/><path id="chant-Stroke-249" stroke="#fff" stroke-linecap="round" d="m23.326 7.3958c0.984-1.815 2.719-1.476 3.74 0.022"/></g></g></g></g></svg><svg xmlns:xlink="http://www.w3.org/1999/xlink" height="30" width="39" version="1.1" viewBox="0 0 39 30" id="cheer" y="76"><title>Cheer</title><desc>Created with Sketch.</desc><g id="cheer-Page-1" fill-rule="evenodd" fill="none"><g id="cheer-White-Outline" transform="translate(0 -186)"><g id="cheer-Cheer" transform="translate(0 186)"><g stroke-linejoin="round" stroke="#fff" stroke-linecap="round"><path id="cheer-Stroke-265" d="m37.573 13.973c0.087-0.211-0.013-0.453-0.224-0.541-0.211-0.087-0.453 0.014-0.54 0.225-0.298 0.722-1.407 1.123-3.057 1.114-1.053-2.26-2.886-4.019-5.188-4.9719-2.303-0.952-4.843-1-7.184-0.144-1.174-1.159-1.676-2.226-1.378-2.948 0.088-0.211-0.012-0.453-0.223-0.541-0.211-0.087-0.453 0.014-0.541 0.225-0.633 1.533-0.871 3.211-0.691 4.8679-1.298 1.046-2.315 2.402-2.949 3.935-2.094 5.065 0.314 10.886 5.369 12.976s10.871-0.329 12.966-5.394c0.634-1.533 0.871-3.211 0.692-4.868 1.297-1.047 2.314-2.403 2.948-3.935z"/><path id="cheer-Stroke-267" d="m24.07 15.437c0.208-2.054-1.417-2.75-3.103-2.087"/><path id="cheer-Stroke-269" d="m27.296 16.37c1.618-1.282 3.08-0.29 3.43 1.489"/></g><path id="cheer-Fill-271" fill="#fff" d="m22.857 24.363c-1.117-0.419-3.048-3.214-2.216-5.432 0.756-2.014 3.174-1.001 4.443-0.525s3.764 1.332 3.008 3.346c-0.833 2.218-4.118 3.03-5.235 2.611"/><g stroke-linejoin="round" stroke="#fff" stroke-linecap="round"><path id="cheer-Stroke-273" d="m3.42 7.2701c0.013 0.015 0.064 0.071 0.109 0.12-0.01-0.01-0.018-0.021-0.027-0.031-0.074-0.083-0.087-0.095-0.082-0.089z"/><path id="cheer-Stroke-275" d="m10.005 5.3492c0.188 0.216 0.404 0.467 0.682 0.798 0.103 0.123 0.159 0.256 0.194 0.393 0.048-0.151 0.111-0.297 0.208-0.428l0.102-0.14c-0.32 0.047-0.733-0.214-1.186-0.623z"/><path id="cheer-Stroke-277" d="m4.0887 8.0575c-0.017-0.021-0.034-0.042-0.05-0.062 0.016 0.02 0.033 0.041 0.05 0.062z"/><path id="cheer-Stroke-279" d="m3.8256 7.7354c-0.034-0.04-0.069-0.081-0.104-0.122 0.034 0.04 0.065 0.076 0.104 0.122z"/><path id="cheer-Stroke-281" d="m5.7914 5.4197c-0.007-0.011-0.015-0.012 0.402 0.549 0.054 0.073 0.105 0.137 0.158 0.206-0.088-0.123-0.168-0.233-0.25-0.345-0.16-0.217-0.253-0.323-0.31-0.41z"/><path id="cheer-Stroke-283" d="m11.568 8.5039c-0.43-0.324-0.683-0.791-0.746-1.264-0.384 0.967-1.8403 1.832-2.6453 1.281 0.031 0.05 0.062 0.097 0.093 0.149 0.572 0.983-1.666 2.7251-2.457 1.6861-0.063-0.083-0.118-0.157-0.178-0.236 0.391 0.646-0.8 1.708-1.993 1.937 1.729 1.947 5.048 2.079 7.6763 0.197 1.522-1.089 2.485-2.6181 2.78-4.1531l-0.132 0.18c-0.528 0.719-1.607 0.819-2.398 0.223z"/><path id="cheer-Stroke-285" d="m14.098 8.1011l1.586-2.16c0.528-0.72 0.313-1.796-0.478-2.392-0.77-0.581-1.81-0.496-2.351 0.172"/><path id="cheer-Stroke-287" d="m12.854 3.7212c-0.023-1.002-0.794-1.975-1.679-2.695-1.091-0.887-3.6786-0.98-7.4466 2.111-2.791 2.29-4.752 5.185-1.648 8.5198 0.4 0.429 0.981 0.511 1.561 0.4"/><path id="cheer-Stroke-289" d="m3.8256 7.7354c0.073 0.087 0.144 0.174 0.213 0.26-0.044-0.055-0.095-0.12-0.136-0.17-0.031-0.038-0.049-0.056-0.077-0.09z"/><path id="cheer-Stroke-291" d="m3.7219 7.6135c-0.08-0.093-0.144-0.169-0.193-0.223 0.067 0.076 0.13 0.15 0.193 0.223z"/><path id="cheer-Stroke-293" d="m4.0887 8.0575c0.474 0.595 0.897 1.2 1.546 2.0625 0-0.002 0-0.004-0.001-0.006-0.296-0.4775-1.005-1.3855-1.545-2.0565z"/><path id="cheer-Stroke-295" d="m9.0519 4.3197c0.069 0.108 0.174 0.137 0.9531 1.03 0.453 0.409 0.867 0.669 1.187 0.623"/><path id="cheer-Stroke-297" d="m3.6416 12.057c1.193-0.229 2.384-1.291 1.994-1.937-0.65-0.8621-1.073-1.4681-1.547-2.0621-0.017-0.021-0.034-0.043-0.05-0.063-0.069-0.086-0.14-0.172-0.213-0.26-0.038-0.046-0.07-0.082-0.104-0.121-0.062-0.074-0.126-0.148-0.193-0.223-0.044-0.05-0.095-0.105-0.109-0.121-0.005-0.006 0.009 0.007 0.082 0.089 0.01 0.011 0.018 0.021 0.027 0.032 0.05 0.054 0.113 0.13 0.193 0.223 0.035 0.04 0.071 0.081 0.104 0.121 0.028 0.035 0.046 0.053 0.077 0.09 0.041 0.051 0.092 0.116 0.136 0.17 0.017 0.021 0.034 0.042 0.05 0.063 0.54 0.67 1.249 1.578 1.545 2.0571 0.001 0.002 0.001 0.003 0.002 0.005 0.059 0.079 0.114 0.153 0.178 0.236 0.79 1.04 3.028-0.7031 2.456-1.6861-0.031-0.052-0.062-0.099-0.093-0.149-0.08-0.055-0.156-0.122-0.221-0.207-0.936-1.209-1.319-1.743-1.605-2.14-0.052-0.068-0.103-0.133-0.157-0.206-0.417-0.56-0.409-0.559-0.402-0.548 0.057 0.087 0.15 0.193 0.31 0.41 0.082 0.112 0.162 0.222 0.249 0.344 0.739 0.963 1.311 1.511 1.826 2.347 0.806 0.551 2.2614-0.314 2.6454-1.281-0.031-0.238-0.012-0.475 0.06-0.7-0.035-0.136-0.091-0.269-0.194-0.392-0.278-0.332-0.494-0.583-0.682-0.799-0.5744-0.518-1.2004-1.244-1.7464-1.794"/><path id="cheer-Stroke-299" d="m7.9553 8.3143c0.066 0.085 0.141 0.152 0.222 0.207-0.516-0.837-1.088-1.385-1.826-2.347 0.285 0.397 0.668 0.931 1.604 2.14z"/><path id="cheer-Stroke-301" d="m11.192 5.9725c0.061-0.009 0.125-0.007 0.178-0.041 0.992-0.624 1.415-1.31 1.476-1.991"/><path id="cheer-Stroke-303" d="m7.3912 16.772l-0.392 2.66"/><path id="cheer-Stroke-305" d="m10.156 16.286l1.276 2.367"/></g></g></g></g></svg><svg xmlns:xlink="http://www.w3.org/1999/xlink" height="27" width="36" version="1.1" viewBox="0 0 36 27" id="cheerio" y="106"><title>Cheerio</title><desc>Created with Sketch.</desc><g id="cheerio-Page-1" fill-rule="evenodd" fill="none"><g id="cheerio-White-Outline" transform="translate(-1 -570)"><g id="cheerio-Cheerio" transform="translate(2 571)"><path id="cheerio-Stroke-441" stroke="#fff" stroke-linecap="round" d="m4.9837 19.422c-0.993-1.446-3.117-3.716-4.614-5.836-1.049-1.486 0.825-3.12 2.227-1.352 0.412 0.519 2.034 2.488 2.443 3.015 0.133 0.171 0.246 0.075 0.157-0.103-0.708-1.417-2.141-4.643-2.357-5.1761-0.678-1.676 1.277-3.264 2.375-1.134 0.71 1.3781 2.508 4.5391 2.914 5.3801 0.165 0.342 0.097 0.326 0.006-0.042-0.322-1.304-1.73-5.7941-1.939-6.5981-0.478-1.84 1.736-2.558 2.398-0.668 0.38 1.085 1.8383 4.7641 2.4643 6.2281 0.146 0.342 0.114 0.332 0.056-0.035-0.284-1.802-0.826-5.7871-0.977-6.6911-0.2623-1.578 2.204-2.642 2.664 0.495l2.349 10.169c0.055 0.294 0.212 0.861 0.3 0.91 0.021 0.011 0.209-0.437 0.394-1.443 0.2-1.092 0.449-3.905 1.836-3.806 1.569 0.113 1.648 1.846 1.24 4.589-0.425 2.862-1.204 4.018-2.293 5.34-1.539 1.869-3.981 2.799-7.3313 1.303-1.996-0.891-2.78-2.313-4.312-4.545v0z"/><path id="cheerio-Fill-443" fill="#fff" d="m21.23 9.0939c-0.107 0.762-0.811 1.2941-1.571 1.1871-0.761-0.107-1.291-0.8111-1.184-1.5741 0.107-0.762 0.81-1.294 1.571-1.187s1.291 0.812 1.184 1.574"/><path id="cheerio-Fill-445" fill="#fff" d="m27.932 10.034c-0.108 0.762-0.812 1.294-1.572 1.187s-1.29-0.811-1.184-1.5737c0.108-0.762 0.81-1.293 1.572-1.187 0.76 0.107 1.29 0.812 1.184 1.5737"/><path id="cheerio-Stroke-447" stroke="#fff" stroke-linecap="round" d="m19.274 15.55c0.724 0.689 1.705 1.322 2.957 1.498 3.08 0.432 5.137-2.273 5.137-2.273"/><path id="cheerio-Stroke-449" stroke="#fff" stroke-linecap="round" d="m17.953 20.623c1.059 0.586 2.24 0.991 3.507 1.169 5.571 0.782 10.74-3.123 11.524-8.705 0.237-1.689 0.042-3.4214-0.563-5.0254 1.023-1.375 1.687-2.987 1.924-4.676 0.033-0.233-0.129-0.448-0.362-0.481-0.232-0.032-0.447 0.13-0.48 0.363-0.111 0.795-1.112 1.48-2.758 1.895-1.629-1.979-3.906-3.26-6.444-3.617-2.537-0.356-5.079 0.249-7.19 1.704-1.468-0.852-2.242-1.786-2.13-2.581 0.033-0.233-0.129-0.449-0.362-0.481-0.232-0.033-0.447 0.13-0.48 0.362-0.237 1.689-0.042 3.422 0.563 5.026-0.667 0.895-1.181 1.892-1.524 2.944"/></g></g></g></svg><svg xmlns:xlink="http://www.w3.org/1999/xlink" height="24" width="24" version="1.1" viewBox="0 0 24 24" id="disappointed" y="133"><title>Disappointed</title><desc>Created with Sketch.</desc><g id="disappointed-Native-Search" fill-rule="evenodd" fill="none"><g id="disappointed-1.1-copy-3" transform="translate(-908 -855)"><g id="disappointed-White-Outline" transform="translate(901 475.25)"><g id="disappointed-Disappointed" transform="translate(8 380)"><path id="disappointed-Fill-107" fill="#fff" d="m9.0582 10.081c0 0.828-0.672 1.5-1.5 1.5s-1.5-0.672-1.5-1.5c0-0.8276 0.672-1.4996 1.5-1.4996s1.5 0.672 1.5 1.4996"/><path id="disappointed-Fill-109" fill="#fff" d="m16.355 10.081c0 0.828-0.672 1.5-1.5 1.5s-1.5-0.672-1.5-1.5c0-0.8276 0.672-1.4996 1.5-1.4996s1.5 0.672 1.5 1.4996"/><path id="disappointed-Stroke-111" stroke="#fff" stroke-linecap="round" d="m16.463 17.408s-2.017-3.19-5.37-3.19c-3.3518 0-5.1438 3.19-5.1438 3.19"/><path id="disappointed-Stroke-113" stroke-linejoin="round" stroke="#fff" d="m22.206 0.8552c0-0.253-0.204-0.458-0.458-0.458-0.252 0-0.458 0.205-0.458 0.458 0 0.865-0.966 1.744-2.662 2.432-2.036-1.865-4.658-2.89-7.422-2.89-2.7625 0-5.3855 1.025-7.4215 2.89-1.695-0.688-2.661-1.567-2.661-2.432 0-0.253-0.206-0.458-0.459-0.458s-0.458 0.205-0.458 0.458c0 1.835 0.467 3.652 1.354 5.271-0.887 1.619-1.354 3.436-1.354 5.2708 0 6.065 4.934 11 11 11s11-4.935 11-11c0-1.8348-0.468-3.6518-1.354-5.2708 0.886-1.619 1.354-3.436 1.354-5.271z"/></g></g></g></g></svg><svg xmlns:xlink="http://www.w3.org/1999/xlink" height="24" width="24" version="1.1" viewBox="0 0 24 24" id="gloat" y="157"><title>Gloat</title><desc>Created with Sketch.</desc><g id="gloat-Native-Search" fill-rule="evenodd" fill="none"><g id="gloat-1.1-copy-3" transform="translate(-908 -903)"><g id="gloat-White-Outline" transform="translate(901 475.25)"><g id="gloat-Gloat" transform="translate(8 428)"><path id="gloat-Stroke-63" stroke="#fff" d="m11.207 19.56c-3.6471 0-6.8161-2.34-7.8861-5.824-0.043-0.139-0.018-0.289 0.069-0.407 0.087-0.117 0.224-0.186 0.369-0.186h14.896c0.145 0 0.282 0.069 0.368 0.186 0.087 0.118 0.112 0.268 0.069 0.407-1.069 3.484-4.238 5.824-7.885 5.824z"/><path id="gloat-Fill-65" fill="#fff" d="m9.1583 9.5677c0 0.8283-0.672 1.5003-1.5 1.5003s-1.5-0.672-1.5-1.5003c0-0.828 0.672-1.5 1.5-1.5s1.5 0.672 1.5 1.5"/><path id="gloat-Stroke-67" stroke="#fff" stroke-linecap="round" d="m6.8928 5.9171l2.779 1.604"/><path id="gloat-Fill-69" fill="#fff" d="m13.255 9.5677c0 0.8283 0.672 1.5003 1.5 1.5003s1.5-0.672 1.5-1.5003c0-0.828-0.672-1.5-1.5-1.5s-1.5 0.672-1.5 1.5"/><path id="gloat-Stroke-71" stroke="#fff" stroke-linecap="round" d="m15.52 5.9171l-2.779 1.604"/><path id="gloat-Stroke-73" stroke-linejoin="round" stroke="#fff" d="m22.206 0.851c0-0.253-0.204-0.458-0.458-0.458-0.252 0-0.458 0.205-0.458 0.458 0 0.864-0.966 1.744-2.662 2.432-2.036-1.865-4.658-2.89-7.422-2.89-2.7625 0-5.3855 1.025-7.4215 2.89-1.695-0.688-2.661-1.568-2.661-2.432 0-0.253-0.206-0.458-0.459-0.458s-0.458 0.205-0.458 0.458c0 1.835 0.467 3.652 1.354 5.271-0.887 1.619-1.354 3.436-1.354 5.271 0 6.065 4.934 11 11 11s11-4.935 11-11c0-1.835-0.468-3.652-1.354-5.271 0.886-1.619 1.354-3.436 1.354-5.271z"/></g></g></g></g></svg><svg xmlns:xlink="http://www.w3.org/1999/xlink" height="24" width="24" version="1.1" viewBox="0 0 24 24" id="like" y="181"><title>Like</title><desc>Created with Sketch.</desc><g id="like-Native-Search" fill-rule="evenodd" fill="none"><g id="like-1.1-copy-3" transform="translate(-908 -475)"><g id="like-White-Outline" transform="translate(901 475.25)"><g id="like-Like" transform="translate(8)"><path id="like-Stroke-251" stroke-linejoin="round" stroke="#fff" stroke-linecap="round" d="m11.207 19.587c-3.6471 0-6.8161-2.34-7.8861-5.824-0.043-0.139-0.018-0.289 0.069-0.407 0.087-0.117 0.224-0.186 0.369-0.186h14.896c0.145 0 0.282 0.069 0.368 0.186 0.087 0.118 0.112 0.268 0.069 0.407-1.069 3.484-4.238 5.824-7.885 5.824v0z"/><path id="like-Stroke-253" stroke-linejoin="round" stroke="#fff" stroke-linecap="round" d="m22.206 1.1591c0-0.253-0.204-0.458-0.458-0.458-0.252 0-0.458 0.205-0.458 0.458 0 0.864-0.966 1.744-2.662 2.432-2.036-1.865-4.658-2.89-7.422-2.89-2.7625 0-5.3855 1.025-7.4215 2.89-1.695-0.688-2.661-1.568-2.661-2.432 0-0.253-0.206-0.458-0.459-0.458s-0.458 0.205-0.458 0.458c0 1.835 0.467 3.652 1.354 5.271-0.887 1.619-1.354 3.436-1.354 5.2709 0 6.065 4.934 11 11 11s11-4.935 11-11c0-1.8349-0.468-3.6519-1.354-5.2709 0.886-1.619 1.354-3.436 1.354-5.271v0z"/><path id="like-Fill-255" fill="#fff" d="m7.5397 11.104c0.228-0.23 1.533-1.5466 2.348-2.3686 0.7303-0.737 0.7153-1.811 0.051-2.478-0.665-0.666-1.749-0.848-2.399 0.667-0.578-1.546-1.734-1.333-2.399-0.667-0.664 0.667-0.679 1.741 0.051 2.478 0.815 0.822 2.12 2.1386 2.348 2.3686"/><path id="like-Fill-257" fill="#fff" d="m14.873 11.104c0.228-0.23 1.533-1.5466 2.348-2.3686 0.73-0.737 0.715-1.811 0.051-2.478-0.665-0.666-1.749-0.848-2.399 0.667-0.578-1.546-1.734-1.333-2.399-0.667-0.664 0.667-0.679 1.741 0.051 2.478 0.815 0.822 2.12 2.1386 2.348 2.3686"/></g></g></g></g></svg><svg xmlns:xlink="http://www.w3.org/1999/xlink" height="24" width="24" version="1.1" viewBox="0 0 24 24" id="open-mouth" y="205"><title>Open Mouth</title><desc>Created with Sketch.</desc><g id="open-mouth-Native-Search" fill-rule="evenodd" fill="none"><g id="open-mouth-1.1-copy-3" transform="translate(-908 -802)"><g id="open-mouth-White-Outline" transform="translate(901 475.25)"><g id="open-mouth-Open-Mouth" transform="translate(8 328)"><path id="open-mouth-Stroke-175" stroke-linejoin="round" stroke="#fff" stroke-linecap="round" d="m22.206 0.5262c0-0.253-0.204-0.458-0.458-0.458-0.252 0-0.458 0.205-0.458 0.458 0 0.865-0.966 1.744-2.662 2.432-2.036-1.865-4.658-2.89-7.422-2.89-2.7625 0-5.3855 1.025-7.4215 2.89-1.695-0.688-2.661-1.567-2.661-2.432 0-0.253-0.206-0.458-0.459-0.458s-0.458 0.205-0.458 0.458c0 1.835 0.467 3.652 1.354 5.271-0.887 1.619-1.354 3.436-1.354 5.2708 0 6.065 4.934 11 11 11s11-4.935 11-11c0-1.8348-0.468-3.6518-1.354-5.2708 0.886-1.619 1.354-3.436 1.354-5.271v0z"/><path id="open-mouth-Fill-177" fill="#fff" d="m10.996 9.4628c2.253 0 4.086 3.5292 4.086 6.3202 0 2.536-1.527 4.082-4.086 4.082-2.5588 0-4.0858-1.546-4.0858-4.082 0-2.791 1.833-6.3202 4.0858-6.3202"/><path id="open-mouth-Fill-179" fill="#fff" d="m14.973 7.5476c0 0.828-0.672 1.5-1.5 1.5s-1.5-0.672-1.5-1.5 0.672-1.5 1.5-1.5 1.5 0.672 1.5 1.5"/><path id="open-mouth-Stroke-181" stroke-linejoin="round" stroke="#fff" stroke-linecap="round" d="m11.928 4.1831c0.662-1.111 2.128-1.462 3.266-0.783"/><path id="open-mouth-Fill-183" fill="#fff" d="m7.0197 7.5476c0 0.828 0.672 1.5 1.5 1.5s1.5003-0.672 1.5003-1.5-0.6723-1.5-1.5003-1.5-1.5 0.672-1.5 1.5"/><path id="open-mouth-Stroke-185" stroke-linejoin="round" stroke="#fff" stroke-linecap="round" d="m10.194 4.1831c-0.6623-1.111-2.1293-1.462-3.2663-0.783"/></g></g></g></g></svg><svg xmlns:xlink="http://www.w3.org/1999/xlink" height="24" width="24" version="1.1" viewBox="0 0 24 24" id="roar" y="229"><title>Roar</title><desc>Created with Sketch.</desc><g id="roar-Native-Search" fill-rule="evenodd" fill="none"><g id="roar-1.1-copy-3" transform="translate(-908 -951)"><g id="roar-White-Outline" transform="translate(901 475.25)"><g id="roar-Roar" transform="translate(8 476)"><path id="roar-Stroke-123" stroke-linejoin="round" stroke="#fff" d="m22.051 0.8466c0-0.253-0.205-0.458-0.458-0.458s-0.459 0.205-0.459 0.458c0 0.864-0.966 1.743-2.661 2.432-2.036-1.866-4.659-2.89-7.422-2.89s-5.386 1.024-7.422 2.89c-1.695-0.689-2.661-1.568-2.661-2.432 0-0.253-0.206-0.458-0.459-0.458s-0.458 0.205-0.458 0.458c0 1.835 0.467 3.652 1.354 5.271-0.887 1.619-1.354 3.435-1.354 5.2714 0 6.065 4.934 11 11 11s11-4.935 11-11c0-1.8364-0.467-3.6524-1.354-5.2714 0.887-1.619 1.354-3.436 1.354-5.271z"/><path id="roar-Fill-125" fill="#fff" d="m13.64 11.353l-1.016 1.734-1.394-2.38c-0.164-0.01-0.318-0.031-0.49-0.031s-0.327 0.021-0.49 0.031l-1.3948 2.38-1.016-1.734c-1.074 0.621-1.682 1.644-1.682 3 0 2.535 2.056 4.597 4.5828 4.597 2.527 0 4.583-2.062 4.583-4.597 0-1.356-0.608-2.379-1.683-3"/><path id="roar-Fill-127" fill="#fff" d="m9.0028 8.7217c0 0.828-0.672 1.5003-1.5 1.5003s-1.5-0.6723-1.5-1.5003 0.672-1.5 1.5-1.5 1.5 0.672 1.5 1.5"/><path id="roar-Stroke-129" stroke="#fff" stroke-linecap="round" d="m6.7373 5.0712l2.779 1.604"/><path id="roar-Fill-131" fill="#fff" d="m13.099 8.7217c0 0.828 0.672 1.5003 1.5 1.5003s1.5-0.6723 1.5-1.5003-0.672-1.5-1.5-1.5-1.5 0.672-1.5 1.5"/><path id="roar-Stroke-133" stroke="#fff" stroke-linecap="round" d="m15.365 5.0712l-2.779 1.604"/></g></g></g></g></svg><svg xmlns:xlink="http://www.w3.org/1999/xlink" height="24" width="24" version="1.1" viewBox="0 0 24 24" id="stuck-out-tongue" y="253"><title>Tongue</title><desc>Created with Sketch.</desc><g id="stuck-out-tongue-Native-Search" fill-rule="evenodd" fill="none"><g id="stuck-out-tongue-1.1-copy-3" transform="translate(-908 -713)"><g id="stuck-out-tongue-White-Outline" transform="translate(901 475.25)"><g id="stuck-out-tongue-Tongue" transform="translate(8 238)"><path id="stuck-out-tongue-Fill-147" fill="#fff" d="m16.298 9.246c0 0.828-0.672 1.5-1.5 1.5s-1.5-0.672-1.5-1.5 0.672-1.5 1.5-1.5 1.5 0.672 1.5 1.5"/><g stroke="#fff"><path id="stuck-out-tongue-Stroke-149" stroke-linecap="round" d="m5.9496 13.383s2.017 3.19 5.3704 3.19c3.352 0 5.144-3.19 5.144-3.19"/><path id="stuck-out-tongue-Stroke-151" d="m15.383 14.533c0.006 0.032 0.021 0.945 0.021 0.978v2.305c0 1.27-1.032 2.305-2.298 2.305-1.267 0-2.299-1.035-2.299-2.305v-1.461"/><path id="stuck-out-tongue-Stroke-153" stroke-linecap="round" d="m13.114 16.305v1.63"/><path id="stuck-out-tongue-Stroke-155" stroke-linejoin="round" d="m22.206 1.2017c0-0.253-0.204-0.458-0.458-0.458-0.252 0-0.458 0.205-0.458 0.458 0 0.864-0.966 1.743-2.662 2.432-2.036-1.865-4.658-2.89-7.422-2.89-2.7625 0-5.3855 1.025-7.4215 2.89-1.695-0.689-2.661-1.568-2.661-2.432 0-0.253-0.206-0.458-0.459-0.458s-0.458 0.205-0.458 0.458c0 1.835 0.467 3.652 1.354 5.271-0.887 1.619-1.354 3.435-1.354 5.2713 0 6.065 4.934 11 11 11s11-4.935 11-11c0-1.8363-0.468-3.6523-1.354-5.2713 0.886-1.619 1.354-3.436 1.354-5.271z"/><path id="stuck-out-tongue-Stroke-157" stroke-linecap="round" d="m4.3212 10.135h3.818"/><path id="stuck-out-tongue-Stroke-159" stroke-linecap="round" d="m5.5361 8.5048l2.779 1.6042"/></g></g></g></g></g></svg><svg xmlns:xlink="http://www.w3.org/1999/xlink" height="24" width="28" version="1.1" viewBox="0 0 28 24" id="whistle" y="277"><title>Whistle</title><desc>Created with Sketch.</desc><g id="whistle-Native-Search" stroke-linejoin="round" fill-rule="evenodd" stroke-linecap="round" fill="none"><g id="whistle-1.1-copy-3" stroke="#fff" transform="translate(-906 -567)"><g id="whistle-White-Outline" transform="translate(901 475.25)"><g id="whistle-Whistle" transform="translate(5 91)"><path id="whistle-Stroke-199" d="m1.2251 1.597c2.994 0.783 10.942 3.555 15.655 4.753l-0.756 2.96 2.827 0.722 0.757-2.965c0.942 0.24 0.862 0.219 0.862 0.219 4.637 1.184 7.453 5.828 6.297 10.356-1.157 4.529-5.878 7.248-10.516 6.064-4.636-1.185-7.4719-5.833-6.316-10.362 0.239-0.936 0.635-1.788 1.145-2.551l-9.9269-5.863s-0.97-3.579-0.028-3.333z"/><path id="whistle-Stroke-201" d="m24.124 16.892c-0.792 3.103-4.028 4.966-7.204 4.155"/><path id="whistle-Stroke-203" d="m20.044 3.9944l1.265-2.373"/><path id="whistle-Stroke-205" d="m17.277 3.5215l-0.405-2.659"/></g></g></g></g></svg><svg xmlns:xlink="http://www.w3.org/1999/xlink" height="24" width="24" version="1.1" viewBox="0 0 24 24" id="wink" y="301"><title>Wink</title><desc>Created with Sketch.</desc><g id="wink-Native-Search" fill-rule="evenodd" fill="none"><g id="wink-1.1-copy-3" transform="translate(-908 -759)"><g id="wink-White-Outline" transform="translate(901 475.25)"><g id="wink-Wink" transform="translate(8 284)"><path id="wink-Fill-87" fill="#fff" d="m16.636 7.9875c0 0.828-0.672 1.5-1.5 1.5s-1.5-0.672-1.5-1.5 0.672-1.5 1.5-1.5 1.5 0.672 1.5 1.5"/><g stroke="#fff"><path id="wink-Stroke-89" d="m11.207 19.292c-3.6471 0-6.8161-2.34-7.8861-5.824-0.043-0.139-0.018-0.289 0.069-0.407 0.087-0.117 0.224-0.186 0.369-0.186h14.896c0.145 0 0.282 0.069 0.368 0.186 0.087 0.118 0.112 0.268 0.069 0.407-1.069 3.484-4.238 5.824-7.885 5.824z"/><path id="wink-Stroke-91" stroke-linecap="round" d="m5.0493 8.8625h3.818"/><path id="wink-Stroke-93" stroke-linecap="round" d="m6.2643 7.2323l2.779 1.604"/><path id="wink-Stroke-95" stroke-linejoin="round" d="m22.206 0.864c0-0.253-0.204-0.458-0.458-0.458-0.252 0-0.458 0.205-0.458 0.458 0 0.864-0.966 1.743-2.662 2.432-2.036-1.866-4.658-2.89-7.422-2.89-2.7625 0-5.3855 1.024-7.4215 2.89-1.695-0.689-2.661-1.568-2.661-2.432 0-0.253-0.206-0.458-0.459-0.458s-0.458 0.205-0.458 0.458c0 1.835 0.467 3.652 1.354 5.271-0.887 1.619-1.354 3.435-1.354 5.271 0 6.065 4.934 11 11 11s11-4.935 11-11c0-1.836-0.468-3.652-1.354-5.271 0.886-1.619 1.354-3.436 1.354-5.271z"/></g></g></g></g></g></svg></svg>
