<?xml version="1.0"?>
<!--Icons from directory ""-->
<svg xmlns="http://www.w3.org/2000/svg" width="39" height="324" viewBox="0 0 39 324"><svg xmlns:xlink="http://www.w3.org/1999/xlink" height="28" width="29" version="1.1" viewBox="0 0 29 28" id="applause" y="0"><title>Applause</title><desc>Created with Sketch.</desc><g id="applause-Page-1" stroke-linejoin="round" fill-rule="evenodd" stroke-linecap="round" fill="none"><g id="applause-Emojis" stroke="#000" transform="translate(-366 -80)"><g id="applause-Black" transform="translate(134 80)"><g id="applause-Applause" transform="translate(232 1)"><path id="applause-Stroke-1" d="m3.7593 19.006l-2.37 1.271"/><path id="applause-Stroke-3" d="m5.7981 20.936l-1.14 2.436"/><g id="applause-Group-8" transform="translate(0 .28510)"><path id="applause-Stroke-4" d="m12.586 21.887c5.562 4.875 9.898 4.792 13.529-0.102 2.846-3.836 1.317-8.497-1.612-10.419-2.667-1.7498-3.396-2.8748-4.25-1.6458-0.329 0.4738-0.188 1.8668 0.979 3.2098 1.218 1.4 1.473 1.617 1.906 2.225 0.024 0.033-0.105 0.026-0.367-0.28-2.285-2.665-5.083-5.3958-6.768-6.9868-1.27-1.198-2.997 0.442-1.953 1.777 1.309 1.6728 3.727 4.3548 4.125 4.8388 0.182 0.221 0.356 0.51 0.35 0.512-0.012 0.006-0.034-0.061-0.561-0.582-1.058-1.046-3.977-4.356-4.902-5.1458-1.2-1.023-3.012 0.7998-1.871 2.1888 1.141 1.388 3.847 4.317 4.587 5.412 0.066 0.096 0.208 0.295 0.203 0.288-0.036-0.052-0.207-0.248-0.51-0.561-0.645-0.666-3.733-4.203-4.197-4.68-0.836-0.859-2.845 0.721-1.834 2.336 1.012 1.614 3.485 3.795 4.271 4.677 0.127 0.143 0.166 0.175-0.031-0.015-0.544-0.523-3.001-3.133-3.461-3.555-0.615-0.564-2.189 0.843-1.321 1.992 0.739 0.979 2.285 3.287 3.688 4.516z"/><path id="applause-Stroke-6" d="m9.5395 15.029c-2.112-0.23-5.085-0.482-6.959-0.73-1.778-0.234-1.707-2.684 0.511-2.516 0.651 0.049 3.161 0.192 3.817 0.248 0.213 0.019 0.219-0.127 0.03-0.182-1.5-0.436-4.793-1.556-5.323-1.756-1.667-0.631-1.509-3.108 0.767-2.478 1.473 0.408 4.964 1.221 5.845 1.489 0.357 0.109 0.3 0.148-0.027-0.032-1.16-0.639-5.352-2.623-6.074-3.01-1.652-0.885-0.69-2.968 1.121-2.183 1.039 0.451 4.678 1.857 6.157 2.383 0.345 0.123 0.316 0.139 0.011-0.065-1.494-1-4.742-3.272-5.497-3.768-1.317-0.865-0.438-3.363 2.14-1.597l8.9335 5.102c0.25 0.156 0.766 0.422 0.86 0.391 0.022-0.008-0.176-0.443-0.782-1.25-0.656-0.875-2.526-2.938-1.526-3.875 1.13-1.061 2.438 0.041 4.15 2.172 1.788 2.222 3.184 3.432 3.184 5.244 0 0.18-0.002 0.349-0.004 0.509"/></g></g></g></g></g></svg><svg xmlns:xlink="http://www.w3.org/1999/xlink" height="24" width="23" version="1.1" viewBox="0 0 23 24" id="boo" y="28"><title>Boo</title><desc>Created with Sketch.</desc><g id="boo-Page-1" fill-rule="evenodd" fill="none"><g id="boo-Emojis" transform="translate(-210 -83)"><g id="boo-Black" transform="translate(134 80)"><g id="boo-Boo" transform="translate(76 3)"><path id="boo-Fill-1" fill="#000" d="m9.4518 9.6751c0 0.8279-0.672 1.4999-1.5 1.4999s-1.5-0.672-1.5-1.4999c0-0.828 0.672-1.5 1.5-1.5s1.5 0.672 1.5 1.5"/><path id="boo-Stroke-3" stroke-linejoin="round" stroke="#000" stroke-linecap="round" d="m7.1863 6.0245l2.778 1.604"/><path id="boo-Fill-5" fill="#000" d="m13.548 9.6751c0 0.8279 0.672 1.4999 1.5 1.4999s1.5-0.672 1.5-1.4999c0-0.828-0.672-1.5-1.5-1.5s-1.5 0.672-1.5 1.5"/><path id="boo-Stroke-7" stroke-linejoin="round" stroke="#000" stroke-linecap="round" d="m15.814 6.0245l-2.778 1.604"/><path id="boo-Stroke-9" stroke-linejoin="round" stroke="#000" stroke-linecap="round" d="m22.5 0.9583c0-0.253-0.205-0.458-0.458-0.458s-0.459 0.205-0.459 0.458c0 0.864-0.966 1.743-2.661 2.432-2.036-1.866-4.659-2.89-7.422-2.89s-5.386 1.024-7.422 2.89c-1.695-0.689-2.661-1.568-2.661-2.432 0-0.253-0.206-0.458-0.459-0.458s-0.458 0.205-0.458 0.458c0 1.835 0.467 3.652 1.354 5.271-0.887 1.619-1.354 3.435-1.354 5.2707 0 6.065 4.934 11 11 11s11-4.935 11-11c0-1.8357-0.467-3.6517-1.354-5.2707 0.887-1.619 1.354-3.436 1.354-5.271v0z"/><path id="boo-Fill-11" fill="#000" d="m14.5 15.846c0 2.21-1.343 4-3 4s-3-1.79-3-4c0-2.208 1.343-4 3-4s3 1.792 3 4"/></g></g></g></g></svg><svg xmlns:xlink="http://www.w3.org/1999/xlink" height="23" width="33" version="1.1" viewBox="0 0 33 23" id="chant" y="52"><title>Chant</title><desc>Created with Sketch.</desc><defs><polygon id="chant-path-1" points="0 0.6466 0 10.418 7.5998 10.418 7.5998 0.6466 6.7763e-21 0.6466"/></defs><g id="chant-Page-1" fill-rule="evenodd" fill="none"><g id="chant-Emojis" transform="translate(-227 -168)"><g id="chant-Black" transform="translate(134 80)"><g id="chant-Chant" transform="translate(93 88)"><path id="chant-Stroke-1" stroke="#000" stroke-linecap="round" d="m13.352 19.463c1.975 1.881 4.645 3.037 7.581 3.037 6.066 0 11-4.935 11-11 0-1.8349-0.467-3.6519-1.354-5.2709 0.887-1.619 1.354-3.436 1.354-5.271 0-0.253-0.205-0.458-0.458-0.458s-0.458 0.205-0.458 0.458c0 0.865-0.966 1.744-2.661 2.432-2.036-1.865-4.66-2.89-7.423-2.89-2.762 0-5.386 1.025-7.422 2.89-1.695-0.688-2.661-1.567-2.661-2.432 0-0.253-0.205-0.458-0.458-0.458s-0.4594 0.205-0.4594 0.458c0 1.835 0.4684 3.652 1.3544 5.271-0.886 1.619-1.3544 3.436-1.3544 5.2709 0 2.156 0.6244 4.169 1.7004 5.869"/><path id="chant-Stroke-3" stroke="#000" stroke-linecap="round" d="m4.3889 12.177c0.056 2.731 3.896 5.724 10.437 5.421"/><g id="chant-Group-7" transform="translate(0 1)"><mask id="chant-mask-2" fill="white"><use xlink:href="#chant-path-1"/></mask><path id="chant-Fill-5" fill="#000" mask="url(#chant-mask-2)" d="m3.4658 0.6466v6.26c-0.626-0.261-1.454-0.177-2.17 0.221-1.096 0.61-1.594 1.759-1.112 2.565 0.483 0.8064 1.763 0.9644 2.86 0.3534 0.767-0.4284 1.271-1.1444 1.292-1.8374 0.007-1.811 0.004-3.574 0.004-5.391 1.583 0 2.521 0.616 2.172 2.172-0.19 0.794-0.595 1.491-1.088 1.976 1.301-0.724 2.176-1.897 2.176-3.061 0-1.086-1.052-1.742-1.959-2.172-0.462-0.219-1.085-0.537-1.302-1.085h-0.874l0.001-0.001z"/></g><path id="chant-Fill-8" fill="#000" d="m20.972 19.74c-1.76 0.011-4.21-2.823-4.232-6.317-0.019-3.175 2.162-2.393 4.162-2.405 1.999-0.012 4.204-0.81 4.223 2.365 0.022 3.494-2.393 6.346-4.153 6.357"/><path id="chant-Stroke-10" stroke="#000" stroke-linecap="round" d="m18.803 7.5162c-0.984-1.815-2.719-1.476-3.74 0.022"/><path id="chant-Stroke-12" stroke="#000" stroke-linecap="round" d="m23.064 7.5162c0.984-1.815 2.719-1.476 3.74 0.022"/></g></g></g></g></svg><svg xmlns:xlink="http://www.w3.org/1999/xlink" height="30" width="39" version="1.1" viewBox="0 0 39 30" id="cheer" y="75"><title>Cheer</title><desc>Created with Sketch.</desc><g id="cheer-Page-1" fill-rule="evenodd" fill="none"><g id="cheer-Emojis" transform="translate(-447 -80)"><g id="cheer-Black" transform="translate(134 80)"><g id="cheer-Cheer" transform="translate(313)"><g stroke-linejoin="round" stroke="#000" stroke-linecap="round"><path id="cheer-Stroke-1" d="m37.595 13.985c0.087-0.211-0.013-0.453-0.224-0.541-0.211-0.087-0.453 0.014-0.54 0.225-0.298 0.722-1.407 1.123-3.057 1.114-1.053-2.26-2.886-4.019-5.188-4.9724-2.303-0.952-4.843-1-7.184-0.144-1.174-1.159-1.676-2.226-1.378-2.948 0.088-0.211-0.012-0.453-0.223-0.541-0.211-0.087-0.453 0.014-0.541 0.225-0.633 1.533-0.871 3.211-0.691 4.8684-1.298 1.046-2.315 2.402-2.949 3.935-2.094 5.065 0.314 10.886 5.369 12.976s10.871-0.329 12.966-5.394c0.634-1.533 0.871-3.211 0.692-4.868 1.297-1.047 2.314-2.403 2.948-3.935z"/><path id="cheer-Stroke-3" d="m24.07 15.448c0.208-2.054-1.417-2.75-3.103-2.086"/><path id="cheer-Stroke-5" d="m27.296 16.382c1.618-1.282 3.08-0.29 3.43 1.489"/></g><path id="cheer-Fill-7" fill="#000" d="m22.879 24.375c-1.117-0.419-3.048-3.214-2.216-5.432 0.756-2.014 3.174-1.001 4.443-0.525s3.764 1.332 3.008 3.346c-0.833 2.217-4.118 3.03-5.235 2.611"/><g stroke-linejoin="round" stroke="#000" stroke-linecap="round"><path id="cheer-Stroke-9" d="m3.42 7.2816c0.013 0.015 0.064 0.071 0.109 0.12-0.01-0.01-0.018-0.02-0.027-0.031-0.074-0.083-0.087-0.095-0.082-0.089z"/><path id="cheer-Stroke-11" d="m10.005 5.3608c0.188 0.216 0.404 0.466 0.682 0.798 0.103 0.123 0.159 0.256 0.194 0.393 0.048-0.151 0.111-0.297 0.208-0.428l0.102-0.14c-0.32 0.046-0.733-0.214-1.186-0.623z"/><path id="cheer-Stroke-13" d="m4.0887 8.069c-0.017-0.021-0.034-0.042-0.05-0.062 0.016 0.02 0.033 0.041 0.05 0.062z"/><path id="cheer-Stroke-15" d="m3.8256 7.7469c-0.034-0.04-0.069-0.081-0.104-0.122 0.034 0.04 0.065 0.076 0.104 0.122z"/><path id="cheer-Stroke-17" d="m5.7914 5.4312c-0.007-0.011-0.015-0.012 0.402 0.549 0.054 0.073 0.105 0.137 0.158 0.206-0.088-0.123-0.168-0.233-0.25-0.345-0.16-0.217-0.253-0.323-0.31-0.41z"/><path id="cheer-Stroke-19" d="m11.568 8.5154c-0.43-0.324-0.683-0.791-0.746-1.264-0.384 0.967-1.8403 1.832-2.6453 1.281 0.031 0.05 0.062 0.097 0.093 0.149 0.572 0.983-1.666 2.7256-2.457 1.6856-0.063-0.083-0.118-0.157-0.178-0.236 0.391 0.646-0.8 1.708-1.993 1.937 1.729 1.947 5.048 2.079 7.6763 0.197 1.522-1.089 2.485-2.6176 2.78-4.1526l-0.132 0.18c-0.528 0.719-1.607 0.819-2.398 0.223z"/><path id="cheer-Stroke-21" d="m14.098 8.1126l1.586-2.16c0.528-0.72 0.313-1.796-0.478-2.392-0.77-0.581-1.81-0.496-2.351 0.172"/><path id="cheer-Stroke-23" d="m12.854 3.7327c-0.023-1.002-0.794-1.975-1.679-2.695-1.091-0.887-3.6786-0.98-7.4466 2.111-2.791 2.29-4.752 5.185-1.648 8.5203 0.4 0.429 0.981 0.511 1.561 0.4"/><path id="cheer-Stroke-25" d="m3.8256 7.7469c0.073 0.087 0.144 0.174 0.213 0.26-0.044-0.055-0.095-0.12-0.136-0.17-0.031-0.038-0.049-0.056-0.077-0.09z"/><path id="cheer-Stroke-27" d="m3.7219 7.6251c-0.08-0.093-0.144-0.169-0.193-0.223 0.067 0.076 0.13 0.149 0.193 0.223z"/><path id="cheer-Stroke-29" d="m4.0887 8.069c0.474 0.595 0.897 1.2 1.546 2.062 0-0.001 0-0.003-0.001-0.005-0.296-0.478-1.005-1.386-1.545-2.057z"/><path id="cheer-Stroke-31" d="m9.0519 4.3312c0.069 0.108 0.174 0.137 0.9531 1.03 0.453 0.409 0.867 0.669 1.187 0.623"/><path id="cheer-Stroke-33" d="m3.6416 12.068c1.193-0.229 2.384-1.291 1.994-1.937-0.65-0.8616-1.073-1.4676-1.547-2.0616-0.017-0.021-0.034-0.043-0.05-0.063-0.069-0.086-0.14-0.172-0.213-0.26-0.038-0.046-0.07-0.082-0.104-0.121-0.062-0.074-0.126-0.148-0.193-0.223-0.044-0.05-0.095-0.105-0.109-0.121-0.005-0.006 0.009 0.007 0.082 0.089 0.01 0.011 0.018 0.021 0.027 0.032 0.05 0.054 0.113 0.13 0.193 0.223 0.035 0.04 0.071 0.081 0.104 0.121 0.028 0.035 0.046 0.053 0.077 0.09 0.041 0.051 0.092 0.116 0.136 0.17 0.017 0.021 0.034 0.042 0.05 0.063 0.54 0.67 1.249 1.578 1.545 2.0566 0.001 0.002 0.001 0.003 0.002 0.005 0.059 0.079 0.114 0.153 0.178 0.236 0.79 1.04 3.028-0.7026 2.456-1.6856-0.031-0.052-0.062-0.099-0.093-0.149-0.08-0.055-0.156-0.122-0.221-0.207-0.936-1.209-1.319-1.743-1.605-2.14-0.052-0.068-0.103-0.133-0.157-0.206-0.417-0.56-0.409-0.559-0.402-0.548 0.057 0.087 0.15 0.193 0.31 0.41 0.082 0.112 0.162 0.222 0.249 0.344 0.739 0.963 1.311 1.511 1.826 2.347 0.806 0.551 2.2614-0.314 2.6454-1.281-0.031-0.238-0.012-0.475 0.06-0.7-0.035-0.136-0.091-0.269-0.194-0.392-0.278-0.332-0.494-0.583-0.682-0.799-0.5744-0.518-1.2004-1.244-1.7464-1.794"/><path id="cheer-Stroke-35" d="m7.9553 8.3258c0.066 0.085 0.141 0.152 0.222 0.207-0.516-0.837-1.088-1.385-1.826-2.347 0.285 0.397 0.668 0.931 1.604 2.14z"/><path id="cheer-Stroke-37" d="m11.192 5.9841c0.061-0.009 0.125-0.007 0.178-0.041 0.992-0.624 1.415-1.311 1.476-1.991"/><path id="cheer-Stroke-39" d="m7.4134 16.784l-0.392 2.66"/><path id="cheer-Stroke-41" d="m10.178 16.297l1.276 2.367"/></g></g></g></g></g></svg><svg xmlns:xlink="http://www.w3.org/1999/xlink" height="26" width="36" version="1.1" viewBox="0 0 36 26" id="cheerio" y="105"><title>Cheerio</title><desc>Created with Sketch.</desc><g id="cheerio-Page-1" fill-rule="evenodd" fill="none"><g id="cheerio-Emojis" transform="translate(-608 -166)"><g id="cheerio-Black" transform="translate(134 80)"><g id="cheerio-Cheerio" transform="translate(474 86)"><path id="cheerio-Stroke-1" stroke-linejoin="round" stroke="#000" stroke-linecap="round" d="m5.42 19.739c-0.993-1.446-3.117-3.716-4.614-5.836-1.049-1.486 0.825-3.12 2.227-1.352 0.412 0.519 2.034 2.488 2.443 3.015 0.133 0.171 0.246 0.075 0.157-0.103-0.708-1.417-2.141-4.643-2.357-5.176-0.678-1.6762 1.277-3.2642 2.375-1.1342 0.71 1.3782 2.508 4.5392 2.914 5.3812 0.165 0.341 0.097 0.325 0.006-0.043-0.322-1.304-1.73-5.7942-1.939-6.5982-0.478-1.84 1.736-2.558 2.398-0.668 0.38 1.085 1.838 4.7642 2.464 6.2282 0.146 0.342 0.114 0.332 0.056-0.035-0.284-1.802-0.826-5.7872-0.977-6.6912-0.262-1.578 2.204-2.642 2.664 0.495l2.349 10.169c0.055 0.294 0.212 0.861 0.3 0.91 0.021 0.011 0.209-0.437 0.394-1.443 0.2-1.092 0.449-3.905 1.836-3.805 1.569 0.112 1.648 1.845 1.24 4.588-0.425 2.862-1.204 4.018-2.293 5.34-1.539 1.869-3.981 2.799-7.331 1.303-1.996-0.891-2.78-2.313-4.312-4.545v0z"/><path id="cheerio-Fill-3" fill="#000" d="m21.666 9.4108c-0.107 0.7622-0.811 1.2942-1.571 1.1872-0.761-0.107-1.291-0.8112-1.184-1.5742 0.107-0.762 0.81-1.294 1.571-1.187s1.291 0.812 1.184 1.574"/><path id="cheerio-Fill-5" fill="#000" d="m28.368 10.351c-0.107 0.762-0.811 1.294-1.571 1.187-0.761-0.107-1.291-0.811-1.184-1.5737 0.107-0.762 0.81-1.294 1.571-1.187s1.291 0.812 1.184 1.5737"/><path id="cheerio-Stroke-7" stroke="#000" stroke-linecap="round" d="m19.71 15.867c0.724 0.689 1.705 1.322 2.957 1.498 3.08 0.432 5.137-2.273 5.137-2.273"/><path id="cheerio-Stroke-9" stroke-linejoin="round" stroke="#000" d="m18.389 20.94c1.059 0.586 2.24 0.99 3.507 1.168 5.571 0.782 10.74-3.122 11.524-8.704 0.237-1.69 0.042-3.4215-0.563-5.0255 1.023-1.375 1.687-2.987 1.924-4.676 0.033-0.233-0.129-0.448-0.362-0.481-0.232-0.032-0.447 0.13-0.48 0.363-0.111 0.795-1.112 1.48-2.758 1.895-1.629-1.979-3.906-3.26-6.444-3.617-2.537-0.356-5.079 0.249-7.19 1.704-1.468-0.852-2.242-1.786-2.13-2.581 0.033-0.233-0.129-0.449-0.362-0.481-0.232-0.033-0.447 0.13-0.48 0.362-0.237 1.689-0.042 3.421 0.563 5.025-0.667 0.896-1.181 1.893-1.524 2.945"/></g></g></g></g></svg><svg xmlns:xlink="http://www.w3.org/1999/xlink" height="24" width="23" version="1.1" viewBox="0 0 23 24" id="disappointed" y="131"><title>Disappointed</title><desc>Created with Sketch.</desc><g id="disappointed-Page-1" fill-rule="evenodd" fill="none"><g id="disappointed-Emojis" transform="translate(-329 -168)"><g id="disappointed-Black" transform="translate(134 80)"><g id="disappointed-Disappointed" transform="translate(195 88)"><path id="disappointed-Fill-1" fill="#000" d="m9.3518 10.184c0 0.828-0.672 1.5-1.5 1.5s-1.5-0.672-1.5-1.5c0-0.8275 0.672-1.4995 1.5-1.4995s1.5 0.672 1.5 1.4995"/><path id="disappointed-Fill-3" fill="#000" d="m16.648 10.184c0 0.828-0.672 1.5-1.5 1.5s-1.5-0.672-1.5-1.5c0-0.8275 0.672-1.4995 1.5-1.4995s1.5 0.672 1.5 1.4995"/><path id="disappointed-Stroke-5" stroke="#000" stroke-linecap="round" d="m16.757 17.511s-2.017-3.19-5.37-3.19c-3.3522 0-5.1442 3.19-5.1442 3.19"/><path id="disappointed-Stroke-7" stroke-linejoin="round" stroke="#000" d="m22.5 0.9583c0-0.253-0.205-0.458-0.458-0.458s-0.459 0.205-0.459 0.458c0 0.864-0.966 1.743-2.661 2.432-2.036-1.866-4.659-2.89-7.422-2.89s-5.386 1.024-7.422 2.89c-1.695-0.689-2.661-1.568-2.661-2.432 0-0.253-0.206-0.458-0.459-0.458s-0.458 0.205-0.458 0.458c0 1.835 0.467 3.652 1.354 5.271-0.887 1.619-1.354 3.435-1.354 5.2707 0 6.065 4.934 11 11 11s11-4.935 11-11c0-1.8357-0.467-3.6517-1.354-5.2707 0.887-1.619 1.354-3.436 1.354-5.271z"/></g></g></g></g></svg><svg xmlns:xlink="http://www.w3.org/1999/xlink" height="24" width="23" version="1.1" viewBox="0 0 23 24" id="gloat" y="155"><title>Gloat</title><desc>Created with Sketch.</desc><g id="gloat-Page-1" fill-rule="evenodd" fill="none"><g id="gloat-Emojis" transform="translate(-422 -168)"><g id="gloat-Black" transform="translate(134 80)"><g id="gloat-Gloat" transform="translate(288 88)"><path id="gloat-Stroke-1" stroke="#000" d="m11.5 19.668c-3.6465 0-6.8155-2.34-7.8855-5.824-0.043-0.139-0.018-0.289 0.069-0.407 0.087-0.117 0.224-0.186 0.369-0.186h14.896c0.146 0 0.282 0.069 0.368 0.186 0.088 0.118 0.112 0.268 0.07 0.407-1.07 3.484-4.238 5.824-7.886 5.824z"/><path id="gloat-Fill-3" fill="#000" d="m9.4518 9.6751c0 0.8279-0.672 1.4999-1.5 1.4999s-1.5-0.672-1.5-1.4999c0-0.828 0.672-1.5 1.5-1.5s1.5 0.672 1.5 1.5"/><path id="gloat-Stroke-5" stroke="#000" stroke-linecap="round" d="m7.1863 6.0245l2.778 1.604"/><path id="gloat-Fill-7" fill="#000" d="m13.548 9.6751c0 0.8279 0.672 1.4999 1.5 1.4999s1.5-0.672 1.5-1.4999c0-0.828-0.672-1.5-1.5-1.5s-1.5 0.672-1.5 1.5"/><path id="gloat-Stroke-9" stroke="#000" stroke-linecap="round" d="m15.814 6.0245l-2.778 1.604"/><path id="gloat-Stroke-11" stroke-linejoin="round" stroke="#000" d="m22.5 0.9583c0-0.253-0.205-0.458-0.458-0.458s-0.459 0.205-0.459 0.458c0 0.864-0.966 1.743-2.661 2.432-2.036-1.866-4.659-2.89-7.422-2.89s-5.386 1.024-7.422 2.89c-1.695-0.689-2.661-1.568-2.661-2.432 0-0.253-0.206-0.458-0.459-0.458s-0.458 0.205-0.458 0.458c0 1.835 0.467 3.652 1.354 5.271-0.887 1.619-1.354 3.435-1.354 5.2707 0 6.065 4.934 11 11 11s11-4.935 11-11c0-1.8357-0.467-3.6517-1.354-5.2707 0.887-1.619 1.354-3.436 1.354-5.271z"/></g></g></g></g></svg><svg xmlns:xlink="http://www.w3.org/1999/xlink" height="24" width="23" version="1.1" viewBox="0 0 23 24" id="like" y="179"><title>Like</title><desc>Created with Sketch.</desc><g id="like-Page-1" fill-rule="evenodd" fill="none"><g id="like-Emojis" transform="translate(-134 -83)"><g id="like-Black" transform="translate(134 80)"><g id="like-Like" transform="translate(0 3)"><path id="like-Stroke-1" stroke-linejoin="round" stroke="#000" stroke-linecap="round" d="m11.5 19.387c-3.6465 0-6.8155-2.34-7.8855-5.824-0.043-0.139-0.018-0.289 0.069-0.407 0.087-0.117 0.224-0.186 0.369-0.186h14.896c0.146 0 0.282 0.069 0.368 0.186 0.088 0.118 0.112 0.268 0.07 0.407-1.07 3.484-4.238 5.824-7.886 5.824v0z"/><path id="like-Stroke-3" stroke-linejoin="round" stroke="#000" stroke-linecap="round" d="m22.5 0.9583c0-0.253-0.205-0.458-0.458-0.458s-0.459 0.205-0.459 0.458c0 0.864-0.966 1.743-2.661 2.432-2.036-1.866-4.659-2.89-7.422-2.89s-5.386 1.024-7.422 2.89c-1.695-0.689-2.661-1.568-2.661-2.432 0-0.253-0.206-0.458-0.459-0.458s-0.458 0.205-0.458 0.458c0 1.835 0.467 3.652 1.354 5.271-0.887 1.619-1.354 3.435-1.354 5.2707 0 6.065 4.934 11 11 11s11-4.935 11-11c0-1.8357-0.467-3.6517-1.354-5.2707 0.887-1.619 1.354-3.436 1.354-5.271v0z"/><path id="like-Fill-5" fill="#000" d="m7.8333 10.904c0.228-0.23 1.533-1.5474 2.3477-2.3694 0.73-0.737 0.715-1.811 0.051-2.478-0.6647-0.666-1.7487-0.848-2.3987 0.667-0.578-1.546-1.734-1.333-2.399-0.667-0.664 0.667-0.679 1.741 0.051 2.478 0.815 0.822 2.12 2.1394 2.348 2.3694"/><path id="like-Fill-7" fill="#000" d="m15.167 10.904c0.228-0.23 1.533-1.5474 2.348-2.3694 0.73-0.737 0.715-1.811 0.051-2.478-0.664-0.666-1.749-0.848-2.399 0.667-0.578-1.546-1.734-1.333-2.399-0.667-0.664 0.667-0.679 1.741 0.051 2.478 0.815 0.822 2.12 2.1394 2.348 2.3694"/></g></g></g></g></svg><svg xmlns:xlink="http://www.w3.org/1999/xlink" height="24" width="23" version="1.1" viewBox="0 0 23 24" id="open-mouth" y="203"><title>Open mouth</title><desc>Created with Sketch.</desc><g id="open-mouth-Page-1" fill-rule="evenodd" fill="none"><g id="open-mouth-Emojis" transform="translate(-134 -168)"><g id="open-mouth-Black" transform="translate(134 80)"><g id="open-mouth-Open-mouth" transform="translate(0 88)"><path id="open-mouth-Stroke-1" stroke-linejoin="round" stroke="#000" stroke-linecap="round" d="m22.5 0.9583c0-0.253-0.205-0.458-0.458-0.458s-0.459 0.205-0.459 0.458c0 0.864-0.966 1.743-2.661 2.432-2.036-1.866-4.659-2.89-7.422-2.89s-5.386 1.024-7.422 2.89c-1.695-0.689-2.661-1.568-2.661-2.432 0-0.253-0.206-0.458-0.459-0.458s-0.458 0.205-0.458 0.458c0 1.835 0.467 3.652 1.354 5.271-0.887 1.619-1.354 3.435-1.354 5.2707 0 6.065 4.934 11 11 11s11-4.935 11-11c0-1.8357-0.467-3.6517-1.354-5.2707 0.887-1.619 1.354-3.436 1.354-5.271v0z"/><path id="open-mouth-Fill-3" fill="#000" d="m11.29 9.8948c2.253 0 4.086 3.5292 4.086 6.3202 0 2.536-1.527 4.082-4.086 4.082-2.5592 0-4.0862-1.546-4.0862-4.082 0-2.791 1.833-6.3202 4.0862-6.3202"/><path id="open-mouth-Fill-5" fill="#000" d="m15.266 7.9796c0 0.828-0.672 1.5-1.5 1.5s-1.5-0.672-1.5-1.5 0.672-1.5 1.5-1.5 1.5 0.672 1.5 1.5"/><path id="open-mouth-Stroke-7" stroke-linejoin="round" stroke="#000" stroke-linecap="round" d="m12.199 4.6151c0.662-1.111 2.129-1.462 3.266-0.783"/><path id="open-mouth-Fill-9" fill="#000" d="m7.3132 7.9796c0 0.828 0.672 1.5 1.5 1.5s1.4998-0.672 1.4998-1.5-0.6718-1.5-1.4998-1.5-1.5 0.672-1.5 1.5"/><path id="open-mouth-Stroke-11" stroke-linejoin="round" stroke="#000" stroke-linecap="round" d="m10.465 4.6151c-0.662-1.111-2.129-1.462-3.266-0.783"/></g></g></g></g></svg><svg xmlns:xlink="http://www.w3.org/1999/xlink" height="24" width="24" version="1.1" viewBox="0 0 24 24" id="roar" y="227"><title>Roar</title><desc>Created with Sketch.</desc><g id="roar-Page-1" fill-rule="evenodd" fill="none"><g id="roar-Moods" transform="translate(-484 -950)"><g id="roar-Black-Outline" transform="translate(477 475.25)"><g id="roar-Roar" transform="translate(8 475.75)"><path id="roar-Stroke-347" stroke-linejoin="round" stroke="#000" d="m22.399 0.8466c0-0.253-0.205-0.458-0.458-0.458s-0.459 0.205-0.459 0.458c0 0.864-0.966 1.743-2.661 2.432-2.036-1.866-4.659-2.89-7.422-2.89-2.7629 0-5.3859 1.024-7.4219 2.89-1.695-0.689-2.661-1.568-2.661-2.432 0-0.253-0.206-0.458-0.459-0.458s-0.458 0.205-0.458 0.458c0 1.835 0.467 3.652 1.354 5.271-0.887 1.619-1.354 3.435-1.354 5.2714 0 6.065 4.934 11 11 11s11-4.935 11-11c0-1.8364-0.467-3.6524-1.354-5.2714 0.887-1.619 1.354-3.436 1.354-5.271z"/><path id="roar-Fill-349" fill="#000" d="m13.9 12l-1 1-1-2c-0.18 0.02-0.331 0 0 0-0.669 0-0.821 0.02-1 0l-1 2-1-1c-1.403 0.255-2 1.244-2 3 0 2.006 2.0188 4 5 4 1.981 0 4-1.994 4-4 0-1.756-0.597-2.745-2-3"/><path id="roar-Fill-351" fill="#000" d="m9.351 8.7217c0 0.828-0.672 1.5003-1.5 1.5003s-1.5-0.6723-1.5-1.5003 0.672-1.5 1.5-1.5 1.5 0.672 1.5 1.5"/><path id="roar-Stroke-353" stroke="#000" stroke-linecap="round" d="m7.0854 5.0712l2.778 1.604"/><path id="roar-Fill-355" fill="#000" d="m13.447 8.7217c0 0.828 0.672 1.5003 1.5 1.5003s1.5-0.6723 1.5-1.5003-0.672-1.5-1.5-1.5-1.5 0.672-1.5 1.5"/><path id="roar-Stroke-357" stroke="#000" stroke-linecap="round" d="m15.713 5.0712l-2.778 1.604"/></g></g></g></g></svg><svg xmlns:xlink="http://www.w3.org/1999/xlink" height="24" width="23" version="1.1" viewBox="0 0 23 24" id="stuck-out-tongue" y="251"><title>Stuck out tongue</title><desc>Created with Sketch.</desc><g id="stuck-out-tongue-Page-1" fill-rule="evenodd" fill="none"><g id="stuck-out-tongue-Emojis" transform="translate(-538 -83)"><g id="stuck-out-tongue-Black" transform="translate(134 80)"><g id="stuck-out-tongue-Stuck-out-tongue" transform="translate(404 3)"><path id="stuck-out-tongue-Fill-1" fill="#000" d="m16.592 9.0027c0 0.828-0.672 1.5003-1.5 1.5003s-1.5-0.6723-1.5-1.5003 0.672-1.5 1.5-1.5 1.5 0.672 1.5 1.5"/><g stroke="#000"><path id="stuck-out-tongue-Stroke-3" stroke-linecap="round" d="m6.2432 13.139s2.017 3.19 5.3698 3.19c3.352 0 5.144-3.19 5.144-3.19"/><path id="stuck-out-tongue-Stroke-5" d="m15.677 14.29c0.006 0.032 0.021 0.945 0.021 0.978v2.305c0 1.27-1.032 2.305-2.298 2.305-1.267 0-2.299-1.035-2.299-2.305v-1.461"/><path id="stuck-out-tongue-Stroke-7" stroke-linecap="round" d="m13.407 16.062v1.63"/><path id="stuck-out-tongue-Stroke-9" stroke-linejoin="round" d="m22.5 0.9583c0-0.253-0.205-0.458-0.458-0.458s-0.459 0.205-0.459 0.458c0 0.864-0.966 1.743-2.661 2.432-2.036-1.866-4.659-2.89-7.422-2.89s-5.386 1.024-7.422 2.89c-1.695-0.689-2.661-1.568-2.661-2.432 0-0.253-0.206-0.458-0.459-0.458s-0.458 0.205-0.458 0.458c0 1.835 0.467 3.652 1.354 5.271-0.887 1.619-1.354 3.435-1.354 5.2707 0 6.065 4.934 11 11 11s11-4.935 11-11c0-1.8357-0.467-3.6517-1.354-5.2707 0.887-1.619 1.354-3.436 1.354-5.271z"/><path id="stuck-out-tongue-Stroke-11" stroke-linecap="round" d="m4.6148 9.8917h3.818"/><path id="stuck-out-tongue-Stroke-13" stroke-linecap="round" d="m5.8297 8.2614l2.779 1.604"/></g></g></g></g></g></svg><svg xmlns:xlink="http://www.w3.org/1999/xlink" height="25" width="28" version="1.1" viewBox="0 0 28 25" id="whistle" y="275"><title>Whistle</title><desc>Created with Sketch.</desc><g id="whistle-Page-1" stroke-linejoin="round" fill-rule="evenodd" stroke-linecap="round" fill="none"><g id="whistle-Emojis" stroke="#000" transform="translate(-286 -83)"><g id="whistle-Black" transform="translate(134 80)"><g id="whistle-Whistle" transform="translate(152 3)"><path id="whistle-Stroke-1" d="m0.9114 1.2341c2.994 0.783 10.942 3.555 15.655 4.753l-0.756 2.96 2.827 0.722 0.757-2.965c0.942 0.24 0.862 0.219 0.862 0.219 4.637 1.184 7.453 5.8279 6.297 10.356-1.157 4.529-5.878 7.248-10.516 6.064-4.636-1.184-7.4716-5.833-6.3156-10.362 0.239-0.936 0.6346-1.788 1.1446-2.551l-9.9266-5.8629s-0.97-3.579-0.028-3.333z"/><path id="whistle-Stroke-3" d="m23.811 16.529c-0.792 3.103-4.028 4.966-7.205 4.155"/><path id="whistle-Stroke-5" d="m19.753 3.6315l1.265-2.373"/><path id="whistle-Stroke-7" d="m16.985 3.1585l-0.405-2.659"/></g></g></g></g></svg><svg xmlns:xlink="http://www.w3.org/1999/xlink" height="24" width="23" version="1.1" viewBox="0 0 23 24" id="winking" y="300"><title>Wink</title><desc>Created with Sketch.</desc><g id="winking-Page-1" fill-rule="evenodd" fill="none"><g id="winking-Emojis" transform="translate(-614 -83)"><g id="winking-Black" transform="translate(134 80)"><g id="winking-Wink" transform="translate(480 3)"><path id="winking-Fill-1" fill="#000" d="m16.93 8.0819c0 0.828-0.672 1.5-1.5 1.5s-1.5-0.672-1.5-1.5 0.672-1.5 1.5-1.5 1.5 0.672 1.5 1.5"/><g stroke="#000"><path id="winking-Stroke-3" d="m11.5 19.387c-3.6465 0-6.8155-2.34-7.8855-5.824-0.043-0.139-0.018-0.289 0.069-0.407 0.087-0.117 0.224-0.186 0.369-0.186h14.896c0.146 0 0.282 0.069 0.368 0.186 0.088 0.118 0.112 0.268 0.07 0.407-1.07 3.484-4.238 5.824-7.886 5.824z"/><path id="winking-Stroke-5" stroke-linecap="round" d="m5.3429 8.9569h3.818"/><path id="winking-Stroke-7" stroke-linecap="round" d="m6.5578 7.3267l2.779 1.604"/><path id="winking-Stroke-9" stroke-linejoin="round" d="m22.5 0.9583c0-0.253-0.205-0.458-0.458-0.458s-0.459 0.205-0.459 0.458c0 0.864-0.966 1.743-2.661 2.432-2.036-1.866-4.659-2.89-7.422-2.89s-5.386 1.024-7.422 2.89c-1.695-0.689-2.661-1.568-2.661-2.432 0-0.253-0.206-0.458-0.459-0.458s-0.458 0.205-0.458 0.458c0 1.835 0.467 3.652 1.354 5.271-0.887 1.619-1.354 3.435-1.354 5.2707 0 6.065 4.934 11 11 11s11-4.935 11-11c0-1.8357-0.467-3.6517-1.354-5.2707 0.887-1.619 1.354-3.436 1.354-5.271z"/></g></g></g></g></g></svg></svg>
