<?xml version="1.0" encoding="utf-8"?>
<!-- Generator: Adobe Illustrator 19.2.1, SVG Export Plug-In . SVG Version: 6.00 Build 0)  -->
<svg version="1.1" id="Layer_1" xmlns="http://www.w3.org/2000/svg" xmlns:xlink="http://www.w3.org/1999/xlink" x="0px" y="0px"
	 viewBox="0 0 168.5 225.4" style="enable-background:new 0 0 168.5 225.4;" xml:space="preserve">
<style type="text/css">
	.st0{fill:#C50101;}
</style>
<path id="red-devil" class="st0" d="M165.4,60.6l-0.1-28.5l3.1-4.9l-7.8-13.8l-7.8,13.8l3.1,4.9V47h-9V32.1l3.1-4.9l-7.8-13.8
	l-7.8,13.8l3.1,4.9V47h-9V32.1l3.1-4.9L124,13.3l-7.8,13.8l3.1,5v28.5h17.6v8.9c0,0-6.2-0.4-10.9,1.6s-10.2,4.9-12.9,5.8
	s-4,0.7-4.4-0.7s0-2.2,1.5-3.6c0.7-0.6,7.6-3.7,8.4-6c0.5-1.3-0.2-1.7-0.9-2.2c-1.6-1.3-11.8-9.1-11.8-9.1c0.8-2.7,1.3-5.4,1.6-8.2
	v-7.3c0-6.7,2.9-16.8,10-23.5h-11.8L98.7,0.3l-9.1,15.9l-8.7-0.1L72.4,0l-7.7,16h-12c0,0,5.8,8.8,8.7,13.4s9,16.7,10.1,22.4
	c0.5,2.3-0.3,4.7-2.1,6.2c-2.4,1.9-9,7.1-9,14.6s3.3,10.4,4.1,11.9s4.7,6.4,4.7,8.6c-0.1,1.7-0.5,3.4-1.2,4.9c0,0-4.6,9.8-6.1,12.2
	s-6.2,5.3-7.7-2.4s-2.5-28.8-2.2-31c0.2-2.5,0.9-4.9,1.9-7.1c1.2-2.1,6.1-10.6,8.1-15.9c0,0-13.8-1.5-19.1-33.4
	c-0.1-0.9-1.5-1.9-2.5,0.3c-0.6,1.3-1.4,2.4-2.4,3.4c-0.6,0.9-2.1,1-3.9,0.3s-3.6-1.9-5.5-2.4s-4.3-1-5.8,1.8s-4.3,9.2-5.8,12.2
	c-1.3,2.9-4.5,4.4-7.6,3.6c-3.1-0.9-6.4-2.2-7.9-2.8s-2.4,0-1.5,1.5c1.8,3.2,3.2,6.6,4.3,10.1c0.7,3,1.9,11.4,1.8,13.2
	s1,1.8,2.5,0.2s7.3-7.4,12.8-10.1s13.6-3.4,15.7,0.2s-3.5,9.3-8.1,11.6c-1.8,0.9-1.6,3.6,0.1,4s5.9,1.2,7,5.1s1.4,41.1,1.9,56.7
	s5.8,19.4,12.2,19.6s10.9,0,10.9,0c0.2,7.1-0.3,14.2-1.3,21.2c-1.8,12.9-1.8,18,2.4,23.6s7.3,10.2,7.6,13.6c0.3,3.1,0.1,6.3-0.4,9.4
	c-0.7,3.8-0.7,10.7,9.3,8.7s26.7-8.7,18.9-18.7s-11.6-18.1-10.4-20.7s6.7-4.2,9.6-7.1s3.1-6-0.2-10.2s-13.6-18.1-11.1-26.1
	c0,0,37.1,39.7,39.8,42.3s5.2,2,5.6-2.2c0.2-3.1-0.7-5.8-1.1-8.2c-0.5-3.8-0.7-7.6-0.7-11.4c0-4.5,1.6-11.6,2-14.9s-0.4-9.3-5.8-9.8
	c-2.7-0.2-6.2,0.4-6.2-2.7s1.1-7.6,1.8-10.2s0.2-3.1-1.6-4.2c-2.2-1.1-4.8-0.6-6.4,1.1c-1.6,1.8-5.6,3.6-8.2,1.8
	c0,0,3.8-10.5,9.8-16.5c0,0,16.4,5.1,22.4,11.8v66.6c0,3.9,10.7,4.4,10.7-0.2v-67.9c0,0,4.6-5.8,5.1-9.6c0.4-3.7,0.7-5.3-0.4-9.4
	c2.2-1.8,3.5-4.5,3.3-7.3c0-5.1-3.8-13.7-7.8-17.4V60.6L165.4,60.6L165.4,60.6z M80.7,35.8c-1.9,1-4.3-0.3-4.8-3.6
	c-0.3-1.9-0.8-6,0.1-6.3c0.8-0.4,3.6,2,4.9,4.1S82.6,34.8,80.7,35.8L80.7,35.8z M87.6,64.9c-2.5-4.1-4.4-8.6-5.7-13.2h11.3
	C92,56.3,90.1,60.8,87.6,64.9L87.6,64.9z M98.2,32.2c-0.6,3.3-2.9,4.6-4.8,3.6s-1.5-3.7-0.2-5.8s4.3-4.5,5.1-4.1
	C99.2,26.2,98.6,30.2,98.2,32.2z M136.9,97.1c-12.7,0-18-7.1-18-9.6c0-1.6,3.6-3.3,9.6-3.3s8.4,3.8,8.4,3.8V97.1L136.9,97.1z"/>
</svg>
